<svg width="500" height="500" viewBox="0 0 500 500" fill="none" xmlns="http://www.w3.org/2000/svg">
<path d="M479.84 358.77L471.79 240.07L461.64 228.63L447.55 174.87L435.55 163.44L433.48 143.54L422.46 134.82L417.06 94.62L408.12 97.6L405.7 114.34L395.88 118.04L384.35 157.57L369.96 165.62L358.09 204.09L342.49 214.59L295.56 360.3L479.84 358.77Z" fill="#222222"/>
<path d="M475.66 297.16L452.61 280.2L442.47 243.46L429.79 241.34L421.32 210.69L411.85 212.81L404.04 228.63L389.27 231.48L376.94 193.47L365.67 194.48L357.34 170.23L350.51 177.7L345.23 192.37L333.6 196.6L324.8 215.88L307.18 219.13L271.5 360.3L479.84 358.77L475.66 297.16Z" fill="#363636"/>
<path d="M87.53 455.09C-2.20999 403.29 -2.20999 319.29 87.53 267.49C177.27 215.69 322.74 215.68 412.47 267.49C502.2 319.3 502.21 403.29 412.47 455.09C322.73 506.89 177.26 506.9 87.53 455.09Z" fill="#222222"/>
<path d="M330.34 482.06L223.29 315.07L143.1 361.53L119.01 373.04L40.42 419.58L330.34 482.06Z" fill="#363636"/>
<path d="M457.77 457.73L382.53 340.34L326.16 373L309.23 381.09L253.98 413.81L457.77 457.73Z" fill="#363636"/>
<path d="M104.55 95.51C103.5 95.1192 102.39 94.9128 101.27 94.9C100.21 94.82 99.87 94.6 99.67 94.38C98.6518 92.9152 97.1645 91.8414 95.4536 91.3359C93.7428 90.8305 91.9107 90.9237 90.26 91.6C89.7975 90.164 88.811 88.955 87.4971 88.2137C86.1832 87.4724 84.6382 87.2533 83.17 87.6C83.29 84.29 79.07 80.74 75.28 79.94C71.49 79.14 68.47 79.49 66.4 81.88C64.17 77.54 55.47 76.32 50.76 78.61C48.05 79.93 45.76 81.29 44.63 83.77C43.8895 85.3074 43.5457 87.0057 43.63 88.71C41.79 87.09 38.11 86.65 35.63 87.6C32.99 88.6 32.79 90.6 32.63 92.6C31.0587 92.1501 29.397 92.1191 27.81 92.51C26.15 93.01 25.19 94.31 25.41 95.37C24.1 95.3 20.96 96.37 21.32 97.76C21.72 99.32 25.32 99.16 26.65 99.11C27.9131 99.0087 29.1667 98.8114 30.4 98.52C31.023 98.7576 31.6832 98.8829 32.35 98.89C34.63 98.89 35.6 97.89 35.96 97.05C37.08 99.39 41.04 101.18 43.85 101.9C49.13 103.25 56.6 102.43 59.85 98.48C60.2324 99.2234 60.7674 99.8776 61.42 100.4C62.8166 101.529 64.513 102.224 66.3 102.4C68.47 102.6 74.3 102.88 75.93 99.4C77.09 101.69 82.27 102.74 86.21 102.18C87.737 101.949 89.2224 101.497 90.62 100.84C91.4918 100.382 92.3365 99.8748 93.15 99.32C93.4638 99.1038 93.8303 98.9766 94.2107 98.9519C94.591 98.9273 94.9709 99.0061 95.31 99.18C98.0936 100.156 101.126 100.156 103.91 99.18C106.15 98.28 106.61 96.44 104.55 95.51Z" fill="#3B3838"/>
<path d="M372 110.34C370.988 109.968 369.919 109.771 368.84 109.76C367.84 109.68 367.49 109.47 367.29 109.25C366.31 107.839 364.878 106.805 363.231 106.318C361.584 105.83 359.82 105.919 358.23 106.57C357.782 105.186 356.83 104.021 355.563 103.306C354.296 102.591 352.806 102.378 351.39 102.71C351.5 99.52 347.39 96.1 343.78 95.32C340.17 94.54 337.22 94.89 335.22 97.19C333.08 93.01 324.68 91.83 320.14 94.05C317.53 95.32 315.31 96.62 314.23 99.05C313.505 100.529 313.161 102.165 313.23 103.81C311.46 102.25 307.91 101.81 305.55 102.74C303 103.74 302.8 105.65 302.68 107.6C301.168 107.162 299.566 107.134 298.04 107.52C296.43 107.99 295.51 109.25 295.73 110.27C294.46 110.2 291.43 111.27 291.78 112.57C292.17 114.08 295.62 113.92 296.92 113.88C298.136 113.78 299.343 113.59 300.53 113.31C301.132 113.535 301.768 113.653 302.41 113.66C304.61 113.66 305.54 112.71 305.9 111.89C306.97 114.15 310.79 115.89 313.5 116.56C318.59 117.87 325.79 117.07 328.92 113.27C329.292 113.986 329.81 114.616 330.44 115.12C331.788 116.205 333.427 116.866 335.15 117.02C337.24 117.22 342.84 117.49 344.42 114.16C345.54 116.37 350.54 117.38 354.33 116.84C355.804 116.621 357.239 116.19 358.59 115.56C359.428 115.113 360.243 114.622 361.03 114.09C361.33 113.878 361.683 113.752 362.05 113.728C362.417 113.703 362.784 113.78 363.11 113.95C365.795 114.9 368.725 114.9 371.41 113.95C373.56 113 374 111.24 372 110.34Z" fill="#464646"/>
<path d="M152.12 228.8C150.574 228.28 148.951 228.029 147.32 228.06C145.78 227.98 145.32 227.69 144.97 227.36C143.433 225.276 141.23 223.779 138.726 223.117C136.222 222.455 133.567 222.668 131.2 223.72C130.2 220.05 125.63 216.97 120.74 218.19C120.74 213.38 114.49 208.4 108.95 207.38C103.64 206.38 99.05 207.01 96.13 210.57C92.73 204.36 80.03 202.95 73.28 206.48C69.4 208.48 66.12 210.57 64.59 214.22C63.5742 216.481 63.1345 218.958 63.31 221.43C60.58 219.16 55.22 218.68 51.7 220.15C47.9 221.75 47.7 224.65 47.59 227.6C45.2907 227.007 42.8751 227.035 40.59 227.68C38.19 228.46 36.85 230.4 37.23 231.93C35.31 231.87 30.79 233.55 31.38 235.56C32.03 237.81 37.23 237.43 39.17 237.31C40.9996 237.116 42.8116 236.782 44.59 236.31C45.5062 236.627 46.4705 236.783 47.44 236.77C50.76 236.65 52.12 235.19 52.62 233.94C54.33 237.3 60.17 239.74 64.27 240.66C71.99 242.41 82.81 240.9 87.37 235.04C87.9548 236.101 88.7594 237.025 89.73 237.75C91.8091 239.327 94.3058 240.259 96.91 240.43C100.06 240.63 108.53 240.79 110.76 235.72C112.55 239 120.11 240.3 125.76 239.33C127.966 238.927 130.104 238.213 132.11 237.21C133.358 236.506 134.566 235.735 135.73 234.9C136.84 234.19 137.35 234.18 138.86 234.59C142.86 235.66 147.39 236.02 151.35 234.22C154.56 232.77 155.15 230.07 152.12 228.8Z" fill="#3F3D3D"/>
<path d="M359.42 283.88C358.186 283.452 356.887 283.239 355.58 283.25C354.33 283.18 353.93 282.94 353.69 282.67C352.464 280.988 350.701 279.773 348.692 279.228C346.683 278.683 344.548 278.839 342.64 279.67C342.071 278.001 340.893 276.608 339.341 275.77C337.789 274.932 335.978 274.71 334.27 275.15C334.33 271.28 329.27 267.23 324.87 266.37C320.6 265.55 316.87 266 314.53 268.85C311.84 263.85 301.64 262.6 296.19 265.39C293.05 266.99 290.4 268.62 289.14 271.55C288.305 273.36 287.933 275.35 288.06 277.34C285.88 275.49 281.57 275.06 278.73 276.23C275.66 277.48 275.47 279.82 275.37 282.23C273.527 281.728 271.583 281.728 269.74 282.23C267.8 282.84 266.74 284.39 267 285.62C265.46 285.56 261.82 286.88 262.27 288.5C262.78 290.31 266.97 290.05 268.53 289.96C270.004 289.815 271.465 289.557 272.9 289.19C273.633 289.446 274.404 289.577 275.18 289.58C277.85 289.5 278.96 288.34 279.37 287.34C280.72 290.05 285.37 292.05 288.69 292.83C294.89 294.29 303.6 293.15 307.3 288.47C307.767 289.329 308.411 290.079 309.19 290.67C310.849 291.952 312.849 292.718 314.94 292.87C317.48 293.06 324.28 293.25 326.12 289.19C327.53 291.84 333.6 292.94 338.19 292.19C339.968 291.887 341.693 291.328 343.31 290.53C344.32 289.976 345.299 289.365 346.24 288.7C346.601 288.44 347.026 288.282 347.47 288.243C347.913 288.204 348.359 288.286 348.76 288.48C351.94 289.37 355.61 289.69 358.81 288.27C361.36 287.09 361.86 284.93 359.42 283.88Z" fill="#3F3D3D"/>
<path d="M156.16 58.68C155.494 58.4333 154.79 58.3014 154.08 58.29C153.41 58.29 153.2 58.11 153.08 57.96C152.429 57.0283 151.48 56.3463 150.389 56.0264C149.298 55.7065 148.131 55.7677 147.08 56.2C146.788 55.2894 146.164 54.5222 145.332 54.0514C144.5 53.5806 143.521 53.4409 142.59 53.66C142.67 51.57 139.99 49.32 137.59 48.81C135.19 48.3 133.31 48.53 132 50C130.6 47.25 125.08 46.48 122.1 47.93C120.38 48.77 118.93 49.63 118.22 51.2C117.751 52.1709 117.527 53.2424 117.57 54.32C116.852 53.8148 116.024 53.4878 115.155 53.3661C114.285 53.2444 113.399 53.3314 112.57 53.62C110.9 54.27 110.77 55.53 110.69 56.82C109.712 56.5386 108.678 56.5179 107.69 56.76C106.69 57.08 106.03 57.9 106.17 58.57C105.34 58.57 103.35 59.2 103.58 60.08C103.81 60.96 106.1 60.97 106.95 60.94C107.751 60.8758 108.547 60.7521 109.33 60.57C109.723 60.7181 110.14 60.7959 110.56 60.8C112.01 60.8 112.62 60.17 112.85 59.63C113.56 61.12 116.07 62.25 117.85 62.71C121.19 63.56 125.92 63.04 127.98 60.54C128.225 61.0115 128.566 61.4269 128.98 61.76C129.841 62.473 130.89 62.921 132 63.05C133.37 63.18 137.06 63.35 138.1 61.17C138.83 62.62 142.1 63.28 144.61 62.93C145.575 62.7826 146.514 62.4998 147.4 62.09C147.954 61.7859 148.492 61.452 149.01 61.09C149.209 60.9529 149.441 60.8721 149.683 60.8562C149.924 60.8404 150.165 60.8901 150.38 61C152.142 61.6303 154.068 61.6303 155.83 61C157.18 60.44 157.47 59.27 156.16 58.68Z" fill="#464646"/>
<path d="M318 144.68C317.376 144.448 316.716 144.326 316.05 144.32C315.42 144.32 315.22 144.14 315.1 144.01C314.496 143.139 313.612 142.501 312.596 142.201C311.579 141.9 310.49 141.957 309.51 142.36C309.235 141.507 308.649 140.789 307.869 140.349C307.089 139.908 306.172 139.776 305.3 139.98C305.37 137.98 302.86 135.91 300.61 135.43C298.36 134.95 296.61 135.16 295.34 136.58C294.02 134 288.85 133.28 286.05 134.64C284.44 135.42 283.05 136.23 282.41 137.7C281.97 138.612 281.761 139.618 281.8 140.63C281.123 140.147 280.339 139.836 279.515 139.722C278.691 139.609 277.852 139.698 277.07 139.98C275.5 140.58 275.38 141.77 275.3 142.98C274.372 142.707 273.387 142.69 272.45 142.93C271.45 143.22 270.89 144 271.02 144.63C270.24 144.58 268.37 145.22 268.59 146.04C268.81 146.86 270.96 146.88 271.75 146.85C272.501 146.788 273.246 146.671 273.98 146.5C274.351 146.639 274.744 146.713 275.14 146.72C276.5 146.72 277.07 146.13 277.29 145.62C277.95 147.02 280.29 148.08 281.97 148.5C285.1 149.31 289.54 148.82 291.47 146.5C291.693 146.946 292.014 147.336 292.41 147.64C293.241 148.307 294.249 148.718 295.31 148.82C296.59 148.94 300.05 149.1 301.02 147.06C301.71 148.42 304.79 149.06 307.13 148.7C308.038 148.568 308.921 148.302 309.75 147.91C310.268 147.64 310.769 147.34 311.25 147.01C311.437 146.881 311.656 146.804 311.883 146.789C312.11 146.773 312.337 146.818 312.54 146.92C314.19 147.505 315.99 147.505 317.64 146.92C319 146.33 319.23 145.23 318 144.68Z" fill="#464646"/>
<path d="M63.77 178.87L62.45 174.42C58.62 174.83 53.75 174.11 50.96 168.85L50.62 168.21L58.92 163.21L59.28 163.97C59.6681 164.848 60.3774 165.544 61.2625 165.916C62.1475 166.288 63.1412 166.307 64.04 165.97C64.7211 165.825 65.3419 165.476 65.82 164.97C65.9795 164.76 66.0826 164.513 66.1194 164.252C66.1561 163.992 66.1254 163.726 66.03 163.48C65.56 161.88 63.88 161.89 60.71 162.06C60 162.06 59.25 162.13 58.47 162.15C53.99 162.15 49.17 161.38 47.32 155.15C45.84 150.15 47.8 145.82 52.72 143.3L51.4 138.84L58.79 136.66L60.11 141C64.88 140.56 68.63 142.28 70.96 146L71.37 146.65L63.37 151.55L62.99 150.82C61.99 148.82 59.99 148.98 58.51 149.42C56.77 149.94 56.06 150.76 56.39 151.88C56.84 153.4 58.22 153.41 62.51 153.23C66.8 153.05 73.39 152.89 75.51 160.02C77.01 165.12 74.92 169.52 69.75 172.2L71.07 176.67L63.77 178.87ZM63.54 172.72L64.8 177L69.2 175.69L68 171.43L68.59 171.15C71.43 169.81 75.93 166.64 74.12 160.5C72.31 154.36 66.97 154.66 62.66 154.79C58.35 154.92 55.82 155.09 55.01 152.35C54.79 151.61 54.38 149.12 58.17 148C60.68 147.25 62.76 147.79 64 149.46L69.28 146.21C67.15 143.28 63.93 142.08 59.71 142.63L59.06 142.71L57.81 138.47L53.35 139.79L54.55 144L53.95 144.27C50.66 145.79 47.09 148.82 48.79 154.59C50.26 159.59 53.71 160.53 58.45 160.49C59.2 160.49 59.93 160.44 60.63 160.4C63.73 160.23 66.63 160.08 67.5 162.91C67.6603 163.388 67.7022 163.899 67.622 164.397C67.5419 164.895 67.3422 165.366 67.04 165.77C66.3685 166.549 65.4697 167.098 64.47 167.34C63.3699 167.737 62.1689 167.755 61.057 167.393C59.945 167.031 58.9855 166.308 58.33 165.34L52.67 168.77C55.27 172.96 59.62 173.3 62.89 172.83L63.54 172.72Z" fill="#F0F0F0"/>
<path d="M442.21 356.31L440.49 352C436.7 352.77 431.77 352.49 428.49 347.5L428.1 346.89L435.92 341.11L436.36 341.83C436.831 342.666 437.604 343.291 438.52 343.577C439.436 343.863 440.427 343.789 441.29 343.37C441.958 343.147 442.543 342.729 442.97 342.17C443.108 341.945 443.186 341.688 443.199 341.424C443.211 341.16 443.156 340.897 443.04 340.66C442.42 339.1 440.75 339.27 437.6 339.73C436.89 339.83 436.14 339.94 435.37 340.03C430.9 340.47 426.01 340.12 423.6 334.03C421.65 329.13 423.22 324.67 427.9 321.7L426.17 317.37L433.35 314.51L435.08 318.85C439.81 317.98 443.71 319.35 446.38 322.85L446.85 323.47L439.34 329.09L438.9 328.39C437.7 326.54 435.74 326.84 434.3 327.39C432.61 328.06 431.97 328.95 432.4 330.03C432.99 331.51 434.4 331.4 438.64 330.82C442.88 330.24 449.47 329.49 452.23 336.42C454.23 341.37 452.51 345.96 447.6 349.11L449.33 353.45L442.21 356.31ZM441.42 350.19L443.07 354.32L447.35 352.62L445.71 348.49L446.27 348.16C448.99 346.56 453.19 342.98 450.82 337.02C448.45 331.06 443.14 331.84 438.82 332.37C434.5 332.9 432.01 333.29 430.96 330.63C430.67 329.91 430.03 327.46 433.71 325.99C436.15 324.99 438.28 325.37 439.71 326.92L444.71 323.19C442.31 320.47 438.98 319.56 434.81 320.49L434.18 320.64L432.54 316.51L428.2 318.24L429.85 322.37L429.27 322.7C426.12 324.52 422.83 327.87 425.06 333.47C426.98 338.29 430.52 338.95 435.25 338.47C436 338.39 436.73 338.28 437.42 338.18C440.5 337.73 443.42 337.31 444.51 340.06C444.715 340.523 444.805 341.029 444.77 341.535C444.735 342.04 444.577 342.529 444.31 342.96C443.712 343.799 442.866 344.429 441.89 344.76C440.822 345.249 439.621 345.369 438.477 345.101C437.333 344.833 436.31 344.192 435.57 343.28L430.23 347.22C433.23 351.17 437.59 351.11 440.81 350.34L441.42 350.19Z" fill="#E0E0E0"/>
<path d="M100.13 300.35L99.27 303.35L95.27 302.19L96.12 299.19C93.49 298.01 91.19 295.83 91.49 292.14L97.01 292.27C96.9008 293.035 97.0842 293.813 97.5235 294.449C97.9628 295.085 98.6258 295.532 99.38 295.7C100.69 296.08 101.74 295.8 102.08 294.63C102.63 292.74 100.38 291.97 98.02 290.52C95.51 288.94 93.31 286.91 94.44 283.03C95.44 279.54 98.17 278.17 101.73 278.66L102.59 275.66L106.59 276.82L105.73 279.82C108.73 281.22 110.23 283.48 110.2 286.36L104.94 286.27C105.07 284.91 104.31 283.81 102.53 283.27C100.75 282.73 100.03 283.36 99.77 284.27C99.35 285.73 100.5 286.41 103.01 287.87C105.52 289.33 109.01 291.49 107.71 295.87C106.71 299.48 103.74 300.82 100.13 300.35Z" fill="#E0E0E0"/>
<path d="M263.76 200L264.95 203.25L260.58 204.86L259.38 201.62C256.21 202.3 252.67 201.87 250.48 198.33L255.56 194.77C255.972 195.532 256.655 196.111 257.473 196.393C258.292 196.674 259.187 196.638 259.98 196.29C261.43 195.75 262.19 194.8 261.72 193.52C260.95 191.44 258.41 192.25 255.3 192.52C251.97 192.77 248.64 192.4 247.07 188.14C245.65 184.31 247.19 181.25 250.74 179.32L249.54 176.08L253.96 174.45L255.16 177.69C258.8 176.97 261.67 177.99 263.57 180.62L258.75 184C257.96 182.69 256.53 182.2 254.57 182.92C252.61 183.64 252.38 184.66 252.74 185.64C253.33 187.24 254.83 187.09 258.07 186.73C261.5 186.4 265.89 186.02 267.68 190.87C269.13 194.79 267.33 198 263.76 200Z" fill="#F0F0F0"/>
<g opacity="0.2">
<path d="M416.12 45.25C416.071 45.25 416.022 45.2401 415.976 45.2209C415.931 45.2017 415.889 45.1735 415.855 45.1381C415.82 45.1027 415.793 45.0607 415.775 45.0147C415.757 44.9686 415.749 44.9194 415.75 44.87V31.87C415.75 31.7719 415.789 31.6778 415.858 31.6084C415.928 31.539 416.022 31.5 416.12 31.5C416.217 31.5025 416.31 31.5423 416.379 31.6112C416.448 31.68 416.487 31.7727 416.49 31.87V44.87C416.49 44.9691 416.451 45.0642 416.382 45.1352C416.313 45.2062 416.219 45.2474 416.12 45.25Z" fill="#ADFA1C"/>
<path d="M409.36 102.32C409.271 102.321 409.185 102.288 409.119 102.229C409.052 102.17 409.01 102.088 409 102V89C409 88.9514 409.01 88.9033 409.028 88.8584C409.047 88.8135 409.074 88.7727 409.108 88.7384C409.143 88.704 409.184 88.6768 409.228 88.6582C409.273 88.6396 409.321 88.63 409.37 88.63C409.467 88.6325 409.56 88.6723 409.629 88.7412C409.698 88.81 409.737 88.9027 409.74 89V102C409.728 102.091 409.682 102.174 409.612 102.233C409.541 102.292 409.452 102.323 409.36 102.32Z" fill="#ADFA1C"/>
<path d="M423.63 52.27C423.567 52.2674 423.505 52.2503 423.45 52.22C423.365 52.1698 423.303 52.0885 423.277 51.9934C423.251 51.8982 423.263 51.7966 423.31 51.71L428.17 43.29C428.219 43.2038 428.3 43.1406 428.396 43.1144C428.492 43.0881 428.594 43.1009 428.68 43.15C428.766 43.1991 428.829 43.2804 428.856 43.376C428.882 43.4717 428.869 43.5738 428.82 43.66L424 52.08C423.966 52.1461 423.911 52.1998 423.845 52.2338C423.779 52.2679 423.704 52.2805 423.63 52.27Z" fill="#ADFA1C"/>
<path d="M397 90.76C396.937 90.7574 396.875 90.7403 396.82 90.71C396.735 90.6598 396.673 90.5786 396.647 90.4834C396.621 90.3882 396.633 90.2866 396.68 90.2L401.54 81.77C401.593 81.6886 401.675 81.6301 401.77 81.606C401.864 81.582 401.964 81.5941 402.05 81.64C402.093 81.6639 402.131 81.6962 402.161 81.7349C402.192 81.7737 402.214 81.8181 402.227 81.8656C402.24 81.9131 402.244 81.9627 402.237 82.0116C402.231 82.0604 402.215 82.1075 402.19 82.15L397.33 90.57C397.296 90.6272 397.248 90.6748 397.19 90.708C397.132 90.7413 397.067 90.7592 397 90.76Z" fill="#ADFA1C"/>
<path d="M429.13 62.77C429.041 62.7665 428.955 62.7307 428.89 62.6693C428.825 62.6078 428.785 62.5247 428.776 62.4356C428.767 62.3464 428.791 62.2572 428.844 62.1845C428.896 62.1117 428.973 62.0604 429.06 62.04L437.49 60.42C437.537 60.4099 437.586 60.4094 437.634 60.4186C437.681 60.4278 437.727 60.4465 437.767 60.4736C437.807 60.5006 437.841 60.5355 437.867 60.5761C437.894 60.6168 437.912 60.6623 437.92 60.71C437.938 60.8066 437.918 60.9064 437.864 60.9884C437.81 61.0705 437.726 61.1284 437.63 61.15L429.2 62.77H429.13Z" fill="#ADFA1C"/>
<path d="M387.92 73.45C387.833 73.4488 387.75 73.4171 387.684 73.3604C387.618 73.3038 387.574 73.2257 387.56 73.14C387.55 73.0927 387.549 73.0438 387.559 72.9962C387.568 72.9487 387.586 72.9035 387.614 72.8633C387.641 72.8232 387.676 72.7889 387.716 72.7626C387.757 72.7362 387.802 72.7184 387.85 72.71L396.28 71.09C396.327 71.0799 396.376 71.0794 396.424 71.0886C396.471 71.0978 396.517 71.1165 396.557 71.1436C396.597 71.1706 396.631 71.2055 396.657 71.2462C396.684 71.2868 396.702 71.3323 396.71 71.38C396.728 71.4766 396.708 71.5764 396.654 71.6584C396.6 71.7405 396.516 71.7984 396.42 71.82L388 73.44L387.92 73.45Z" fill="#ADFA1C"/>
<path d="M440.87 79.57C440.811 79.5848 440.749 79.5848 440.69 79.57L431 73.9C430.916 73.8517 430.854 73.7722 430.828 73.6787C430.801 73.5851 430.813 73.485 430.86 73.4C430.91 73.315 430.991 73.2529 431.087 73.2267C431.182 73.2006 431.283 73.2125 431.37 73.26L441.1 78.88C441.143 78.9027 441.181 78.9341 441.211 78.9722C441.241 79.0103 441.263 79.0543 441.275 79.1014C441.287 79.1484 441.29 79.1975 441.282 79.2454C441.274 79.2934 441.256 79.3392 441.23 79.38C441.195 79.4434 441.142 79.4952 441.078 79.529C441.015 79.5627 440.942 79.577 440.87 79.57Z" fill="#ADFA1C"/>
<path d="M394.34 60.65C394.278 60.6649 394.212 60.6649 394.15 60.65L384.42 55C384.34 54.9487 384.282 54.8684 384.26 54.7758C384.237 54.6833 384.251 54.5856 384.299 54.5031C384.347 54.4206 384.424 54.3597 384.516 54.3331C384.607 54.3064 384.705 54.3161 384.79 54.36L394.52 60C394.563 60.0239 394.601 60.0562 394.631 60.0949C394.662 60.1336 394.684 60.1781 394.697 60.2256C394.71 60.2731 394.714 60.3227 394.707 60.3715C394.701 60.4204 394.685 60.4675 394.66 60.51C394.622 60.5572 394.573 60.5946 394.517 60.6189C394.461 60.6433 394.401 60.654 394.34 60.65Z" fill="#ADFA1C"/>
<path d="M435.72 95.16C435.662 95.1612 435.604 95.1482 435.551 95.1221C435.499 95.0959 435.454 95.0575 435.42 95.01L427 83.66C426.965 83.6219 426.938 83.5768 426.922 83.5277C426.905 83.4786 426.899 83.4266 426.904 83.375C426.908 83.3234 426.924 83.2734 426.949 83.2282C426.975 83.183 427.009 83.1436 427.051 83.1126C427.092 83.0816 427.14 83.0597 427.191 83.0483C427.241 83.0369 427.293 83.0362 427.344 83.0463C427.395 83.0565 427.443 83.0772 427.486 83.1071C427.528 83.137 427.563 83.1755 427.59 83.22L436 94.57C436.056 94.6503 436.079 94.7492 436.065 94.8461C436.05 94.943 435.998 95.0304 435.92 95.09C435.86 95.1293 435.791 95.1533 435.72 95.16Z" fill="#ADFA1C"/>
<path d="M399.08 49.48C399.022 49.4804 398.964 49.467 398.912 49.4409C398.86 49.4149 398.815 49.3769 398.78 49.33L390.36 38C390.325 37.9619 390.298 37.9168 390.282 37.8677C390.265 37.8186 390.259 37.7666 390.264 37.715C390.268 37.6634 390.284 37.6134 390.309 37.5682C390.335 37.523 390.369 37.4836 390.411 37.4526C390.452 37.4216 390.5 37.3997 390.551 37.3883C390.601 37.3769 390.653 37.3762 390.704 37.3863C390.755 37.3965 390.803 37.4172 390.846 37.4471C390.888 37.477 390.924 37.5155 390.95 37.56L399.38 48.9C399.42 48.9562 399.444 49.0221 399.449 49.0909C399.454 49.1596 399.441 49.2284 399.41 49.2901C399.379 49.3517 399.332 49.4038 399.274 49.4408C399.216 49.4778 399.149 49.4982 399.08 49.5V49.48Z" fill="#ADFA1C"/>
<path d="M424.47 102.73C424.392 102.733 424.315 102.71 424.252 102.665C424.189 102.62 424.142 102.555 424.12 102.48L419.25 88.48C419.218 88.3859 419.225 88.2829 419.269 88.1939C419.313 88.1048 419.391 88.0368 419.485 88.005C419.579 87.9732 419.682 87.9801 419.771 88.0241C419.86 88.0682 419.928 88.1459 419.96 88.24L424.82 102.24C424.852 102.333 424.845 102.435 424.802 102.523C424.759 102.611 424.683 102.678 424.59 102.71C424.552 102.726 424.511 102.733 424.47 102.73Z" fill="#ADFA1C"/>
<path d="M406.77 44.59C406.692 44.5916 406.617 44.5681 406.554 44.523C406.49 44.478 406.444 44.4138 406.42 44.34L401.55 30.34C401.518 30.2459 401.525 30.1429 401.569 30.0538C401.613 29.9648 401.691 29.8968 401.785 29.865C401.879 29.8332 401.982 29.8401 402.071 29.8841C402.16 29.9282 402.228 30.0059 402.26 30.1L407.12 44.1C407.137 44.1459 407.145 44.1948 407.142 44.2437C407.14 44.2926 407.128 44.3406 407.106 44.3846C407.085 44.4286 407.054 44.4677 407.017 44.4996C406.98 44.5315 406.937 44.5554 406.89 44.57C406.852 44.5865 406.811 44.5933 406.77 44.59Z" fill="#ADFA1C"/>
</g>
<path d="M403 51.39L402 49.39L406.17 46.99C406.665 46.7008 407.196 46.4788 407.75 46.33L408.33 46.2C409.303 46.043 410.297 46.0701 411.26 46.28C411.61 46.36 411.96 46.45 412.32 46.57C412.696 46.6853 413.063 46.8256 413.42 46.99C413.9 47.2022 414.368 47.4426 414.82 47.71C415.31 48 415.82 48.32 416.28 48.71C416.74 49.1 417 49.25 417.35 49.55C422.53 53.92 426.6 61.71 427.64 69.2C427.71 69.71 427.76 70.2 427.8 70.72C427.87 71.4345 427.9 72.1522 427.89 72.87C427.89 73.45 427.89 74.02 427.82 74.56C427.75 75.1 427.73 75.49 427.67 75.93C427.61 76.37 427.52 76.79 427.42 77.19C427.167 78.3141 426.76 79.3977 426.21 80.41C426.1 80.61 425.98 80.8 425.86 80.98C425.365 81.7587 424.735 82.4427 424 83C423.781 83.1615 423.554 83.3116 423.32 83.45L419.38 85.72L418.51 83.9C418.28 83.9 418.04 83.79 417.81 83.72C416.849 83.4226 415.926 83.0131 415.06 82.5C414.504 82.1737 413.966 81.8164 413.45 81.43C412.748 80.9101 412.08 80.3456 411.45 79.74C406.827 75.0417 403.696 69.0822 402.45 62.61C402.26 61.6584 402.123 60.6969 402.04 59.73C401.97 58.94 401.93 58.15 401.93 57.37C401.932 56.2509 402.026 55.1338 402.21 54.03C402.39 53.1271 402.654 52.2431 403 51.39Z" fill="#ADFA1C"/>
<path opacity="0.25" d="M426.68 64.74L418.23 69.62L417.11 66.41L425.58 61.52C426.002 62.5737 426.369 63.6485 426.68 64.74Z" fill="white"/>
<path opacity="0.25" d="M406.17 47C406.665 46.7108 407.196 46.4888 407.75 46.34L408.33 46.21C409.303 46.053 410.297 46.0801 411.26 46.29L411.65 46.39L402.95 51.39L401.95 49.39L406.17 47Z" fill="white"/>
<path opacity="0.25" d="M407.08 59.35L406 58L418.69 50.7C419.09 51.1 419.49 51.52 419.87 51.95L407.08 59.35Z" fill="white"/>
<path opacity="0.25" d="M422.53 55.55L411.53 61.9L410.32 58.74L420.55 52.83C421.259 53.7001 421.92 54.6081 422.53 55.55Z" fill="white"/>
<path opacity="0.4" d="M406.17 47C406.665 46.7108 407.196 46.4888 407.75 46.34L408.33 46.21C409.303 46.053 410.297 46.0801 411.26 46.29C411.61 46.37 411.96 46.46 412.32 46.58C412.696 46.6953 413.063 46.8356 413.42 47C413.9 47.2122 414.368 47.4526 414.82 47.72C415.31 48.01 415.82 48.33 416.28 48.72C416.74 49.11 417 49.26 417.35 49.56C422.18 53.63 426.04 60.67 427.35 67.66L409.7 77.86C406.071 73.4485 403.593 68.205 402.49 62.6C402.3 61.6484 402.163 60.6869 402.08 59.72C402.01 58.93 401.97 58.14 401.97 57.36C401.972 56.2409 402.066 55.1238 402.25 54.02C402.397 53.1377 402.625 52.2707 402.93 51.43L401.93 49.43L406.17 47Z" fill="white"/>
<path opacity="0.1" d="M419.39 85.67L418.52 83.85C418.29 83.85 418.05 83.74 417.82 83.67C416.859 83.3726 415.936 82.9631 415.07 82.45C414.514 82.1237 413.976 81.7664 413.46 81.38C412.758 80.86 412.09 80.2956 411.46 79.69C410.86 79.11 410.28 78.48 409.71 77.82L427.36 67.62C427.46 68.14 427.55 68.62 427.62 69.17C427.69 69.72 427.74 70.17 427.78 70.69C427.85 71.4044 427.88 72.1222 427.87 72.84C427.87 73.42 427.87 73.99 427.8 74.53C427.73 75.07 427.71 75.46 427.65 75.9C427.59 76.34 427.5 76.76 427.4 77.16C427.147 78.2841 426.74 79.3677 426.19 80.38C426.08 80.58 425.96 80.77 425.84 80.95C425.354 81.7377 424.731 82.432 424 83C423.781 83.1615 423.554 83.3116 423.32 83.45L419.39 85.67Z" fill="black"/>
<path opacity="0.1" d="M426.21 80.38C426.1 80.58 425.98 80.77 425.86 80.95C425.368 81.7394 424.738 82.4338 424 83C423.781 83.1615 423.554 83.3117 423.32 83.45L419.38 85.72L418.51 83.9L418.45 83.16L427.19 78C426.952 78.827 426.623 79.6252 426.21 80.38Z" fill="black"/>
<path d="M397.54 59.9C397.54 60.67 397.54 61.46 397.65 62.26C397.733 63.2235 397.87 64.1817 398.06 65.13C399.307 71.6049 402.438 77.5676 407.06 82.27C407.669 82.8877 408.317 83.4656 409 84C409.52 84.3646 410.061 84.6985 410.62 85C411.482 85.51 412.402 85.9162 413.36 86.21C414.3 86.5058 415.285 86.6344 416.27 86.59C417.591 86.5318 418.863 86.0751 419.92 85.28C420.648 84.7261 421.274 84.0493 421.77 83.28C421.89 83.09 422.01 82.9 422.12 82.7C422.666 81.6893 423.073 80.6095 423.33 79.49C423.42 79.08 423.51 78.66 423.57 78.22C423.63 77.78 423.69 77.32 423.73 76.85C423.77 76.38 423.8 75.75 423.8 75.17C423.8 74.59 423.8 73.74 423.71 73.01C423.71 72.51 423.62 72.01 423.54 71.49C422.54 64 418.44 56.21 413.26 51.85C412.91 51.55 412.55 51.27 412.19 51C411.83 50.73 411.19 50.33 410.73 50C410.275 49.7325 409.804 49.4921 409.32 49.28C408.95 49.12 408.59 48.98 408.23 48.86C407.883 48.7446 407.529 48.6511 407.17 48.58C406.208 48.3652 405.213 48.3381 404.24 48.5C404.041 48.5294 403.844 48.5694 403.65 48.62C402.82 48.8482 402.042 49.2354 401.36 49.76C400.233 50.6545 399.352 51.8211 398.8 53.15C398.325 54.209 397.989 55.3249 397.8 56.47C397.618 57.604 397.531 58.7514 397.54 59.9Z" fill="#ADFA1C"/>
<path opacity="0.1" d="M397.54 59.9C397.54 60.67 397.54 61.46 397.65 62.26C397.733 63.2235 397.87 64.1817 398.06 65.13C399.307 71.6049 402.438 77.5676 407.06 82.27C407.669 82.8877 408.317 83.4656 409 84C409.52 84.3646 410.061 84.6985 410.62 85C411.482 85.51 412.402 85.9162 413.36 86.21C414.3 86.5058 415.285 86.6344 416.27 86.59C417.591 86.5318 418.863 86.0751 419.92 85.28C420.648 84.7261 421.274 84.0493 421.77 83.28C421.89 83.09 422.01 82.9 422.12 82.7C422.666 81.6893 423.073 80.6095 423.33 79.49C423.42 79.08 423.51 78.66 423.57 78.22C423.63 77.78 423.69 77.32 423.73 76.85C423.77 76.38 423.8 75.75 423.8 75.17C423.8 74.59 423.8 73.74 423.71 73.01C423.71 72.51 423.62 72.01 423.54 71.49C422.54 64 418.44 56.21 413.26 51.85C412.91 51.55 412.55 51.27 412.19 51C411.83 50.73 411.19 50.33 410.73 50C410.275 49.7325 409.804 49.4921 409.32 49.28C408.95 49.12 408.59 48.98 408.23 48.86C407.883 48.7446 407.529 48.6511 407.17 48.58C406.208 48.3652 405.213 48.3381 404.24 48.5C404.041 48.5294 403.844 48.5694 403.65 48.62C402.82 48.8482 402.042 49.2354 401.36 49.76C400.233 50.6545 399.352 51.8211 398.8 53.15C398.325 54.209 397.989 55.3249 397.8 56.47C397.618 57.604 397.531 58.7514 397.54 59.9Z" fill="white"/>
<path opacity="0.05" d="M423.29 70C423.39 70.52 423.47 71 423.54 71.55C423.61 72.1 423.67 72.55 423.71 73.07C423.77 73.8033 423.8 74.5233 423.8 75.23C423.8 75.81 423.8 76.37 423.73 76.91C423.66 77.45 423.64 77.84 423.57 78.28C423.5 78.72 423.42 79.14 423.33 79.55C423.073 80.6696 422.666 81.7493 422.12 82.76C422.01 82.96 421.89 83.15 421.77 83.34C421.274 84.1093 420.648 84.7861 419.92 85.34C418.863 86.1351 417.591 86.5918 416.27 86.65C415.285 86.6944 414.3 86.5658 413.36 86.27C412.399 85.9572 411.48 85.5308 410.62 85C410.13 84.71 409.62 84.39 409.18 84L423.29 70Z" fill="black"/>
<path opacity="0.05" d="M423.08 80.43C422.832 81.2342 422.497 82.0088 422.08 82.74C421.97 82.94 421.85 83.13 421.73 83.32C421.234 84.0893 420.608 84.7661 419.88 85.32C419.033 85.9561 418.045 86.3781 417 86.55L423.08 80.43Z" fill="black"/>
<path opacity="0.15" d="M421.49 63.88C421.91 64.94 422.28 66.02 422.59 67.1L407.23 82.46L407.03 82.27C406.366 81.6365 405.735 80.9689 405.14 80.27L421.49 63.88Z" fill="white"/>
<path opacity="0.15" d="M416.47 55.19C417.189 56.0605 417.857 56.9721 418.47 57.92L401.57 74.83C401.02 73.83 400.57 72.73 400.07 71.64L416.47 55.19Z" fill="white"/>
<path opacity="0.15" d="M414.55 53.07C414.96 53.47 415.36 53.89 415.74 54.33L399.58 70.5C399.353 69.8933 399.143 69.2833 398.95 68.67L414.55 53.07Z" fill="white"/>
<path opacity="0.15" d="M397.58 58.73C397.58 58.42 397.58 58.11 397.65 57.81V57.51C397.65 57.41 397.65 57.31 397.65 57.21C397.65 57.11 397.71 56.76 397.75 56.55C397.939 55.4049 398.275 54.289 398.75 53.23C399.302 51.9011 400.183 50.7345 401.31 49.84C401.992 49.3154 402.77 48.9282 403.6 48.7C403.794 48.6495 403.991 48.6094 404.19 48.58C405.163 48.4181 406.158 48.4452 407.12 48.66L407.51 48.75L397.58 58.73Z" fill="white"/>
<path d="M400.89 61.91C400.89 68.82 404.89 76.79 410.02 80.19L410.67 80.6C416.08 83.72 420.45 80.41 420.45 73.2C420.45 65.99 416.08 57.63 410.67 54.51C410.45 54.38 410.23 54.27 410.02 54.16C404.92 51.67 400.89 55 400.89 61.91Z" fill="#ADFA1C"/>
<path opacity="0.4" d="M400.89 61.91C400.89 68.82 404.89 76.79 410.02 80.19L410.67 80.6C416.08 83.72 420.45 80.41 420.45 73.2C420.45 65.99 416.08 57.63 410.67 54.51C410.45 54.38 410.23 54.27 410.02 54.16C404.92 51.67 400.89 55 400.89 61.91Z" fill="black"/>
<path d="M401.32 62.16C401.32 62.38 401.32 62.6 401.32 62.83C401.57 69.27 405.32 76.49 410.03 79.63L410.15 79.71L410.65 80.02C411.553 80.5596 412.551 80.9227 413.59 81.09C414.617 81.2413 415.665 81.0694 416.59 80.5982C417.514 80.1269 418.269 79.3796 418.75 78.46C419.506 77.0898 419.933 75.5632 420 74C420 73.66 420 73.31 420 73C420 72.69 420 72.34 420 72C419.959 71.2895 419.879 70.5817 419.76 69.88C418.934 64.894 416.533 60.3034 412.91 56.78C412.442 56.3522 411.944 55.9579 411.42 55.6C411.18 55.44 410.93 55.28 410.68 55.14L410.06 54.81L409.88 54.72C408.691 54.11 407.339 53.8962 406.02 54.11C404.02 54.49 402.53 56.06 401.81 58.56C401.479 59.7311 401.314 60.943 401.32 62.16Z" fill="#ADFA1C"/>
<path opacity="0.5" d="M401.32 62.16C401.32 62.38 401.32 62.6 401.32 62.83C401.57 69.27 405.32 76.49 410.03 79.63L410.15 79.71L410.65 80.02C411.553 80.5596 412.551 80.9227 413.59 81.09C414.617 81.2413 415.665 81.0694 416.59 80.5982C417.514 80.1269 418.269 79.3796 418.75 78.46C419.506 77.0898 419.933 75.5632 420 74C420 73.66 420 73.31 420 73C420 72.69 420 72.34 420 72C419.959 71.2895 419.879 70.5817 419.76 69.88C418.934 64.894 416.533 60.3034 412.91 56.78C412.442 56.3522 411.944 55.9579 411.42 55.6C411.18 55.44 410.93 55.28 410.68 55.14L410.06 54.81L409.88 54.72C408.691 54.11 407.339 53.8962 406.02 54.11C404.02 54.49 402.53 56.06 401.81 58.56C401.479 59.7311 401.314 60.943 401.32 62.16Z" fill="black"/>
<path d="M402.89 61.93C402.89 61.7 402.89 61.48 402.89 61.26C402.873 60.0272 403.031 58.7982 403.36 57.61C403.685 56.3134 404.38 55.1391 405.36 54.23C405.572 54.1569 405.789 54.1001 406.01 54.06C407.329 53.8462 408.681 54.06 409.87 54.67L410.05 54.76L410.67 55.09C410.92 55.23 411.17 55.39 411.41 55.55C411.934 55.9079 412.432 56.3022 412.9 56.73C416.523 60.2534 418.924 64.844 419.75 69.83C419.874 70.5481 419.958 71.2725 420 72C420 72.34 420 72.67 420 73C420 73.33 420 73.71 420 74C419.946 75.56 419.532 77.0864 418.79 78.46C418.466 79.0418 418.043 79.5628 417.54 80C416.775 80.259 415.959 80.331 415.16 80.21C414.12 80.0511 413.122 79.6911 412.22 79.15L411.72 78.84L411.6 78.75C406.89 75.59 403.14 68.37 402.89 61.93Z" fill="#ADFA1C"/>
<path opacity="0.25" d="M402.89 61.93C402.89 61.7 402.89 61.48 402.89 61.26C402.873 60.0272 403.031 58.7982 403.36 57.61C403.685 56.3134 404.38 55.1391 405.36 54.23C405.572 54.1569 405.789 54.1001 406.01 54.06C407.329 53.8462 408.681 54.06 409.87 54.67L410.05 54.76L410.67 55.09C410.92 55.23 411.17 55.39 411.41 55.55C411.934 55.9079 412.432 56.3022 412.9 56.73C416.523 60.2534 418.924 64.844 419.75 69.83C419.874 70.5481 419.958 71.2725 420 72C420 72.34 420 72.67 420 73C420 73.33 420 73.71 420 74C419.946 75.56 419.532 77.0864 418.79 78.46C418.466 79.0418 418.043 79.5628 417.54 80C416.775 80.259 415.959 80.331 415.16 80.21C414.12 80.0511 413.122 79.6911 412.22 79.15L411.72 78.84L411.6 78.75C406.89 75.59 403.14 68.37 402.89 61.93Z" fill="black"/>
<path d="M404.24 48.58C409.89 47.94 414.48 52.58 417.55 56.82C421.98 63.35 424.79 71.62 423.25 79.53C422.843 81.7922 421.662 83.8425 419.91 85.33C421.715 83.8736 422.947 81.8266 423.39 79.55C424.8 73.08 423.03 66.28 420.07 60.49C416.91 54.75 411.53 47.8 404.24 48.58Z" fill="#F5F5F5"/>
<path d="M417.66 73C417.586 71.8964 417.288 70.8195 416.782 69.8357C416.276 68.8519 415.575 67.9822 414.72 67.28L415.46 67.47L417.6 66.23C417.505 65.7675 417.374 65.3128 417.21 64.87C416.935 64.1174 416.562 63.4045 416.1 62.75C415.354 61.6889 414.427 60.768 413.36 60.03L413.28 57.81L410.64 56.28L408.5 57.52V58.08V58.2C408.319 58.2611 408.144 58.3415 407.98 58.44L407.82 58.55C407.57 58.73 406.34 59.38 405.82 59.67L405.66 59.78C405.333 60.09 405.087 60.4755 404.944 60.9027C404.801 61.3299 404.766 61.7857 404.84 62.23C404.91 63.4663 405.311 64.6612 406 65.69C406.05 65.78 406.11 65.86 406.16 65.94L406.34 66.2L406.5 66.41L406.57 66.5L406.7 66.67C407.062 67.1345 407.449 67.5785 407.86 68L408.42 68.51L407.42 68.26L405.28 69.5C405.888 71.839 407.305 73.8869 409.28 75.28L409.36 77.49L412.03 78.97L414.17 77.73V77.04C414.322 77.0028 414.467 76.942 414.6 76.86C414.92 76.65 416.35 75.86 416.72 75.64C417.4 75.18 417.71 74.35 417.66 73Z" fill="#ADFA1C"/>
<path opacity="0.15" d="M406 59.66C406.55 59.34 407.64 58.76 407.88 58.59L408.04 58.48C408.203 58.3797 408.378 58.2991 408.56 58.24L408.62 59.83C408.239 59.5677 407.795 59.4135 407.333 59.3835C406.872 59.3536 406.411 59.4491 406 59.66Z" fill="black"/>
<path opacity="0.45" d="M412 72.56C412 73.22 411.64 73.56 410.53 72.95C410.011 72.6797 409.557 72.2987 409.201 71.8339C408.845 71.3691 408.596 70.8318 408.47 70.26L405.27 69.46L407.41 68.23L408.41 68.47H408.46L409.34 69.22L409.67 69.5C410.317 69.9859 410.913 70.5353 411.45 71.14C411.675 71.3922 411.845 71.6885 411.95 72.01C411.991 72.1903 412.008 72.3753 412 72.56Z" fill="black"/>
<path opacity="0.2" d="M414.2 77V77.68L412.06 78.91L411.98 76.71C412.672 77.0355 413.448 77.1369 414.2 77Z" fill="black"/>
<path opacity="0.15" d="M411.14 59.09L408.5 57.56L410.64 56.32L413.29 57.85L413.36 60.06C414.424 60.8052 415.351 61.7288 416.1 62.79C416.561 63.4465 416.938 64.1588 417.22 64.91C417.376 65.3546 417.503 65.8089 417.6 66.27L415.46 67.51C415.369 67.0442 415.242 66.5861 415.08 66.14C414.814 65.3831 414.451 64.6638 414 64C413.252 62.9444 412.328 62.0244 411.27 61.28L411.14 59.09Z" fill="black"/>
<path opacity="0.2" d="M413.36 60.06C414.279 60.5734 415.096 61.2513 415.77 62.06C416.448 62.8787 416.943 63.8336 417.22 64.86C416.763 63.9246 416.2 63.0454 415.54 62.24C415.228 61.8356 414.894 61.4484 414.54 61.08C414.14 60.76 413.75 60.42 413.36 60.06Z" fill="black"/>
<path opacity="0.35" d="M416.78 75.58C416.41 75.81 414.98 76.58 414.66 76.81C415.27 76.41 415.59 75.59 415.54 74.28C415.43 71.37 413.69 69.47 411.85 67.88C410.01 66.29 408.62 65.49 408.56 64.08C408.56 63.2 409.1 63.08 409.98 63.6C410.53 63.9162 411.004 64.3484 411.371 64.8664C411.737 65.3845 411.986 65.976 412.1 66.6L414.73 67.27C415.582 67.9765 416.282 68.8486 416.788 69.8335C417.293 70.8184 417.593 71.8957 417.67 73C417.766 73.4703 417.735 73.9579 417.578 74.4118C417.421 74.8656 417.146 75.2691 416.78 75.58Z" fill="black"/>
<path d="M410.64 69.02L408.51 70.26L405.31 69.46L407.45 68.22L410.64 69.02Z" fill="#ADFA1C"/>
<path opacity="0.15" d="M410.64 69.02L408.51 70.26L405.31 69.46L407.45 68.22L410.64 69.02Z" fill="black"/>
<path d="M412.09 78.93L412.01 76.71L414.2 77L414.23 77.69L412.09 78.93Z" fill="#ADFA1C"/>
<path opacity="0.45" d="M412.09 78.93L412.01 76.71L414.2 77L414.23 77.69L412.09 78.93Z" fill="black"/>
<path d="M408.52 58.12L408.58 59.83C408.183 59.5573 407.718 59.4014 407.237 59.3802C406.756 59.359 406.279 59.4733 405.86 59.71L405.7 59.82C405.373 60.13 405.127 60.5155 404.984 60.9427C404.841 61.3699 404.806 61.8257 404.88 62.27C404.945 63.4888 405.332 64.6687 406 65.69C406.05 65.78 406.11 65.86 406.16 65.94L406.34 66.2L406.5 66.41L406.57 66.5L406.7 66.67C407.062 67.1345 407.449 67.5785 407.86 68C408.06 68.19 408.26 68.38 408.47 68.55C408.68 68.72 409.07 69.07 409.35 69.31L409.69 69.59C410.332 70.0813 410.928 70.6302 411.47 71.23C411.691 71.4836 411.858 71.7797 411.96 72.1C412.006 72.2596 412.033 72.4241 412.04 72.59C412.04 73.26 411.68 73.59 410.57 72.98C410.047 72.7176 409.59 72.3402 409.233 71.8761C408.876 71.412 408.629 70.8732 408.51 70.3L405.31 69.5C405.918 71.839 407.335 73.8869 409.31 75.28L409.39 77.49L412.06 78.97L412 76.71C412.4 76.9255 412.843 77.0474 413.297 77.0664C413.751 77.0855 414.203 77.0012 414.62 76.82C415.23 76.42 415.55 75.6 415.5 74.29C415.39 71.38 413.65 69.48 411.81 67.89C409.97 66.3 408.58 65.5 408.52 64.09C408.52 63.21 409.07 63.09 409.94 63.62C410.491 63.9346 410.967 64.3663 411.333 64.8847C411.699 65.403 411.947 65.9954 412.06 66.62L415.43 67.49C415.333 67.0256 415.206 66.568 415.05 66.12C414.79 65.3722 414.437 64.66 414 64C413.248 62.9439 412.322 62.024 411.26 61.28L411.18 59.06L408.53 57.54L408.52 58.12Z" fill="#ADFA1C"/>
<path opacity="0.1" d="M408.52 58.12L408.58 59.83C408.183 59.5573 407.718 59.4014 407.237 59.3802C406.756 59.359 406.279 59.4733 405.86 59.71L405.7 59.82C405.373 60.13 405.127 60.5155 404.984 60.9427C404.841 61.3699 404.806 61.8257 404.88 62.27C404.945 63.4888 405.332 64.6687 406 65.69C406.05 65.78 406.11 65.86 406.16 65.94L406.34 66.2L406.5 66.41L406.57 66.5L406.7 66.67C407.062 67.1345 407.449 67.5785 407.86 68C408.06 68.19 408.26 68.38 408.47 68.55C408.68 68.72 409.07 69.07 409.35 69.31L409.69 69.59C410.332 70.0813 410.928 70.6302 411.47 71.23C411.691 71.4836 411.858 71.7797 411.96 72.1C412.006 72.2596 412.033 72.4241 412.04 72.59C412.04 73.26 411.68 73.59 410.57 72.98C410.047 72.7176 409.59 72.3402 409.233 71.8761C408.876 71.412 408.629 70.8732 408.51 70.3L405.31 69.5C405.918 71.839 407.335 73.8869 409.31 75.28L409.39 77.49L412.06 78.97L412 76.71C412.4 76.9255 412.843 77.0474 413.297 77.0664C413.751 77.0855 414.203 77.0012 414.62 76.82C415.23 76.42 415.55 75.6 415.5 74.29C415.39 71.38 413.65 69.48 411.81 67.89C409.97 66.3 408.58 65.5 408.52 64.09C408.52 63.21 409.07 63.09 409.94 63.62C410.491 63.9346 410.967 64.3663 411.333 64.8847C411.699 65.403 411.947 65.9954 412.06 66.62L415.43 67.49C415.333 67.0256 415.206 66.568 415.05 66.12C414.79 65.3722 414.437 64.66 414 64C413.248 62.9439 412.322 62.024 411.26 61.28L411.18 59.06L408.53 57.54L408.52 58.12Z" fill="white"/>
<path d="M415.53 74.28C415.452 73.2291 415.152 72.2067 414.65 71.28C414.118 70.3534 413.443 69.5165 412.65 68.8C411.9 68.05 411.06 67.4 410.24 66.71C409.828 66.3667 409.447 65.9886 409.1 65.58C408.749 65.1711 408.541 64.6582 408.51 64.12C408.566 64.6516 408.794 65.1502 409.16 65.54C409.517 65.9304 409.905 66.2916 410.32 66.62C411.15 67.29 411.99 67.94 412.76 68.69C413.559 69.4238 414.234 70.2814 414.76 71.23C415.004 71.7077 415.195 72.2107 415.33 72.73C415.444 73.2394 415.511 73.7583 415.53 74.28Z" fill="white"/>
<path d="M411.15 59.09L413.28 57.85L413.36 60.06L411.23 61.3L411.15 59.09Z" fill="#ADFA1C"/>
<path opacity="0.35" d="M411.15 59.09L413.28 57.85L413.36 60.06L411.23 61.3L411.15 59.09Z" fill="black"/>
<path d="M408.5 57.56L410.9 59.21L411.23 61.3L411.15 59.09L408.5 57.56Z" fill="#FAFAFA"/>
<path d="M409.34 75.24L409.64 77.31L412.09 78.93L409.42 77.45L409.34 75.24Z" fill="#FAFAFA"/>
<path opacity="0.15" d="M405.31 69.46C405.414 69.8646 405.545 70.2621 405.7 70.65L406.58 69.78L405.31 69.46Z" fill="white"/>
<path opacity="0.15" d="M415.52 74.18C415.469 73.0104 415.125 71.8723 414.52 70.87L409.37 76L409.42 77.44L411.24 78.44L412.04 77.63V76.69C412.279 76.791 412.527 76.8713 412.78 76.93L415.52 74.18Z" fill="white"/>
<path opacity="0.15" d="M404.91 62.71C404.978 63.3814 405.147 64.0388 405.41 64.66L411.05 59L409.49 58.1L408.55 59.04V59.8C408.386 59.6926 408.212 59.6021 408.03 59.53L404.91 62.71Z" fill="white"/>
<path opacity="0.15" d="M406.13 66L406.31 66.26L406.47 66.47L406.54 66.56L406.67 66.73C407.043 67.1748 407.44 67.5987 407.86 68L408.14 68.25L410 66.35C409.614 66.0935 409.285 65.7591 409.035 65.3682C408.786 64.9773 408.62 64.5385 408.55 64.08C408.55 63.2 409.1 63.08 409.97 63.61C410.558 63.9459 411.054 64.4238 411.41 65L413.24 63.16C412.643 62.4834 411.973 61.8763 411.24 61.35V60.51L406 65.7L406.15 65.94L406.13 66Z" fill="white"/>
<path d="M418.07 55.52L418.32 52.22L418.58 55.52L421.87 55.77L418.58 56.02L418.32 59.31L418.07 56.02L414.78 55.77L418.07 55.52Z" fill="white"/>
<path d="M420.66 58.22L420.78 56.62L420.9 58.22L422.5 58.34L420.9 58.46L420.78 60.06L420.66 58.46L419.06 58.34L420.66 58.22Z" fill="white"/>
<path d="M314.23 355.14C314.034 355.138 313.843 355.079 313.68 354.97L311.18 353.33C311.07 353.258 310.975 353.166 310.9 353.057C310.825 352.949 310.773 352.827 310.746 352.699C310.718 352.57 310.716 352.437 310.74 352.308C310.764 352.179 310.813 352.055 310.885 351.945C310.957 351.835 311.049 351.74 311.157 351.665C311.266 351.591 311.388 351.538 311.516 351.511C311.645 351.483 311.778 351.481 311.907 351.505C312.036 351.529 312.16 351.578 312.27 351.65L314.79 353.3C314.973 353.418 315.112 353.592 315.187 353.796C315.261 354 315.268 354.223 315.204 354.431C315.141 354.639 315.012 354.821 314.836 354.949C314.66 355.077 314.447 355.144 314.23 355.14Z" fill="#555555"/>
<path d="M306.42 350.19C306.241 350.187 306.065 350.139 305.91 350.05C304.1 348.96 302.29 347.92 300.53 346.95C300.415 346.884 300.314 346.797 300.233 346.692C300.152 346.587 300.093 346.468 300.058 346.34C300.023 346.212 300.014 346.079 300.03 345.948C300.047 345.817 300.089 345.69 300.155 345.575C300.221 345.46 300.308 345.359 300.413 345.278C300.518 345.197 300.637 345.138 300.765 345.103C300.893 345.068 301.026 345.059 301.157 345.075C301.288 345.092 301.415 345.134 301.53 345.2C303.32 346.2 305.15 347.2 306.98 348.33C307.169 348.442 307.316 348.614 307.398 348.818C307.48 349.022 307.492 349.247 307.433 349.459C307.374 349.671 307.246 349.858 307.07 349.99C306.894 350.122 306.68 350.192 306.46 350.19H306.42ZM295.48 344.19C295.327 344.188 295.176 344.15 295.04 344.08C293.16 343.15 291.27 342.28 289.42 341.47C289.289 341.426 289.169 341.355 289.066 341.262C288.964 341.169 288.882 341.056 288.826 340.929C288.77 340.803 288.74 340.666 288.74 340.528C288.739 340.39 288.767 340.253 288.821 340.126C288.876 339.999 288.957 339.885 289.058 339.791C289.159 339.697 289.279 339.624 289.409 339.579C289.54 339.533 289.678 339.515 289.816 339.525C289.954 339.536 290.088 339.575 290.21 339.64C292.09 340.45 294.01 341.35 295.92 342.29C296.124 342.389 296.288 342.554 296.386 342.759C296.484 342.963 296.509 343.195 296.458 343.416C296.407 343.636 296.283 343.833 296.105 343.974C295.927 344.115 295.707 344.191 295.48 344.19ZM284.02 339.19C283.904 339.19 283.789 339.17 283.68 339.13C281.73 338.41 279.75 337.75 277.82 337.13C277.685 337.101 277.557 337.045 277.444 336.965C277.332 336.884 277.237 336.781 277.167 336.663C277.096 336.544 277.051 336.412 277.034 336.274C277.017 336.137 277.028 335.998 277.068 335.866C277.108 335.733 277.174 335.61 277.264 335.505C277.353 335.399 277.463 335.314 277.587 335.253C277.712 335.192 277.847 335.158 277.985 335.152C278.123 335.147 278.261 335.17 278.39 335.22C280.39 335.81 282.39 336.49 284.39 337.22C284.612 337.3 284.798 337.457 284.916 337.661C285.033 337.866 285.075 338.105 285.033 338.338C284.991 338.57 284.868 338.78 284.687 338.93C284.505 339.081 284.276 339.162 284.04 339.16L284.02 339.19ZM272.07 335.59H271.84C269.84 335.12 267.84 334.72 265.78 334.38C265.515 334.336 265.278 334.189 265.121 333.97C264.965 333.752 264.901 333.48 264.945 333.215C264.989 332.95 265.136 332.713 265.355 332.556C265.573 332.4 265.845 332.336 266.11 332.38C268.18 332.72 270.26 333.13 272.3 333.61C272.565 333.64 272.807 333.775 272.973 333.984C273.139 334.193 273.216 334.46 273.185 334.725C273.155 334.99 273.02 335.232 272.811 335.398C272.602 335.564 272.335 335.64 272.07 335.61V335.59ZM228.63 334.59C228.499 334.599 228.367 334.581 228.242 334.539C228.118 334.496 228.003 334.43 227.904 334.343C227.805 334.256 227.724 334.151 227.666 334.033C227.608 333.915 227.574 333.786 227.565 333.655C227.556 333.524 227.574 333.392 227.616 333.267C227.659 333.143 227.725 333.028 227.812 332.929C227.899 332.83 228.004 332.749 228.122 332.691C228.24 332.633 228.369 332.599 228.5 332.59C230.62 332.29 232.72 332.04 234.73 331.83C234.995 331.802 235.261 331.881 235.468 332.049C235.675 332.216 235.807 332.46 235.835 332.725C235.863 332.99 235.784 333.256 235.616 333.463C235.449 333.67 235.205 333.802 234.94 333.83C232.94 334.03 230.88 334.29 228.77 334.58L228.63 334.59ZM259.76 333.59H259.66C257.66 333.39 255.56 333.24 253.49 333.16C253.225 333.16 252.97 333.055 252.783 332.867C252.595 332.68 252.49 332.425 252.49 332.16C252.49 331.895 252.595 331.64 252.783 331.453C252.97 331.265 253.225 331.16 253.49 331.16C255.6 331.24 257.72 331.39 259.78 331.6C260.045 331.613 260.294 331.731 260.472 331.928C260.651 332.125 260.743 332.385 260.73 332.65C260.717 332.915 260.599 333.164 260.402 333.342C260.205 333.521 259.945 333.613 259.68 333.6L259.76 333.59ZM241.05 333.32C240.919 333.324 240.788 333.302 240.665 333.255C240.542 333.209 240.43 333.138 240.334 333.048C240.238 332.958 240.162 332.85 240.108 332.73C240.054 332.611 240.024 332.481 240.02 332.35C240.016 332.219 240.038 332.088 240.085 331.965C240.131 331.842 240.202 331.73 240.292 331.634C240.382 331.538 240.49 331.461 240.61 331.408C240.729 331.354 240.859 331.324 240.99 331.32C243.12 331.18 245.23 331.1 247.28 331.07C247.545 331.07 247.8 331.175 247.987 331.363C248.175 331.55 248.28 331.805 248.28 332.07C248.28 332.335 248.175 332.59 247.987 332.777C247.8 332.965 247.545 333.07 247.28 333.07C245.28 333.07 243.18 333.18 241.09 333.31L241.05 333.32Z" fill="#555555"/>
<path d="M219.48 336.07C219.215 336.094 218.951 336.011 218.747 335.841C218.542 335.67 218.414 335.425 218.39 335.16C218.366 334.895 218.449 334.631 218.619 334.427C218.79 334.222 219.035 334.094 219.3 334.07L222.3 333.55C222.565 333.506 222.837 333.57 223.055 333.726C223.274 333.883 223.421 334.12 223.465 334.385C223.509 334.65 223.445 334.922 223.289 335.14C223.132 335.359 222.895 335.506 222.63 335.55L219.68 336.06L219.48 336.07Z" fill="#555555"/>
<path d="M457.77 436.73L326.16 352L322.57 366.98L457.77 436.73Z" fill="#676767"/>
<path d="M349.43 366.98L349.77 381.29L322.57 366.98L326.16 352L349.43 366.98Z" fill="#4B4B4B"/>
<path d="M326.16 352L322.57 366.98L323.47 367.44L327.25 352H326.16Z" fill="#555555"/>
<path d="M253.98 392.81L457.77 436.73L309.23 360.09L253.98 392.81Z" fill="#777777"/>
<path d="M253.98 392.81L337.14 374.49L309.23 360.09L253.98 392.81Z" fill="#4B4B4B"/>
<path d="M309.25 361L452.14 434.72L256.14 392.47L309.25 361ZM309.25 360.1L254 392.81L457.79 436.73L309.23 360.09L309.25 360.1Z" fill="#555555"/>
<path d="M457.77 436.73L326.16 352L382.53 319.34L457.77 436.73Z" fill="#777777"/>
<path d="M349.43 366.98L382.53 319.34L326.16 352L349.43 366.98Z" fill="#4B4B4B"/>
<path d="M382.27 320.4L455.16 434.11L327.67 352L382.27 320.36M382.53 319.3L326.16 352L457.77 436.73L382.53 319.34V319.3Z" fill="#555555"/>
<path d="M130.07 348.3C129.874 348.298 129.683 348.239 129.52 348.13L127.02 346.49C126.91 346.418 126.815 346.326 126.74 346.217C126.665 346.109 126.613 345.987 126.586 345.859C126.558 345.73 126.556 345.597 126.58 345.468C126.604 345.339 126.653 345.215 126.725 345.105C126.797 344.995 126.889 344.9 126.997 344.825C127.106 344.751 127.228 344.698 127.356 344.671C127.485 344.643 127.618 344.641 127.747 344.665C127.876 344.689 128 344.738 128.11 344.81C128.94 345.35 129.78 345.9 130.63 346.47C130.849 346.617 131.002 346.844 131.054 347.102C131.107 347.361 131.055 347.63 130.91 347.85C130.818 347.989 130.694 348.103 130.547 348.181C130.4 348.26 130.236 348.301 130.07 348.3Z" fill="#555555"/>
<path d="M122.27 343.35C122.088 343.348 121.909 343.3 121.75 343.21C119.94 342.12 118.13 341.08 116.37 340.11C116.138 339.977 115.968 339.758 115.898 339.5C115.827 339.242 115.862 338.967 115.995 338.735C116.128 338.503 116.347 338.333 116.605 338.263C116.863 338.192 117.138 338.227 117.37 338.36C119.15 339.36 120.98 340.36 122.81 341.49C123.036 341.627 123.199 341.848 123.263 342.105C123.327 342.362 123.286 342.633 123.15 342.86C123.06 343.012 122.931 343.138 122.776 343.224C122.622 343.31 122.447 343.353 122.27 343.35ZM111.27 337.35C111.117 337.348 110.966 337.31 110.83 337.24C108.95 336.31 107.06 335.44 105.21 334.63C104.968 334.525 104.777 334.328 104.68 334.082C104.583 333.837 104.586 333.563 104.69 333.32C104.742 333.199 104.818 333.089 104.913 332.998C105.007 332.906 105.119 332.834 105.242 332.785C105.365 332.737 105.496 332.713 105.627 332.716C105.759 332.718 105.889 332.747 106.01 332.8C107.88 333.61 109.81 334.51 111.71 335.45C111.828 335.508 111.934 335.588 112.021 335.687C112.109 335.785 112.176 335.9 112.218 336.024C112.261 336.149 112.279 336.281 112.27 336.412C112.262 336.543 112.228 336.672 112.17 336.79C112.091 336.951 111.971 337.088 111.822 337.186C111.672 337.285 111.499 337.341 111.32 337.35H111.27ZM99.81 332.35C99.694 332.35 99.579 332.33 99.47 332.29C97.47 331.57 95.55 330.91 93.61 330.29C93.4771 330.259 93.3521 330.2 93.2426 330.119C93.1331 330.037 93.0415 329.934 92.9735 329.815C92.9054 329.697 92.8623 329.566 92.8469 329.43C92.8314 329.294 92.8439 329.157 92.8836 329.026C92.9233 328.896 92.9893 328.775 93.0776 328.67C93.1659 328.566 93.2746 328.481 93.397 328.421C93.5194 328.36 93.6529 328.325 93.7893 328.318C93.9257 328.311 94.0621 328.332 94.19 328.38C96.19 328.97 98.19 329.65 100.19 330.38C100.412 330.46 100.598 330.617 100.716 330.821C100.833 331.026 100.875 331.265 100.833 331.498C100.791 331.73 100.669 331.94 100.487 332.09C100.305 332.241 100.076 332.322 99.84 332.32L99.81 332.35ZM87.81 328.75H87.59C85.59 328.28 83.59 327.88 81.53 327.54C81.3987 327.519 81.2728 327.472 81.1595 327.403C81.0462 327.333 80.9478 327.242 80.8698 327.134C80.7918 327.026 80.7357 326.904 80.7049 326.775C80.674 326.646 80.669 326.511 80.69 326.38C80.711 326.249 80.7577 326.123 80.8274 326.009C80.897 325.896 80.9883 325.798 81.096 325.72C81.2038 325.642 81.3258 325.586 81.4551 325.555C81.5845 325.524 81.7187 325.519 81.85 325.54C83.92 325.88 86 326.29 88.04 326.77C88.3052 326.8 88.5475 326.935 88.7134 327.144C88.8794 327.353 88.9555 327.62 88.925 327.885C88.8945 328.15 88.7599 328.392 88.5508 328.558C88.3417 328.724 88.0752 328.8 87.81 328.77V328.75ZM44.38 327.75C44.2487 327.759 44.1168 327.742 43.992 327.701C43.8671 327.659 43.7518 327.593 43.6524 327.507C43.4517 327.332 43.3286 327.085 43.31 326.82C43.2914 326.555 43.379 326.293 43.5534 326.092C43.7278 325.892 43.9748 325.769 44.24 325.75C46.37 325.45 48.46 325.2 50.47 324.99C50.7352 324.962 51.0006 325.041 51.2079 325.209C51.4151 325.376 51.5472 325.62 51.575 325.885C51.6029 326.15 51.5242 326.416 51.3564 326.623C51.1885 326.83 50.9452 326.962 50.68 326.99C48.68 327.19 46.62 327.45 44.51 327.74L44.38 327.75ZM75.51 326.75H75.5C73.5 326.55 71.4 326.4 69.34 326.32C69.2087 326.315 69.0797 326.284 68.9604 326.229C68.841 326.173 68.7338 326.095 68.6446 325.999C68.5555 325.902 68.4862 325.789 68.4408 325.666C68.3954 325.542 68.3747 325.411 68.38 325.28C68.3853 325.149 68.4163 325.02 68.4714 324.9C68.5265 324.781 68.6046 324.674 68.7012 324.585C68.7978 324.495 68.9109 324.426 69.0343 324.381C69.1576 324.335 69.2887 324.315 69.42 324.32C71.52 324.4 73.64 324.55 75.7 324.76C75.9652 324.772 76.2148 324.889 76.3939 325.085C76.573 325.281 76.6669 325.54 76.655 325.805C76.6431 326.07 76.5263 326.32 76.3303 326.499C76.1343 326.678 75.8752 326.772 75.61 326.76L75.51 326.75ZM56.8 326.47C56.6687 326.475 56.5377 326.453 56.4147 326.407C56.2916 326.361 56.1788 326.291 56.0826 326.202C55.9865 326.112 55.909 326.005 55.8545 325.885C55.8 325.765 55.7696 325.636 55.765 325.505C55.7604 325.374 55.7817 325.243 55.8277 325.12C55.8737 324.997 55.9435 324.884 56.0331 324.788C56.1228 324.692 56.2304 324.614 56.35 324.56C56.4695 324.505 56.5987 324.475 56.73 324.47C58.86 324.33 60.97 324.25 63.02 324.22C63.1513 324.22 63.2814 324.246 63.4027 324.296C63.524 324.346 63.6343 324.42 63.7271 324.513C63.82 324.606 63.8936 324.716 63.9439 324.837C63.9941 324.959 64.02 325.089 64.02 325.22C64.02 325.485 63.9146 325.74 63.7271 325.927C63.5396 326.115 63.2852 326.22 63.02 326.22C61.02 326.22 58.92 326.33 56.83 326.46L56.8 326.47Z" fill="#555555"/>
<path d="M35.32 329.23C35.0818 329.233 34.8501 329.152 34.6668 329C34.4835 328.847 34.3605 328.635 34.32 328.4C34.2732 328.14 34.3311 327.872 34.481 327.655C34.6308 327.438 34.8605 327.289 35.12 327.24L38.12 326.72C38.3852 326.676 38.657 326.74 38.8754 326.896C39.0939 327.053 39.2412 327.29 39.285 327.555C39.3288 327.82 39.2654 328.092 39.1088 328.31C38.9522 328.529 38.7152 328.676 38.45 328.72L35.51 329.23H35.32Z" fill="#555555"/>
<path d="M40.42 398.58L330.34 461.06L119.01 352.04L40.42 398.58Z" fill="#ADFA1C"/>
<path d="M330.34 461.06L143.1 340.53L223.29 294.07L330.34 461.06Z" fill="#ADFA1C"/>
<path opacity="0.2" d="M40.42 398.58L158.72 372.52L119.01 352.04L40.42 398.58Z" fill="black"/>
<path opacity="0.2" d="M176.2 361.83L223.29 294.07L143.1 340.53L176.2 361.83Z" fill="black"/>
<path d="M330.34 461.06L143.1 340.53L137.99 361.83L330.34 461.06Z" fill="#ADFA1C"/>
<path opacity="0.2" d="M330.34 461.06L143.1 340.53L137.99 361.83L330.34 461.06Z" fill="black"/>
<path opacity="0.2" d="M176.2 361.83L175.88 381.38L137.99 361.83L143.1 340.53L176.2 361.83Z" fill="black"/>
<path d="M189.75 361.34L193.16 359.6L189.75 358.7V361.34Z" fill="#263238"/>
<path d="M223.89 367.16C223.89 367.16 183.1 349.42 182.64 352.16C182.545 352.708 182.562 353.269 182.69 353.81L182.58 353.66L183.41 358.77C185.232 360.216 187.434 361.102 189.75 361.32V358.7C191.01 359.199 192.219 359.818 193.36 360.55C195.98 362.24 197.7 365.23 200.51 368.7C202.56 371.23 206.15 372.36 211.51 373.04C217.23 373.76 222.24 372.58 223.63 371.04C224.7 369.77 224.1 367.52 223.89 367.16Z" fill="#263238"/>
<path d="M222.75 366.23C222.36 365.83 220.89 364.23 218.91 362.54C217.17 361.04 215.15 359.15 212.98 357.62C211.936 356.916 210.953 356.127 210.04 355.26C209.334 354.511 208.667 353.727 208.04 352.91C206.081 350.345 204.405 347.575 203.04 344.65C202.38 343.27 201.18 340.22 201.42 334.54C201.78 325.93 202.42 322.81 202.42 317.22L183.15 320.22C183.77 323.31 184.48 330.22 184.83 333.73C185.37 339.08 186.16 339.58 184.16 344.96C183.58 346.54 182.69 348.07 182.64 349.76C182.55 352.5 184.73 354.83 187.14 356.14C189.14 357.22 191.44 357.66 193.38 358.81C195.366 360.123 197.101 361.783 198.5 363.71C199.89 365.44 201.02 367.5 202.95 368.71C204.993 369.873 207.247 370.617 209.58 370.9C212.512 371.375 215.492 371.48 218.45 371.21C222.53 370.76 225.64 369.18 222.75 366.23Z" fill="#FFA8A7"/>
<path d="M220.38 363.28C218.62 361.83 216.11 359.75 213.09 357.42C212.056 357.076 210.96 356.958 209.876 357.076C208.792 357.193 207.747 357.542 206.81 358.1C200.81 361.37 199.9 365.9 199.9 365.9C200.948 367.913 202.743 369.435 204.9 370.14C211.9 373.08 224.32 371.92 224.39 368.7C224.41 366.64 222.53 365 220.38 363.28ZM184.38 343.75C184.38 343.75 183.99 344.81 182.96 346.9C182.403 347.846 182.123 348.93 182.151 350.028C182.179 351.126 182.515 352.193 183.12 353.11C183.814 354.174 184.718 355.084 185.778 355.784C186.837 356.484 188.029 356.959 189.28 357.18C191.14 351 186.85 345 184.41 343.75H184.38Z" fill="#37474F"/>
<path d="M149.47 359.46C150.58 361.32 148.96 368.24 149.12 373.19C149.27 377.69 150.05 384.71 148.84 389.95C147.63 395.19 143.01 400.95 136.93 395.89C133.16 392.76 131.68 389.04 131.29 382.57C131.01 378.07 132.93 371.88 134.58 366.4C136.51 360 137.26 356.57 137.26 356.57L149.47 359.46Z" fill="#263238"/>
<path d="M137.43 326.07C136.78 336.54 137.86 343.92 137.8 350.63C137.706 353.676 137.325 356.706 136.66 359.68C135.66 363.94 134.09 369.86 133.4 372.63C132.4 376.49 131.73 378.92 132.99 383.29C133.096 383.637 133.236 383.972 133.41 384.29C135.21 387.91 139.91 390.72 141.41 390.29C141.709 390.697 142.119 391.008 142.591 391.186C143.064 391.363 143.577 391.399 144.07 391.29C144.239 391.267 144.407 391.23 144.57 391.18C144.749 391.128 144.923 391.061 145.09 390.98C145.723 390.648 146.28 390.188 146.728 389.631C147.175 389.073 147.503 388.43 147.69 387.74C147.78 387.45 147.87 387.13 147.95 386.8C149.16 381.42 148.43 377.91 148.37 375.8C148.29 373.36 148.5 370.26 148.79 366.33C149.08 362.4 150.26 350.08 151.74 344.21C152.84 340.11 154.21 334.96 155.65 329.48L137.43 326.07Z" fill="#FFA8A7"/>
<path d="M132.37 377.66C136.16 376.08 147.04 376.06 148.67 381.39C148.67 386.39 148.58 389.76 145.35 394.03C141.05 399.72 135.71 393.5 133.69 389.57C131.67 385.64 131.81 380.33 132.37 377.66Z" fill="#37474F"/>
<path d="M155.5 178.55C150.01 187.94 142.62 201 141.93 222.28C141.02 250.64 140.43 270.95 140.23 274.37C140.03 277.79 137.69 284.01 135.49 300.81C133.29 317.61 135.69 349.73 135.69 349.73C135.69 349.73 137.58 353.55 144 354.3C149.93 355 152.71 352.22 152.71 352.22C152.71 352.22 162.1 307.22 164.63 297.17C167.16 287.12 175.78 243 175.78 243L178.93 270.16C178.93 270.16 176.87 279.41 178.28 294.23C179.69 309.05 184.38 337.64 184.38 337.64C184.38 337.64 187.07 340.48 193.38 340.23C196.597 340.219 199.692 338.998 202.05 336.81C202.05 336.81 207.58 280.38 208.05 263.64C208.52 246.9 208.05 205.09 203.44 180.16L155.5 178.55Z" fill="#37474F"/>
<path d="M181 216.18L175.78 243L178.93 270.16L179.04 244.38L184.17 218.85C188.23 217.99 198.68 210.92 199.57 204.12C193.93 212.93 181 216.18 181 216.18ZM150.8 316.89C149.113 325.557 147.54 334.277 146.08 343.05C148.22 334.45 150.247 325.823 152.16 317.17C154.1 308.52 155.93 299.89 157.75 291.17C159.57 282.45 161.67 262.69 162.64 253.88C163.61 245.07 164.39 236.24 165.04 227.4C163.7 236.16 162.49 244.94 161.27 253.71C160.05 262.48 157.73 282.17 156 290.82C154.27 299.47 152.4 308.19 150.75 316.89H150.8ZM200.35 254.07C200.42 257.91 200.55 261.78 200.35 265.58C200.15 269.38 199.83 273.24 199.53 277.08L198.64 288.62C198.027 296.307 197.51 304.007 197.09 311.72C198.21 304.08 199.187 296.413 200.02 288.72C200.86 281.04 201.66 273.38 202.13 265.62C202.32 257.82 201.87 250.13 201.39 242.41C200.91 234.69 200.16 227.01 199.18 219.35L200 242.48C200.09 246.37 200.23 250.22 200.3 254.07H200.35Z" fill="#263238"/>
<path d="M158.32 83.17C152.84 86.1 152.32 90.65 152.01 101.74C151.51 121.85 145.35 144.74 145.35 144.74L191.35 145.27L193.83 99.27C193.83 99.27 197.9 94.34 197.72 89.04C197.54 83.74 194.64 76.69 184.89 74.13C176.76 72 161 72.81 158.32 83.17Z" fill="#263238"/>
<path d="M245.14 140.45C242.61 129.23 236.22 113.72 233.24 106.35C232.327 103.614 231.579 100.826 231 98C230.461 94.899 229.388 91.9148 227.83 89.18C226.603 86.8172 224.924 84.7177 222.89 83C222.591 82.6872 222.194 82.486 221.765 82.4296C221.335 82.3732 220.9 82.4651 220.53 82.69C219.877 81.9203 219.031 81.3372 218.08 81C217.294 80.8378 216.489 80.7906 215.69 80.86C215.121 80.7934 214.573 80.6053 214.083 80.3086C213.593 80.0118 213.173 79.6133 212.85 79.14C212.492 78.6809 212.038 78.3055 211.52 78.04C210.63 77.71 210.21 78.31 210.02 79.04C209.775 80.1237 209.877 81.2569 210.31 82.28C211.051 83.8368 211.91 85.3346 212.88 86.76C214.19 89.13 216.14 92.13 216.03 94.89C216.03 95.45 215.8 96.61 215.1 95.89C214.238 94.8436 213.284 93.8764 212.25 93C211.736 92.5613 211.136 92.2358 210.488 92.0445C209.84 91.8533 209.16 91.8006 208.49 91.89C208.077 91.9388 207.698 92.1425 207.43 92.46C207.09 92.93 207.31 93.25 207.59 93.61C207.873 94.0026 208.131 94.4135 208.36 94.84C208.847 95.7 209.347 96.56 209.86 97.42C212.86 102.42 214.17 104.51 218.46 107.9C219.13 108.44 221.28 109.69 222.82 114.08C224.36 118.47 225.49 132.39 225.49 132.39C225.49 132.39 223.49 131.94 210.55 128.82C203.9 127.126 197.125 125.966 190.29 125.35L199.49 147.25C199.49 147.25 214.72 150.03 229.75 152.4C241.23 154.22 248.19 153.92 245.14 140.45Z" fill="#FFA8A7"/>
<path d="M224.57 124.38L224 120C226.436 120.912 229.086 121.086 231.62 120.5C236.18 119.58 238.03 117.5 238.03 117.5L239.47 121.15C237.267 122.583 234.82 123.6 232.25 124.15C229.725 124.693 227.123 124.771 224.57 124.38Z" fill="#F0F0F0"/>
<path d="M190.56 125.16C196.82 125.47 202.83 126.57 211.75 128.64C219.7 130.49 225.23 131.98 225.23 131.98L224.23 122.66C224.23 122.66 226.91 124.38 232.39 123.41C237.87 122.44 239.28 120.14 239.28 120.14C239.28 120.14 244.92 135.41 246.18 142.77C247.3 149.29 245.61 155 236.71 154.21C225.78 153.21 197.71 148.28 197.71 148.28L190.56 125.16Z" fill="#ADFA1C"/>
<path opacity="0.15" d="M225.23 132C225.67 138.07 226.89 142.64 229.11 145.31C225.31 143.23 222.93 137.31 222.76 131.31L225.23 132Z" fill="black"/>
<path d="M201.65 92.05C201.291 92.1734 200.966 92.38 200.702 92.6528C200.438 92.9256 200.242 93.257 200.13 93.62C199.889 94.4791 199.933 95.3929 200.253 96.2254C200.574 97.0579 201.155 97.7645 201.91 98.24C202.233 98.4543 202.599 98.5965 202.982 98.6569C203.365 98.7173 203.757 98.6945 204.13 98.59L206.72 97.7C207.08 97.578 207.406 97.3719 207.67 97.0989C207.934 96.8258 208.13 96.4937 208.24 96.13C208.481 95.2695 208.439 94.354 208.118 93.5198C207.797 92.6856 207.216 91.9772 206.46 91.5C206.135 91.2846 205.768 91.1426 205.383 91.0839C204.997 91.0252 204.604 91.0512 204.23 91.16L201.65 92.05Z" fill="#FAFAFA"/>
<path d="M201.65 92.05C201.291 92.1734 200.966 92.38 200.702 92.6528C200.438 92.9256 200.242 93.257 200.13 93.62C199.889 94.4791 199.933 95.3929 200.253 96.2254C200.574 97.0579 201.155 97.7645 201.91 98.24C202.233 98.4543 202.599 98.5965 202.982 98.6569C203.365 98.7173 203.757 98.6945 204.13 98.59L206.72 97.7C207.08 97.578 207.406 97.3719 207.67 97.0989C207.934 96.8258 208.13 96.4937 208.24 96.13C208.481 95.2695 208.439 94.354 208.118 93.5198C207.797 92.6856 207.216 91.9772 206.46 91.5C206.135 91.2846 205.768 91.1426 205.383 91.0839C204.997 91.0252 204.604 91.0512 204.23 91.16L201.65 92.05Z" fill="#ADFA1C"/>
<path opacity="0.25" d="M201.65 92.05C201.291 92.1734 200.966 92.38 200.702 92.6528C200.438 92.9256 200.242 93.257 200.13 93.62C199.889 94.4791 199.933 95.3929 200.253 96.2254C200.574 97.0579 201.155 97.7645 201.91 98.24C202.233 98.4543 202.599 98.5965 202.982 98.6569C203.365 98.7173 203.757 98.6945 204.13 98.59L206.72 97.7C207.08 97.578 207.406 97.3719 207.67 97.0989C207.934 96.8258 208.13 96.4937 208.24 96.13C208.481 95.2695 208.439 94.354 208.118 93.5198C207.797 92.6856 207.216 91.9772 206.46 91.5C206.135 91.2846 205.768 91.1426 205.383 91.0839C204.997 91.0252 204.604 91.0512 204.23 91.16L201.65 92.05Z" fill="white"/>
<path d="M204.47 97.37C204.783 97.5992 205.146 97.7505 205.53 97.8112C205.913 97.8719 206.305 97.8403 206.674 97.7191C207.042 97.5978 207.377 97.3904 207.649 97.114C207.922 96.8377 208.124 96.5003 208.24 96.13C208.481 95.2695 208.439 94.354 208.118 93.5198C207.797 92.6856 207.216 91.9772 206.46 91.5C206.147 91.2708 205.784 91.1195 205.4 91.0588C205.017 90.9981 204.625 91.0297 204.256 91.1509C203.888 91.2721 203.553 91.4796 203.281 91.7559C203.008 92.0323 202.806 92.3696 202.69 92.74C202.449 93.6005 202.491 94.516 202.812 95.3502C203.133 96.1844 203.714 96.8928 204.47 97.37Z" fill="#ADFA1C"/>
<path d="M204.86 91.46C204.55 91.5641 204.269 91.741 204.041 91.9759C203.813 92.2107 203.645 92.4967 203.55 92.81C203.336 93.5524 203.37 94.3442 203.646 95.0658C203.922 95.7873 204.425 96.3995 205.08 96.81C205.357 96.993 205.67 97.1144 205.997 97.1662C206.325 97.2179 206.66 97.1988 206.98 97.11L228.72 90.97C229.31 90.78 229.55 89.32 229.79 88.62C230.004 87.8775 229.97 87.0858 229.694 86.3642C229.418 85.6426 228.914 85.0304 228.26 84.62C227.61 84.22 226.47 83.21 225.89 83.4C225.7 83.46 205 91.4 204.86 91.46Z" fill="#263238"/>
<path d="M220.2 82.89C219.564 83.1035 218.989 83.4665 218.523 83.9485C218.056 84.4306 217.712 85.0175 217.52 85.66C217.094 87.1769 217.17 88.7908 217.736 90.2612C218.301 91.7316 219.327 92.9799 220.66 93.82C221.228 94.1965 221.87 94.446 222.543 94.5513C223.216 94.6566 223.904 94.6152 224.56 94.43C224.96 94.31 266.67 82.67 267.05 82.55C268.25 82.16 268.76 79.14 269.25 77.71C269.675 76.1946 269.599 74.5823 269.033 73.1136C268.467 71.6449 267.442 70.3984 266.11 69.56C264.78 68.74 262.42 66.66 261.22 67.04C260.83 67.17 220.57 82.76 220.2 82.89Z" fill="#E0E0E0"/>
<path d="M262 81.67C265.63 83.88 269.63 82.57 270.93 78.73C272.23 74.89 270.35 70 266.72 67.79C263.09 65.58 259.09 66.89 257.79 70.72C256.49 74.55 258.36 79.45 262 81.67Z" fill="#E0E0E0"/>
<path d="M261.47 82.32C262.652 83.0701 264.02 83.4753 265.42 83.49H265.75L267.81 83.43H267.66H267.38C267.19 83.43 266.98 83.43 266.78 83.36C265.671 83.1757 264.608 82.7783 263.65 82.19C263.138 81.8707 262.653 81.5095 262.2 81.11C258.89 78.2 257.33 73.25 258.69 69.28C259.015 68.2792 259.554 67.3612 260.27 66.59L260.41 66.44C260.452 66.3916 260.499 66.348 260.55 66.31L260.85 66.05L260.96 65.96L259.24 67.19C259.08 67.3 258.93 67.43 258.78 67.55C257.905 68.3384 257.25 69.3414 256.88 70.46C256.311 72.4803 256.351 74.6237 256.995 76.6215C257.639 78.6193 258.858 80.3825 260.5 81.69L261 82H261.05L261.47 82.32Z" fill="#263238"/>
<path d="M271.22 80C275.74 82.75 280.73 81.12 282.35 76.34C283.97 71.56 281.63 65.46 277.1 62.7C272.57 59.94 267.6 61.6 266 66.38C264.4 71.16 266.69 77.26 271.22 80Z" fill="#ADFA1C"/>
<path d="M263.47 82.56C264.255 83.0465 265.107 83.4138 266 83.65C266.631 83.7692 267.269 83.8494 267.91 83.89C268.07 83.89 268.68 83.89 268.83 83.89L269.28 83.82C269.534 83.7765 269.784 83.7164 270.03 83.64H270.09H270.2H270.26L277.69 81.2H277.51H277.29C277.129 81.2405 276.965 81.2706 276.8 81.29C276.581 81.3277 276.361 81.3544 276.14 81.37C274.401 81.4283 272.687 80.95 271.23 80C270.772 79.7255 270.338 79.4144 269.93 79.07C266.27 76.07 264.52 70.66 265.98 66.36C266.433 64.9522 267.292 63.7101 268.45 62.79L268.78 62.55L269.11 62.34L269.46 62.15C269.556 62.0921 269.656 62.0419 269.76 62L270.02 61.89L270.28 61.79L262.84 64.23L262.5 64.34C261.482 64.7273 260.567 65.3422 259.823 66.1378C259.079 66.9333 258.528 67.8884 258.21 68.93C256.82 73.03 258.35 78.11 261.67 81.21C261.83 81.36 261.99 81.51 262.18 81.66C262.589 81.9893 263.02 82.29 263.47 82.56Z" fill="#FAFAFA"/>
<path d="M284.2 60.78C288.49 63.39 290.71 69.16 289.2 73.68C288.805 74.8971 288.094 75.9875 287.14 76.84C286.514 77.3885 285.787 77.8097 285 78.08L278.8 80.15L278.65 80.21C278.351 80.2968 278.047 80.3636 277.74 80.41C275.885 80.673 273.999 80.2537 272.43 79.23C268.15 76.62 265.92 70.85 267.43 66.33C267.967 64.6117 269.16 63.1745 270.75 62.33C270.996 62.2006 271.25 62.087 271.51 61.99L271.81 61.89L277.89 59.89C278.943 59.5666 280.054 59.4787 281.144 59.6325C282.235 59.7863 283.278 60.1781 284.2 60.78Z" fill="#EBEBEB"/>
<path d="M275.63 59.89C274.567 60.2545 273.606 60.866 272.825 61.6744C272.045 62.4828 271.467 63.4649 271.14 64.54C269.51 69.32 271.86 75.43 276.39 78.19C277.345 78.812 278.421 79.223 279.547 79.3955C280.673 79.568 281.823 79.4979 282.92 79.19C283.59 78.98 287.87 77.48 288.49 77.27C289.554 76.915 290.518 76.3117 291.302 75.5101C292.086 74.7084 292.668 73.7314 293 72.66C294.63 67.88 292.28 61.77 287.75 59.01C286.792 58.3779 285.709 57.9612 284.575 57.7886C283.441 57.6159 282.282 57.6915 281.18 58.01C280.51 58.2 276.25 59.69 275.63 59.89Z" fill="#FAFAFA"/>
<path d="M263.47 82.56C264.255 83.0465 265.107 83.4138 266 83.65C266.631 83.7692 267.269 83.8494 267.91 83.89C268.07 83.89 268.68 83.89 268.83 83.89L269.28 83.82C269.534 83.7765 269.784 83.7164 270.03 83.64H270.09H270.2H270.26L277.69 81.2H277.51H277.29C277.129 81.2405 276.965 81.2706 276.8 81.29C276.581 81.3277 276.361 81.3544 276.14 81.37C274.401 81.4283 272.687 80.95 271.23 80C270.772 79.7255 270.338 79.4144 269.93 79.07C266.27 76.07 264.52 70.66 265.98 66.36C266.433 64.9522 267.292 63.7101 268.45 62.79L268.78 62.55L269.11 62.34L269.46 62.15C269.556 62.0921 269.656 62.0419 269.76 62L270.02 61.89L270.28 61.79L262.84 64.23L262.5 64.34C261.482 64.7273 260.567 65.3422 259.823 66.1378C259.079 66.9333 258.528 67.8884 258.21 68.93C256.82 73.03 258.35 78.11 261.67 81.21C261.83 81.36 261.99 81.51 262.18 81.66C262.589 81.9893 263.02 82.29 263.47 82.56Z" fill="#ADFA1C"/>
<path opacity="0.25" d="M263.47 82.56C264.255 83.0465 265.107 83.4138 266 83.65C266.631 83.7692 267.269 83.8494 267.91 83.89C268.07 83.89 268.68 83.89 268.83 83.89L269.28 83.82C269.534 83.7765 269.784 83.7164 270.03 83.64H270.09H270.2H270.26L277.69 81.2H277.51H277.29C277.129 81.2405 276.965 81.2706 276.8 81.29C276.581 81.3277 276.361 81.3544 276.14 81.37C274.401 81.4283 272.687 80.95 271.23 80C270.772 79.7255 270.338 79.4144 269.93 79.07C266.27 76.07 264.52 70.66 265.98 66.36C266.433 64.9522 267.292 63.7101 268.45 62.79L268.78 62.55L269.11 62.34L269.46 62.15C269.556 62.0921 269.656 62.0419 269.76 62L270.02 61.89L270.28 61.79L262.84 64.23L262.5 64.34C261.482 64.7273 260.567 65.3422 259.823 66.1378C259.079 66.9333 258.528 67.8884 258.21 68.93C256.82 73.03 258.35 78.11 261.67 81.21C261.83 81.36 261.99 81.51 262.18 81.66C262.589 81.9893 263.02 82.29 263.47 82.56Z" fill="white"/>
<path d="M284.2 60.78C288.49 63.39 290.71 69.16 289.2 73.68C288.805 74.8971 288.094 75.9875 287.14 76.84C286.514 77.3885 285.787 77.8097 285 78.08L278.8 80.15L278.65 80.21C278.351 80.2968 278.047 80.3636 277.74 80.41C275.885 80.673 273.999 80.2537 272.43 79.23C268.15 76.62 265.92 70.85 267.43 66.33C267.967 64.6117 269.16 63.1745 270.75 62.33C270.996 62.2006 271.25 62.087 271.51 61.99L271.81 61.89L277.89 59.89C278.943 59.5666 280.054 59.4787 281.144 59.6325C282.235 59.7863 283.278 60.1781 284.2 60.78Z" fill="#ADFA1C"/>
<path opacity="0.15" d="M284.2 60.78C288.49 63.39 290.71 69.16 289.2 73.68C288.805 74.8971 288.094 75.9875 287.14 76.84C286.514 77.3885 285.787 77.8097 285 78.08L278.8 80.15L278.65 80.21C278.351 80.2968 278.047 80.3636 277.74 80.41C275.885 80.673 273.999 80.2537 272.43 79.23C268.15 76.62 265.92 70.85 267.43 66.33C267.967 64.6117 269.16 63.1745 270.75 62.33C270.996 62.2006 271.25 62.087 271.51 61.99L271.81 61.89L277.89 59.89C278.943 59.5666 280.054 59.4787 281.144 59.6325C282.235 59.7863 283.278 60.1781 284.2 60.78Z" fill="white"/>
<path d="M275.63 59.89C274.567 60.2545 273.606 60.866 272.825 61.6744C272.045 62.4828 271.467 63.4649 271.14 64.54C269.51 69.32 271.86 75.43 276.39 78.19C277.345 78.812 278.421 79.223 279.547 79.3955C280.673 79.568 281.823 79.4979 282.92 79.19C283.59 78.98 287.87 77.48 288.49 77.27C289.554 76.915 290.518 76.3117 291.302 75.5101C292.086 74.7084 292.668 73.7314 293 72.66C294.63 67.88 292.28 61.77 287.75 59.01C286.792 58.3779 285.709 57.9612 284.575 57.7886C283.441 57.6159 282.282 57.6915 281.18 58.01C280.51 58.2 276.25 59.69 275.63 59.89Z" fill="#ADFA1C"/>
<path opacity="0.25" d="M275.63 59.89C274.567 60.2545 273.606 60.866 272.825 61.6744C272.045 62.4828 271.467 63.4649 271.14 64.54C269.51 69.32 271.86 75.43 276.39 78.19C277.345 78.812 278.421 79.223 279.547 79.3955C280.673 79.568 281.823 79.4979 282.92 79.19C283.59 78.98 287.87 77.48 288.49 77.27C289.554 76.915 290.518 76.3117 291.302 75.5101C292.086 74.7084 292.668 73.7314 293 72.66C294.63 67.88 292.28 61.77 287.75 59.01C286.792 58.3779 285.709 57.9612 284.575 57.7886C283.441 57.6159 282.282 57.6915 281.18 58.01C280.51 58.2 276.25 59.69 275.63 59.89Z" fill="white"/>
<path d="M281.84 76.31C286.37 79.07 291.36 77.44 292.98 72.66C294.6 67.88 292.26 61.77 287.73 59.01C283.2 56.25 278.22 57.88 276.59 62.66C274.96 67.44 277.31 73.55 281.84 76.31Z" fill="#ADFA1C"/>
<path opacity="0.2" d="M289.64 75.38C287.53 77.23 284.79 75.9 283.71 75.24C279.49 72.67 277.21 66.74 278.71 62.29C279.024 61.278 279.6 60.3671 280.38 59.65C282.49 57.81 285.23 59.14 286.31 59.8C290.52 62.36 292.8 68.29 291.31 72.74C290.996 73.752 290.42 74.6629 289.64 75.38Z" fill="black"/>
<path d="M283.7 60.67C282.726 60.0547 281.618 59.6842 280.47 59.59L280.4 59.65C279.62 60.3671 279.044 61.278 278.73 62.29C277.21 66.74 279.49 72.67 283.73 75.24C284.701 75.8527 285.806 76.2231 286.95 76.32L287.03 76.26C287.806 75.5393 288.381 74.6296 288.7 73.62C290.19 69.17 287.91 63.24 283.7 60.67Z" fill="#ADFA1C"/>
<path opacity="0.6" d="M283.7 60.67C282.726 60.0547 281.618 59.6842 280.47 59.59L280.4 59.65C279.62 60.3671 279.044 61.278 278.73 62.29C277.21 66.74 279.49 72.67 283.73 75.24C284.701 75.8527 285.806 76.2231 286.95 76.32L287.03 76.26C287.806 75.5393 288.381 74.6296 288.7 73.62C290.19 69.17 287.91 63.24 283.7 60.67Z" fill="white"/>
<path opacity="0.1" d="M278.67 62.47C277.28 66.9 279.55 72.7 283.67 75.24C284.491 75.0629 285.25 74.669 285.867 74.0992C286.485 73.5293 286.938 72.8045 287.18 72C287.651 70.3074 287.564 68.508 286.932 66.8688C286.3 65.2295 285.156 63.8378 283.67 62.9C282.943 62.407 282.101 62.1086 281.226 62.0333C280.351 61.958 279.471 62.1084 278.67 62.47Z" fill="#ADFA1C"/>
<path opacity="0.2" d="M278.31 66.23C278.538 68.5484 279.407 70.7575 280.82 72.61C281.216 72.8429 281.661 72.9816 282.119 73.0156C282.577 73.0495 283.037 72.9777 283.463 72.8057C283.889 72.6337 284.27 72.3661 284.577 72.0235C284.883 71.681 285.107 71.2726 285.23 70.83C285.529 69.7475 285.475 68.5975 285.073 67.5485C284.672 66.4994 283.945 65.6063 283 65C282.628 64.7174 282.197 64.5232 281.738 64.4319C281.28 64.3407 280.807 64.3549 280.356 64.4734C279.904 64.5919 279.485 64.8116 279.13 65.1159C278.776 65.4203 278.495 65.8012 278.31 66.23Z" fill="#ADFA1C"/>
<path opacity="0.6" d="M279.62 64.89C279.2 62.46 280.73 60.63 281.7 60.68C282.67 60.73 289 64.54 288 72.07C288 72.07 287.83 67.28 284.95 64.15C282.23 61.19 279.77 62.53 279.62 64.89Z" fill="white"/>
<path opacity="0.1" d="M262.19 81.65L269.91 79.08L270.91 78.16L274.69 76.9L275.2 77.35L280.71 75.51C281.074 75.8066 281.458 76.0773 281.86 76.32L282.29 76.57C283.416 77.2038 284.671 77.5732 285.96 77.65C286.721 77.6936 287.485 77.6126 288.22 77.41H288.16C286.96 77.82 283.53 79.02 282.94 79.21C282.202 79.4334 281.431 79.5315 280.66 79.5L280.22 79.65C279.368 80.4068 278.334 80.9304 277.22 81.17H277.31H277.53H277.71L270.28 83.61H270.22H270.11H270.05C269.804 83.6864 269.554 83.7465 269.3 83.79L268.85 83.86C268.7 83.86 268.09 83.92 267.93 83.86C267.289 83.8194 266.651 83.7392 266.02 83.62C265.36 83.4516 264.723 83.2066 264.12 82.89C263.904 82.7849 263.693 82.668 263.49 82.54C263.037 82.2736 262.602 81.9762 262.19 81.65Z" fill="black"/>
<path d="M149.44 189.09C150.03 184.77 153.04 184.09 151.58 173.84C150.85 168.74 148.29 155.55 148.29 155.55C148.29 155.55 157.06 148.79 154.29 129.07L163.72 125.27L168.86 123.46L183.24 124.06L190.62 126.06C193.15 128.24 197.78 131.67 201.51 136.93C206.89 144.53 207.86 152.93 202.36 159.14C202.3 160.36 202.52 179.14 203.94 183.73C204.5 185.55 205.27 188.02 204.08 190.46C198.75 199.17 167.37 208 149.44 189.09Z" fill="#FAFAFA"/>
<path d="M183.2 124.06L190.56 125.16C197.63 130.5 206.05 140.16 206.56 147.57C206.858 151.964 205.698 156.333 203.26 160C203.26 160 203.16 175.09 204.88 183.05C206.6 191.01 208.52 212.35 208.52 212.35C208.52 212.35 208.67 213.68 202.76 215.35C200.94 205.13 196.46 167.63 196.71 158.63C196.96 149.63 197.08 135.4 183.2 124.06Z" fill="#ADFA1C"/>
<path opacity="0.3" d="M183.2 124.06L190.56 125.16C197.63 130.5 206.05 140.16 206.56 147.57C206.858 151.964 205.698 156.333 203.26 160C203.26 160 203.16 175.09 204.88 183.05C206.6 191.01 208.52 212.35 208.52 212.35C208.52 212.35 208.67 213.68 202.76 215.35C200.94 205.13 196.46 167.63 196.71 158.63C196.96 149.63 197.08 135.4 183.2 124.06Z" fill="black"/>
<path opacity="0.2" d="M197.78 162.81C198.36 160.42 199 158.05 199.65 155.68C200.3 153.31 200.92 150.93 201.51 148.56C201.813 147.386 202.04 146.193 202.19 144.99C202.37 143.86 201.57 142.92 200.77 141.99C199.056 140.271 197.162 138.743 195.12 137.43L194.93 137.31V137.09C195.15 135.796 195.15 134.474 194.93 133.18C194.726 131.88 194.267 130.633 193.58 129.51C192.825 128.415 191.888 127.458 190.81 126.68C189.73 125.888 188.566 125.217 187.34 124.68C188.63 125.134 189.86 125.745 191 126.5C192.168 127.235 193.186 128.185 194 129.3C194.767 130.455 195.301 131.75 195.57 133.11C195.847 134.477 195.874 135.883 195.65 137.26L195.5 136.91C197.618 138.224 199.577 139.778 201.34 141.54C201.783 142.006 202.169 142.523 202.49 143.08C202.579 143.222 202.653 143.373 202.71 143.53C202.787 143.687 202.837 143.856 202.86 144.03C202.912 144.361 202.912 144.699 202.86 145.03C202.695 146.264 202.451 147.487 202.13 148.69C201.53 151.08 200.77 153.43 200.05 155.78C199.33 158.13 198.54 160.47 197.78 162.81Z" fill="black"/>
<path d="M163.68 125.27C163.68 125.27 166.78 129.27 170.88 138.62C174.98 147.97 178.93 156.51 178.88 165.19C178.83 173.87 176 218.74 176 218.74C176 218.74 163.56 220.62 152.29 216.08L153.21 198.7L148.94 215.26C148.94 215.26 143.55 213.33 141.56 211.53C144.5 193.46 151.07 184.88 151.4 178.21C151.62 173.63 147.73 160.93 146.99 149.48C146.682 142.783 147.142 136.073 148.36 129.48L163.68 125.27Z" fill="#ADFA1C"/>
<path opacity="0.3" d="M163.68 125.27C163.68 125.27 166.78 129.27 170.88 138.62C174.98 147.97 178.93 156.51 178.88 165.19C178.83 173.87 176 218.74 176 218.74C176 218.74 163.56 220.62 152.29 216.08L153.21 198.7L148.94 215.26C148.94 215.26 143.55 213.33 141.56 211.53C144.5 193.46 151.07 184.88 151.4 178.21C151.62 173.63 147.73 160.93 146.99 149.48C146.682 142.783 147.142 136.073 148.36 129.48L163.68 125.27Z" fill="black"/>
<path opacity="0.2" d="M177.22 167.77C176.437 165.587 175.279 163.557 173.8 161.77C172.4 159.92 170.87 158.18 169.31 156.47C168.53 155.61 167.74 154.76 166.95 153.92L165.75 152.65C165.55 152.42 165.35 152.23 165.15 151.97C165.089 151.909 165.036 151.842 164.99 151.77C164.93 151.665 164.88 151.554 164.84 151.44C164.796 151.25 164.776 151.055 164.78 150.86C164.976 149.644 165.386 148.473 165.99 147.4C166.54 146.4 167.14 145.34 167.78 144.34L167.84 144.92L164.28 141.33L162.51 139.52L162.07 139.06L161.85 138.83C161.734 138.724 161.633 138.603 161.55 138.47C161.466 138.212 161.435 137.94 161.46 137.67C161.46 137.45 161.46 137.23 161.53 137.01C161.823 135.319 162.228 133.648 162.74 132.01C163.24 130.38 163.74 128.77 164.33 127.17C163.93 128.82 163.51 130.46 163.14 132.11C162.77 133.76 162.38 135.42 162.2 137.06C162.143 137.411 162.143 137.769 162.2 138.12C162.14 138.04 162.2 138.17 162.32 138.23L162.55 138.45L163.01 138.89L164.84 140.67L168.49 144.24L168.75 144.49L168.55 144.82C167.94 145.82 167.37 146.82 166.85 147.82C166.306 148.776 165.917 149.812 165.7 150.89C165.694 150.98 165.694 151.07 165.7 151.16C165.708 151.183 165.708 151.207 165.7 151.23C165.7 151.23 165.77 151.33 165.81 151.38C165.96 151.58 166.17 151.8 166.36 152.01L167.54 153.3C168.32 154.16 169.1 155.02 169.87 155.9C171.395 157.674 172.83 159.523 174.17 161.44C174.833 162.401 175.434 163.403 175.97 164.44C176.543 165.485 176.964 166.606 177.22 167.77Z" fill="black"/>
<path d="M163.36 112.69C162.392 112.936 161.378 112.935 160.411 112.685C159.445 112.435 158.557 111.945 157.83 111.26C154.69 108.5 154.07 105.4 155.14 103.16C156.02 101.33 158.54 99.93 160.52 100.89C162.5 101.85 162.81 102.89 163.72 104.22C164.63 105.55 166.42 104.22 165.14 98.67C168.78 96.43 167.44 90.06 169.22 87.2C172.01 82.72 177.49 83.2 179.34 83.96C180.308 83.0945 181.498 82.5155 182.777 82.2876C184.056 82.0598 185.372 82.1922 186.58 82.67C189.32 83.76 191.36 86.48 193.4 96.38C195.48 106.47 194.48 113.47 192.4 115.9C190.95 117.57 187.28 119.11 183.67 119.31L183.24 124.86C183.24 124.86 195.17 134.21 181.85 134.72C171.85 135.1 164.61 124.95 164.61 124.95L165.4 110.84C165.4 110.84 165.3 112.09 163.36 112.69Z" fill="#FFA8A7"/>
<path d="M176.34 94.11L172.75 96C172.504 95.5074 172.458 94.9384 172.622 94.4126C172.786 93.8868 173.147 93.445 173.63 93.18C173.868 93.0595 174.128 92.9881 174.395 92.9697C174.661 92.9514 174.929 92.9866 175.181 93.0733C175.434 93.16 175.666 93.2964 175.865 93.4744C176.064 93.6525 176.226 93.8686 176.34 94.11Z" fill="#263238"/>
<path d="M190.68 91.19L186.62 90.58C186.651 90.3156 186.734 90.0599 186.865 89.8281C186.996 89.5963 187.172 89.3929 187.382 89.2299C187.593 89.0669 187.834 88.9476 188.091 88.8789C188.348 88.8102 188.616 88.7936 188.88 88.83C189.424 88.9212 189.912 89.2158 190.247 89.6541C190.581 90.0924 190.736 90.6416 190.68 91.19Z" fill="#263238"/>
<path d="M178.13 107.73L183.89 108.6C183.854 108.979 183.74 109.347 183.557 109.681C183.373 110.014 183.124 110.307 182.823 110.541C182.523 110.775 182.178 110.945 181.809 111.042C181.441 111.138 181.056 111.158 180.68 111.1C179.904 110.972 179.207 110.551 178.733 109.924C178.258 109.297 178.043 108.511 178.13 107.73Z" fill="#B16668"/>
<path d="M181.79 111C181.614 110.346 181.222 109.77 180.677 109.367C180.132 108.964 179.467 108.757 178.79 108.78C178.595 108.783 178.4 108.806 178.21 108.85C178.365 109.415 178.68 109.924 179.116 110.316C179.552 110.708 180.091 110.966 180.67 111.06C181.043 111.117 181.425 111.097 181.79 111Z" fill="#F28F8F"/>
<path d="M190.41 95.62C190.564 95.9102 190.629 96.2395 190.595 96.5664C190.562 96.8932 190.433 97.2029 190.223 97.4561C190.014 97.7094 189.734 97.8948 189.42 97.9889C189.105 98.0831 188.769 98.0817 188.455 97.985C188.141 97.8883 187.863 97.7006 187.656 97.4456C187.449 97.1907 187.322 96.88 187.291 96.5529C187.261 96.2257 187.328 95.8969 187.484 95.608C187.641 95.3191 187.879 95.0832 188.17 94.93C188.559 94.7278 189.012 94.6869 189.431 94.816C189.851 94.9451 190.202 95.2339 190.41 95.62Z" fill="#263238"/>
<path d="M178.68 98.53C178.81 98.86 177.68 98.21 176.59 98.37C175.15 98.57 174.31 99.98 174.45 99.07C174.504 98.5785 174.739 98.1247 175.108 97.796C175.478 97.4672 175.956 97.287 176.45 97.29C176.909 97.1899 177.389 97.2606 177.799 97.4889C178.21 97.7172 178.523 98.0873 178.68 98.53Z" fill="#263238"/>
<path d="M182 94.36L184.08 105L189.78 102.61C187.85 98.6 184.51 96.11 182 94.36Z" fill="#F28F8F"/>
<path d="M183.64 119.31C178.45 119.69 172.09 118.43 169.85 115.31C171.29 118.79 175.14 120.24 178.14 120.73C179.905 121.074 181.703 121.218 183.5 121.16L183.64 119.31Z" fill="#F28F8F"/>
<path d="M140.25 215.74C139.06 214.5 137.55 213.42 137.03 211.74C136.884 211.303 136.841 210.839 136.903 210.383C136.966 209.927 137.132 209.491 137.39 209.11C137.526 208.974 137.632 208.81 137.7 208.63C137.73 208.475 137.73 208.315 137.7 208.16C137.529 207.516 137.56 206.835 137.79 206.21C137.906 205.954 138.075 205.726 138.285 205.54C138.495 205.354 138.742 205.214 139.01 205.13C138.684 204.157 138.684 203.103 139.01 202.13C139.37 201.01 140.51 200.13 141.29 201.33C141.66 201.941 141.969 202.587 142.21 203.26C142.821 204.939 143.23 206.685 143.43 208.46C143.66 210.3 144.21 215.53 141.35 215.84C141.05 215.89 140.42 215.92 140.25 215.74Z" fill="#F28F8F"/>
<path d="M151 130.49C140 132.8 139 136.29 132.6 145.49C126.2 154.69 118.25 167.21 116.29 171.65C113.87 177.15 113.37 179.26 119.29 184.94C122.36 187.87 126.63 191.34 130.98 195.28C134.42 198.38 138.54 201.67 141.87 204.88C142.314 205.228 142.651 205.694 142.842 206.225C143.033 206.755 143.07 207.329 142.95 207.88C142.734 208.614 142.558 209.358 142.42 210.11C142.441 211.09 142.542 212.066 142.72 213.03C142.799 213.517 142.737 214.016 142.54 214.468C142.343 214.92 142.02 215.306 141.61 215.58C141.171 215.763 140.692 215.829 140.22 215.77C141.048 216.378 141.966 216.854 142.94 217.18C143.925 217.502 144.995 217.445 145.94 217.02C146.82 216.57 147.48 215.7 148.43 215.4C148.94 215.23 149.5 215.25 150.01 215.1C150.544 214.941 151.016 214.619 151.36 214.18C151.89 213.48 152.09 212.49 152.85 212.05C153.238 211.888 153.635 211.751 154.04 211.64C154.422 211.446 154.751 211.163 155 210.815C155.249 210.467 155.41 210.064 155.47 209.64C155.583 208.79 155.546 207.927 155.36 207.09C154.971 204.823 154.457 202.58 153.82 200.37C153.57 199.621 153.187 198.923 152.69 198.31C152.16 197.58 151.69 196.82 151.07 196.12C147.18 191.37 134.83 175.52 134.83 175.52L148.47 157.64C151.419 153.818 153.223 149.238 153.671 144.432C154.118 139.625 153.192 134.791 151 130.49Z" fill="#FFA8A7"/>
<path d="M134.87 175.48C131.59 178.84 126.39 179.21 124.47 179.14C126.406 179.896 128.517 180.087 130.557 179.692C132.598 179.298 134.485 178.333 136 176.91L134.87 175.48Z" fill="#F28F8F"/>
<path d="M127.92 192.57L131.01 195.26C133.993 194.806 136.698 193.25 138.59 190.9C142.02 186.78 141.76 183.77 141.76 183.77L138.17 179.71L127.92 192.57Z" fill="#F0F0F0"/>
<path d="M151.12 128.69C143.23 130.42 141.76 131.47 136.12 139.37C130.48 147.27 120.96 162.37 118.48 166.22C116 170.07 112.31 176.84 114.48 180.22C116.65 183.6 128.34 193.48 128.34 193.48C128.34 193.48 132.34 193.29 136.19 189.31C140.19 185.17 139.89 180.93 139.89 180.93L135.54 175.48C135.54 175.48 147.71 159.8 149.91 156.9C152.11 154 157 144.21 151.12 128.69Z" fill="#ADFA1C"/>
<path opacity="0.15" d="M135.51 175.47C133.93 173.69 130.08 170.8 127.25 170.31C130.25 169.79 134.62 171.91 136.7 173.85L135.51 175.47Z" fill="black"/>
</svg>
