<svg width="583" height="138" viewBox="0 0 583 138" fill="none" xmlns="http://www.w3.org/2000/svg">
    <g>
        <path fill-rule="evenodd" clip-rule="evenodd"
            d="M0 41.6304L24.053 37.1739C48.1061 32.7174 97.3576 23.8043 145.464 28.2609C194.715 32.7174 242.821 50.5435 292.073 66.587C340.179 82.6304 388.285 96 437.536 87.087C485.642 78.1739 534.894 46.087 558.947 30.0435L583 14V137H558.947C534.894 137 485.642 137 437.536 137C388.285 137 340.179 137 292.073 137C242.821 137 194.715 137 145.464 137C97.3576 137 48.1061 137 24.053 137H0V41.6304Z"
            fill="#D0D5DD" />
    </g>
</svg>
    