<svg width="583" height="67" viewBox="0 0 583 67" fill="none" xmlns="http://www.w3.org/2000/svg">
    <g>
        <path fill-rule="evenodd" clip-rule="evenodd"
            d="M583 30.6232L558.947 27.942C534.894 25.2609 485.642 19.8986 437.536 22.5797C388.285 25.2609 340.179 35.9855 290.927 45.6377C242.821 55.2899 194.715 55.558 145.464 50.1957C97.3575 44.8333 48.1061 33.3043 24.053 23.6522L0 14V88H24.053C48.1061 88 97.3575 88 145.464 88C194.715 88 242.821 88 290.927 88C340.179 88 388.285 88 437.536 88C485.642 88 534.894 88 558.947 88H583V30.6232Z"
            fill="#98A2B3" />
    </g>
</svg>
    