<svg width="973" height="221" viewBox="0 0 973 221" fill="none" xmlns="http://www.w3.org/2000/svg">
<path d="M98 62.3994L74.41 91.9394L66.08 102.349L61.19 108.469L60.83 108.929C58.7868 111.415 56.2174 113.417 53.307 114.79C50.3967 116.163 47.218 116.873 44 116.869H0L23.63 87.3294L32 76.9194L36.88 70.8294L37.27 70.3294C39.3025 67.8571 41.8561 65.8644 44.7482 64.4935C47.6403 63.1227 50.7995 62.4076 54 62.3994H98Z" fill="#ADFA1C"/>
<path d="M186.86 42.6199H79.44C73.9414 42.617 68.662 40.4636 64.73 36.6199L28.46 0.379946H135.87C138.643 0.373143 141.391 0.915757 143.953 1.97647C146.516 3.03719 148.843 4.59499 150.8 6.55994L186.86 42.6199Z" fill="#ADFA1C"/>
<path d="M239.66 42.6201L203.91 87.3101L203.62 87.6601C201.656 90.0881 199.176 92.0485 196.36 93.3994C193.544 94.7502 190.463 95.4575 187.34 95.4701H144.62L167.52 66.8301L175.6 56.7401L186.86 42.6701L239.66 42.6201Z" fill="#ADFA1C"/>
<path d="M194 171.27C194.005 174.292 193.356 177.28 192.1 180.03L191.43 181.37L176.33 211.58L157.68 185.94L154.22 181.18L91.8201 95.4697H144.62L189.85 158.8L190.25 159.35C192.677 162.852 193.985 167.008 194 171.27Z" fill="#ADFA1C"/>
<path d="M257.587 156V42.5455H304.453C312.947 42.5455 320.278 44.0781 326.446 47.1435C332.651 50.1719 337.433 54.5298 340.794 60.2173C344.155 65.8679 345.835 72.571 345.835 80.3267C345.835 88.1932 344.118 94.8778 340.683 100.381C337.249 105.847 332.374 110.02 326.058 112.901C319.743 115.744 312.264 117.166 303.622 117.166H273.984V95.5611H298.526C302.662 95.5611 306.115 95.0256 308.885 93.9545C311.692 92.8466 313.815 91.1847 315.256 88.9688C316.696 86.7159 317.416 83.8352 317.416 80.3267C317.416 76.8182 316.696 73.919 315.256 71.6293C313.815 69.3026 311.692 67.5668 308.885 66.4219C306.078 65.2401 302.625 64.6491 298.526 64.6491H285.009V156H257.587ZM321.46 104.148L349.713 156H319.798L292.099 104.148H321.46ZM360.876 156V42.5455H439.984V64.8153H388.298V88.0824H435.94V110.408H388.298V133.73H439.984V156H360.876ZM457.157 42.5455H491.116L519.923 112.79H521.252L550.059 42.5455H584.018V156H557.316V86.3097H556.374L529.119 155.28H512.056L484.8 85.9219H483.859V156H457.157V42.5455ZM628.544 42.5455V156H601.122V42.5455H628.544ZM642.047 64.8153V42.5455H737.94V64.8153H703.538V156H676.504V64.8153H642.047ZM745.682 42.5455H776.317L800.304 90.0213H801.301L825.289 42.5455H855.924L814.431 118.108V156H787.175V118.108L745.682 42.5455ZM963.977 42.5455V156H940.71L895.561 90.5199H894.841V156H867.419V42.5455H891.018L935.669 107.915H936.61V42.5455H963.977Z" fill="white"/>
<path d="M837 177L194 220.17L209.48 186.39C210.765 183.719 212.741 181.441 215.202 179.79C217.663 178.139 220.521 177.176 223.48 177H837Z" fill="white"/>
</svg>
