<svg width="585" height="320" viewBox="0 0 585 320" fill="none" xmlns="http://www.w3.org/2000/svg">
    <g clip-path="url(#clip0_826_16797)">
        <path d="M749.78 0.18457H-164.784V320H749.78V0.18457Z" fill="#010030" />
        <path
            d="M553.165 304.838C558.41 308.227 563.925 314.034 568.458 320H571.124C565.729 312.675 559.528 306.399 554.328 303.039C537.604 292.232 538.929 286.593 545.221 271.878C546.695 268.43 548.677 266.772 551.109 266.957C557.494 267.436 566.767 280.335 570.19 293.5C573.56 306.462 580.767 315.344 588.128 320.001H592.617C584.628 316.457 576.01 307.375 572.262 292.961C568.93 280.146 559.489 265.438 551.27 264.821C548.899 264.645 545.586 265.578 543.252 271.036C536.453 286.936 535.638 293.511 553.165 304.838Z"
            fill="#6047CD" />
        <path
            d="M491.513 294.528C486.61 284.927 485.407 278.824 487.726 275.323C490.118 271.712 496.491 270.331 507.209 271.097C520.972 272.082 531.356 288.421 542.348 305.718C545.413 310.54 548.517 315.424 551.737 320.001H554.365C550.859 315.114 547.484 309.805 544.156 304.569C532.865 286.804 522.201 270.023 507.361 268.961C495.644 268.122 488.837 269.768 485.94 274.14C483.111 278.411 484.242 284.999 489.605 295.502L491.513 294.528Z"
            fill="#6047CD" />
        <path
            d="M42.3156 320.001C8.23756 303.438 -39.5304 297.333 -90.3036 305.902C-108.765 309.018 -126.21 313.84 -142.228 320.001H42.3156Z"
            fill="#14086C" />
        <path
            d="M50.3126 320C21.4934 305.547 -15.3021 301.17 -52.6324 310.368C-62.4925 312.797 -71.8784 316.049 -80.7012 320H50.3126Z"
            fill="url(#paint0_linear_826_16797)" />
        <path
            d="M-22.4642 0.18457H-25.3467C-18.2666 7.93795 -13.0353 15.4084 -9.36902 21.4228C-1.98307 33.5396 0.834667 42.5294 0.862209 42.619L2.90899 41.9882C2.794 41.6152 0.00702477 32.7063 -7.50007 20.3751C-11.0013 14.623 -15.9097 7.56223 -22.4642 0.18457Z"
            fill="#FE1E9D" />
        <path
            d="M79.3969 0.18457C71.0338 5.42988 59.8425 5.98744 59.6685 5.99466L59.7583 8.1345C60.0498 8.1222 66.9849 7.80371 74.2567 5.08625C77.7571 3.77807 80.7184 2.13268 83.1193 0.18457H79.3969Z"
            fill="#FE1E9D" />
        <path
            d="M12.7632 0.18457C41.2962 18.6607 61.3498 25.2423 63.2949 25.2423C64.1825 25.2423 63.1387 14.2976 60.0873 0.18457H12.7632Z"
            fill="url(#paint1_linear_826_16797)" />
        <path
            d="M26.1538 32.8785C18.2702 21.4177 6.65458 9.55232 -2.79554 0.18457H-5.83976C13.9534 19.7405 44.3917 50.7152 29.5658 66.5571C23.412 73.1319 16.5047 75.8374 9.59506 74.38C-0.772015 72.1939 -10.4053 61.0491 -16.1737 44.5671L-18.1953 45.2747C-12.1769 62.4696 -1.95317 74.1337 9.1533 76.4757C10.5318 76.7663 11.9076 76.9108 13.2757 76.9108C19.5348 76.911 25.6372 73.8893 31.1296 68.0206C35.1242 63.7522 36.4816 58.2836 35.1635 51.7664C34.0468 46.2476 31.0999 40.0692 26.1538 32.8785Z"
            fill="#FE1E9D" />
        <path
            d="M5.3918 256.644C17.8604 256.644 27.9682 246.536 27.9682 234.068C27.9682 221.599 17.8604 211.491 5.3918 211.491C-7.07678 211.491 -17.1846 221.599 -17.1846 234.068C-17.1846 246.536 -7.07678 256.644 5.3918 256.644Z"
            fill="url(#paint2_linear_826_16797)" />
        <path
            d="M9.0197 241.721C5.56398 241.721 3.1033 240.172 1.92998 237.555H10.0544V234.863H1.22256C1.17714 234.452 1.15326 234.027 1.15326 233.586C1.15326 233.371 1.16032 233.161 1.17075 232.954H10.0548V230.262H1.65347C2.74202 226.996 5.51924 225.284 9.05333 225.284C10.928 225.284 12.4007 225.686 13.4718 226.155L14.3757 222.874C13.5391 222.439 11.5974 221.87 8.88615 221.87C3.1625 221.87 -1.35821 224.963 -2.73135 230.262H-8.34668V232.954H-3.14007C-3.15487 233.228 -3.16462 233.505 -3.16462 233.787C-3.16462 234.153 -3.14982 234.511 -3.12526 234.863H-8.34668V237.555H-2.66542C-1.335 242.243 2.60074 245.135 8.35062 245.135C11.0622 245.135 13.2044 244.633 14.1752 244.131L13.5058 240.884C12.434 241.386 10.6936 241.721 9.0197 241.721Z"
            fill="white" />
        <path
            d="M50.2398 275.671C59.2059 266.705 59.2059 252.168 50.2398 243.202C41.2736 234.236 26.7365 234.236 17.7704 243.202C8.80417 252.168 8.80417 266.705 17.7704 275.671C26.7365 284.637 41.2736 284.637 50.2398 275.671Z"
            fill="#FF22B5" />
        <path
            d="M24.6157 270.093C20.3526 265.959 21.6559 259.912 24.1043 257.006C24.246 257.406 24.2765 257.731 23.9871 258.094C22.5586 259.885 22.3737 261.982 22.6426 264.141C23.1565 268.268 25.6197 270.827 29.3788 272.277C30.5502 272.729 31.7624 273.015 33.0416 272.994C33.5374 272.985 34.0291 273.231 34.5405 273.186C37.093 272.958 39.572 272.506 41.6304 270.804C41.7025 270.744 41.7847 270.697 41.8589 270.646C41.9603 270.725 41.8953 270.793 41.8636 270.857C40.7981 273.005 39.01 274.168 36.718 274.678C35.0076 275.059 33.316 274.883 31.6161 274.626C30.5544 274.465 29.5072 274.245 28.4652 273.986C30.0364 274.731 31.6494 275.17 33.4232 275.299C35.187 275.428 36.8518 275.374 38.4881 274.689C37.8006 275.301 36.9595 275.496 36.0957 275.607C34.8036 275.772 33.503 275.789 32.2023 275.772C31.7728 275.767 31.3491 275.707 30.9436 275.556C28.3476 274.584 25.9091 273.331 23.7343 271.589C22.7924 270.835 22.3974 269.786 22.0541 268.691C23.5327 270.679 25.0583 272.604 27.4986 273.576C27.4986 273.46 27.5073 273.41 27.4974 273.406C26.7323 273.097 26.2731 272.375 25.5674 271.982C25.1196 271.733 24.7635 271.371 24.4519 270.962C23.6458 269.905 22.7382 268.926 22.0605 267.77C21.4342 266.701 21.1633 265.585 21.4738 264.297C21.9884 266.564 22.5495 268.743 24.6157 270.093Z"
            fill="white" />
        <path
            d="M39.3569 259.054C38.9292 258.298 38.4552 257.755 37.751 257.431C36.3501 256.785 34.9741 256.976 33.592 257.478C32.1993 257.983 31.1243 258.868 30.1457 259.988C29.0392 261.255 28.7579 262.696 28.654 264.277C28.5916 265.227 29.0788 265.78 29.7445 266.266C30.0393 266.482 30.3423 266.67 30.5644 266.974C30.7799 267.269 31.131 267.314 31.4629 267.331C33.0282 267.414 34.5799 267.492 36.1514 267.189C37.0593 267.013 37.7865 266.663 38.4596 266.089C38.7127 265.874 38.9817 265.677 39.2492 265.479C39.5725 265.24 39.8672 264.993 39.8905 264.541C39.9025 264.31 40.0684 264.136 40.2136 263.971C41.0499 263.021 41.4008 261.901 41.4035 260.652C41.4051 259.906 41.7507 259.26 41.9849 258.488C43.3707 262.503 39.6214 268.1 33.8479 267.874C36.0853 268.149 38.1989 267.898 39.9454 266.289C40.7288 265.567 41.4045 264.756 41.731 263.696C41.8882 263.186 42.1788 262.718 42.3861 262.222C42.9526 260.865 42.9832 259.475 42.5559 258.082C42.4544 257.751 42.4494 257.505 42.7249 257.279C42.8702 257.324 42.8489 257.473 42.8831 257.584C44.1249 261.616 42.5286 265.828 38.8484 267.82C36.5681 269.054 34.1225 269.445 31.6131 268.393C30.7496 268.03 30.0068 267.509 29.4362 266.755C29.3122 266.591 29.1828 266.424 29.0259 266.294C27.8051 265.286 27.6285 263.913 28.1154 262.599C29.2784 259.461 31.4164 257.308 34.8523 256.706C34.9908 256.682 35.137 256.636 35.2722 256.71C35.5679 256.873 35.8531 256.787 36.1449 256.696C37.3459 256.324 38.6283 256.722 39.4179 257.71C39.6682 258.023 39.4227 258.348 39.4269 258.667C39.428 258.756 39.3963 258.844 39.3569 259.054Z"
            fill="white" />
        <path
            d="M27.0554 257.152C26.1364 258.382 25.397 259.666 25.0202 261.164C24.4766 263.325 24.8715 265.31 25.998 267.183C26.3441 267.759 26.8034 268.239 27.3556 268.629C28.0285 269.104 28.6961 269.587 29.3644 270.069C30.3688 270.793 31.4897 271.173 32.7255 271.243C34.5687 271.348 36.3641 271.136 38.0984 270.483C38.2314 270.432 38.3633 270.379 38.4934 270.322C38.5349 270.304 38.569 270.269 38.6717 270.195C37.6885 270.381 36.7838 270.581 35.8699 270.719C34.2449 270.965 32.6081 271.105 31.0428 270.443C28.4417 269.344 26.4845 267.553 25.3489 264.934C24.8547 263.795 24.8715 262.627 25.2353 261.448C25.9998 258.97 27.2698 256.849 29.4779 255.385C29.6156 255.294 29.7999 255.028 29.933 255.223C30.0615 255.41 30.1242 255.712 29.819 255.93C28.646 256.766 27.6757 257.801 26.8571 258.987C25.5568 260.872 25.2261 262.864 26.1083 265.016C26.5383 266.065 27.107 267.028 27.8227 267.907C29.2333 269.64 31.0937 270.468 33.2869 270.572C37.3 270.761 40.4988 269.095 43.1303 266.176C43.4038 265.873 43.6693 265.562 43.9765 265.275C43.8756 265.818 43.7854 266.351 43.4767 266.825C42.7726 267.904 41.8703 268.779 40.8016 269.491C40.5116 269.684 40.2304 269.891 39.9453 270.091C36.5928 272.447 33.1221 272.497 29.5572 270.616C29.0265 270.336 28.5233 270.013 27.9422 269.824C27.366 269.636 26.9437 269.196 26.6124 268.712C26.1562 268.044 25.6791 267.394 25.1971 266.746C24.6777 266.048 24.5114 265.256 24.4173 264.399C24.3053 263.379 24.2356 262.38 24.4996 261.381C24.8827 259.932 25.5536 258.637 26.5915 257.543C26.6893 257.44 26.8001 257.349 26.9078 257.256C26.9531 257.217 27.006 257.187 27.0554 257.152Z"
            fill="white" />
        <path
            d="M39.1601 261.84C39.2121 262.38 38.9811 262.818 38.6796 263.242C37.5445 264.836 35.9521 265.599 34.0523 265.817C33.5004 265.88 32.9518 265.947 32.3955 265.841C31.9452 265.756 31.5515 265.614 31.2896 265.193C31.102 264.892 30.8329 264.866 30.5796 265.138C30.4491 265.278 30.3124 265.452 30.4676 265.639C30.6194 265.821 30.8049 265.765 30.9629 265.612C31.0678 265.511 31.156 265.41 31.3119 265.568C32.1977 266.467 33.3035 266.472 34.4181 266.241C36.2009 265.873 37.756 265.063 39.0036 263.622C39.0995 264.093 39.0581 264.446 38.7141 264.793C37.2194 266.301 35.3824 266.956 33.3051 266.965C31.8166 266.972 30.6133 266.212 29.7961 265.078C29.2787 264.359 28.9209 263.39 29.405 262.402C30.0314 261.125 30.5393 259.764 31.7302 258.87C33.1127 257.831 34.675 257.378 36.3852 257.731C38.0056 258.065 38.8876 259.505 38.4663 261.108C37.6898 264.063 35.1155 265.27 32.3113 264.651C31.6999 264.516 31.5228 264.257 31.6383 263.874C31.7273 263.578 31.8602 263.454 32.1869 263.652C34.3569 264.965 37.2263 263.744 37.7551 261.289C37.8048 261.058 37.8087 260.817 37.8317 260.581C37.8409 260.487 37.8502 260.392 37.8491 260.297C37.8457 260.004 38.5572 259.825 38.0053 259.459C37.7034 259.259 37.5671 258.922 37.2762 258.719C36.7901 258.379 36.2504 258.248 35.67 258.202C35.0873 258.156 34.5064 258.345 33.9241 258.2C33.8778 258.189 33.7792 258.229 33.7662 258.266C33.5738 258.823 33.0056 258.846 32.5956 259.076C31.4484 259.719 30.6045 260.584 30.3379 261.914C30.2469 262.369 30.2444 262.833 30.3087 263.288C30.3924 263.881 30.6784 264.368 31.2058 264.677C31.9899 265.138 32.8308 265.372 33.7501 265.289C34.5289 265.218 35.2829 265.048 36.0123 264.768C36.4336 264.606 36.7969 264.385 37.0502 263.981C37.1888 263.76 37.4218 263.595 37.6247 263.419C38.3525 262.787 38.8612 262.023 39.0645 261.071C39.324 261.299 39.1536 261.581 39.1601 261.84Z"
            fill="white" />
        <path
            d="M43.269 267.879C43.0174 268.439 42.9175 269.054 42.4258 269.52C40.8221 271.041 38.9618 272.06 36.7953 272.515C36.4813 272.581 36.1654 272.579 35.8484 272.579C34.8978 272.58 33.9439 272.652 32.9991 272.636C30.5607 272.593 28.3964 271.714 26.4938 270.196C25.9209 269.739 25.4061 269.237 25.1522 268.51C25.0116 268.107 24.7658 267.724 24.4316 267.46C23.6627 266.853 23.4381 266.021 23.3604 265.116C23.2859 264.247 23.2132 263.377 23.3898 262.509C23.4085 262.418 23.4098 262.32 23.4018 262.226C23.2582 260.542 23.4321 259.929 24.4641 258.539C24.6127 258.928 25.0008 259.251 24.6197 259.703C24.4752 259.874 24.3872 260.058 24.0897 259.898C23.8392 259.763 23.8214 260.056 23.8059 260.191C23.7246 260.897 23.5807 261.612 23.6282 262.313C23.6919 263.253 23.765 264.196 24.0779 265.115C24.8988 267.528 26.2885 269.479 28.459 270.847C28.9465 271.154 29.4629 271.386 30.0399 271.465C30.4813 271.525 30.9009 271.663 31.3238 271.801C34.0465 272.685 36.6423 272.223 39.159 271.024C40.6423 270.318 41.857 269.258 42.9681 268.069C43.0429 267.989 43.0978 267.89 43.1619 267.8C43.1976 267.826 43.2333 267.853 43.269 267.879Z"
            fill="white" />
        <path
            d="M27.1848 265.317C27.1637 264.89 27.1682 264.576 27.1294 264.268C26.9626 262.943 27.2465 261.705 27.9052 260.567C29.4229 257.944 31.6988 256.288 34.5841 255.432C34.8815 255.344 35.0914 255.34 35.0293 255.745C35.0164 255.829 34.9787 255.893 34.8923 255.918C34.8314 255.935 34.7694 255.948 34.708 255.963C31.9294 256.651 29.9863 258.441 28.4222 260.729C28.1806 261.083 27.9767 261.457 27.8001 261.848C27.111 263.372 27.137 264.824 28.2308 266.169C28.5231 266.528 28.7573 266.919 28.9308 267.348C28.9897 267.494 29.0389 267.695 29.2038 267.714C30.0276 267.808 30.4425 268.704 31.2876 268.754C31.496 268.766 31.5118 268.903 31.3503 269.034C30.5855 269.654 30.6063 269.913 29.7394 269.155C28.614 268.171 27.5988 267.067 26.8668 265.759C25.9122 264.053 25.8553 262.293 26.805 260.543C27.061 260.071 27.3498 259.617 27.4496 259.072C27.4792 258.911 27.5938 258.755 27.6995 258.62C28.2992 257.854 29.0144 257.206 29.7932 256.628C29.8807 256.563 30.0045 256.363 30.1391 256.563C30.2328 256.702 30.2198 256.868 30.0788 256.993C29.9959 257.067 29.9077 257.134 29.8226 257.205C29.2246 257.704 28.7037 258.276 28.1937 258.864C26.788 260.486 26.6715 262.42 26.81 264.417C26.829 264.691 26.8951 264.978 27.1848 265.317Z"
            fill="white" />
        <path
            d="M33.8711 260.784C33.8986 260.903 33.7932 260.944 33.7348 261.007C33.5176 261.24 33.3648 261.496 33.4977 261.821C33.6267 262.136 33.9166 262.237 34.221 262.289C34.7487 262.378 35.1868 262.173 35.5656 261.83C35.7481 261.664 35.8309 261.44 35.8209 261.187C35.8168 261.086 35.7886 260.983 35.6961 260.949C35.5796 260.906 35.5446 261.027 35.4943 261.101C35.3877 261.258 35.2828 261.416 35.178 261.575C35.0807 261.722 34.9667 261.851 34.8096 261.938C34.5998 262.054 34.3898 262.187 34.1471 262.03C34.0133 261.944 33.9761 261.803 34.0059 261.653C34.0636 261.362 34.3198 261.329 34.5421 261.254C34.5568 261.25 34.5735 261.251 34.5891 261.248C34.8861 261.199 35.2934 261.178 35.2926 260.823C35.2918 260.463 34.8721 260.394 34.5725 260.324C33.7208 260.127 32.5025 261.122 32.5019 262.003C32.5015 262.516 32.7987 262.821 33.2465 262.998C34.4046 263.456 36.1365 262.763 36.6693 261.635C37.0528 260.824 36.479 259.747 35.4982 259.437C33.6285 258.848 31.1803 260.777 31.3304 262.728C31.3471 262.946 31.4215 263.16 31.4732 263.375C31.5129 263.54 31.511 263.732 31.358 263.795C31.1954 263.862 31.129 263.659 31.0659 263.546C30.7398 262.959 30.8148 262.345 31.0089 261.747C31.587 259.968 33.9262 258.602 35.7614 258.953C36.1888 259.035 36.5799 259.203 36.919 259.475C37.2759 259.762 37.4869 260.141 37.404 260.599C37.2085 261.681 36.7262 262.607 35.7979 263.247C35.3765 263.537 34.9136 263.67 34.4039 263.474C34.2497 263.415 34.0971 263.442 33.9381 263.479C32.9894 263.7 32.1924 263.204 31.9632 262.258C31.7518 261.386 32.3948 260.282 33.2595 260.049C33.7751 259.911 34.2738 259.694 34.8372 259.806C35.8759 260.011 36.305 260.764 35.905 261.737C35.8208 261.941 35.7169 262.138 35.6145 262.335C35.4779 262.596 35.2224 262.793 34.9662 262.74C34.513 262.647 34.0499 262.725 33.6043 262.596C33.1365 262.459 32.9855 262.236 33.0725 261.752C33.1685 261.219 33.4503 260.877 33.8711 260.784Z"
            fill="white" />
        <path
            d="M34.0765 270.332C33.5682 270.328 33.1093 270.339 32.6573 270.229C32.4032 270.167 32.2252 270.03 32.3337 269.766C32.4282 269.535 32.4098 269.142 32.837 269.212C33.8359 269.375 34.8251 269.267 35.8162 269.137C36.0745 269.103 36.3612 269.037 36.4694 269.412C36.5167 269.576 36.6808 269.552 36.7898 269.492C37.0868 269.326 37.5192 269.345 37.605 268.88C37.6287 268.752 37.8 268.727 37.9159 268.686C38.7913 268.383 39.5909 267.942 40.3293 267.384C40.4884 267.264 40.6511 267.099 40.8452 267.363C41.0407 267.628 40.8176 267.742 40.6693 267.856C38.711 269.364 36.5261 270.27 34.0765 270.332Z"
            fill="white" />
        <path
            d="M44.4454 262.409C44.3684 262.377 44.3394 262.366 44.3114 262.352C43.7532 262.089 43.6269 261.69 43.7069 261.065C43.8822 259.693 43.7853 258.321 43.3521 256.989C43.2395 256.643 43.4693 256.297 43.8155 256.248C43.9538 256.228 43.975 256.32 44.0004 256.406C44.2389 257.214 44.6251 257.978 44.4992 258.88C44.4057 259.55 44.5471 260.235 44.6182 260.91C44.6717 261.419 44.6775 261.917 44.4454 262.409Z"
            fill="white" />
        <path
            d="M30.9152 275.776C27.8006 275.917 24.87 274.393 23.8906 272.091C25.0856 272.951 26.2082 273.731 27.2967 274.555C27.7657 274.911 28.2609 275.146 28.8319 275.249C29.5076 275.371 30.1821 275.5 30.9152 275.776Z"
            fill="white" />
        <path
            d="M21.4358 263.917C20.6103 260.63 21.5207 257.906 24.0398 255.631C24.147 256.038 24.0457 256.289 23.8239 256.556C22.434 258.229 21.6093 260.147 21.388 262.32C21.3331 262.858 21.4485 263.39 21.4358 263.917Z"
            fill="white" />
        <path
            d="M30.7889 256.462C30.7067 255.982 30.8571 255.699 31.2356 255.467C32.1688 254.895 33.0811 254.289 34.1809 254.076C34.3821 254.038 34.5885 254.024 34.7929 254.003C34.9297 253.989 35.0664 254.002 35.0379 254.189C35.0149 254.34 35.1572 254.559 34.8945 254.626C33.4368 254.998 32.1555 255.768 30.7889 256.462Z"
            fill="white" />
        <path
            d="M21.1122 259.154C20.7948 256.672 22.3098 255.41 23.9726 254.199C24.1848 254.62 24.178 254.908 23.7794 255.202C22.5338 256.119 21.6768 257.326 21.2491 258.825C21.2281 258.898 21.1905 258.967 21.1122 259.154Z"
            fill="white" />
        <path
            d="M36.93 252.425C36.772 252.425 36.6139 252.43 36.4562 252.424C36.3168 252.418 36.1073 252.513 36.1273 252.237C36.1411 252.046 36.0854 251.835 36.4083 251.796C37.2064 251.7 37.9961 251.528 38.7995 251.778C39.0683 251.861 39.358 251.921 39.637 251.917C39.9376 251.912 39.9667 252.041 39.9609 252.285C39.9462 252.911 39.9562 252.904 39.3593 252.781C38.7565 252.656 38.152 252.538 37.5449 252.437C37.3452 252.404 37.1353 252.432 36.93 252.432C36.93 252.43 36.93 252.427 36.93 252.425Z"
            fill="white" />
        <path
            d="M43.2124 263.815C43.4625 263.894 43.6676 264.044 43.8322 264.238C43.9892 264.423 43.8176 264.564 43.7206 264.695C43.049 265.601 42.2525 266.393 41.4279 267.158C41.3482 267.232 41.2486 267.392 41.1284 267.225C41.0296 267.088 40.8255 266.951 41.0318 266.739C41.2747 266.49 41.5204 266.243 41.7489 265.981C42.2297 265.429 42.636 264.829 42.9198 264.15C42.978 264.011 43.0138 263.839 43.2124 263.815Z"
            fill="white" />
        <path
            d="M45.4412 260.585C45.2691 259.05 44.9114 257.633 44.4136 256.25C44.3634 256.111 44.3408 256.002 44.5149 255.96C44.7095 255.914 44.9072 255.83 45.0179 256.119C45.3346 256.944 45.5926 257.785 45.7996 258.647C45.9616 259.321 45.8513 259.919 45.4412 260.585Z"
            fill="white" />
        <path
            d="M26.5131 251.606C26.402 251.082 26.5923 250.783 27.0104 250.519C27.9757 249.908 28.9538 249.337 30.0545 249.007C30.1688 248.973 30.3517 248.845 30.4101 249.055C30.4526 249.208 30.4787 249.418 30.266 249.507C28.9383 250.06 27.6887 250.756 26.5131 251.606Z"
            fill="white" />
        <path
            d="M26.3335 253.105C26.3871 252.81 26.3221 252.561 26.5724 252.382C27.752 251.54 28.9219 250.683 30.2736 250.108C30.3914 250.861 30.3469 251.039 29.7582 251.206C28.5438 251.55 27.5222 252.214 26.5508 252.982C26.505 253.019 26.4485 253.041 26.3335 253.105Z"
            fill="white" />
        <path
            d="M36.3966 255.23C37.4372 255.274 38.4207 255.541 39.3499 256.007C39.5115 256.088 39.7208 256.148 39.7059 256.395C39.6976 256.533 39.753 256.707 39.6265 256.795C39.5069 256.879 39.3962 256.739 39.2931 256.684C38.258 256.126 37.1575 255.834 35.9789 255.831C35.845 255.83 35.6009 255.96 35.6055 255.646C35.609 255.406 35.6506 255.2 35.9703 255.228C36.1114 255.24 36.2544 255.23 36.3966 255.23Z"
            fill="white" />
        <path
            d="M29.9875 253.612C30.0311 254.418 30.0255 254.484 29.2067 254.811C28.7492 254.995 28.4145 255.278 28.071 255.609C27.2874 256.363 26.4224 257.035 25.7879 258.011C25.7853 257.284 25.7928 257.279 26.2153 256.844C26.8879 256.151 27.5888 255.493 28.3579 254.905C28.627 254.699 28.8031 254.375 29.0572 254.145C29.3116 253.914 29.6194 253.749 29.9875 253.612Z"
            fill="white" />
        <path
            d="M30.9688 255.114C30.7995 254.621 30.9378 254.35 31.3849 254.143C32.4239 253.66 33.4669 253.212 34.6261 253.121C34.7695 253.109 34.9537 253.009 34.986 253.275C35.0132 253.498 34.8722 253.519 34.7029 253.558C33.3812 253.865 32.1622 254.424 30.9688 255.114Z"
            fill="white" />
        <path
            d="M30.9512 249.205C30.8526 248.735 30.9697 248.489 31.4485 248.36C32.5052 248.075 33.5635 247.817 34.6558 247.727C34.7942 247.715 35.0255 247.591 35.0513 247.897C35.0748 248.175 34.854 248.141 34.6992 248.169C33.4223 248.399 32.1931 248.807 30.9512 249.205Z"
            fill="white" />
        <path
            d="M30.9043 250.539C30.7251 249.91 30.9837 249.672 31.4994 249.529C32.5241 249.244 33.5553 249.004 34.6125 248.893C34.7533 248.878 35.0127 248.706 35.063 249.037C35.1112 249.354 34.8487 249.295 34.6856 249.318C33.3598 249.505 32.1037 249.913 30.9043 250.539Z"
            fill="white" />
        <path
            d="M32.8274 250.237C33.4846 250.505 34.0712 250.168 34.6836 250.058C34.7987 250.037 34.9774 249.911 35.0206 250.155C35.0488 250.313 34.9946 250.42 34.8167 250.467C33.613 250.789 32.4128 251.123 31.2074 251.437C31.089 251.468 30.8818 251.628 30.817 251.369C30.773 251.193 30.8888 251.094 31.066 251.032C31.5425 250.863 31.9976 250.646 32.4311 250.382C32.5487 250.31 32.6941 250.284 32.8274 250.237Z"
            fill="white" />
        <path
            d="M37.2977 248.731C38.0741 248.649 38.8765 248.784 39.6713 249.022C39.8777 249.084 39.9888 249.196 39.956 249.38C39.9154 249.607 39.7234 249.462 39.6049 249.457C38.4855 249.406 37.3667 249.342 36.2473 249.291C36.0453 249.282 35.8768 249.303 35.8825 249.009C35.8884 248.702 36.1065 248.804 36.2505 248.79C36.5802 248.759 36.9122 248.751 37.2977 248.731Z"
            fill="white" />
        <path
            d="M26.2222 254.399C26.1496 254.011 26.2976 253.76 26.5325 253.487C27.4534 252.417 28.7414 252.006 29.9757 251.492C30.0442 251.463 30.1342 251.411 30.1813 251.505C30.2252 251.592 30.2052 251.697 30.1241 251.761C30.0512 251.819 29.9635 251.86 29.8798 251.903C28.5719 252.576 27.3485 253.372 26.2222 254.399Z"
            fill="white" />
        <path
            d="M39.864 255.317C38.9374 254.959 38.1237 254.601 37.2264 254.55C36.8478 254.529 36.4687 254.514 36.0897 254.503C35.9509 254.499 35.7905 254.552 35.8199 254.31C35.8389 254.155 35.8601 254.027 36.0705 254.064C36.5761 254.155 37.0803 254.08 37.5823 254.028C38.3511 253.949 38.9935 254.318 39.6615 254.593C39.983 254.726 39.7557 255.007 39.864 255.317Z"
            fill="white" />
        <path
            d="M26.621 250.383C26.5422 249.932 26.6997 249.704 27.038 249.519C28.0069 248.988 28.9376 248.385 29.9845 248.009C30.1136 247.962 30.2943 247.796 30.387 248.014C30.4705 248.21 30.417 248.379 30.1622 248.492C28.9493 249.025 27.7401 249.57 26.621 250.383Z"
            fill="white" />
        <path
            d="M34.962 252.284C34.9958 252.478 34.8953 252.555 34.6774 252.588C33.4518 252.774 32.2707 253.113 31.1531 253.658C31.0727 253.698 30.973 253.793 30.9023 253.71C30.8187 253.612 30.828 253.457 30.896 253.353C30.951 253.269 31.0621 253.21 31.1601 253.167C32.2625 252.685 33.3791 252.245 34.5771 252.055C34.9409 251.997 34.9509 252 34.962 252.284Z"
            fill="white" />
        <path
            d="M37.2984 249.712C38.253 249.665 39.0183 249.905 39.8016 250.004C39.9803 250.027 39.9931 250.127 39.9884 250.266C39.9813 250.472 39.8505 250.433 39.7223 250.408C38.6217 250.198 37.5136 250.265 36.4056 250.318C36.242 250.325 36.0507 250.399 36.017 250.117C35.9821 249.825 36.1631 249.824 36.3641 249.807C36.7268 249.777 37.0885 249.734 37.2984 249.712Z"
            fill="white" />
        <path
            d="M34.5944 246.868C34.6275 246.868 34.7224 246.872 34.817 246.868C34.9581 246.861 35.014 246.933 35.0216 247.066C35.0292 247.199 34.9815 247.268 34.8393 247.281C33.607 247.387 32.4073 247.656 31.2264 248.016C31.1309 248.045 31.033 248.065 31.031 247.914C31.0288 247.75 31.0395 247.601 31.2447 247.547C31.6264 247.448 32.0042 247.334 32.3844 247.228C33.0877 247.034 33.8086 246.945 34.5944 246.868Z"
            fill="white" />
        <path
            d="M39.7065 248.486C38.4749 248.328 37.283 248.176 36.0912 248.022C35.9616 248.005 35.7762 248.06 35.7999 247.823C35.8184 247.639 35.9661 247.664 36.0887 247.663C37.1855 247.655 38.2718 247.735 39.3397 248.011C39.6036 248.079 39.7078 248.219 39.7065 248.486Z"
            fill="white" />
        <path
            d="M27.4437 254.693C27.2609 254.293 27.4295 254.043 27.7825 253.848C28.569 253.413 29.2306 252.781 30.0919 252.358C30.1221 252.603 30.2003 252.825 29.9677 252.963C29.2027 253.418 28.5722 254.054 27.8215 254.526C27.7028 254.601 27.5896 254.695 27.4345 254.683L27.4437 254.693Z"
            fill="white" />
        <path
            d="M39.9245 251.732C38.8185 251.341 37.6775 251.459 36.5811 251.258C36.5194 251.246 36.4553 251.241 36.3926 251.243C36.2298 251.247 36.1098 251.205 36.1175 251.011C36.1258 250.804 36.2895 250.857 36.3986 250.863C36.8708 250.886 37.3428 250.917 37.8139 250.956C38.3793 251.003 38.943 251.077 39.5091 251.109C39.9241 251.133 40.0724 251.304 39.9245 251.732Z"
            fill="white" />
        <path
            d="M39.836 254.017C38.6911 253.535 37.4712 253.44 36.2387 253.426C36.1476 253.425 36.0304 253.442 36.0256 253.308C36.0198 253.149 36.1527 253.167 36.2607 253.149C37.3521 252.967 38.4201 253.058 39.4839 253.361C39.8514 253.465 40.0058 253.606 39.836 254.017Z"
            fill="white" />
        <path
            d="M26.735 249.254C26.678 248.889 26.8144 248.696 27.0861 248.559C27.9894 248.101 28.9211 247.711 29.8644 247.346C30.0103 247.289 30.1394 247.257 30.2116 247.444C30.2685 247.591 30.1776 247.637 30.0601 247.676C28.8991 248.057 27.8425 248.661 26.735 249.254Z"
            fill="white" />
        <path
            d="M26.8687 248.166C27.1385 247.054 28.9123 246.2 29.6841 246.798C28.7038 247.165 27.7886 247.604 26.8687 248.166Z"
            fill="white" />
        <path
            d="M39.4102 247.623C38.3002 247.334 37.2452 247.281 36.1873 247.248C36.0815 247.245 35.9017 247.334 35.8939 247.127C35.8875 246.956 35.9791 246.795 36.1708 246.808C37.1162 246.872 38.0688 246.88 38.9957 247.111C39.223 247.167 39.2867 247.38 39.4102 247.623Z"
            fill="white" />
        <path
            d="M21.5371 255.34C21.5551 254.946 21.6549 254.657 21.9961 254.482C22.4507 254.247 22.8319 253.908 23.203 253.563C23.4356 253.347 23.5962 253.451 23.7547 253.639C23.9665 253.892 23.72 253.97 23.5748 254.062C22.9107 254.486 22.2406 254.9 21.5371 255.34Z"
            fill="white" />
        <path
            d="M34.862 246.395C33.6214 246.659 32.3764 246.886 31.1133 247.29C31.6927 246.383 32.9933 246.218 34.862 246.395Z"
            fill="white" />
        <path
            d="M46.3369 258.454C46.1795 257.515 45.9542 256.715 45.5171 255.915C46.0966 255.989 46.3515 256.369 46.5801 256.784C46.8969 257.358 46.7124 257.863 46.3369 258.454Z"
            fill="white" />
        <path
            d="M34.7444 245.719C33.6296 245.798 32.5623 246.01 31.5052 246.281C31.416 246.304 31.2804 246.41 31.2369 246.233C31.2035 246.096 31.316 246.04 31.4308 246.013C32.3983 245.778 33.3646 245.538 34.3346 245.314C34.645 245.242 34.6901 245.479 34.7444 245.719Z"
            fill="white" />
        <path
            d="M27.4349 254.684C27.4644 254.792 27.3893 254.863 27.3354 254.937C26.9719 255.437 26.4795 255.812 26.0576 256.287C25.869 255.183 26.2414 254.767 27.4442 254.694C27.4441 254.694 27.4349 254.684 27.4349 254.684Z"
            fill="white" />
        <path
            d="M33.4384 251.581C33.2025 251.604 33.0449 251.662 33.0185 251.482C32.9955 251.325 33.1412 251.281 33.2677 251.255C33.7289 251.163 34.1896 251.067 34.6533 250.989C34.7682 250.97 34.9499 250.881 34.9696 251.129C34.9847 251.317 34.8872 251.362 34.7204 251.384C34.2538 251.446 33.7896 251.526 33.4384 251.581Z"
            fill="white" />
        <path
            d="M34.0188 244.879C33.316 244.976 32.6469 245.069 31.9639 245.163C32.3449 244.562 33.4101 244.404 34.0188 244.879Z"
            fill="white" />
        <path
            d="M36.689 246.236C37.3408 245.77 38.0151 245.87 38.6241 246.507C37.9675 246.376 37.3415 246.258 36.689 246.236Z"
            fill="white" />
        <path
            d="M30.8701 252.297C30.8068 252.122 30.8002 251.971 30.9796 251.887C31.3495 251.713 31.7234 251.547 32.1354 251.495C32.2497 251.48 32.3809 251.464 32.4035 251.604C32.4238 251.73 32.3025 251.788 32.1964 251.827C31.7574 251.984 31.3174 252.139 30.8701 252.297Z"
            fill="white" />
        <path
            d="M39.1597 261.841C39.0689 261.591 39.2444 261.309 39.064 261.071C39.0905 260.59 39.1695 260.11 39.1606 259.624C39.2434 260.361 39.3103 261.099 39.1597 261.841Z"
            fill="white" />
        <path
            d="M43.6663 262.335C43.6459 262.625 43.6299 262.915 43.6026 263.204C43.5924 263.312 43.5047 263.373 43.4046 263.36C43.2646 263.34 43.3107 263.222 43.3304 263.142C43.3985 262.864 43.4769 262.589 43.5514 262.312C43.5897 262.32 43.628 262.328 43.6663 262.335Z"
            fill="white" />
        <path
            d="M25.4722 271.073C29.6484 273.544 34.0831 274.236 38.7922 273.1C38.4554 273.652 37.1809 274.107 36.4621 273.926C36.3099 273.888 36.1669 273.833 35.9994 273.858C33.1898 274.288 30.5247 273.744 27.9468 272.642C27.0433 272.256 26.1609 271.829 25.4722 271.073Z"
            fill="white" />
        <path
            d="M563.579 0.18457C559.625 9.15147 559.913 21.3714 567.656 45.3966C586.217 102.982 590.5 117.26 614.058 139.39C634.374 158.474 725.171 164.817 749.78 166.201V0.18457H563.579Z"
            fill="url(#paint3_linear_826_16797)" />
        <path
            d="M669.026 282.397C693.282 286.008 715.929 303.82 732.024 320.001H749.78V94.7646C716.549 95.135 560.638 101.376 567.656 186.022C575.508 280.738 622.624 275.49 669.026 282.397Z"
            fill="url(#paint4_linear_826_16797)" />
        <path
            d="M523.629 0.18457C520.791 0.700945 518.229 0.73865 516.023 0.18457H473.899C482.024 7.17047 492.661 11.6983 506.053 11.8577C527.824 12.1168 541.817 7.73311 553.62 0.18457H523.629Z"
            fill="url(#paint5_linear_826_16797)" />
        <path
            d="M578.549 42.8252C585.211 28.4684 597.903 19.8039 607.377 15.0637C617.706 9.89624 626.569 8.13319 626.657 8.11581L626.249 6.01367C625.878 6.08561 617.056 7.83609 606.474 13.121C596.675 18.0152 583.538 26.9853 576.606 41.9238L578.549 42.8252Z"
            fill="#FE1E9D" />
        <path
            d="M555.385 81.3188C571.014 81.3188 583.684 68.6487 583.684 53.0193C583.684 37.3899 571.014 24.7197 555.385 24.7197C539.755 24.7197 527.085 37.3899 527.085 53.0193C527.085 68.6487 539.755 81.3188 555.385 81.3188Z"
            fill="url(#paint6_linear_826_16797)" />
        <path
            d="M490.966 320H556.359C539.608 313.25 530.024 300.675 518.902 294.002C502.841 284.365 478.749 279.547 484.638 294.002C487.112 300.074 488.547 309.547 490.966 320Z"
            fill="url(#paint7_linear_826_16797)" />
        <path
            d="M470.718 312.611C472.357 314.058 474.309 316.682 476.453 320H544.703C541.839 316.894 538.607 314.329 534.964 312.611C511.407 301.498 462.688 305.52 470.718 312.611Z"
            fill="#952AA3" />
        <path
            d="M507.391 320C504.25 318.241 500.991 316.996 497.643 316.5L497.329 318.619C499.049 318.874 500.75 319.347 502.427 320H507.391Z"
            fill="#FE1E9D" />
        <path
            d="M523.854 320C523.74 319.679 523.621 319.361 523.49 319.049L521.516 319.88C521.533 319.919 521.547 319.96 521.563 319.999L523.854 320Z"
            fill="#FE1E9D" />
        <path
            d="M514.234 320H516.389C516.213 317.205 515.356 314.095 512.876 311.821L511.429 313.4C513.364 315.174 514.068 317.679 514.234 320Z"
            fill="#FE1E9D" />
        <path
            d="M508.728 87.5388C508.728 87.5388 510.197 42.7474 488.168 27.3273C466.14 11.9072 454.024 17.0471 454.024 17.0471C454.024 17.0471 454.34 9.91065 452.408 0.18457H140.792C139.384 7.06805 139.015 11.4079 139.015 11.4079C139.015 11.4079 94.7342 8.97016 83.6499 35.7714C72.5622 62.5729 72.3161 79.8285 72.3161 79.8285C72.3161 79.8285 18.592 90.4755 20.4278 148.851C21.4486 181.27 37.7533 195.005 52.0537 200.813C63.5011 205.461 73.6636 205.024 73.6636 205.024C73.6636 205.024 61.548 234.396 82.8423 256.792C104.137 279.187 123.962 278.82 123.962 278.82C123.962 278.82 119.241 298.454 126.168 320H433.073C452.76 295.419 445.389 262.783 445.389 262.783C445.389 262.783 452.232 266.132 462.09 267.824C475.458 270.123 494.369 269.378 509.279 253.12C530.827 229.623 515.704 202.822 515.704 202.822C515.704 202.822 562.787 190.706 562.926 140.407C563.065 90.1089 508.728 87.5388 508.728 87.5388Z"
            fill="url(#paint8_linear_826_16797)" />
        <path
            d="M455.193 135.571C455.193 135.571 466.972 103.746 442.343 85.91C417.718 68.0738 395.231 79.0677 395.231 79.0677C395.231 79.0677 391.483 67.0031 383.452 60.0429C375.421 53.0826 367.39 53.0185 367.39 53.0185C367.39 53.0185 364.891 19.7878 339.276 0.18457H254.262C236.585 14.876 231.404 35.8783 231.404 35.8783C231.404 35.8783 185.363 20.4229 147.884 62.7199C110.41 105.013 126.472 139.815 126.472 139.815C126.472 139.815 94.8828 127.49 68.1126 174.609C63.1975 183.261 60.2493 191.499 58.7144 199.188C69.8436 203.707 79.7237 203.282 79.7237 203.282C79.7237 203.282 67.9447 231.837 88.647 253.61C109.349 275.383 128.624 275.026 128.624 275.026C128.624 275.026 123.288 297.216 132.563 320.001H308.3C308.949 318.452 309.234 317.559 309.234 317.559C309.234 317.559 310.087 318.501 311.743 320.001H424.673C449.329 295.81 441.115 259.435 441.115 259.435C441.115 259.435 447.768 262.691 457.352 264.336C471.076 257.672 512.249 233.69 501.623 189.947C488.923 137.673 455.193 135.571 455.193 135.571Z"
            fill="url(#paint9_linear_826_16797)" />
        <path
            d="M484.565 167.275C493.842 178.819 495.719 193.294 489.993 209.134C485.704 221 478.79 229.322 478.498 229.67L476.857 228.294C476.927 228.211 483.847 219.872 487.999 208.35C493.51 193.057 491.793 179.689 482.896 168.616C471.756 154.754 462.37 149.668 456.457 147.842C456.005 147.703 455.568 147.581 455.143 147.473C455.494 146.811 455.857 146.156 456.225 145.507C463.145 147.415 473.01 152.895 484.565 167.275Z"
            fill="#FE1E9D" />
        <path
            d="M403.46 89.7768C410.166 90.0268 420.49 92.0621 431.589 100.34C440.441 106.941 445.91 117.006 447.405 129.447C448.232 136.321 447.651 142.084 447.262 144.772C449.027 144.5 452.104 144.37 456.226 145.506C455.858 146.156 455.495 146.811 455.143 147.473C449.604 146.064 446.337 147.168 446.307 147.178L444.505 147.833L444.892 145.955C444.907 145.883 446.366 138.648 445.271 129.637C443.816 117.655 438.782 108.375 430.309 102.056C419.696 94.1417 409.868 92.1762 403.492 91.9211C396.573 91.6441 392.103 93.2622 392.06 93.278L391.312 91.2713C391.507 91.1989 396.152 89.504 403.46 89.7768Z"
            fill="#FFC052" />
        <path
            d="M140.848 141.063C140.765 132.066 142.643 118.862 152.058 107.048C161.527 95.1646 174.358 92.1802 183.454 91.7689C193.258 91.3272 200.733 93.639 201.046 93.7376L200.404 95.7804C200.33 95.7571 192.921 93.4716 183.481 93.9115C170.928 94.4958 160.919 99.3643 153.732 108.382C144.728 119.682 142.92 132.34 142.989 140.969C143.01 143.592 143.201 146.012 143.465 148.142C142.751 148.198 142.038 148.26 141.325 148.329C141.062 146.172 140.873 143.726 140.848 141.063Z"
            fill="#FF22B5" />
        <path
            d="M123.409 165.733C131.603 159.928 139.957 157.527 142.97 156.799C142.541 155.27 141.808 152.289 141.325 148.329C142.038 148.26 142.752 148.199 143.466 148.142C144.15 153.648 145.327 157.203 145.343 157.252L145.735 158.417L144.528 158.646C144.427 158.665 134.295 160.645 124.647 167.48C111.772 176.602 105.903 189.58 107.204 206.053C108.833 226.686 117.183 239.062 123.9 245.811C131.184 253.128 138.183 255.608 138.252 255.632L137.556 257.657C137.255 257.553 130.095 255.035 122.468 247.407C115.46 240.4 106.754 227.567 105.069 206.222C103.37 184.701 114.104 172.325 123.409 165.733Z"
            fill="#FFC052" />
        <path
            d="M417.073 76.4035C427.147 76.4035 435.314 68.2368 435.314 58.1627C435.314 48.0886 427.147 39.9219 417.073 39.9219C406.999 39.9219 398.833 48.0886 398.833 58.1627C398.833 68.2368 406.999 76.4035 417.073 76.4035Z"
            fill="#31E6FD" />
        <path d="M423.793 48.8545H410.958V50.911H423.793V48.8545Z" fill="white" />
        <path d="M423.793 52.6582H410.958V54.3423H423.793V52.6582Z" fill="white" />
        <path d="M419.845 67.3266H417.085L410.957 58.1426H413.717L419.845 67.3266Z" fill="white" />
        <path
            d="M415.282 48.8545H410.957V50.8417H414.756C416.14 50.8417 417.262 52.0314 417.262 53.4986C417.262 54.9658 416.14 56.1555 414.756 56.1555H410.957V58.1427H415.282C417.701 58.1427 419.662 56.0633 419.662 53.4986C419.662 50.9339 417.701 48.8545 415.282 48.8545Z"
            fill="white" />
        <path
            d="M62.537 114.06C76.637 114.06 88.0672 102.63 88.0672 88.5302C88.0672 74.4303 76.637 63 62.537 63C48.4371 63 37.0068 74.4303 37.0068 88.5302C37.0068 102.63 48.4371 114.06 62.537 114.06Z"
            fill="url(#paint10_linear_826_16797)" />
        <path fill-rule="evenodd" clip-rule="evenodd"
            d="M60.9154 75.8231C60.9655 76.0701 60.9155 76.3268 60.7763 76.5369C60.6372 76.747 60.4203 76.8932 60.1734 76.9435C57.9217 77.4049 55.855 78.5172 54.2298 80.1425C52.6045 81.7678 51.4922 83.8344 51.0308 86.0861C50.9806 86.3333 50.8343 86.5504 50.6241 86.6897C50.4138 86.829 50.1568 86.879 49.9097 86.8288C49.6625 86.7787 49.4454 86.6324 49.3061 86.4221C49.1668 86.2119 49.1168 85.9549 49.167 85.7077C49.7025 83.0898 50.9952 80.6869 52.8847 78.7974C54.7742 76.908 57.1771 75.6152 59.795 75.0797C59.9174 75.0547 60.0435 75.0542 60.1661 75.078C60.2887 75.1019 60.4054 75.1498 60.5095 75.2188C60.6136 75.2879 60.7031 75.3768 60.7727 75.4805C60.8424 75.5842 60.8909 75.7006 60.9154 75.8231ZM49.9104 90.0344C50.0327 90.0094 50.1587 90.0088 50.2812 90.0326C50.4038 90.0564 50.5204 90.1041 50.6245 90.173C50.7285 90.2419 50.818 90.3307 50.8877 90.4343C50.9574 90.5378 51.0061 90.6541 51.0308 90.7764C51.4922 93.0281 52.6045 95.0948 54.2298 96.72C55.855 98.3453 57.9217 99.4576 60.1734 99.919C60.2958 99.9439 60.4121 99.9926 60.5156 100.062C60.6192 100.132 60.708 100.222 60.7769 100.326C60.8459 100.43 60.8937 100.547 60.9176 100.669C60.9415 100.792 60.941 100.918 60.9161 101.04C60.8913 101.163 60.8426 101.279 60.7728 101.382C60.703 101.486 60.6135 101.575 60.5094 101.644C60.4053 101.713 60.2886 101.76 60.166 101.784C60.0435 101.808 59.9174 101.808 59.795 101.783C57.1773 101.247 54.7747 99.9543 52.8855 98.0648C50.9963 96.1753 49.7037 93.7725 49.1683 91.1548C49.1182 90.9078 49.1683 90.6511 49.3074 90.441C49.4465 90.2309 49.6634 90.0846 49.9104 90.0344ZM64.1216 75.8231C64.1462 75.7006 64.1947 75.5842 64.2644 75.4805C64.334 75.3768 64.4235 75.2879 64.5276 75.2188C64.6316 75.1498 64.7483 75.1019 64.8709 75.078C64.9936 75.0542 65.1197 75.0547 65.2421 75.0797C67.86 75.6152 70.2629 76.908 72.1524 78.7974C74.0419 80.6869 75.3346 83.0898 75.8701 85.7077C75.9203 85.9549 75.8702 86.2119 75.7309 86.4221C75.5917 86.6324 75.3746 86.7787 75.1274 86.8288C74.8802 86.879 74.6233 86.829 74.413 86.6897C74.2028 86.5504 74.0565 86.3333 74.0063 86.0861C73.5449 83.8344 72.4326 81.7678 70.8073 80.1425C69.182 78.5172 67.1154 77.4049 64.8637 76.9435C64.6168 76.8932 64.3999 76.747 64.2607 76.5369C64.1216 76.3268 64.0716 76.0701 64.1216 75.8231ZM75.1267 90.0344C75.2491 90.0591 75.3654 90.1077 75.469 90.1774C75.5726 90.2471 75.6615 90.3365 75.7305 90.4406C75.7996 90.5446 75.8474 90.6613 75.8714 90.7838C75.8953 90.9064 75.8949 91.0324 75.8701 91.1548C75.3346 93.7727 74.0419 96.1756 72.1524 98.0651C70.2629 99.9546 67.86 101.247 65.2421 101.783C64.9949 101.833 64.7379 101.783 64.5277 101.644C64.3175 101.504 64.1711 101.287 64.121 101.04C64.0708 100.793 64.1209 100.536 64.2601 100.326C64.3994 100.116 64.6165 99.9692 64.8637 99.919C67.1154 99.4576 69.182 98.3453 70.8073 96.72C72.4326 95.0948 73.5449 93.0281 74.0063 90.7764C74.031 90.6541 74.0796 90.5378 74.1494 90.4343C74.2191 90.3307 74.3085 90.2419 74.4126 90.173C74.5167 90.1041 74.6333 90.0564 74.7559 90.0326C74.8784 90.0088 75.0044 90.0094 75.1267 90.0344Z"
            fill="white" />
        <path fill-rule="evenodd" clip-rule="evenodd"
            d="M62.5196 98.5704C65.2085 98.5704 67.7873 97.5022 69.6887 95.6008C71.5901 93.6994 72.6583 91.1206 72.6583 88.4317C72.6583 85.7427 71.5901 83.1639 69.6887 81.2625C67.7873 79.3611 65.2085 78.293 62.5196 78.293C59.8306 78.293 57.2518 79.3611 55.3504 81.2625C53.449 83.1639 52.3809 85.7427 52.3809 88.4317C52.3809 91.1206 53.449 93.6994 55.3504 95.6008C57.2518 97.5022 59.8306 98.5704 62.5196 98.5704ZM58.4282 91.8264C58.5025 91.7258 58.5958 91.641 58.7029 91.5766C58.81 91.5122 58.9287 91.4696 59.0523 91.4512C59.1759 91.4328 59.3019 91.439 59.4231 91.4694C59.5443 91.4999 59.6583 91.5539 59.7586 91.6285C60.5474 92.2128 61.4967 92.5511 62.5196 92.5511C63.5153 92.5496 64.4839 92.226 65.2805 91.6285C65.3808 91.5542 65.4947 91.5004 65.6157 91.4702C65.7368 91.4399 65.8626 91.4338 65.986 91.4522C66.1094 91.4706 66.228 91.5131 66.335 91.5773C66.442 91.6415 66.5353 91.7261 66.6095 91.8264C66.6838 91.9266 66.7376 92.0405 66.7678 92.1616C66.7981 92.2826 66.8042 92.4085 66.7858 92.5319C66.7675 92.6553 66.725 92.7739 66.6608 92.8808C66.5966 92.9878 66.5119 93.0811 66.4116 93.1554C65.2879 93.9957 63.9228 94.4506 62.5196 94.4523C61.1163 94.451 59.7511 93.996 58.6275 93.1554C58.4251 93.0053 58.2906 92.781 58.2535 92.5318C58.2164 92.2826 58.2797 92.0289 58.4296 91.8264M66.9558 86.2924C66.9558 87.2123 66.4611 87.957 65.8474 87.957C65.2351 87.957 64.7377 87.2123 64.7377 86.2924C64.7377 85.3739 65.2351 84.6292 65.8474 84.6292C66.4598 84.6292 66.9572 85.3739 66.9572 86.2924M59.1957 87.957C59.8081 87.957 60.3054 87.2123 60.3054 86.2924C60.3054 85.3739 59.8081 84.6292 59.1957 84.6292C58.5833 84.6292 58.086 85.3739 58.086 86.2924C58.086 87.2123 58.5833 87.957 59.1957 87.957Z"
            fill="white" />
        <path
            d="M103.67 131.908C111.894 123.684 111.894 110.35 103.67 102.126C95.4456 93.9015 82.1117 93.9015 73.8876 102.126C65.6635 110.35 65.6635 123.684 73.8876 131.908C82.1117 140.132 95.4456 140.132 103.67 131.908Z"
            fill="#C740ED" />
        <path
            d="M92.7209 125.129C89.2652 125.129 86.8045 123.58 85.6312 120.963H93.7556V118.271H84.9237C84.8783 117.86 84.8544 117.435 84.8544 116.994C84.8544 116.779 84.8615 116.57 84.8719 116.362H93.7559V113.671H85.3546C86.4432 110.404 89.2204 108.693 92.7545 108.693C94.6292 108.693 96.1019 109.094 97.173 109.563L98.0768 106.282C97.2402 105.847 95.2986 105.278 92.5873 105.278C86.8637 105.278 82.343 108.371 80.9698 113.671H75.3545V116.362H80.5611C80.5463 116.636 80.5366 116.913 80.5366 117.195C80.5366 117.561 80.5514 117.919 80.5759 118.271H75.3545V120.963H81.0358C82.3662 125.652 86.3019 128.543 92.0518 128.543C94.7634 128.543 96.9055 128.041 97.8763 127.539L97.2069 124.292C96.1352 124.794 94.3947 125.129 92.7209 125.129Z"
            fill="white" />
        <path
            d="M538.943 223.981C553.47 223.981 565.246 212.205 565.246 197.678C565.246 183.151 553.47 171.374 538.943 171.374C524.416 171.374 512.639 183.151 512.639 197.678C512.639 212.205 524.416 223.981 538.943 223.981Z"
            fill="#FBBA52" />
        <path
            d="M542.776 205.888C539.32 205.888 536.86 204.339 535.686 201.722H543.811V199.03H534.979C534.933 198.619 534.91 198.194 534.91 197.753C534.91 197.538 534.917 197.328 534.927 197.121H543.811V194.429H535.41C536.498 191.163 539.276 189.451 542.81 189.451C544.684 189.451 546.157 189.853 547.228 190.322L548.132 187.041C547.295 186.606 545.354 186.037 542.642 186.037C536.919 186.037 532.398 189.13 531.025 194.429H525.41V197.121H530.616C530.601 197.395 530.592 197.672 530.592 197.954C530.592 198.32 530.607 198.678 530.631 199.03H525.41V201.722H531.091C532.421 206.41 536.357 209.302 542.107 209.302C544.819 209.302 546.961 208.8 547.932 208.298L547.262 205.051C546.19 205.553 544.45 205.888 542.776 205.888Z"
            fill="white" />
        <path
            d="M450.648 180.307C469.94 180.307 485.579 164.668 485.579 145.377C485.579 126.085 469.94 110.446 450.648 110.446C431.357 110.446 415.718 126.085 415.718 145.377C415.718 164.668 431.357 180.307 450.648 180.307Z"
            fill="#FF22B5" />
        <path fill-rule="evenodd" clip-rule="evenodd"
            d="M448.793 128.021C448.865 128.372 448.793 128.737 448.596 129.035C448.398 129.333 448.09 129.541 447.74 129.612C444.542 130.267 441.608 131.847 439.3 134.155C436.992 136.463 435.412 139.397 434.757 142.595C434.686 142.946 434.478 143.254 434.18 143.452C433.881 143.65 433.516 143.721 433.165 143.65C432.814 143.578 432.506 143.371 432.308 143.072C432.11 142.773 432.039 142.409 432.11 142.058C432.871 138.34 434.707 134.928 437.39 132.245C440.073 129.562 443.485 127.726 447.202 126.966C447.376 126.93 447.555 126.929 447.729 126.963C447.904 126.997 448.069 127.065 448.217 127.163C448.365 127.261 448.492 127.388 448.591 127.535C448.69 127.682 448.759 127.847 448.793 128.021ZM433.166 148.201C433.34 148.166 433.519 148.165 433.693 148.199C433.867 148.233 434.032 148.3 434.18 148.398C434.328 148.496 434.455 148.622 434.554 148.769C434.653 148.916 434.722 149.081 434.757 149.255C435.412 152.453 436.992 155.387 439.3 157.695C441.608 160.003 444.542 161.583 447.74 162.238C447.913 162.273 448.079 162.342 448.226 162.441C448.373 162.54 448.499 162.667 448.597 162.815C448.695 162.963 448.763 163.129 448.796 163.303C448.83 163.477 448.83 163.656 448.794 163.83C448.759 164.003 448.69 164.169 448.591 164.316C448.492 164.463 448.365 164.589 448.217 164.687C448.069 164.785 447.903 164.852 447.729 164.886C447.555 164.92 447.376 164.92 447.202 164.884C443.485 164.124 440.074 162.288 437.391 159.605C434.708 156.922 432.873 153.51 432.112 149.792C432.041 149.442 432.112 149.077 432.31 148.779C432.508 148.48 432.815 148.273 433.166 148.201ZM453.346 128.021C453.381 127.847 453.45 127.682 453.549 127.535C453.648 127.388 453.775 127.261 453.923 127.163C454.07 127.065 454.236 126.997 454.41 126.963C454.584 126.929 454.763 126.93 454.937 126.966C458.655 127.726 462.067 129.562 464.75 132.245C467.433 134.928 469.269 138.34 470.029 142.058C470.1 142.409 470.029 142.773 469.832 143.072C469.634 143.371 469.325 143.578 468.974 143.65C468.624 143.721 468.259 143.65 467.96 143.452C467.662 143.254 467.454 142.946 467.383 142.595C466.727 139.397 465.148 136.463 462.84 134.155C460.532 131.847 457.597 130.267 454.4 129.612C454.049 129.541 453.741 129.333 453.544 129.035C453.346 128.737 453.275 128.372 453.346 128.021ZM468.974 148.201C469.147 148.237 469.313 148.306 469.46 148.405C469.607 148.504 469.733 148.63 469.831 148.778C469.929 148.926 469.997 149.092 470.031 149.266C470.065 149.44 470.064 149.619 470.029 149.792C469.269 153.51 467.433 156.922 464.75 159.605C462.067 162.288 458.655 164.124 454.937 164.884C454.586 164.956 454.221 164.884 453.923 164.687C453.624 164.489 453.417 164.181 453.345 163.83C453.274 163.479 453.345 163.114 453.543 162.815C453.741 162.517 454.049 162.309 454.4 162.238C457.597 161.583 460.532 160.003 462.84 157.695C465.148 155.387 466.727 152.453 467.383 149.255C467.418 149.081 467.487 148.916 467.586 148.769C467.685 148.622 467.812 148.496 467.959 148.398C468.107 148.3 468.273 148.233 468.447 148.199C468.621 148.165 468.8 148.166 468.974 148.201Z"
            fill="white" />
        <path fill-rule="evenodd" clip-rule="evenodd"
            d="M451.072 160.321C454.89 160.321 458.552 158.805 461.252 156.105C463.952 153.405 465.469 149.743 465.469 145.924C465.469 142.106 463.952 138.444 461.252 135.744C458.552 133.044 454.89 131.527 451.072 131.527C447.253 131.527 443.592 133.044 440.892 135.744C438.192 138.444 436.675 142.106 436.675 145.924C436.675 149.743 438.192 153.405 440.892 156.105C443.592 158.805 447.253 160.321 451.072 160.321ZM445.262 150.745C445.368 150.602 445.5 150.482 445.652 150.39C445.804 150.299 445.973 150.238 446.148 150.212C446.324 150.186 446.503 150.195 446.675 150.238C446.847 150.281 447.009 150.358 447.151 150.464C448.271 151.294 449.619 151.774 451.072 151.774C452.486 151.772 453.861 151.312 454.992 150.464C455.135 150.358 455.297 150.282 455.468 150.239C455.64 150.196 455.819 150.187 455.994 150.214C456.169 150.24 456.338 150.3 456.49 150.391C456.642 150.482 456.774 150.603 456.88 150.745C456.985 150.887 457.061 151.049 457.104 151.221C457.147 151.393 457.156 151.571 457.13 151.747C457.104 151.922 457.044 152.09 456.952 152.242C456.861 152.394 456.741 152.527 456.599 152.632C455.003 153.825 453.064 154.471 451.072 154.474C449.079 154.472 447.141 153.826 445.545 152.632C445.258 152.419 445.067 152.1 445.014 151.747C444.961 151.393 445.051 151.032 445.264 150.745M457.371 142.887C457.371 144.193 456.669 145.25 455.797 145.25C454.928 145.25 454.222 144.193 454.222 142.887C454.222 141.582 454.928 140.525 455.797 140.525C456.667 140.525 457.373 141.582 457.373 142.887M446.352 145.25C447.221 145.25 447.928 144.193 447.928 142.887C447.928 141.582 447.221 140.525 446.352 140.525C445.482 140.525 444.776 141.582 444.776 142.887C444.776 144.193 445.482 145.25 446.352 145.25Z"
            fill="white" />
        <path
            d="M545.049 64.944C539.764 59.82 541.38 52.3247 544.415 48.7217C544.591 49.2182 544.628 49.6211 544.27 50.0709C542.499 52.2906 542.27 54.8902 542.603 57.5666C543.24 62.6821 546.293 65.8549 550.953 67.6521C552.405 68.2121 553.908 68.567 555.494 68.54C556.108 68.5295 556.718 68.8347 557.352 68.7782C560.516 68.4963 563.589 67.9352 566.14 65.8257C566.23 65.7518 566.331 65.6929 566.423 65.6297C566.549 65.7281 566.468 65.8124 566.429 65.8915C565.108 68.5546 562.892 69.9964 560.051 70.6283C557.931 71.0999 555.834 70.8818 553.727 70.563C552.41 70.3638 551.112 70.0913 549.821 69.7696C551.768 70.6933 553.768 71.2375 555.967 71.3981C558.153 71.5578 560.217 71.4905 562.245 70.6412C561.393 71.4006 560.35 71.6422 559.279 71.779C557.678 71.9836 556.065 72.0051 554.453 71.9846C553.921 71.9779 553.396 71.904 552.893 71.716C549.675 70.5119 546.652 68.9577 543.956 66.7992C542.789 65.8642 542.299 64.5641 541.873 63.207C543.706 65.6712 545.597 68.0568 548.622 69.2615C548.622 69.118 548.633 69.0564 548.621 69.0514C547.673 68.6679 547.103 67.7728 546.229 67.2861C545.673 66.9773 545.232 66.5286 544.846 66.0221C543.847 64.7115 542.721 63.4982 541.881 62.0646C541.105 60.7394 540.769 59.3564 541.154 57.7599C541.792 60.57 542.488 63.2711 545.049 64.944Z"
            fill="white" />
        <path
            d="M563.321 51.2615C562.791 50.3241 562.204 49.6512 561.331 49.2489C559.594 48.4486 557.889 48.6855 556.175 49.3075C554.449 49.9343 553.116 51.031 551.903 52.4196C550.532 53.9898 550.183 55.7755 550.054 57.7356C549.977 58.9139 550.581 59.5984 551.406 60.2014C551.772 60.4685 552.147 60.7017 552.422 61.0784C552.689 61.444 553.125 61.5002 553.536 61.522C555.477 61.6248 557.4 61.7213 559.348 61.3448C560.473 61.1273 561.375 60.6927 562.209 59.9824C562.523 59.7152 562.856 59.4706 563.188 59.2253C563.589 58.9288 563.954 58.6226 563.983 58.0631C563.998 57.7766 564.203 57.5608 564.384 57.3562C565.42 56.1782 565.855 54.7901 565.858 53.242C565.86 52.3173 566.289 51.5161 566.579 50.5598C568.297 55.5369 563.649 62.4749 556.493 62.1947C559.266 62.5349 561.886 62.2238 564.051 60.2296C565.022 59.335 565.86 58.33 566.264 57.0161C566.459 56.3835 566.82 55.8036 567.077 55.188C567.779 53.5059 567.817 51.7831 567.287 50.056C567.161 49.6456 567.155 49.3416 567.496 49.0614C567.677 49.1172 567.65 49.3019 567.693 49.4394C569.232 54.4377 567.253 59.6587 562.691 62.1277C559.864 63.6574 556.833 64.1417 553.722 62.8372C552.652 62.3883 551.731 61.7415 551.024 60.8075C550.87 60.6045 550.71 60.3967 550.515 60.2361C549.002 58.9863 548.783 57.2843 549.387 55.6555C550.828 51.7653 553.479 49.0974 557.738 48.3512C557.909 48.3211 558.091 48.2641 558.258 48.3561C558.625 48.5572 558.978 48.4509 559.34 48.3387C560.829 47.8769 562.418 48.3703 563.397 49.5954C563.707 49.9837 563.403 50.3862 563.408 50.7819C563.41 50.8913 563.37 51.0011 563.321 51.2615Z"
            fill="white" />
        <path
            d="M548.074 48.9026C546.935 50.4268 546.018 52.019 545.551 53.8756C544.878 56.5538 545.367 59.0144 546.763 61.3367C547.193 62.0503 547.762 62.6456 548.446 63.1292C549.28 63.7185 550.108 64.3171 550.936 64.9144C552.181 65.8121 553.571 66.2832 555.103 66.37C557.388 66.4994 559.613 66.2367 561.763 65.4268C561.928 65.3647 562.091 65.2988 562.253 65.2282C562.304 65.2058 562.346 65.1625 562.474 65.07C561.255 65.3008 560.134 65.5483 559.001 65.72C556.986 66.0253 554.957 66.1984 553.017 65.3783C549.793 64.0156 547.367 61.7951 545.959 58.5491C545.346 57.1365 545.367 55.6887 545.818 54.2273C546.766 51.1561 548.34 48.5268 551.077 46.7124C551.248 46.5993 551.476 46.2699 551.641 46.511C551.8 46.7435 551.878 47.1179 551.5 47.3876C550.046 48.4242 548.843 49.7063 547.828 51.177C546.217 53.5132 545.807 55.9833 546.9 58.6505C547.433 59.9503 548.138 61.1449 549.025 62.2345C550.774 64.3822 553.08 65.409 555.799 65.5373C560.773 65.7719 564.739 63.7072 568.001 60.0886C568.34 59.7125 568.669 59.3275 569.05 58.9718C568.924 59.6443 568.813 60.306 568.43 60.8925C567.557 62.2302 566.439 63.3152 565.114 64.1975C564.754 64.437 564.406 64.693 564.052 64.9415C559.897 67.8624 555.594 67.9241 551.175 65.5918C550.518 65.2447 549.894 64.8448 549.173 64.61C548.459 64.3772 547.936 63.8321 547.525 63.2315C546.96 62.4045 546.368 61.5982 545.771 60.7953C545.127 59.9303 544.921 58.9477 544.804 57.8854C544.665 56.6211 544.579 55.3825 544.906 54.1445C545.381 52.3481 546.213 50.7426 547.499 49.3875C547.62 49.2598 547.758 49.147 547.891 49.0315C547.947 48.9828 548.013 48.9452 548.074 48.9026Z"
            fill="white" />
        <path
            d="M563.079 54.7136C563.143 55.3829 562.857 55.9257 562.483 56.4507C561.076 58.4274 559.102 59.3728 556.747 59.6427C556.063 59.7211 555.383 59.8048 554.693 59.6734C554.135 59.567 553.647 59.3913 553.322 58.8697C553.09 58.4961 552.756 58.4645 552.442 58.8012C552.28 58.9747 552.111 59.1913 552.303 59.4223C552.492 59.6483 552.721 59.5792 552.917 59.3894C553.047 59.2634 553.157 59.1381 553.35 59.3342C554.448 60.4484 555.819 60.4548 557.2 60.1692C559.41 59.7125 561.338 58.7082 562.885 56.9223C563.003 57.5063 562.952 57.9432 562.526 58.3735C560.673 60.2436 558.396 61.0547 555.821 61.0665C553.976 61.075 552.484 60.1333 551.471 58.7265C550.83 57.8359 550.386 56.6343 550.986 55.4103C551.763 53.8266 552.392 52.1404 553.869 51.0312C555.582 49.7437 557.519 49.1816 559.639 49.6195C561.647 50.0343 562.741 51.8192 562.219 53.8061C561.256 57.469 558.065 58.9645 554.589 58.1979C553.831 58.0308 553.611 57.7094 553.755 57.2343C553.865 56.8681 554.03 56.714 554.435 56.9591C557.124 58.5874 560.681 57.0739 561.337 54.0301C561.399 53.7441 561.403 53.4458 561.432 53.1529C561.443 53.0359 561.455 52.9181 561.453 52.8008C561.449 52.4371 562.331 52.2154 561.647 51.7619C561.273 51.5138 561.104 51.0967 560.743 50.8446C560.141 50.4234 559.472 50.2609 558.752 50.2038C558.03 50.1465 557.31 50.3805 556.588 50.2012C556.531 50.1869 556.408 50.2369 556.392 50.2833C556.154 50.9737 555.449 51.0022 554.941 51.2869C553.519 52.0835 552.473 53.1563 552.143 54.8055C552.03 55.3685 552.027 55.9437 552.106 56.5083C552.21 57.2427 552.565 57.8464 553.218 58.2302C554.19 58.8009 555.233 59.0918 556.372 58.9885C557.338 58.9009 558.272 58.6904 559.177 58.3429C559.699 58.1421 560.149 57.8678 560.463 57.3675C560.635 57.0936 560.924 56.8885 561.175 56.6701C562.077 55.8868 562.708 54.9404 562.96 53.7601C563.282 54.0428 563.07 54.3918 563.079 54.7136Z"
            fill="white" />
        <path
            d="M568.17 62.1995C567.858 62.8939 567.734 63.6564 567.124 64.2345C565.136 66.1198 562.83 67.3827 560.145 67.9466C559.756 68.0284 559.364 68.026 558.971 68.0262C557.793 68.0269 556.61 68.1162 555.439 68.096C552.416 68.0436 549.734 66.9536 547.375 65.0723C546.665 64.5058 546.027 63.8834 545.712 62.9816C545.538 62.482 545.233 62.0073 544.819 61.6803C543.866 60.928 543.587 59.897 543.491 58.7748C543.399 57.6978 543.308 56.6188 543.527 55.5437C543.551 55.4302 543.552 55.3086 543.542 55.1926C543.364 53.1054 543.58 52.3445 544.859 50.6221C545.043 51.1043 545.524 51.5043 545.052 52.0647C544.873 52.2772 544.764 52.505 544.395 52.3064C544.084 52.1392 544.062 52.5028 544.043 52.6694C543.942 53.5449 543.764 54.4317 543.823 55.3004C543.902 56.4652 543.992 57.6341 544.38 58.7742C545.398 61.7643 547.121 64.183 549.811 65.8789C550.415 66.2598 551.056 66.5477 551.771 66.6451C552.318 66.7196 552.838 66.8906 553.362 67.0609C556.737 68.1576 559.955 67.5848 563.075 66.0988C564.913 65.223 566.419 63.9095 567.796 62.4353C567.889 62.336 567.957 62.2135 568.037 62.1019C568.081 62.1344 568.125 62.167 568.17 62.1995Z"
            fill="white" />
        <path
            d="M548.233 59.0243C548.206 58.4942 548.212 58.1054 548.164 57.7233C547.957 56.0812 548.309 54.5465 549.126 53.1354C551.007 49.8843 553.828 47.8313 557.405 46.7705C557.773 46.6612 558.034 46.6568 557.957 47.1585C557.941 47.263 557.894 47.3426 557.787 47.3727C557.711 47.3939 557.634 47.4101 557.558 47.4289C554.114 48.2813 551.705 50.5001 549.766 53.3369C549.467 53.7751 549.214 54.2398 548.995 54.7242C548.141 56.6136 548.173 58.4133 549.529 60.08C549.892 60.5253 550.182 61.0102 550.397 61.5422C550.47 61.7228 550.531 61.9724 550.735 61.9956C551.757 62.1115 552.271 63.2221 553.318 63.2842C553.577 63.2995 553.596 63.4688 553.396 63.6311C552.448 64.4005 552.474 64.7207 551.399 63.7814C550.004 62.5618 548.746 61.1937 547.838 59.5723C546.655 57.4573 546.585 55.2754 547.762 53.1058C548.079 52.521 548.437 51.9582 548.561 51.2828C548.598 51.083 548.74 50.8893 548.871 50.722C549.614 49.7726 550.501 48.9693 551.466 48.2533C551.574 48.1728 551.728 47.9243 551.895 48.1724C552.011 48.3453 551.995 48.5507 551.82 48.7058C551.717 48.797 551.608 48.8806 551.502 48.9687C550.761 49.5874 550.115 50.2958 549.483 51.0254C547.741 53.0362 547.596 55.4324 547.768 57.908C547.792 58.2484 547.874 58.6037 548.233 59.0243Z"
            fill="white" />
        <path
            d="M556.523 53.4039C556.557 53.551 556.426 53.6029 556.354 53.6806C556.084 53.9697 555.895 54.2866 556.06 54.6895C556.22 55.0805 556.579 55.2055 556.956 55.2692C557.61 55.3796 558.153 55.1262 558.623 54.7003C558.849 54.495 558.952 54.2174 558.939 53.9041C558.934 53.7779 558.9 53.6501 558.785 53.6079C558.64 53.5548 558.597 53.7049 558.535 53.7967C558.403 53.9915 558.272 54.1878 558.143 54.3841C558.022 54.5664 557.881 54.7262 557.686 54.8341C557.426 54.9781 557.166 55.1428 556.865 54.9488C556.699 54.842 556.653 54.6669 556.69 54.4809C556.761 54.1209 557.079 54.0793 557.354 53.9872C557.373 53.9811 557.393 53.9828 557.413 53.9795C557.781 53.9179 558.286 53.892 558.285 53.4518C558.284 53.0065 557.763 52.9204 557.392 52.8342C556.336 52.5891 554.826 53.8224 554.825 54.9155C554.825 55.5504 555.193 55.9294 555.748 56.1487C557.184 56.7159 559.331 55.8575 559.991 54.4595C560.467 53.4531 559.755 52.118 558.54 51.7348C556.222 51.0042 553.187 53.3951 553.373 55.8137C553.394 56.084 553.486 56.3493 553.55 56.6157C553.599 56.8204 553.597 57.0583 553.407 57.1363C553.206 57.2193 553.123 56.9681 553.045 56.8274C552.641 56.1004 552.734 55.3389 552.975 54.5983C553.691 52.3929 556.591 50.6988 558.866 51.134C559.396 51.2353 559.88 51.444 560.301 51.7817C560.743 52.1369 561.005 52.6065 560.902 53.1749C560.66 54.5159 560.062 55.6637 558.911 56.4567C558.389 56.8168 557.815 56.9814 557.183 56.7391C556.992 56.6658 556.803 56.6983 556.606 56.7443C555.43 57.0186 554.442 56.4037 554.158 55.2314C553.896 54.1504 554.693 52.7818 555.764 52.4934C556.404 52.3215 557.022 52.0534 557.72 52.1912C559.008 52.4452 559.54 53.3793 559.044 54.5848C558.939 54.8384 558.811 55.0825 558.684 55.326C558.514 55.6505 558.198 55.8938 557.88 55.8285C557.318 55.7129 556.744 55.8104 556.192 55.6497C555.612 55.4809 555.425 55.2036 555.533 54.6044C555.652 53.9435 556.001 53.5191 556.523 53.4039Z"
            fill="white" />
        <path
            d="M556.776 65.2408C556.146 65.2352 555.577 65.2489 555.017 65.1124C554.702 65.0356 554.481 64.8662 554.615 64.5382C554.733 64.2525 554.71 63.7654 555.239 63.8517C556.478 64.0536 557.704 63.9196 558.932 63.7586C559.252 63.7167 559.608 63.6352 559.742 64.1004C559.801 64.3038 560.004 64.2736 560.139 64.1985C560.507 63.9938 561.043 64.0163 561.15 63.4399C561.179 63.2812 561.391 63.2503 561.535 63.2005C562.62 62.8241 563.611 62.2777 564.527 61.5866C564.724 61.4377 564.926 61.2324 565.166 61.5594C565.409 61.8887 565.132 62.0295 564.948 62.1712C562.521 64.0408 559.812 65.1636 556.776 65.2408Z"
            fill="white" />
        <path
            d="M569.629 55.4194C569.534 55.379 569.498 55.3653 569.463 55.3489C568.771 55.0226 568.615 54.5284 568.714 53.7527C568.931 52.052 568.811 50.3515 568.274 48.7008C568.135 48.2719 568.419 47.8429 568.849 47.7817C569.02 47.7572 569.046 47.871 569.078 47.9775C569.373 48.9798 569.852 49.9268 569.696 51.0441C569.58 51.8745 569.755 52.7236 569.843 53.5608C569.91 54.1916 569.917 54.8088 569.629 55.4194Z"
            fill="white" />
        <path
            d="M552.858 71.9877C548.997 72.1626 545.364 70.2741 544.15 67.4199C545.632 68.486 547.023 69.4525 548.373 70.4749C548.954 70.9155 549.568 71.2069 550.276 71.3344C551.113 71.4854 551.949 71.6453 552.858 71.9877Z"
            fill="white" />
        <path
            d="M541.106 57.2895C540.083 53.2144 541.212 49.8378 544.334 47.0176C544.467 47.522 544.342 47.8331 544.067 48.1641C542.344 50.2384 541.321 52.6156 541.047 55.3089C540.979 55.9766 541.122 56.6355 541.106 57.2895Z"
            fill="white" />
        <path
            d="M552.701 48.0468C552.6 47.4523 552.786 47.1017 553.255 46.8141C554.412 46.1049 555.543 45.3539 556.906 45.0901C557.156 45.0419 557.411 45.0254 557.665 44.9993C557.834 44.9818 558.004 44.9973 557.968 45.2291C557.94 45.4167 558.116 45.6888 557.791 45.7718C555.984 46.2323 554.395 47.1873 552.701 48.0468Z"
            fill="white" />
        <path
            d="M540.706 51.3837C540.312 48.3077 542.19 46.7428 544.252 45.2422C544.515 45.7643 544.506 46.1209 544.012 46.4847C542.468 47.6217 541.406 49.1186 540.876 50.9759C540.85 51.0672 540.803 51.1525 540.706 51.3837Z"
            fill="white" />
        <path
            d="M560.313 43.0429C560.117 43.0429 559.921 43.0489 559.726 43.0411C559.553 43.0342 559.293 43.1515 559.318 42.8091C559.335 42.5728 559.266 42.3119 559.666 42.2635C560.656 42.1438 561.635 41.9309 562.63 42.2403C562.964 42.3439 563.323 42.4179 563.669 42.4126C564.041 42.407 564.077 42.5671 564.07 42.869C564.052 43.6456 564.064 43.6369 563.324 43.4836C562.577 43.3289 561.828 43.183 561.075 43.0576C560.828 43.0164 560.568 43.0511 560.313 43.0511C560.313 43.0484 560.313 43.0456 560.313 43.0429Z"
            fill="white" />
        <path
            d="M568.101 57.1621C568.411 57.2597 568.665 57.4455 568.869 57.686C569.064 57.9154 568.851 58.0896 568.731 58.2519C567.898 59.3759 566.911 60.3577 565.889 61.3058C565.79 61.3973 565.667 61.5958 565.518 61.389C565.395 61.2189 565.142 61.0484 565.398 60.7862C565.699 60.4775 566.004 60.1709 566.287 59.8462C566.883 59.1629 567.386 58.4184 567.738 57.5767C567.81 57.404 567.855 57.1917 568.101 57.1621Z"
            fill="white" />
        <path
            d="M570.864 53.1581C570.651 51.2548 570.207 49.4981 569.59 47.7846C569.528 47.6117 569.5 47.4762 569.716 47.4247C569.957 47.3672 570.202 47.2635 570.339 47.6211C570.732 48.645 571.052 49.6872 571.308 50.7549C571.509 51.5904 571.372 52.3325 570.864 53.1581Z"
            fill="white" />
        <path
            d="M547.402 42.0279C547.264 41.3783 547.5 41.0078 548.018 40.68C549.215 39.9232 550.427 39.2147 551.792 38.8063C551.933 38.7639 552.16 38.6056 552.233 38.8654C552.285 39.0546 552.318 39.3157 552.054 39.4255C550.408 40.1113 548.859 40.9736 547.402 42.0279Z"
            fill="white" />
        <path
            d="M547.176 43.885C547.243 43.5182 547.162 43.2101 547.472 42.9886C548.935 41.9442 550.385 40.8816 552.06 40.1699C552.206 41.1029 552.151 41.3237 551.422 41.5304C549.916 41.9568 548.65 42.7801 547.446 43.7325C547.389 43.7773 547.319 43.8052 547.176 43.885Z"
            fill="white" />
        <path
            d="M559.652 46.5194C560.942 46.5742 562.161 46.9052 563.313 47.4825C563.513 47.5829 563.773 47.6567 563.754 47.9636C563.744 48.1347 563.813 48.3495 563.656 48.4594C563.508 48.5634 563.37 48.3902 563.243 48.3213C561.96 47.6293 560.595 47.2684 559.134 47.2635C558.968 47.263 558.666 47.4236 558.671 47.0351C558.676 46.7372 558.727 46.4822 559.124 46.5168C559.299 46.5321 559.476 46.5194 559.652 46.5194Z"
            fill="white" />
        <path
            d="M551.706 44.5137C551.76 45.5126 551.753 45.5936 550.738 46.0002C550.171 46.2273 549.756 46.5787 549.33 46.9887C548.359 47.9237 547.287 48.7564 546.5 49.9667C546.497 49.0656 546.506 49.0589 547.03 48.5195C547.864 47.661 548.733 46.8452 549.686 46.1158C550.02 45.8605 550.238 45.4596 550.553 45.1737C550.868 44.8874 551.25 44.6828 551.706 44.5137Z"
            fill="white" />
        <path
            d="M552.924 46.3751C552.714 45.765 552.886 45.4291 553.44 45.1716C554.728 44.5729 556.021 44.0183 557.458 43.9048C557.635 43.8908 557.864 43.7661 557.904 44.0955C557.937 44.3721 557.763 44.3983 557.553 44.447C555.914 44.8277 554.403 45.52 552.924 46.3751Z"
            fill="white" />
        <path
            d="M552.903 39.0504C552.781 38.4685 552.926 38.1629 553.52 38.0031C554.83 37.6504 556.141 37.3307 557.495 37.2186C557.667 37.2044 557.954 37.0505 557.986 37.4294C558.015 37.7734 557.741 37.7318 557.549 37.7664C555.966 38.0521 554.443 38.5572 552.903 39.0504Z"
            fill="white" />
        <path
            d="M552.842 40.7049C552.62 39.926 552.94 39.6307 553.579 39.4529C554.85 39.0996 556.128 38.8018 557.438 38.6644C557.613 38.6461 557.934 38.4328 557.997 38.843C558.057 39.2358 557.731 39.1636 557.529 39.192C555.885 39.4237 554.329 39.9295 552.842 40.7049Z"
            fill="white" />
        <path
            d="M555.228 40.3315C556.043 40.6636 556.77 40.2458 557.529 40.1089C557.671 40.0832 557.893 39.9275 557.947 40.2291C557.981 40.4255 557.914 40.5575 557.694 40.6164C556.202 41.0149 554.714 41.4292 553.22 41.8193C553.073 41.8576 552.816 42.0556 552.736 41.7346C552.681 41.5167 552.825 41.3941 553.044 41.3165C553.635 41.1075 554.199 40.8377 554.737 40.5108C554.882 40.4221 555.063 40.3899 555.228 40.3315Z"
            fill="white" />
        <path
            d="M560.769 38.4639C561.731 38.3611 562.726 38.5295 563.711 38.8243C563.967 38.9009 564.105 39.0392 564.064 39.2673C564.013 39.5488 563.776 39.3694 563.629 39.3627C562.241 39.3001 560.854 39.2203 559.467 39.1575C559.216 39.1461 559.007 39.1727 559.014 38.8078C559.022 38.4269 559.292 38.5535 559.471 38.5366C559.879 38.4978 560.291 38.4886 560.769 38.4639Z"
            fill="white" />
        <path
            d="M547.04 45.4897C546.95 45.0095 547.133 44.6975 547.424 44.3591C548.566 43.033 550.162 42.5231 551.692 41.8861C551.777 41.8507 551.889 41.7858 551.947 41.9026C552.002 42.011 551.977 42.1407 551.876 42.2205C551.786 42.2923 551.677 42.3424 551.574 42.3957C549.952 43.2298 548.436 44.2169 547.04 45.4897Z"
            fill="white" />
        <path
            d="M563.949 46.6281C562.8 46.1851 561.792 45.7406 560.679 45.6777C560.21 45.6511 559.74 45.633 559.27 45.6192C559.098 45.6142 558.9 45.6801 558.936 45.3806C558.96 45.1876 558.986 45.0287 559.247 45.0757C559.873 45.1885 560.498 45.095 561.121 45.0311C562.074 44.9331 562.87 45.3898 563.698 45.7312C564.097 45.8956 563.815 46.244 563.949 46.6281Z"
            fill="white" />
        <path
            d="M547.535 40.5121C547.437 39.9529 547.632 39.6702 548.051 39.4406C549.252 38.7831 550.406 38.0355 551.704 37.569C551.864 37.5114 552.088 37.3053 552.203 37.5753C552.306 37.8188 552.24 38.0285 551.924 38.1674C550.421 38.8285 548.922 39.5038 547.535 40.5121Z"
            fill="white" />
        <path
            d="M557.875 42.868C557.917 43.1089 557.792 43.2046 557.522 43.2455C556.003 43.4759 554.539 43.8963 553.153 44.5721C553.054 44.6207 552.93 44.7386 552.843 44.6362C552.739 44.5149 552.75 44.3219 552.835 44.1932C552.903 44.0891 553.041 44.0166 553.162 43.9635C554.529 43.3653 555.913 42.82 557.398 42.5845C557.849 42.513 557.861 42.5168 557.875 42.868Z"
            fill="white" />
        <path
            d="M560.771 39.6805C561.954 39.6216 562.903 39.9193 563.874 40.0422C564.095 40.0702 564.111 40.195 564.105 40.3666C564.097 40.6219 563.935 40.5739 563.776 40.5435C562.411 40.2831 561.038 40.3653 559.664 40.4309C559.462 40.4405 559.224 40.5316 559.183 40.1827C559.139 39.8208 559.364 39.8188 559.613 39.7981C560.062 39.7608 560.511 39.7075 560.771 39.6805Z"
            fill="white" />
        <path
            d="M557.418 36.1548C557.459 36.1548 557.577 36.1591 557.694 36.1538C557.869 36.1459 557.939 36.2348 557.948 36.3995C557.957 36.5651 557.898 36.6508 557.722 36.666C556.194 36.7981 554.707 37.1314 553.244 37.5777C553.125 37.6139 553.004 37.6381 553.001 37.4511C552.999 37.2482 553.012 37.0625 553.266 36.9963C553.739 36.8731 554.208 36.7315 554.679 36.6011C555.551 36.36 556.444 36.2504 557.418 36.1548Z"
            fill="white" />
        <path
            d="M563.755 38.1599C562.228 37.9642 560.751 37.7752 559.273 37.5849C559.113 37.5642 558.883 37.6316 558.912 37.3385C558.935 37.1104 559.118 37.1405 559.27 37.1395C560.63 37.1302 561.976 37.2289 563.3 37.5712C563.627 37.6558 563.756 37.8293 563.755 38.1599Z"
            fill="white" />
        <path
            d="M548.553 45.8542C548.327 45.3578 548.536 45.0483 548.973 44.8064C549.948 44.2674 550.768 43.4842 551.836 42.96C551.873 43.2627 551.97 43.5386 551.682 43.7098C550.734 44.2728 549.952 45.062 549.022 45.6472C548.874 45.7397 548.734 45.8569 548.542 45.8416L548.553 45.8542Z"
            fill="white" />
        <path
            d="M564.027 42.1839C562.656 41.6997 561.241 41.8458 559.882 41.5958C559.806 41.5818 559.726 41.5759 559.649 41.5779C559.447 41.5833 559.298 41.531 559.308 41.2902C559.318 41.0331 559.521 41.0997 559.656 41.1063C560.241 41.1351 560.826 41.1738 561.41 41.2223C562.111 41.2805 562.81 41.3719 563.512 41.412C564.026 41.4414 564.21 41.6533 564.027 42.1839Z"
            fill="white" />
        <path
            d="M563.915 45.0171C562.496 44.4195 560.984 44.3015 559.456 44.2842C559.343 44.2829 559.198 44.3044 559.192 44.1385C559.185 43.9403 559.35 43.963 559.484 43.9407C560.836 43.7158 562.16 43.8276 563.479 44.2034C563.935 44.3331 564.126 44.5079 563.915 45.0171Z"
            fill="white" />
        <path
            d="M547.676 39.1126C547.605 38.6595 547.774 38.421 548.111 38.2505C549.231 37.6837 550.386 37.1993 551.555 36.7469C551.736 36.6769 551.896 36.6367 551.986 36.8683C552.056 37.051 551.943 37.1079 551.798 37.1557C550.359 37.6284 549.049 38.3772 547.676 39.1126Z"
            fill="white" />
        <path
            d="M547.841 37.7636C548.176 36.3849 550.375 35.327 551.331 36.0681C550.116 36.5229 548.982 37.0674 547.841 37.7636Z"
            fill="white" />
        <path
            d="M563.388 37.0909C562.012 36.7327 560.704 36.6667 559.393 36.6258C559.262 36.6217 559.039 36.7329 559.029 36.4763C559.021 36.2645 559.135 36.065 559.372 36.081C560.544 36.16 561.725 36.1695 562.874 36.4558C563.156 36.526 563.235 36.7896 563.388 37.0909Z"
            fill="white" />
        <path
            d="M541.232 46.6562C541.255 46.1671 541.378 45.8099 541.801 45.5918C542.365 45.3014 542.837 44.8813 543.297 44.4538C543.586 44.1858 543.785 44.3138 543.981 44.5479C544.244 44.861 543.938 44.9574 543.758 45.0723C542.935 45.5976 542.104 46.111 541.232 46.6562Z"
            fill="white" />
        <path
            d="M557.75 35.5677C556.213 35.8949 554.669 36.1761 553.104 36.6764C553.822 35.5526 555.434 35.3475 557.75 35.5677Z"
            fill="white" />
        <path
            d="M571.973 50.5163C571.778 49.353 571.498 48.3612 570.957 47.3691C571.675 47.4604 571.991 47.9319 572.274 48.4461C572.667 49.1583 572.438 49.784 571.973 50.5163Z"
            fill="white" />
        <path
            d="M557.603 34.7309C556.221 34.8295 554.898 35.0924 553.588 35.4282C553.477 35.4565 553.309 35.5877 553.255 35.3679C553.214 35.1987 553.353 35.1298 553.496 35.0953C554.695 34.8044 555.893 34.5071 557.095 34.2291C557.48 34.1401 557.536 34.4334 557.603 34.7309Z"
            fill="white" />
        <path
            d="M548.543 45.8418C548.58 45.9767 548.487 46.0636 548.42 46.1555C547.969 46.7756 547.359 47.2401 546.836 47.8288C546.602 46.4609 547.064 45.9454 548.555 45.8543C548.555 45.8543 548.543 45.8418 548.543 45.8418Z"
            fill="white" />
        <path
            d="M555.986 41.9972C555.693 42.0252 555.498 42.0968 555.465 41.8739C555.437 41.6795 555.617 41.6245 555.774 41.5931C556.346 41.4786 556.917 41.3599 557.492 41.2634C557.634 41.2395 557.86 41.1295 557.884 41.4361C557.903 41.6692 557.782 41.7256 557.575 41.753C556.997 41.8296 556.421 41.929 555.986 41.9972Z"
            fill="white" />
        <path
            d="M556.704 33.6883C555.833 33.8091 555.004 33.9241 554.157 34.0415C554.63 33.2957 555.95 33.1001 556.704 33.6883Z"
            fill="white" />
        <path
            d="M560.015 35.3712C560.823 34.7937 561.659 34.9166 562.413 35.7066C561.6 35.5449 560.824 35.3987 560.015 35.3712Z"
            fill="white" />
        <path
            d="M552.802 42.8839C552.723 42.6676 552.715 42.4799 552.937 42.3753C553.396 42.1597 553.859 41.9548 554.37 41.8894C554.512 41.8713 554.674 41.8516 554.702 42.0253C554.728 42.1808 554.577 42.2537 554.446 42.3008C553.902 42.496 553.356 42.6876 552.802 42.8839Z"
            fill="white" />
        <path
            d="M563.079 54.7144C562.966 54.4056 563.184 54.0558 562.96 53.7608C562.993 53.1639 563.091 52.5691 563.08 51.9668C563.182 52.8809 563.265 53.7947 563.079 54.7144Z"
            fill="white" />
        <path
            d="M568.663 55.328C568.638 55.6872 568.618 56.0469 568.585 56.4053C568.572 56.5388 568.463 56.6148 568.339 56.5977C568.166 56.5737 568.223 56.4273 568.247 56.3279C568.332 55.9835 568.429 55.6422 568.521 55.2998C568.569 55.3092 568.616 55.3186 568.663 55.328Z"
            fill="white" />
        <path
            d="M546.111 66.1592C551.288 69.2223 556.785 70.0803 562.623 68.6713C562.205 69.3563 560.625 69.9204 559.734 69.6959C559.546 69.6484 559.368 69.5799 559.161 69.6116C555.678 70.1442 552.374 69.4698 549.179 68.1042C548.059 67.6256 546.965 67.096 546.111 66.1592Z"
            fill="white" />
        <path
            d="M331.075 319.999H408.083C403.805 304.649 398.306 283.691 397.684 275.293C396.651 261.347 406.465 229.324 411.113 219.513C415.758 209.7 406.981 188.006 406.464 176.643C405.948 165.28 381.672 106.918 368.759 112.599C361.679 115.716 345.441 150.036 331.343 183.953C329.074 189.415 326.86 194.862 324.749 200.169C324.749 200.169 324.749 200.169 324.745 200.172C324.745 200.172 324.749 200.172 324.745 200.175C324.745 200.175 324.745 200.175 324.745 200.179C324.745 200.182 324.742 200.189 324.739 200.196H324.735C316.044 222.045 309.092 241.476 307.17 249.296C306.396 252.446 305.917 255.163 305.693 257.553C304.398 271.485 311.833 274.233 320.211 286.116C324.499 292.199 328.231 306.181 331.075 319.999Z"
            fill="url(#paint11_linear_826_16797)" />
        <path
            d="M305.532 268.39C306.01 269.678 306.634 270.918 307.353 272.071C308.789 274.385 310.521 276.399 312.205 278.366C313.909 280.318 315.58 282.243 317.136 284.24C317.529 284.739 317.897 285.232 318.276 285.738L318.84 286.516L319.116 286.895L319.357 287.274C319.681 287.776 320.015 288.265 320.294 288.816C320.586 289.35 320.886 289.88 321.137 290.445C322.201 292.663 323.11 294.977 323.916 297.301C324.729 299.626 325.452 301.957 326.11 304.271C327.418 308.902 328.565 313.427 329.553 317.741C329.726 318.503 329.895 319.254 330.061 320H332.076C331.91 319.114 331.738 318.22 331.557 317.314C330.693 312.945 329.705 308.341 328.441 303.627C327.821 301.268 327.126 298.878 326.337 296.478C325.562 294.075 324.664 291.664 323.531 289.292C323.269 288.693 322.949 288.107 322.629 287.522C322.333 286.93 321.954 286.358 321.586 285.779L321.31 285.349L321.021 284.946L320.459 284.164C320.074 283.641 319.674 283.1 319.275 282.584C317.681 280.507 315.973 278.521 314.289 276.568C312.605 274.619 310.945 272.701 309.654 270.642C308.349 268.593 307.505 266.362 307.137 264.01C306.937 262.839 306.875 261.638 306.872 260.436L306.875 259.534L306.92 258.631C306.93 258.235 306.968 257.839 307.006 257.447C307.027 257.237 307.048 257.03 307.065 256.823C307.313 254.42 307.774 252.04 308.318 249.716C308.463 249.134 308.608 248.556 308.752 247.977C308.907 247.409 309.066 246.844 309.22 246.283C309.551 245.154 309.875 244.028 310.212 242.919C310.877 240.695 311.572 238.529 312.254 236.421C313.638 232.21 314.978 228.236 316.231 224.569C317.502 220.909 318.666 217.555 319.699 214.58C320.742 211.608 321.651 209.015 322.398 206.881C323.8 202.876 324.64 200.483 324.74 200.197C324.744 200.19 324.747 200.183 324.747 200.18C324.743 200.183 324.74 200.19 324.736 200.197C324.681 200.324 324.423 200.899 323.996 201.87C323.507 202.979 322.774 204.601 321.889 206.681C320.993 208.761 319.909 211.288 318.714 214.205C317.505 217.114 316.159 220.41 314.747 224.025C314.045 225.833 313.315 227.72 312.557 229.672C311.813 231.628 311.069 233.66 310.309 235.753C309.558 237.85 308.79 240.006 308.05 242.23C307.668 243.339 307.313 244.472 306.958 245.619C306.786 246.201 306.61 246.786 306.438 247.375C306.28 247.96 306.121 248.549 305.963 249.141C305.357 251.521 304.83 253.979 304.517 256.531C304.472 256.899 304.431 257.275 304.396 257.647C304.183 259.85 304.145 262.126 304.51 264.423C304.715 265.759 305.05 267.099 305.532 268.39Z"
            fill="#FFC052" />
        <path
            d="M186.772 275.293C186.15 283.691 180.65 304.649 176.372 319.999H253.381C256.225 306.181 259.957 292.199 264.245 286.116C272.647 274.195 280.101 271.471 278.748 257.426C278.521 255.07 278.046 252.391 277.285 249.296C275.363 241.476 268.411 222.045 259.72 200.196H259.717C259.713 200.189 259.71 200.182 259.71 200.179C259.71 200.176 259.71 200.176 259.71 200.176V200.172C259.706 200.169 259.706 200.169 259.706 200.169C257.644 194.983 255.484 189.663 253.267 184.326C250.664 178.059 247.988 171.778 245.309 165.676C233.433 138.628 221.495 115.151 215.696 112.599C209.46 109.855 200.573 122.048 192.994 136.672C184.878 152.326 178.259 170.769 177.991 176.643C177.474 188.006 168.694 209.7 173.342 219.514C177.991 229.324 187.805 261.347 186.772 275.293Z"
            fill="url(#paint12_linear_826_16797)" />
        <path opacity="0.7"
            d="M192.639 145.067C176.985 215.32 198.672 214.489 213.83 214.489C225.141 214.489 241.108 184.277 245.309 165.676C233.433 138.628 221.495 115.151 215.696 112.599C209.46 109.855 200.573 122.048 192.994 136.672C192.76 139.407 193.26 142.278 192.639 145.067Z"
            fill="url(#paint13_linear_826_16797)" />
        <path
            d="M254.394 320C254.56 319.253 254.729 318.502 254.902 317.741C255.89 313.426 257.037 308.902 258.345 304.271C259.003 301.957 259.726 299.625 260.539 297.301C261.344 294.977 262.253 292.663 263.317 290.445C263.569 289.88 263.868 289.35 264.161 288.816C264.44 288.265 264.774 287.776 265.098 287.273L265.339 286.895L265.614 286.516L266.179 285.738C266.558 285.232 266.926 284.739 267.319 284.24C268.872 282.243 270.545 280.318 272.25 278.365C273.934 276.399 275.666 274.385 277.101 272.071C277.817 270.917 278.444 269.678 278.923 268.39C279.405 267.098 279.739 265.759 279.946 264.423C280.317 262.089 280.269 259.771 280.049 257.533C280.014 257.195 279.976 256.861 279.939 256.531C279.625 253.979 279.095 251.521 278.492 249.141C278.334 248.549 278.176 247.96 278.017 247.375C277.845 246.786 277.669 246.201 277.497 245.619C277.143 244.472 276.788 243.339 276.406 242.23C275.666 240.006 274.898 237.85 274.147 235.753C273.386 233.66 272.642 231.628 271.899 229.672C271.141 227.72 270.411 225.833 269.708 224.025C268.296 220.41 266.95 217.114 265.742 214.205C264.547 211.288 263.462 208.761 262.567 206.681C261.682 204.601 260.948 202.979 260.459 201.87C260.029 200.899 259.774 200.324 259.719 200.197C259.716 200.19 259.712 200.183 259.709 200.18C259.709 200.183 259.712 200.19 259.716 200.197C259.816 200.483 260.656 202.876 262.057 206.881C262.804 209.016 263.714 211.608 264.757 214.58C265.79 217.555 266.953 220.909 268.224 224.569C269.478 228.236 270.817 232.21 272.201 236.421C272.883 238.529 273.579 240.695 274.243 242.919C274.581 244.028 274.905 245.154 275.235 246.283C275.39 246.844 275.549 247.409 275.704 247.977C275.848 248.556 275.993 249.134 276.138 249.716C276.682 252.04 277.143 254.42 277.391 256.823C277.405 256.985 277.418 257.147 277.436 257.309C277.477 257.75 277.522 258.19 277.535 258.631L277.58 259.534L277.584 260.436C277.58 261.638 277.518 262.839 277.318 264.01C276.95 266.362 276.106 268.593 274.801 270.642C273.51 272.701 271.85 274.619 270.166 276.568C268.483 278.521 266.775 280.507 265.18 282.584C264.781 283.101 264.382 283.641 263.992 284.164L263.435 284.946L263.145 285.349L262.87 285.779C262.501 286.358 262.123 286.93 261.827 287.522C261.506 288.107 261.186 288.693 260.921 289.292C259.791 291.664 258.893 294.075 258.118 296.478C257.329 298.878 256.634 301.268 256.014 303.627C254.75 308.341 253.762 312.945 252.897 317.314C252.717 318.22 252.545 319.114 252.378 320H254.394V320Z"
            fill="#FFC052" />
        <path
            d="M216.396 125.771V211.773C216.396 219.046 222.294 224.944 229.567 224.944H355.588C362.864 224.944 368.759 219.045 368.759 211.773V125.771C368.759 118.495 362.864 112.6 355.588 112.6H229.567C222.294 112.6 216.396 118.495 216.396 125.771Z"
            fill="url(#paint14_linear_826_16797)" />
        <path
            d="M343.079 224.945H355.589C362.865 224.945 368.76 219.046 368.76 211.774V162.395C368.574 162.344 368.388 162.302 368.199 162.268C356.99 160.281 352.083 169.768 352.9 183.727C353.712 197.687 357.558 203.33 348.378 216.829C346.622 219.408 344.828 222.111 343.079 224.945Z"
            fill="url(#paint15_linear_826_16797)" />
        <path
            d="M399.086 202.235C394.787 189.58 390.159 171.295 383.935 161.044C381.184 156.512 378.121 153.55 374.637 153.339C363.274 152.651 359.486 162.636 361.897 176.41C364.307 190.184 368.774 195.349 361.204 209.811C353.633 224.273 345.368 242.179 348.812 263.184C349.571 267.811 350.508 272.155 351.508 276.115C355.047 290.129 359.374 299.339 359.374 299.339L386.689 275.235C386.689 275.235 405.284 220.485 399.086 202.235Z"
            fill="url(#paint16_linear_826_16797)" />
        <path
            d="M374.637 153.339C374.637 153.339 374.518 153.328 374.289 153.307C374.058 153.294 373.721 153.235 373.272 153.235C372.379 153.203 371.041 153.192 369.391 153.634C367.751 154.038 365.774 155.012 364.162 156.849C363.357 157.757 362.645 158.854 362.085 160.088C361.519 161.322 361.107 162.69 360.812 164.134C360.224 167.027 360.135 170.23 360.451 173.551C360.527 174.382 360.626 175.222 360.75 176.067C360.782 176.285 360.804 176.479 360.845 176.717C360.88 176.925 360.915 177.133 360.95 177.342C361.021 177.76 361.091 178.18 361.162 178.603C361.299 179.446 361.488 180.32 361.662 181.189C361.851 182.05 362.042 182.919 362.235 183.795C362.627 185.534 363.05 187.294 363.388 189.052C363.485 189.494 363.547 189.933 363.623 190.374C363.695 190.815 363.78 191.258 363.82 191.699C363.873 192.139 363.926 192.581 363.979 193.024C364.005 193.464 364.03 193.906 364.056 194.349C364.193 197.882 363.423 201.437 361.996 204.824C361.626 205.667 361.319 206.53 360.889 207.354C360.479 208.183 360.096 209.016 359.652 209.863C358.785 211.537 357.936 213.238 357.103 214.931C356.698 215.781 356.295 216.628 355.893 217.471C355.504 218.32 355.137 219.176 354.762 220.021C354.379 220.862 354.045 221.721 353.693 222.563C353.52 222.986 353.347 223.407 353.174 223.826C353.013 224.25 352.853 224.673 352.693 225.094C352.383 225.939 352.044 226.765 351.765 227.605C351.478 228.443 351.199 229.274 350.93 230.099C350.668 230.925 350.444 231.756 350.204 232.569C350.087 232.976 349.971 233.381 349.855 233.783C349.755 234.19 349.657 234.595 349.558 234.996C348.704 238.192 348.246 241.296 347.876 244.152C347.8 244.869 347.753 245.574 347.693 246.26C347.645 246.948 347.561 247.616 347.549 248.273C347.534 249.587 347.485 250.83 347.501 251.997C347.552 253.165 347.59 254.256 347.645 255.263C347.732 256.268 347.853 257.188 347.941 258.018C347.987 258.432 348.031 258.825 348.073 259.194C348.125 259.562 348.2 259.904 348.255 260.223C348.373 260.86 348.473 261.402 348.555 261.841C348.722 262.716 348.811 263.183 348.811 263.183C348.811 263.183 348.776 262.708 348.712 261.819C348.678 261.375 348.635 260.828 348.585 260.185C348.563 259.864 348.528 259.52 348.511 259.151C348.504 258.782 348.495 258.39 348.487 257.976C348.475 257.147 348.438 256.232 348.442 255.237C348.487 254.241 348.515 253.166 348.555 252.019C348.625 250.873 348.765 249.657 348.876 248.378C349.036 247.103 349.233 245.765 349.442 244.374C349.578 243.683 349.717 242.978 349.859 242.259C349.93 241.901 350.001 241.538 350.073 241.173C350.151 240.808 350.251 240.445 350.34 240.076C350.519 239.339 350.702 238.59 350.887 237.829C351.089 237.073 351.322 236.312 351.542 235.537C351.654 235.15 351.767 234.761 351.881 234.369C352.01 233.981 352.141 233.591 352.272 233.199C352.54 232.416 352.791 231.618 353.081 230.823C353.383 230.031 353.682 229.229 353.978 228.418C354.271 227.605 354.624 226.805 354.948 225.987C355.115 225.58 355.282 225.17 355.45 224.76C355.629 224.353 355.809 223.945 355.99 223.536C356.356 222.719 356.703 221.888 357.101 221.071C357.867 219.425 358.675 217.772 359.489 216.105C360.322 214.449 361.169 212.785 362.056 211.106C362.498 210.281 362.918 209.396 363.355 208.528L363.679 207.875C363.787 207.656 363.875 207.426 363.974 207.203L364.55 205.85C364.642 205.622 364.746 205.401 364.826 205.168L365.067 204.466L365.545 203.065C365.69 202.591 365.803 202.104 365.932 201.625C366.057 201.145 366.192 200.668 366.264 200.172L366.522 198.699C366.582 198.204 366.618 197.705 366.665 197.209C366.683 196.961 366.719 196.714 366.722 196.465L366.729 195.721L366.734 194.977L366.735 194.606L366.711 194.238C366.648 192.261 366.278 190.365 365.893 188.535C365.491 186.704 365.021 184.954 364.586 183.229C364.375 182.371 364.165 181.521 363.957 180.678C363.772 179.835 363.558 179.024 363.383 178.182C363.294 177.762 363.206 177.345 363.118 176.931C363.074 176.724 363.03 176.517 362.986 176.311C362.948 176.135 362.911 175.913 362.874 175.718C362.72 174.912 362.592 174.112 362.486 173.321C362.07 170.16 361.977 167.13 362.363 164.404C362.751 161.686 363.621 159.267 364.971 157.515C366.31 155.758 368.023 154.68 369.553 154.153C371.083 153.6 372.393 153.446 373.271 153.393C373.712 153.347 374.057 153.362 374.286 153.348C374.518 153.342 374.637 153.339 374.637 153.339Z"
            fill="#FFC052" />
        <path
            d="M185.371 202.235C189.669 189.58 194.298 171.295 200.521 161.044C203.273 156.512 206.336 153.55 209.819 153.339C221.182 152.651 224.97 162.636 222.56 176.41C220.149 190.184 215.682 195.349 223.253 209.811C230.824 224.273 239.088 242.179 235.645 263.184C234.886 267.811 233.949 272.155 232.949 276.115C229.41 290.129 225.082 299.339 225.082 299.339L197.767 275.235C197.767 275.235 179.173 220.485 185.371 202.235Z"
            fill="url(#paint17_linear_826_16797)" />
        <path
            d="M209.818 153.339C209.818 153.339 209.937 153.342 210.167 153.348C210.397 153.362 210.741 153.347 211.182 153.393C212.06 153.446 213.371 153.6 214.9 154.153C216.43 154.68 218.143 155.758 219.482 157.515C220.833 159.267 221.702 161.686 222.091 164.404C222.476 167.13 222.384 170.16 221.967 173.321C221.862 174.112 221.733 174.912 221.58 175.718C221.543 175.913 221.506 176.135 221.468 176.311C221.424 176.517 221.38 176.724 221.336 176.931C221.248 177.345 221.16 177.762 221.071 178.181C220.896 179.024 220.682 179.835 220.497 180.678C220.289 181.52 220.079 182.371 219.867 183.229C219.433 184.954 218.963 186.704 218.561 188.535C218.176 190.365 217.806 192.262 217.743 194.238L217.719 194.606L217.719 194.977L217.725 195.721L217.732 196.465C217.735 196.714 217.77 196.961 217.788 197.209C217.836 197.705 217.872 198.204 217.931 198.698L218.19 200.171C218.261 200.668 218.397 201.145 218.522 201.625C218.651 202.104 218.764 202.591 218.908 203.065L219.387 204.466L219.627 205.167C219.708 205.401 219.812 205.622 219.903 205.85L220.48 207.203C220.578 207.426 220.667 207.656 220.774 207.875L221.099 208.528C221.536 209.396 221.955 210.281 222.398 211.106C223.285 212.784 224.132 214.449 224.965 216.104C225.779 217.772 226.587 219.425 227.353 221.071C227.751 221.888 228.098 222.719 228.464 223.536C228.645 223.945 228.825 224.353 229.004 224.76C229.172 225.17 229.339 225.579 229.506 225.987C229.83 226.804 230.184 227.605 230.476 228.418C230.772 229.229 231.071 230.031 231.373 230.823C231.663 231.618 231.914 232.416 232.182 233.199C232.313 233.591 232.444 233.981 232.573 234.369C232.687 234.761 232.8 235.15 232.912 235.537C233.132 236.312 233.365 237.073 233.567 237.829C233.752 238.59 233.934 239.339 234.113 240.076C234.202 240.445 234.302 240.808 234.38 241.173C234.452 241.538 234.524 241.9 234.594 242.259C234.736 242.978 234.876 243.684 235.012 244.374C235.22 245.765 235.417 247.103 235.578 248.378C235.688 249.657 235.828 250.873 235.898 252.019C235.939 253.165 235.966 254.241 236.011 255.237C236.016 256.232 235.978 257.147 235.967 257.975C235.958 258.39 235.95 258.782 235.942 259.151C235.926 259.52 235.89 259.864 235.868 260.185C235.818 260.828 235.776 261.375 235.742 261.818C235.677 262.708 235.643 263.183 235.643 263.183C235.643 263.183 235.732 262.716 235.899 261.841C235.98 261.401 236.081 260.859 236.198 260.223C236.254 259.903 236.329 259.562 236.381 259.194C236.423 258.824 236.467 258.432 236.513 258.018C236.601 257.188 236.722 256.268 236.809 255.263C236.863 254.256 236.901 253.165 236.952 251.997C236.969 250.83 236.92 249.587 236.904 248.273C236.893 247.616 236.809 246.948 236.761 246.26C236.701 245.574 236.654 244.868 236.578 244.152C236.208 241.297 235.75 238.192 234.896 234.996C234.797 234.594 234.699 234.19 234.599 233.783C234.484 233.381 234.367 232.976 234.25 232.569C234.01 231.756 233.787 230.925 233.524 230.098C233.255 229.274 232.976 228.443 232.689 227.605C232.41 226.765 232.071 225.939 231.761 225.094C231.601 224.673 231.441 224.25 231.28 223.826C231.107 223.406 230.934 222.986 230.761 222.563C230.409 221.721 230.075 220.861 229.692 220.02C229.317 219.176 228.95 218.32 228.561 217.471C228.159 216.628 227.756 215.781 227.351 214.93C226.518 213.238 225.669 211.537 224.802 209.862C224.358 209.016 223.975 208.183 223.565 207.354C223.135 206.53 222.828 205.667 222.458 204.824C221.031 201.437 220.261 197.882 220.398 194.349C220.423 193.906 220.449 193.464 220.475 193.023C220.528 192.581 220.581 192.139 220.634 191.698C220.674 191.258 220.759 190.815 220.831 190.374C220.907 189.933 220.968 189.494 221.065 189.052C221.404 187.293 221.827 185.534 222.219 183.795C222.411 182.919 222.602 182.05 222.792 181.189C222.966 180.32 223.155 179.446 223.291 178.603C223.362 178.18 223.433 177.76 223.504 177.342C223.539 177.133 223.574 176.925 223.609 176.717C223.649 176.479 223.672 176.284 223.704 176.067C223.828 175.222 223.927 174.382 224.002 173.551C224.318 170.23 224.229 167.027 223.641 164.134C223.346 162.69 222.934 161.322 222.368 160.088C221.808 158.853 221.096 157.757 220.292 156.849C218.68 155.012 216.703 154.038 215.062 153.634C213.412 153.191 212.075 153.203 211.181 153.235C210.732 153.235 210.395 153.294 210.165 153.307C209.936 153.328 209.818 153.339 209.818 153.339Z"
            fill="#FFC052" />
        <path
            d="M292.34 167.572C301.025 167.572 308.065 160.532 308.065 151.847C308.065 143.162 301.025 136.122 292.34 136.122C283.656 136.122 276.615 143.162 276.615 151.847C276.615 160.532 283.656 167.572 292.34 167.572Z"
            fill="url(#paint18_linear_826_16797)" />
        <path d="M285.337 193.283H299.34V158.849H285.337V193.283Z"
            fill="url(#paint19_linear_826_16797)" />
        <path
            d="M234.61 112.6H259.059V80.232C259.059 62.3225 273.629 47.752 291.539 47.752C309.448 47.752 324.019 62.3222 324.019 80.232V112.6H348.467V80.232C348.467 48.8417 322.929 23.3037 291.539 23.3037C260.148 23.3037 234.61 48.8417 234.61 80.232V112.6Z"
            fill="url(#paint20_linear_826_16797)" />
    </g>
    <defs>
        <linearGradient id="paint0_linear_826_16797" x1="50.0777" y1="281.019" x2="-52.7198"
            y2="342.412" gradientUnits="userSpaceOnUse">
            <stop stop-color="#FFAB48" />
            <stop offset="0.9901" stop-color="#F933A5" />
        </linearGradient>
        <linearGradient id="paint1_linear_826_16797" x1="-17.003" y1="-70.8437" x2="74.0111"
            y2="50.1518" gradientUnits="userSpaceOnUse">
            <stop stop-color="#3B1B8A" />
            <stop offset="1" stop-color="#FF22B8" />
        </linearGradient>
        <linearGradient id="paint2_linear_826_16797" x1="27.9681" y1="234.068" x2="-17.1845"
            y2="234.068" gradientUnits="userSpaceOnUse">
            <stop stop-color="#696BFF" />
            <stop offset="1" stop-color="#5699FA" />
        </linearGradient>
        <linearGradient id="paint3_linear_826_16797" x1="701.277" y1="87.5597" x2="614.185"
            y2="7.60577" gradientUnits="userSpaceOnUse">
            <stop stop-color="#7163FF" />
            <stop offset="1" stop-color="#2F249B" />
        </linearGradient>
        <linearGradient id="paint4_linear_826_16797" x1="583.147" y1="120.903" x2="750.16"
            y2="227.963" gradientUnits="userSpaceOnUse">
            <stop stop-color="#2FE6FC" />
            <stop offset="1" stop-color="#627EFD" />
        </linearGradient>
        <linearGradient id="paint5_linear_826_16797" x1="631.111" y1="57.7488" x2="464.064"
            y2="-22.9191" gradientUnits="userSpaceOnUse">
            <stop stop-color="#7163FF" />
            <stop offset="1" stop-color="#2F249B" />
        </linearGradient>
        <linearGradient id="paint6_linear_826_16797" x1="583.684" y1="53.0193" x2="527.085"
            y2="53.0193" gradientUnits="userSpaceOnUse">
            <stop stop-color="#696BFF" />
            <stop offset="1" stop-color="#5699FA" />
        </linearGradient>
        <linearGradient id="paint7_linear_826_16797" x1="711.407" y1="302.439" x2="483.731"
            y2="302.439" gradientUnits="userSpaceOnUse">
            <stop stop-color="#3A33B3" />
            <stop offset="1" stop-color="#291B95" />
        </linearGradient>
        <linearGradient id="paint8_linear_826_16797" x1="284.037" y1="231.957" x2="312.668"
            y2="-102.81" gradientUnits="userSpaceOnUse">
            <stop stop-color="#010030" />
            <stop offset="1" stop-color="#453696" />
        </linearGradient>
        <linearGradient id="paint9_linear_826_16797" x1="281.035" y1="248.613" x2="281.035"
            y2="-33.9516" gradientUnits="userSpaceOnUse">
            <stop stop-color="#010030" />
            <stop offset="1" stop-color="#5F50FA" />
        </linearGradient>
        <linearGradient id="paint10_linear_826_16797" x1="88.0672" y1="88.5302" x2="37.0066"
            y2="88.5302" gradientUnits="userSpaceOnUse">
            <stop stop-color="#2FE6FC" />
            <stop offset="1" stop-color="#6F66FF" />
        </linearGradient>
        <linearGradient id="paint11_linear_826_16797" x1="350.502" y1="124.969" x2="364.966"
            y2="314.032" gradientUnits="userSpaceOnUse">
            <stop stop-color="#FDA146" />
            <stop offset="1" stop-color="#EC2DCF" />
        </linearGradient>
        <linearGradient id="paint12_linear_826_16797" x1="235.023" y1="111.661" x2="219.871"
            y2="308.625" gradientUnits="userSpaceOnUse">
            <stop stop-color="#C733E6" />
            <stop offset="1" stop-color="#FF22B8" />
        </linearGradient>
        <linearGradient id="paint13_linear_826_16797" x1="216.261" y1="162.916" x2="216.261"
            y2="100.357" gradientUnits="userSpaceOnUse">
            <stop stop-color="white" />
            <stop offset="1" stop-color="#4639BD" />
        </linearGradient>
        <linearGradient id="paint14_linear_826_16797" x1="340.605" y1="133.63" x2="255.914"
            y2="195.599" gradientUnits="userSpaceOnUse">
            <stop stop-color="#2FE7FC" />
            <stop offset="1" stop-color="#6675FC" />
        </linearGradient>
        <linearGradient id="paint15_linear_826_16797" x1="350.191" y1="178.196" x2="373.262"
            y2="240.521" gradientUnits="userSpaceOnUse">
            <stop stop-color="white" />
            <stop offset="1" stop-color="#4639BD" />
        </linearGradient>
        <linearGradient id="paint16_linear_826_16797" x1="365.835" y1="123.796" x2="380.299"
            y2="312.858" gradientUnits="userSpaceOnUse">
            <stop stop-color="#FFBD2E" />
            <stop offset="1" stop-color="#EC2DCF" />
        </linearGradient>
        <linearGradient id="paint17_linear_826_16797" x1="231.168" y1="188.073" x2="205.86"
            y2="245.403" gradientUnits="userSpaceOnUse">
            <stop stop-color="#FB9E51" />
            <stop offset="0.0838" stop-color="#FC8B61" />
            <stop offset="0.2725" stop-color="#FD6580" />
            <stop offset="0.4607" stop-color="#FE4899" />
            <stop offset="0.6462" stop-color="#FE33AA" />
            <stop offset="0.8275" stop-color="#FF26B4" />
            <stop offset="1" stop-color="#FF22B8" />
        </linearGradient>
        <linearGradient id="paint18_linear_826_16797" x1="292.34" y1="141.976" x2="292.34"
            y2="175.441" gradientUnits="userSpaceOnUse">
            <stop stop-color="#010030" />
            <stop offset="1" stop-color="#453696" />
        </linearGradient>
        <linearGradient id="paint19_linear_826_16797" x1="292.339" y1="141.976" x2="292.339"
            y2="175.441" gradientUnits="userSpaceOnUse">
            <stop stop-color="#010030" />
            <stop offset="1" stop-color="#453696" />
        </linearGradient>
        <linearGradient id="paint20_linear_826_16797" x1="291.538" y1="68.3306" x2="291.538"
            y2="122.95" gradientUnits="userSpaceOnUse">
            <stop stop-color="#2FE7FC" />
            <stop offset="1" stop-color="#6675FC" />
        </linearGradient>
        <clipPath id="clip0_826_16797">
            <rect width="914.564" height="319.815" fill="white"
                transform="translate(-164.782 0.18457)" />
        </clipPath>
    </defs>
</svg>
    