<svg width="1185" height="1172" viewBox="0 0 1185 1172" fill="none" xmlns="http://www.w3.org/2000/svg">
<g clip-path="url(#clip0_22_2)">
<mask id="mask0_22_2" style="mask-type:luminance" maskUnits="userSpaceOnUse" x="900" y="196" width="197" height="197">
<path d="M1096.5 392.5L1096.5 196.5L900.5 196.5L900.5 392.5L1096.5 392.5Z" fill="white"/>
</mask>
<g mask="url(#mask0_22_2)">
<path d="M965.833 261.833L965.833 386.901C976.053 390.515 987.043 392.5 998.5 392.5C1009.96 392.5 1020.95 390.515 1031.17 386.901L1031.17 261.833L965.833 261.833Z" fill="white"/>
<path d="M1031.17 261.833L1031.17 386.901C1069.23 373.446 1096.5 337.166 1096.5 294.5C1096.5 283.043 1094.51 272.053 1090.9 261.833L1031.17 261.833Z" fill="#1E5B00"/>
<path d="M965.833 386.901L965.833 261.833L906.099 261.833C902.485 272.053 900.5 283.043 900.5 294.5C900.5 337.166 927.775 373.446 965.833 386.901Z" fill="black"/>
<path d="M906.099 261.833L1090.9 261.833C1077.45 223.775 1041.17 196.5 998.5 196.5C955.833 196.5 919.554 223.775 906.099 261.833Z" fill="#F0263C"/>
</g>
</g>
<g clip-path="url(#clip1_22_2)">
<mask id="mask1_22_2" style="mask-type:luminance" maskUnits="userSpaceOnUse" x="870" y="805" width="197" height="197">
<path d="M1066.5 1001.5L1066.5 805.5L870.5 805.5L870.5 1001.5L1066.5 1001.5Z" fill="white"/>
</mask>
<g mask="url(#mask1_22_2)">
<path d="M870.5 903.5C870.5 957.624 914.376 1001.5 968.5 1001.5C1022.62 1001.5 1066.5 957.624 1066.5 903.5C1066.5 849.376 1022.62 805.5 968.5 805.5C914.376 805.5 870.5 849.376 870.5 903.5Z" fill="white"/>
<path d="M988.917 903.5C988.917 914.776 979.776 923.917 968.5 923.917C957.224 923.917 948.084 914.776 948.084 903.5C948.084 892.224 957.224 883.083 968.5 883.083C979.776 883.083 988.917 892.224 988.917 903.5Z" fill="white"/>
<path d="M988.917 903.5C988.917 914.776 979.776 923.917 968.5 923.917C957.224 923.917 948.083 914.776 948.083 903.5C948.083 892.224 957.224 883.083 968.5 883.083C979.776 883.083 988.917 892.224 988.917 903.5ZM993 903.5C993 889.991 982.009 879 968.5 879C954.991 879 944 889.991 944 903.5C944 917.009 954.991 928 968.5 928C982.009 928 993 917.009 993 903.5Z" fill="#191977"/>
<path d="M1001.17 811.099L1001.17 995.901C1039.23 982.446 1066.5 946.166 1066.5 903.5C1066.5 860.834 1039.23 824.554 1001.17 811.099Z" fill="#FF7700"/>
<path d="M935.833 995.901L935.833 811.099C897.775 824.555 870.5 860.834 870.5 903.5C870.5 946.166 897.775 982.446 935.833 995.901Z" fill="#1E5B00"/>
<path d="M956.223 903.499C956.223 910.265 961.708 915.749 968.473 915.749C975.239 915.749 980.723 910.265 980.723 903.499C980.723 896.734 975.239 891.249 968.473 891.249C961.708 891.249 956.223 896.734 956.223 903.499Z" fill="#191977"/>
</g>
</g>
<g clip-path="url(#clip2_22_2)">
<mask id="mask2_22_2" style="mask-type:luminance" maskUnits="userSpaceOnUse" x="127" y="150" width="197" height="197">
<path d="M323.5 346.5L323.5 150.5L127.5 150.5L127.5 346.5L323.5 346.5Z" fill="white"/>
</mask>
<g mask="url(#mask2_22_2)">
<path d="M127.5 248.5C127.5 302.624 171.376 346.5 225.5 346.5C279.624 346.5 323.5 302.624 323.5 248.5C323.5 194.376 279.624 150.5 225.5 150.5C171.376 150.5 127.5 194.376 127.5 248.5Z" fill="#1E5B00"/>
<path d="M176.5 248.5C176.5 275.562 198.438 297.5 225.5 297.5C252.562 297.5 274.5 275.562 274.5 248.5C274.5 221.438 252.562 199.5 225.5 199.5C198.438 199.5 176.5 221.438 176.5 248.5Z" fill="#F0263C"/>
</g>
</g>
<g clip-path="url(#clip3_22_2)">
<mask id="mask3_22_2" style="mask-type:luminance" maskUnits="userSpaceOnUse" x="614" y="975" width="197" height="197">
<path d="M810.5 1171.5L810.5 975.5L614.5 975.5L614.5 1171.5L810.5 1171.5Z" fill="white"/>
</mask>
<g mask="url(#mask3_22_2)">
<path d="M614.5 1073.5C614.5 1127.62 658.376 1171.5 712.5 1171.5C766.624 1171.5 810.5 1127.62 810.5 1073.5C810.5 1019.38 766.624 975.5 712.5 975.5C658.376 975.5 614.5 1019.38 614.5 1073.5Z" fill="#191977"/>
<path d="M786 1073.5L790.083 1073.5L790.083 1057.6L800.685 1073.5L805.592 1073.5L790.083 1050.24L790.083 1036.75L790.907 1036.75L810.157 1065.62C809.913 1062.55 809.528 1059.52 809.007 1056.54L795.815 1036.75L803.349 1036.75C802.791 1035.37 802.201 1034.01 801.584 1032.67L786 1032.67L786 1073.5Z" fill="white"/>
<path d="M792.075 1016.33C790.174 1013.69 788.148 1011.15 786 1008.71L786 1016.33L792.075 1016.33Z" fill="white"/>
<path d="M745.167 1032.67L745.167 1036.75L759.852 1036.75L745.167 1058.78L745.167 1066.14L764.759 1036.75L765.583 1036.75L765.583 1050.24L750.074 1073.5L754.981 1073.5L765.583 1057.6L765.583 1073.5L769.667 1073.5L769.667 1032.67L745.167 1032.67Z" fill="white"/>
<path d="M769.667 993.925C768.33 992.964 766.969 992.036 765.584 991.141C765.482 991.076 765.38 991.011 765.278 990.946C762.702 989.295 760.044 987.763 757.31 986.354L765.583 998.764L765.583 1012.25L764.759 1012.25L745.167 982.861L745.167 990.222L759.852 1012.25L745.167 1012.25L745.167 1016.33L769.667 1016.33L769.667 993.925Z" fill="white"/>
<path d="M790.083 1036.75L790.083 1050.24L805.592 1073.5L810.5 1073.5C810.5 1070.85 810.364 1068.23 810.157 1065.62L790.908 1036.75L790.083 1036.75Z" fill="#F0263C"/>
<path d="M765.583 1036.75L764.759 1036.75L745.167 1066.14L745.167 1073.5L750.074 1073.5L765.583 1050.24L765.583 1036.75Z" fill="#F0263C"/>
<path d="M764.759 1012.25L765.583 1012.25L765.583 998.764L757.31 986.354C753.406 984.342 749.354 982.579 745.167 981.099L745.167 982.861L764.759 1012.25Z" fill="#F0263C"/>
<path d="M745.167 1016.33L745.167 1032.67L769.667 1032.67L769.667 1073.5L786 1073.5L786 1032.67L801.584 1032.67C798.935 1026.9 795.745 1021.43 792.075 1016.33L786 1016.33L786 1008.71C781.131 1003.19 775.653 998.233 769.667 993.925L769.667 1016.33L745.167 1016.33Z" fill="#F0263C"/>
<path d="M679.833 1024.5L663.5 1008.17L647.166 1024.5L663.5 1040.83L679.833 1024.5Z" fill="white"/>
<path d="M749.25 1093.92L739.042 1083.71L728.834 1093.92L739.042 1104.12L749.25 1093.92Z" fill="white"/>
<path d="M781.917 1122.5L771.708 1112.29L761.5 1122.5L771.708 1132.71L781.917 1122.5Z" fill="white"/>
<path d="M667.583 1122.5L657.375 1112.29L647.167 1122.5L657.375 1132.71L667.583 1122.5Z" fill="white"/>
<path d="M753.333 1147L743.125 1136.79L732.916 1147L743.125 1157.21L753.333 1147Z" fill="white"/>
<path d="M724.75 1130.67L718.625 1124.54L712.5 1130.67L718.625 1136.79L724.75 1130.67Z" fill="white"/>
</g>
</g>
<g clip-path="url(#clip4_22_2)">
<mask id="mask4_22_2" style="mask-type:luminance" maskUnits="userSpaceOnUse" x="328" y="947" width="197" height="197">
<path d="M524.5 1143.5L524.5 947.5L328.5 947.5L328.5 1143.5L524.5 1143.5Z" fill="white"/>
</mask>
<g mask="url(#mask4_22_2)">
<path d="M328.5 1045.5C328.5 1099.62 372.376 1143.5 426.5 1143.5C480.624 1143.5 524.5 1099.62 524.5 1045.5C524.5 991.376 480.624 947.5 426.5 947.5C372.376 947.5 328.5 991.376 328.5 1045.5Z" fill="#F0263C"/>
<path d="M479.583 988.334L463.25 972L446.916 988.334L463.25 1004.67L479.583 988.334Z" fill="#FFD400"/>
<path d="M500 1016.92L491.833 1008.75L483.667 1016.92L491.833 1025.08L500 1016.92Z" fill="#FFD400"/>
<path d="M442.833 1016.92L434.666 1008.75L426.5 1016.92L434.666 1025.08L442.833 1016.92Z" fill="#FFD400"/>
<path d="M459.167 1033.25L451 1025.08L442.834 1033.25L451 1041.42L459.167 1033.25Z" fill="#FFD400"/>
<path d="M483.667 1033.25L475.5 1025.08L467.333 1033.25L475.5 1041.42L483.667 1033.25Z" fill="#FFD400"/>
</g>
</g>
<g clip-path="url(#clip5_22_2)">
<mask id="mask5_22_2" style="mask-type:luminance" maskUnits="userSpaceOnUse" x="988" y="496" width="197" height="197">
<path d="M1184.5 692.5L1184.5 496.5L988.5 496.5L988.5 692.5L1184.5 692.5Z" fill="white"/>
</mask>
<g mask="url(#mask5_22_2)">
<path d="M988.5 594.5C988.5 648.624 1032.38 692.5 1086.5 692.5C1140.62 692.5 1184.5 648.624 1184.5 594.5C1184.5 540.376 1140.62 496.5 1086.5 496.5C1032.38 496.5 988.5 540.376 988.5 594.5Z" fill="#191977"/>
<path d="M1162.04 604.708L1172.25 594.5L1162.04 584.292L1151.83 594.5L1162.04 604.708Z" fill="#FFD400"/>
<path d="M1157.03 565.57L1160.76 551.625L1146.82 547.888L1143.08 561.833L1157.03 565.57Z" fill="#FFD400"/>
<path d="M1133.11 534.183L1129.38 520.238L1115.43 523.975L1119.17 537.919L1133.11 534.183Z" fill="#FFD400"/>
<path d="M1096.71 518.958L1086.5 508.75L1076.29 518.958L1086.5 529.167L1096.71 518.958Z" fill="#FFD400"/>
<path d="M1057.57 523.975L1043.63 520.238L1039.89 534.183L1053.83 537.919L1057.57 523.975Z" fill="#FFD400"/>
<path d="M1026.18 547.888L1012.24 551.625L1015.97 565.57L1029.92 561.833L1026.18 547.888Z" fill="#FFD400"/>
<path d="M1010.96 584.291L1000.75 594.5L1010.96 604.708L1021.17 594.5L1010.96 584.291Z" fill="#FFD400"/>
<path d="M1015.97 623.431L1012.24 637.375L1026.18 641.112L1029.92 627.167L1015.97 623.431Z" fill="#FFD400"/>
<path d="M1039.89 654.817L1043.63 668.762L1057.57 665.025L1053.83 651.081L1039.89 654.817Z" fill="#FFD400"/>
<path d="M1076.29 670.042L1086.5 680.25L1096.71 670.042L1086.5 659.834L1076.29 670.042Z" fill="#FFD400"/>
<path d="M1115.43 665.025L1129.38 668.762L1133.11 654.817L1119.17 651.081L1115.43 665.025Z" fill="#FFD400"/>
<path d="M1146.82 641.112L1160.76 637.375L1157.03 623.431L1143.08 627.167L1146.82 641.112Z" fill="#FFD400"/>
</g>
</g>
<g clip-path="url(#clip6_22_2)">
<mask id="mask6_22_2" style="mask-type:luminance" maskUnits="userSpaceOnUse" x="85" y="761" width="197" height="197">
<path d="M281.5 957.5L281.5 761.5L85.5 761.5L85.5 957.5L281.5 957.5Z" fill="white"/>
</mask>
<g mask="url(#mask6_22_2)">
<path d="M85.5 859.5C85.5 913.624 129.376 957.5 183.5 957.5C237.624 957.5 281.5 913.624 281.5 859.5C281.5 805.376 237.624 761.5 183.5 761.5C129.376 761.5 85.5 805.376 85.5 859.5Z" fill="#191977"/>
<path d="M219.463 835L250.676 788.181C248.679 786.3 246.604 784.502 244.454 782.791L209.648 835L208 835L208 808.028L230.878 773.711C228.483 772.385 226.02 771.169 223.508 770.043L208 793.305L208 764.588C205.323 763.899 202.594 763.344 199.833 762.881L199.833 843.166L280.119 843.166C279.656 840.406 279.101 837.677 278.412 835L219.463 835Z" fill="white"/>
<path d="M167.167 762.881C164.407 763.344 161.677 763.899 159 764.588L159 793.305L143.492 770.043C140.979 771.169 138.517 772.385 136.122 773.711L159 808.028L159 835L157.352 835L122.546 782.791C120.396 784.502 118.321 786.3 116.324 788.181L147.537 835L88.5876 835C87.8985 837.677 87.3439 840.406 86.8806 843.167L167.166 843.167L167.167 762.881Z" fill="white"/>
<path d="M199.833 956.12C202.593 955.656 205.323 955.102 208 954.413L208 925.695L223.508 948.957C226.021 947.832 228.483 946.616 230.878 945.29L208 910.972L208 884L209.648 884L244.454 936.209C246.603 934.498 248.678 932.7 250.676 930.819L219.463 884L278.412 884C279.101 881.323 279.656 878.594 280.119 875.833L199.833 875.833L199.833 956.12Z" fill="white"/>
<path d="M167.167 875.833L86.8808 875.833C87.3442 878.593 87.8988 881.323 88.5878 884L147.537 884L116.325 930.819C118.322 932.7 120.396 934.498 122.546 936.208L157.352 884L159 884L159 910.972L136.122 945.289C138.518 946.615 140.98 947.831 143.492 948.957L159 925.695L159 954.412C161.677 955.101 164.406 955.656 167.167 956.119L167.167 875.833Z" fill="white"/>
<path d="M208 835L209.648 835L244.454 782.791C240.199 779.406 235.665 776.36 230.878 773.71L208 808.028L208 835Z" fill="#F0263C"/>
<path d="M230.878 945.29C235.666 942.64 240.2 939.594 244.454 936.209L209.648 884L208 884L208 910.972L230.878 945.29Z" fill="#F0263C"/>
<path d="M136.122 773.711C131.334 776.36 126.8 779.406 122.546 782.791L157.352 835L159 835L159 808.028L136.122 773.711Z" fill="#F0263C"/>
<path d="M159 884L157.352 884L122.546 936.209C126.8 939.594 131.334 942.64 136.122 945.289L159 910.972L159 884Z" fill="#F0263C"/>
<path d="M199.833 956.119L199.833 875.834L280.119 875.834C281.012 870.519 281.5 865.068 281.5 859.5C281.5 853.932 281.012 848.481 280.119 843.167L199.834 843.167L199.834 762.881C194.519 761.988 189.068 761.5 183.5 761.5C177.932 761.5 172.481 761.988 167.167 762.881L167.167 843.166L86.8809 843.166C85.9888 848.481 85.5003 853.932 85.5003 859.5C85.5003 865.067 85.9888 870.519 86.8809 875.833L167.167 875.833L167.167 956.119C172.481 957.011 177.932 957.499 183.5 957.499C189.068 957.499 194.519 957.012 199.833 956.119Z" fill="#F0263C"/>
</g>
</g>
<g clip-path="url(#clip7_22_2)">
<mask id="mask7_22_2" style="mask-type:luminance" maskUnits="userSpaceOnUse" x="0" y="444" width="197" height="197">
<path d="M196.5 640.5L196.5 444.5L0.5 444.5L0.499991 640.5L196.5 640.5Z" fill="white"/>
</mask>
<g mask="url(#mask7_22_2)">
<path d="M194.183 521.338L192.416 523.104L186.291 516.979L191.542 511.728C188.395 502.208 183.832 493.339 178.096 485.362L176.083 487.375L169.958 481.25L172.694 478.514C170.086 475.494 167.318 472.616 164.365 469.934L159.75 474.549L153.625 468.424L157.664 464.385C154.652 462.1 151.5 459.993 148.229 458.062L143.417 462.875L137.292 456.75L140.223 453.819C127.562 447.851 113.425 444.5 98.5 444.5L98.5 542.5L196.5 542.5C196.5 535.231 195.684 528.156 194.183 521.338Z" fill="#191977"/>
<path d="M180.167 596.663C190.479 581.145 196.5 562.529 196.5 542.5L180.167 542.5L180.167 596.663Z" fill="white"/>
<path d="M163.833 542.5L163.833 615.526C170.043 609.967 175.537 603.629 180.167 596.663L180.167 542.5L163.833 542.5Z" fill="#F0263C"/>
<path d="M147.5 542.5L147.5 627.357C153.352 623.97 158.827 620.008 163.833 615.526L163.833 542.5L147.5 542.5Z" fill="white"/>
<path d="M131.167 542.5L131.167 634.901C136.875 632.883 142.333 630.347 147.5 627.357L147.5 542.5L131.167 542.5Z" fill="#F0263C"/>
<path d="M114.833 542.5L114.833 639.119C120.454 638.176 125.913 636.759 131.166 634.902L131.167 542.5L114.833 542.5Z" fill="white"/>
<path d="M98.5 542.5L98.5 640.5C104.068 640.5 109.519 640.012 114.833 639.119L114.833 542.5L98.5 542.5Z" fill="#F0263C"/>
<path d="M98.5 542.5L98.5 444.5C92.9321 444.5 87.4811 444.988 82.1668 445.881L82.1668 639.119C87.4811 640.011 92.9324 640.5 98.5 640.5L98.5 542.5Z" fill="white"/>
<path d="M65.8333 450.099L65.8333 634.901C71.0867 636.759 76.5453 638.176 82.1665 639.119L82.1665 445.881C76.5453 446.824 71.0864 448.242 65.8333 450.099Z" fill="#F0263C"/>
<path d="M49.5 457.643L49.5 627.357C54.6671 630.347 60.1254 632.884 65.8332 634.902L65.8333 450.099C60.1254 452.117 54.6668 454.653 49.5 457.643Z" fill="white"/>
<path d="M33.1668 469.474L33.1668 615.526C38.1727 620.008 43.6479 623.97 49.5 627.357L49.5 457.643C43.6479 461.03 38.1727 464.992 33.1668 469.474Z" fill="#F0263C"/>
<path d="M16.8333 488.337L16.8333 596.663C21.4625 603.629 26.9567 609.967 33.1665 615.526L33.1665 469.474C26.9567 475.033 21.4626 481.371 16.8333 488.337Z" fill="white"/>
<path d="M0.500013 542.5C0.500012 562.529 6.52058 581.145 16.8332 596.663L16.8333 488.337C6.52059 503.855 0.500014 522.471 0.500013 542.5Z" fill="#F0263C"/>
<path d="M133.208 468.424L127.083 462.299L120.958 468.424L127.083 474.549L133.208 468.424Z" fill="white"/>
<path d="M133.208 492.479L127.083 486.354L120.958 492.479L127.083 498.604L133.208 492.479Z" fill="white"/>
<path d="M133.208 516.979L127.083 510.854L120.958 516.979L127.083 523.104L133.208 516.979Z" fill="white"/>
<path d="M165.875 492.479L159.75 486.354L153.625 492.479L159.75 498.604L165.875 492.479Z" fill="white"/>
<path d="M165.875 516.979L159.75 510.854L153.625 516.979L159.75 523.104L165.875 516.979Z" fill="white"/>
<path d="M116.875 456.75L110.75 450.625L104.625 456.75L110.75 462.875L116.875 456.75Z" fill="white"/>
<path d="M116.875 481.25L110.75 475.125L104.625 481.25L110.75 487.375L116.875 481.25Z" fill="white"/>
<path d="M116.875 505.305L110.75 499.18L104.625 505.305L110.75 511.43L116.875 505.305Z" fill="white"/>
<path d="M116.875 529.805L110.75 523.68L104.625 529.805L110.75 535.93L116.875 529.805Z" fill="white"/>
<path d="M149.542 481.25L143.417 475.125L137.292 481.25L143.417 487.375L149.542 481.25Z" fill="white"/>
<path d="M149.542 505.305L143.417 499.18L137.292 505.305L143.417 511.43L149.542 505.305Z" fill="white"/>
<path d="M149.542 529.805L143.417 523.68L137.292 529.805L143.417 535.93L149.542 529.805Z" fill="white"/>
<path d="M182.208 505.305L176.083 499.18L169.958 505.305L176.083 511.43L182.208 505.305Z" fill="white"/>
<path d="M182.208 529.805L176.083 523.68L169.958 529.805L176.083 535.93L182.208 529.805Z" fill="white"/>
<path d="M159.75 474.55L164.365 469.935C162.219 467.985 159.978 466.14 157.665 464.386L153.625 468.425L159.75 474.55Z" fill="white"/>
<path d="M143.417 462.875L148.229 458.062C145.634 456.531 142.966 455.111 140.224 453.819L137.292 456.75L143.417 462.875Z" fill="white"/>
<path d="M176.084 487.375L178.096 485.362C176.396 482.998 174.593 480.715 172.694 478.515L169.958 481.25L176.084 487.375Z" fill="white"/>
<path d="M192.417 523.104L194.183 521.338C193.464 518.07 192.58 514.865 191.543 511.728L186.292 516.979L192.417 523.104Z" fill="white"/>
</g>
</g>
<g clip-path="url(#clip8_22_2)">
<mask id="mask8_22_2" style="mask-type:luminance" maskUnits="userSpaceOnUse" x="386" y="0" width="197" height="197">
<path d="M582.5 0.5L582.5 196.5L386.5 196.5L386.5 0.499991L582.5 0.5Z" fill="white"/>
</mask>
<g mask="url(#mask8_22_2)">
<path d="M564.125 41.3354C549.223 20.7125 526.762 6.21462 500.835 1.92712L500.835 41.3354L564.125 41.3354ZM500.835 195.073C547.177 187.312 582.5 147.09 582.5 98.5C582.5 90.1271 581.477 81.7604 579.437 74L500.835 74L500.835 195.073ZM468.171 1.92712C442.238 6.21462 419.783 20.7125 404.875 41.3354L468.171 41.3354L468.171 1.92712ZM389.562 74C387.523 81.7604 386.5 90.1271 386.5 98.5C386.5 147.09 421.823 187.312 468.171 195.073L468.171 74L389.562 74Z" fill="#F0263C"/>
<path d="M492.665 196.09C495.4 195.85 498.125 195.511 500.835 195.073L500.835 74L579.437 74C578.825 71.1396 577.802 68.4875 576.987 65.8354C574.948 60.1146 572.498 54.6021 569.435 49.5C567.8 46.6396 565.962 43.9875 564.125 41.3354L500.835 41.3354L500.835 1.92712C495.433 1.05112 489.973 0.574125 484.5 0.499996C479.027 0.566125 473.566 1.04317 468.165 1.92712L468.165 41.3354L404.875 41.3354C403.038 43.9875 401.2 46.6396 399.565 49.5C396.502 54.6021 394.052 60.1146 392.012 65.8354C390.99 68.4875 390.175 71.1396 389.562 74L468.165 74L468.165 195.073C473.567 195.948 479.027 196.425 484.5 196.5C487.152 196.5 490.012 196.298 492.665 196.09Z" fill="#F0F0F0"/>
</g>
</g>
<g clip-path="url(#clip9_22_2)">
<mask id="mask9_22_2" style="mask-type:luminance" maskUnits="userSpaceOnUse" x="658" y="14" width="197" height="197">
<path d="M854.5 210.5L854.5 14.5L658.5 14.5L658.5 210.5L854.5 210.5Z" fill="white"/>
</mask>
<g mask="url(#mask9_22_2)">
<path d="M658.5 112.5C658.5 166.624 702.376 210.5 756.5 210.5C810.624 210.5 854.5 166.624 854.5 112.5C854.5 58.3761 810.624 14.5 756.5 14.5C702.376 14.5 658.5 58.3761 658.5 112.5Z" fill="#F0263C"/>
<path d="M758.157 110.727C761.627 109.067 765.421 108.199 769.262 108.199C770.257 108.199 771.298 108.272 772.537 108.43L773.48 108.551L773.412 109.754C773.401 109.92 773.389 110.086 773.389 110.255C773.389 117.685 779.433 123.729 786.863 123.729C791.453 123.729 795.685 121.416 798.184 117.543L798.682 116.771L799.502 117.185C801.267 118.076 802.905 119.145 804.394 120.375C804.451 119.734 804.479 119.123 804.479 118.537C804.479 111.279 801.218 104.503 795.533 99.9446C795.129 99.6078 794.724 99.3037 794.303 99.0244C790.259 96.1961 785.545 94.7087 780.651 94.7087C770.381 94.7087 761.443 101.186 758.157 110.727Z" fill="white"/>
<path d="M756.352 99.0339C756.66 98.0879 757.051 97.1208 757.586 95.9904L757.991 95.131L759.109 95.5656C759.265 95.6284 759.421 95.6912 759.583 95.7442C763.007 96.8568 766.657 96.5695 769.864 94.9357C773.072 93.3018 775.45 90.5165 776.562 87.0941C777.981 82.7246 777.089 77.9875 774.178 74.4145L773.598 73.7018L774.245 73.0498C775.639 71.6481 777.162 70.42 778.791 69.3843C778.198 69.132 777.628 68.9167 777.068 68.7354C770.166 66.4924 762.713 67.4993 756.622 71.4986C756.175 71.7776 755.762 72.0689 755.367 72.3828C751.427 75.3546 748.556 79.3782 747.043 84.0338C743.868 93.8044 747.267 104.305 755.325 110.377C754.817 106.561 755.166 102.685 756.352 99.0339Z" fill="white"/>
<path d="M743.647 108.478C742.843 107.895 742.045 107.223 741.133 106.366L740.439 105.713L741.196 104.791C741.306 104.66 741.416 104.53 741.516 104.391C745.885 98.3788 744.547 89.9361 738.536 85.5687C734.823 82.8709 730.04 82.2538 725.741 83.9189L724.884 84.2509L724.465 83.4335C723.562 81.675 722.864 79.8467 722.382 77.9774C721.96 78.4618 721.579 78.9384 721.234 79.414C716.968 85.2857 715.622 92.6847 717.543 99.715C717.671 100.225 717.82 100.709 717.997 101.183C719.605 105.847 722.545 109.821 726.505 112.699C734.814 118.736 745.852 118.75 754.118 112.962C750.333 112.263 746.753 110.735 743.647 108.478Z" fill="white"/>
<path d="M756.203 114.909C754.369 118.292 751.809 121.225 748.704 123.481C747.899 124.066 747.013 124.619 745.917 125.22L745.081 125.677L744.437 124.67C744.347 124.527 744.259 124.383 744.158 124.246C742.043 121.334 738.919 119.418 735.364 118.855C731.809 118.292 728.248 119.147 725.336 121.262C721.621 123.96 719.549 128.33 719.812 132.921L719.863 133.838L718.957 133.986C717.008 134.302 715.053 134.4 713.124 134.281C713.456 134.834 713.791 135.343 714.136 135.817C718.402 141.69 725.024 145.256 732.301 145.599C732.828 145.636 733.332 145.643 733.837 145.622C738.771 145.533 743.459 143.966 747.419 141.09C755.728 135.052 759.151 124.559 756.203 114.909Z" fill="white"/>
<path d="M758.698 113.527C761.349 116.316 763.348 119.656 764.535 123.307C764.841 124.251 765.092 125.264 765.327 126.495L765.504 127.428L764.335 127.736C764.174 127.777 764.015 127.817 763.855 127.869C760.433 128.98 757.647 131.359 756.013 134.566C754.378 137.774 754.09 141.424 755.203 144.848C756.621 149.212 760.128 152.522 764.584 153.702L765.473 153.937L765.332 154.845C765.03 156.798 764.52 158.688 763.811 160.484C764.438 160.34 765.026 160.178 765.585 159.997C772.488 157.754 777.926 152.558 780.502 145.743C780.7 145.253 780.863 144.777 780.998 144.29C782.44 139.569 782.396 134.625 780.884 129.971C777.71 120.203 768.788 113.704 758.698 113.527Z" fill="white"/>
<path d="M794.271 110.458L789.167 105.354L784.063 110.458L789.167 115.562L794.271 110.458Z" fill="#F0263C"/>
<path d="M766.23 75.9466L759.799 79.2238L763.076 85.6553L769.507 82.3782L766.23 75.9466Z" fill="#F0263C"/>
<path d="M724.743 91.9509L725.872 99.0801L733.001 97.951L731.872 90.8215L724.743 91.9509Z" fill="#F0263C"/>
<path d="M727.143 136.353L734.272 137.482L735.402 130.353L728.272 129.224L727.143 136.353Z" fill="#F0263C"/>
<path d="M770.113 147.791L773.391 141.36L766.959 138.083L763.682 144.514L770.113 147.791Z" fill="#F0263C"/>
</g>
</g>
<defs>
<clipPath id="clip0_22_2">
<rect width="196" height="196" fill="white" transform="translate(1096.5 196.5) rotate(90)"/>
</clipPath>
<clipPath id="clip1_22_2">
<rect width="196" height="196" fill="white" transform="translate(1066.5 805.5) rotate(90)"/>
</clipPath>
<clipPath id="clip2_22_2">
<rect width="196" height="196" fill="white" transform="translate(323.5 150.5) rotate(90)"/>
</clipPath>
<clipPath id="clip3_22_2">
<rect width="196" height="196" fill="white" transform="translate(810.5 975.5) rotate(90)"/>
</clipPath>
<clipPath id="clip4_22_2">
<rect width="196" height="196" fill="white" transform="translate(524.5 947.5) rotate(90)"/>
</clipPath>
<clipPath id="clip5_22_2">
<rect width="196" height="196" fill="white" transform="translate(1184.5 496.5) rotate(90)"/>
</clipPath>
<clipPath id="clip6_22_2">
<rect width="196" height="196" fill="white" transform="translate(281.5 761.5) rotate(90)"/>
</clipPath>
<clipPath id="clip7_22_2">
<rect width="196" height="196" fill="white" transform="translate(196.5 444.5) rotate(90)"/>
</clipPath>
<clipPath id="clip8_22_2">
<rect width="196" height="196" fill="white" transform="translate(582.5 0.5) rotate(90)"/>
</clipPath>
<clipPath id="clip9_22_2">
<rect width="196" height="196" fill="white" transform="translate(854.5 14.5) rotate(90)"/>
</clipPath>
</defs>
</svg>
