<svg width="1171" height="1184" viewBox="0 0 1171 1184" fill="none" xmlns="http://www.w3.org/2000/svg">
<g clip-path="url(#clip0_11_177)">
<mask id="mask0_11_177" style="mask-type:luminance" maskUnits="userSpaceOnUse" x="196" y="88" width="196" height="196">
<path d="M392 88H196V284H392V88Z" fill="white"/>
</mask>
<g mask="url(#mask0_11_177)">
<path d="M261.333 218.667H386.401C390.015 208.447 392 197.457 392 186C392 174.543 390.015 163.553 386.401 153.333H261.333V218.667Z" fill="white"/>
<path d="M261.333 153.333H386.401C372.946 115.275 336.666 88 294 88C282.543 88 271.553 89.9851 261.333 93.5982V153.333Z" fill="#1E5B00"/>
<path d="M386.401 218.667H261.333V278.401C271.553 282.015 282.543 284 294 284C336.666 284 372.946 256.725 386.401 218.667Z" fill="black"/>
<path d="M261.333 278.401V93.5983C223.275 107.054 196 143.333 196 186C196 228.667 223.275 264.946 261.333 278.401Z" fill="#F0263C"/>
</g>
</g>
<g clip-path="url(#clip1_11_177)">
<mask id="mask1_11_177" style="mask-type:luminance" maskUnits="userSpaceOnUse" x="805" y="118" width="196" height="196">
<path d="M1001 118H805V314H1001V118Z" fill="white"/>
</mask>
<g mask="url(#mask1_11_177)">
<path d="M903 314C957.124 314 1001 270.124 1001 216C1001 161.876 957.124 118 903 118C848.876 118 805 161.876 805 216C805 270.124 848.876 314 903 314Z" fill="white"/>
<path d="M903 195.583C914.276 195.583 923.417 204.724 923.417 216C923.417 227.276 914.276 236.416 903 236.416C891.724 236.416 882.583 227.276 882.583 216C882.583 204.724 891.724 195.583 903 195.583Z" fill="white"/>
<path d="M903 195.583C914.276 195.583 923.417 204.724 923.417 216C923.417 227.276 914.276 236.417 903 236.417C891.724 236.417 882.583 227.276 882.583 216C882.583 204.724 891.724 195.583 903 195.583ZM903 191.5C889.491 191.5 878.5 202.491 878.5 216C878.5 229.509 889.491 240.5 903 240.5C916.509 240.5 927.5 229.509 927.5 216C927.5 202.491 916.509 191.5 903 191.5Z" fill="#191977"/>
<path d="M810.599 183.333H995.401C981.946 145.275 945.666 118 903 118C860.334 118 824.054 145.275 810.599 183.333Z" fill="#FF7700"/>
<path d="M995.401 248.667H810.599C824.055 286.725 860.334 314 903 314C945.666 314 981.946 286.725 995.401 248.667Z" fill="#1E5B00"/>
<path d="M903 228.277C909.765 228.277 915.25 222.792 915.25 216.027C915.25 209.262 909.765 203.777 903 203.777C896.234 203.777 890.75 209.262 890.75 216.027C890.75 222.792 896.234 228.277 903 228.277Z" fill="#191977"/>
</g>
</g>
<g clip-path="url(#clip2_11_177)">
<mask id="mask2_11_177" style="mask-type:luminance" maskUnits="userSpaceOnUse" x="150" y="861" width="196" height="196">
<path d="M346 861H150V1057H346V861Z" fill="white"/>
</mask>
<g mask="url(#mask2_11_177)">
<path d="M248 1057C302.124 1057 346 1013.12 346 959C346 904.876 302.124 861 248 861C193.876 861 150 904.876 150 959C150 1013.12 193.876 1057 248 1057Z" fill="#1E5B00"/>
<path d="M248 1008C275.062 1008 297 986.062 297 959C297 931.938 275.062 910 248 910C220.938 910 199 931.938 199 959C199 986.062 220.938 1008 248 1008Z" fill="#F0263C"/>
</g>
</g>
<g clip-path="url(#clip3_11_177)">
<mask id="mask3_11_177" style="mask-type:luminance" maskUnits="userSpaceOnUse" x="975" y="374" width="196" height="196">
<path d="M1171 374H975V570H1171V374Z" fill="white"/>
</mask>
<g mask="url(#mask3_11_177)">
<path d="M1073 570C1127.12 570 1171 526.124 1171 472C1171 417.876 1127.12 374 1073 374C1018.88 374 975 417.876 975 472C975 526.124 1018.88 570 1073 570Z" fill="#191977"/>
<path d="M1073 398.5V394.417H1057.1L1073 383.815V378.908L1049.74 394.417H1036.25V393.593L1065.12 374.343C1062.05 374.587 1059.02 374.972 1056.04 375.493L1036.25 388.685V381.151C1034.87 381.709 1033.51 382.298 1032.17 382.916V398.5H1073Z" fill="white"/>
<path d="M1015.83 392.425C1013.19 394.326 1010.65 396.352 1008.21 398.5H1015.83V392.425Z" fill="white"/>
<path d="M1032.17 439.333H1036.25V424.648L1058.28 439.333H1065.64L1036.25 419.741V418.917H1049.74L1073 434.426V429.519L1057.1 418.917H1073V414.833H1032.17V439.333Z" fill="white"/>
<path d="M993.425 414.833C992.464 416.17 991.536 417.531 990.641 418.916C990.576 419.018 990.511 419.12 990.446 419.222C988.795 421.798 987.263 424.456 985.854 427.19L998.264 418.917H1011.75V419.741L982.361 439.333H989.722L1011.75 424.648V439.333H1015.83V414.833H993.425Z" fill="white"/>
<path d="M1036.25 394.417H1049.74L1073 378.908V374C1070.35 374 1067.73 374.136 1065.12 374.343L1036.25 393.592V394.417Z" fill="#F0263C"/>
<path d="M1036.25 418.917V419.741L1065.64 439.333H1073V434.426L1049.74 418.917H1036.25Z" fill="#F0263C"/>
<path d="M1011.75 419.741V418.917H998.264L985.854 427.19C983.842 431.094 982.08 435.146 980.599 439.333H982.362L1011.75 419.741Z" fill="#F0263C"/>
<path d="M1015.83 439.333H1032.17V414.833H1073V398.5H1032.17V382.916C1026.4 385.565 1020.93 388.755 1015.83 392.425V398.5H1008.21C1002.69 403.369 997.733 408.847 993.425 414.833H1015.83L1015.83 439.333Z" fill="#F0263C"/>
<path d="M1024 504.666L1007.67 521L1024 537.334L1040.33 521L1024 504.666Z" fill="white"/>
<path d="M1093.42 435.25L1083.21 445.458L1093.42 455.666L1103.62 445.458L1093.42 435.25Z" fill="white"/>
<path d="M1122 402.583L1111.79 412.792L1122 423L1132.21 412.792L1122 402.583Z" fill="white"/>
<path d="M1122 516.917L1111.79 527.125L1122 537.333L1132.21 527.125L1122 516.917Z" fill="white"/>
<path d="M1146.5 431.167L1136.29 441.375L1146.5 451.584L1156.71 441.375L1146.5 431.167Z" fill="white"/>
<path d="M1130.17 459.75L1124.04 465.875L1130.17 472L1136.29 465.875L1130.17 459.75Z" fill="white"/>
</g>
</g>
<g clip-path="url(#clip4_11_177)">
<mask id="mask4_11_177" style="mask-type:luminance" maskUnits="userSpaceOnUse" x="947" y="660" width="196" height="196">
<path d="M1143 660H947V856H1143V660Z" fill="white"/>
</mask>
<g mask="url(#mask4_11_177)">
<path d="M1045 856C1099.12 856 1143 812.124 1143 758C1143 703.876 1099.12 660 1045 660C990.876 660 947 703.876 947 758C947 812.124 990.876 856 1045 856Z" fill="#F0263C"/>
<path d="M987.834 704.917L971.5 721.25L987.834 737.584L1004.17 721.25L987.834 704.917Z" fill="#FFD400"/>
<path d="M1016.42 684.5L1008.25 692.666L1016.42 700.833L1024.58 692.666L1016.42 684.5Z" fill="#FFD400"/>
<path d="M1016.42 741.667L1008.25 749.834L1016.42 758L1024.58 749.834L1016.42 741.667Z" fill="#FFD400"/>
<path d="M1032.75 725.333L1024.58 733.5L1032.75 741.666L1040.92 733.5L1032.75 725.333Z" fill="#FFD400"/>
<path d="M1032.75 700.834L1024.58 709L1032.75 717.167L1040.92 709L1032.75 700.834Z" fill="#FFD400"/>
</g>
</g>
<g clip-path="url(#clip5_11_177)">
<mask id="mask5_11_177" style="mask-type:luminance" maskUnits="userSpaceOnUse" x="496" y="0" width="196" height="196">
<path d="M692 0H496V196H692V0Z" fill="white"/>
</mask>
<g mask="url(#mask5_11_177)">
<path d="M594 196C648.124 196 692 152.124 692 98C692 43.8761 648.124 0 594 0C539.876 0 496 43.8761 496 98C496 152.124 539.876 196 594 196Z" fill="#191977"/>
<path d="M604.208 22.4584L594 12.2501L583.792 22.4584L594 32.6665L604.208 22.4584Z" fill="#FFD400"/>
<path d="M565.07 27.4747L551.125 23.7383L547.388 37.6831L561.333 41.4194L565.07 27.4747Z" fill="#FFD400"/>
<path d="M533.683 51.3884L519.738 55.125L523.475 69.0698L537.419 65.3332L533.683 51.3884Z" fill="#FFD400"/>
<path d="M518.458 87.7917L508.25 98L518.458 108.208L528.667 98L518.458 87.7917Z" fill="#FFD400"/>
<path d="M523.475 126.931L519.738 140.875L533.683 144.612L537.419 130.667L523.475 126.931Z" fill="#FFD400"/>
<path d="M547.388 158.317L551.125 172.262L565.07 168.525L561.333 154.581L547.388 158.317Z" fill="#FFD400"/>
<path d="M583.792 173.542L594 183.75L604.208 173.542L594 163.334L583.792 173.542Z" fill="#FFD400"/>
<path d="M622.93 168.525L636.875 172.262L640.611 158.317L626.667 154.581L622.93 168.525Z" fill="#FFD400"/>
<path d="M654.317 144.612L668.262 140.875L664.525 126.931L650.581 130.667L654.317 144.612Z" fill="#FFD400"/>
<path d="M669.542 108.208L679.75 97.9997L669.542 87.7914L659.334 97.9997L669.542 108.208Z" fill="#FFD400"/>
<path d="M664.525 69.0698L668.262 55.125L654.317 51.3884L650.581 65.3332L664.525 69.0698Z" fill="#FFD400"/>
<path d="M640.611 37.6829L636.875 23.7383L622.93 27.4748L626.667 41.4194L640.611 37.6829Z" fill="#FFD400"/>
</g>
</g>
<g clip-path="url(#clip6_11_177)">
<mask id="mask6_11_177" style="mask-type:luminance" maskUnits="userSpaceOnUse" x="761" y="903" width="196" height="196">
<path d="M957 903H761V1099H957V903Z" fill="white"/>
</mask>
<g mask="url(#mask6_11_177)">
<path d="M859 1099C913.124 1099 957 1055.12 957 1001C957 946.876 913.124 903 859 903C804.876 903 761 946.876 761 1001C761 1055.12 804.876 1099 859 1099Z" fill="#191977"/>
<path d="M834.5 965.037L787.681 933.824C785.8 935.821 784.002 937.896 782.291 940.046L834.5 974.852V976.5H807.528L773.211 953.622C771.885 956.017 770.669 958.48 769.543 960.992L792.805 976.5H764.088C763.399 979.177 762.844 981.906 762.381 984.667H842.666V904.381C839.906 904.844 837.177 905.399 834.5 906.088L834.5 965.037Z" fill="white"/>
<path d="M762.381 1017.33C762.844 1020.09 763.399 1022.82 764.088 1025.5H792.805L769.543 1041.01C770.669 1043.52 771.885 1045.98 773.211 1048.38L807.528 1025.5H834.5V1027.15L782.291 1061.95C784.002 1064.1 785.8 1066.18 787.681 1068.18L834.5 1036.96V1095.91C837.177 1096.6 839.906 1097.16 842.667 1097.62V1017.33L762.381 1017.33Z" fill="white"/>
<path d="M955.62 984.667C955.156 981.907 954.602 979.177 953.913 976.5H925.195L948.457 960.992C947.332 958.479 946.116 956.017 944.79 953.622L910.472 976.5H883.5V974.852L935.709 940.046C933.998 937.897 932.201 935.822 930.319 933.824L883.5 965.037V906.088C880.823 905.399 878.094 904.844 875.333 904.381V984.666L955.62 984.667Z" fill="white"/>
<path d="M875.333 1017.33V1097.62C878.093 1097.16 880.823 1096.6 883.5 1095.91V1036.96L930.319 1068.18C932.201 1066.18 933.998 1064.1 935.708 1061.95L883.5 1027.15V1025.5H910.472L944.789 1048.38C946.115 1045.98 947.331 1043.52 948.457 1041.01L925.195 1025.5H953.912C954.601 1022.82 955.156 1020.09 955.619 1017.33L875.333 1017.33Z" fill="white"/>
<path d="M834.5 976.5V974.852L782.291 940.046C778.906 944.301 775.86 948.835 773.21 953.622L807.528 976.5H834.5Z" fill="#F0263C"/>
<path d="M944.79 953.622C942.14 948.834 939.094 944.3 935.709 940.046L883.5 974.852V976.5H910.472L944.79 953.622Z" fill="#F0263C"/>
<path d="M773.211 1048.38C775.86 1053.17 778.906 1057.7 782.291 1061.95L834.5 1027.15V1025.5H807.528L773.211 1048.38Z" fill="#F0263C"/>
<path d="M883.5 1025.5V1027.15L935.709 1061.95C939.094 1057.7 942.14 1053.17 944.789 1048.38L910.472 1025.5L883.5 1025.5Z" fill="#F0263C"/>
<path d="M955.619 984.667H875.334V904.381C870.019 903.488 864.568 903 859 903C853.432 903 847.981 903.488 842.667 904.381V984.666H762.381C761.488 989.981 761 995.432 761 1001C761 1006.57 761.488 1012.02 762.381 1017.33H842.666V1097.62C847.981 1098.51 853.432 1099 859 1099C864.567 1099 870.019 1098.51 875.333 1097.62V1017.33H955.619C956.511 1012.02 956.999 1006.57 956.999 1001C956.999 995.432 956.512 989.981 955.619 984.667Z" fill="#F0263C"/>
</g>
</g>
<g clip-path="url(#clip7_11_177)">
<mask id="mask7_11_177" style="mask-type:luminance" maskUnits="userSpaceOnUse" x="444" y="988" width="196" height="196">
<path d="M640 988H444V1184H640V988Z" fill="white"/>
</mask>
<g mask="url(#mask7_11_177)">
<path d="M520.838 990.317L522.604 992.084L516.479 998.209L511.228 992.958C501.708 996.105 492.839 1000.67 484.862 1006.4L486.875 1008.42L480.75 1014.54L478.014 1011.81C474.994 1014.41 472.116 1017.18 469.434 1020.14L474.049 1024.75L467.924 1030.88L463.885 1026.84C461.6 1029.85 459.493 1033 457.562 1036.27L462.375 1041.08L456.25 1047.21L453.319 1044.28C447.351 1056.94 444 1071.08 444 1086H542V988C534.731 988 527.656 988.816 520.838 990.317Z" fill="#191977"/>
<path d="M596.163 1004.33C580.645 994.021 562.029 988 542 988V1004.33H596.163Z" fill="white"/>
<path d="M542 1020.67H615.026C609.467 1014.46 603.129 1008.96 596.163 1004.33H542V1020.67Z" fill="#F0263C"/>
<path d="M542 1037H626.857C623.47 1031.15 619.508 1025.67 615.026 1020.67H542L542 1037Z" fill="white"/>
<path d="M542 1053.33H634.401C632.383 1047.63 629.847 1042.17 626.857 1037H542V1053.33Z" fill="#F0263C"/>
<path d="M542 1069.67H638.619C637.676 1064.05 636.259 1058.59 634.402 1053.33H542L542 1069.67Z" fill="white"/>
<path d="M542 1086H640C640 1080.43 639.512 1074.98 638.619 1069.67H542V1086Z" fill="#F0263C"/>
<path d="M542 1086H444C444 1091.57 444.488 1097.02 445.381 1102.33H638.619C639.511 1097.02 640 1091.57 640 1086H542Z" fill="white"/>
<path d="M449.599 1118.67H634.401C636.259 1113.41 637.676 1107.95 638.619 1102.33H445.381C446.324 1107.95 447.742 1113.41 449.599 1118.67Z" fill="#F0263C"/>
<path d="M457.143 1135H626.857C629.847 1129.83 632.384 1124.37 634.402 1118.67H449.599C451.617 1124.37 454.153 1129.83 457.143 1135Z" fill="white"/>
<path d="M468.974 1151.33H615.026C619.508 1146.33 623.47 1140.85 626.857 1135H457.144C460.53 1140.85 464.492 1146.33 468.974 1151.33Z" fill="#F0263C"/>
<path d="M487.837 1167.67H596.163C603.129 1163.04 609.467 1157.54 615.026 1151.33H468.974C474.533 1157.54 480.871 1163.04 487.837 1167.67Z" fill="white"/>
<path d="M542 1184C562.029 1184 580.645 1177.98 596.163 1167.67H487.837C503.355 1177.98 521.971 1184 542 1184Z" fill="#F0263C"/>
<path d="M467.924 1051.29L461.799 1057.42L467.924 1063.54L474.049 1057.42L467.924 1051.29Z" fill="white"/>
<path d="M491.979 1051.29L485.854 1057.42L491.979 1063.54L498.104 1057.42L491.979 1051.29Z" fill="white"/>
<path d="M516.479 1051.29L510.354 1057.42L516.479 1063.54L522.604 1057.42L516.479 1051.29Z" fill="white"/>
<path d="M491.979 1018.62L485.854 1024.75L491.979 1030.88L498.104 1024.75L491.979 1018.62Z" fill="white"/>
<path d="M516.479 1018.62L510.354 1024.75L516.479 1030.88L522.604 1024.75L516.479 1018.62Z" fill="white"/>
<path d="M456.25 1067.62L450.125 1073.75L456.25 1079.87L462.375 1073.75L456.25 1067.62Z" fill="white"/>
<path d="M480.75 1067.62L474.625 1073.75L480.75 1079.87L486.875 1073.75L480.75 1067.62Z" fill="white"/>
<path d="M504.805 1067.62L498.68 1073.75L504.805 1079.87L510.93 1073.75L504.805 1067.62Z" fill="white"/>
<path d="M529.305 1067.62L523.18 1073.75L529.305 1079.87L535.43 1073.75L529.305 1067.62Z" fill="white"/>
<path d="M480.75 1034.96L474.625 1041.08L480.75 1047.21L486.875 1041.08L480.75 1034.96Z" fill="white"/>
<path d="M504.805 1034.96L498.68 1041.08L504.805 1047.21L510.93 1041.08L504.805 1034.96Z" fill="white"/>
<path d="M529.305 1034.96L523.18 1041.08L529.305 1047.21L535.43 1041.08L529.305 1034.96Z" fill="white"/>
<path d="M504.805 1002.29L498.68 1008.42L504.805 1014.54L510.93 1008.42L504.805 1002.29Z" fill="white"/>
<path d="M529.305 1002.29L523.18 1008.42L529.305 1014.54L535.43 1008.42L529.305 1002.29Z" fill="white"/>
<path d="M474.05 1024.75L469.435 1020.13C467.485 1022.28 465.64 1024.52 463.886 1026.84L467.925 1030.87L474.05 1024.75Z" fill="white"/>
<path d="M462.375 1041.08L457.563 1036.27C456.031 1038.87 454.611 1041.53 453.319 1044.28L456.25 1047.21L462.375 1041.08Z" fill="white"/>
<path d="M486.875 1008.42L484.862 1006.4C482.498 1008.1 480.215 1009.91 478.015 1011.81L480.75 1014.54L486.875 1008.42Z" fill="white"/>
<path d="M522.604 992.083L520.838 990.317C517.57 991.036 514.365 991.92 511.228 992.957L516.479 998.208L522.604 992.083Z" fill="white"/>
</g>
</g>
<g clip-path="url(#clip8_11_177)">
<mask id="mask8_11_177" style="mask-type:luminance" maskUnits="userSpaceOnUse" x="0" y="602" width="196" height="196">
<path d="M0 602H196V798H0V602Z" fill="white"/>
</mask>
<g mask="url(#mask8_11_177)">
<path d="M40.8355 620.375C20.2126 635.277 5.71475 657.738 1.42725 683.665H40.8355V620.375ZM194.573 683.665C186.813 637.323 146.59 602 98.0001 602C89.6272 602 81.2605 603.023 73.5001 605.062V683.665H194.573ZM1.42725 716.329C5.71475 742.263 20.2126 764.717 40.8355 779.625V716.329H1.42725ZM73.5001 794.938C81.2605 796.977 89.6272 798 98.0001 798C146.59 798 186.813 762.677 194.573 716.329H73.5001V794.938Z" fill="#F0263C"/>
<path d="M195.59 691.835C195.35 689.1 195.011 686.375 194.573 683.665H73.5V605.062C70.6396 605.675 67.9875 606.698 65.3354 607.512C59.6146 609.552 54.1021 612.002 49 615.065C46.1396 616.7 43.4875 618.537 40.8354 620.375V683.665H1.42712C0.551127 689.067 0.0741291 694.527 0 700C0.0661297 705.473 0.543179 710.934 1.42712 716.335H40.8354V779.625C43.4875 781.463 46.1396 783.3 49 784.935C54.1021 787.998 59.6146 790.448 65.3354 792.488C67.9875 793.51 70.6396 794.325 73.5 794.938V716.335H194.573C195.448 710.933 195.925 705.473 196 700C196 697.348 195.798 694.487 195.59 691.835Z" fill="#F0F0F0"/>
</g>
</g>
<g clip-path="url(#clip9_11_177)">
<mask id="mask9_11_177" style="mask-type:luminance" maskUnits="userSpaceOnUse" x="14" y="330" width="196" height="196">
<path d="M210 330H14V526H210V330Z" fill="white"/>
</mask>
<g mask="url(#mask9_11_177)">
<path d="M112 526C166.124 526 210 482.124 210 428C210 373.876 166.124 330 112 330C57.8761 330 14 373.876 14 428C14 482.124 57.8761 526 112 526Z" fill="#F0263C"/>
<path d="M110.227 426.343C108.567 422.873 107.699 419.079 107.699 415.239C107.699 414.243 107.773 413.202 107.93 411.963L108.051 411.02L109.254 411.089C109.42 411.1 109.586 411.112 109.755 411.112C117.185 411.112 123.229 405.067 123.229 397.637C123.229 393.047 120.917 388.815 117.043 386.316L116.271 385.818L116.685 384.998C117.577 383.233 118.645 381.595 119.876 380.106C119.234 380.049 118.623 380.021 118.037 380.021C110.779 380.021 104.003 383.282 99.4447 388.968C99.1078 389.371 98.8037 389.776 98.5244 390.197C95.6962 394.241 94.2087 398.955 94.2087 403.849C94.2087 414.12 100.687 423.057 110.227 426.343Z" fill="white"/>
<path d="M98.5338 428.148C97.5878 427.84 96.6207 427.449 95.4903 426.914L94.631 426.509L95.0656 425.391C95.1283 425.235 95.1911 425.079 95.2441 424.917C96.3567 421.493 96.0694 417.843 94.4356 414.636C92.8018 411.429 90.0164 409.05 86.5941 407.938C82.2245 406.519 77.4874 407.411 73.9144 410.322L73.2018 410.902L72.5497 410.255C71.148 408.862 69.92 407.338 68.8842 405.709C68.6319 406.302 68.4166 406.872 68.2353 407.432C65.9923 414.335 66.9993 421.787 70.9986 427.878C71.2776 428.325 71.5688 428.738 71.8827 429.133C74.8546 433.073 78.8781 435.944 83.5337 437.457C93.3043 440.632 103.805 437.233 109.877 429.175C106.061 429.683 102.185 429.334 98.5338 428.148Z" fill="white"/>
<path d="M107.978 440.853C107.395 441.657 106.723 442.455 105.866 443.367L105.213 444.061L104.291 443.304C104.16 443.194 104.03 443.084 103.891 442.984C97.8787 438.615 89.4361 439.953 85.0686 445.964C82.3709 449.677 81.7538 454.46 83.4189 458.759L83.7508 459.616L82.9334 460.035C81.175 460.938 79.3466 461.636 77.4773 462.118C77.9618 462.54 78.4383 462.921 78.9139 463.266C84.7856 467.532 92.1846 468.878 99.2149 466.957C99.7254 466.829 100.209 466.68 100.682 466.503C105.347 464.895 109.321 461.955 112.199 457.995C118.236 449.686 118.25 438.648 112.462 430.382C111.763 434.167 110.235 437.747 107.978 440.853Z" fill="white"/>
<path d="M114.409 428.297C117.792 430.131 120.725 432.691 122.981 435.796C123.566 436.601 124.119 437.487 124.72 438.583L125.177 439.419L124.17 440.063C124.027 440.153 123.883 440.241 123.746 440.342C120.834 442.457 118.918 445.581 118.355 449.136C117.792 452.691 118.647 456.252 120.762 459.164C123.461 462.879 127.83 464.951 132.421 464.688L133.338 464.637L133.486 465.543C133.802 467.492 133.9 469.447 133.781 471.376C134.334 471.044 134.844 470.709 135.317 470.364C141.19 466.098 144.756 459.476 145.1 452.199C145.136 451.672 145.143 451.168 145.123 450.663C145.033 445.729 143.466 441.041 140.59 437.081C134.552 428.772 124.06 425.349 114.409 428.297Z" fill="white"/>
<path d="M113.027 425.802C115.816 423.151 119.156 421.152 122.807 419.965C123.751 419.659 124.764 419.408 125.995 419.173L126.928 418.996L127.236 420.165C127.277 420.326 127.317 420.485 127.369 420.645C128.48 424.067 130.859 426.853 134.066 428.487C137.274 430.122 140.924 430.41 144.348 429.297C148.712 427.879 152.022 424.372 153.202 419.916L153.437 419.027L154.345 419.168C156.298 419.47 158.188 419.98 159.984 420.689C159.84 420.062 159.678 419.474 159.497 418.915C157.254 412.012 152.058 406.574 145.243 403.998C144.753 403.8 144.277 403.637 143.79 403.502C139.069 402.06 134.125 402.104 129.471 403.616C119.703 406.79 113.204 415.712 113.027 425.802Z" fill="white"/>
<path d="M109.958 390.229L104.854 395.333L109.958 400.437L115.062 395.333L109.958 390.229Z" fill="#F0263C"/>
<path d="M75.4465 418.27L78.7237 424.701L85.1553 421.424L81.8781 414.993L75.4465 418.27Z" fill="#F0263C"/>
<path d="M91.451 459.757L98.5802 458.628L97.451 451.499L90.3215 452.628L91.451 459.757Z" fill="#F0263C"/>
<path d="M135.853 457.357L136.982 450.228L129.853 449.099L128.724 456.228L135.853 457.357Z" fill="#F0263C"/>
<path d="M147.291 414.387L140.86 411.109L137.583 417.541L144.014 420.818L147.291 414.387Z" fill="#F0263C"/>
</g>
</g>
<defs>
<clipPath id="clip0_11_177">
<rect width="196" height="196" fill="white" transform="translate(196 88)"/>
</clipPath>
<clipPath id="clip1_11_177">
<rect width="196" height="196" fill="white" transform="translate(805 118)"/>
</clipPath>
<clipPath id="clip2_11_177">
<rect width="196" height="196" fill="white" transform="translate(150 861)"/>
</clipPath>
<clipPath id="clip3_11_177">
<rect width="196" height="196" fill="white" transform="translate(975 374)"/>
</clipPath>
<clipPath id="clip4_11_177">
<rect width="196" height="196" fill="white" transform="translate(947 660)"/>
</clipPath>
<clipPath id="clip5_11_177">
<rect width="196" height="196" fill="white" transform="translate(496)"/>
</clipPath>
<clipPath id="clip6_11_177">
<rect width="196" height="196" fill="white" transform="translate(761 903)"/>
</clipPath>
<clipPath id="clip7_11_177">
<rect width="196" height="196" fill="white" transform="translate(444 988)"/>
</clipPath>
<clipPath id="clip8_11_177">
<rect width="196" height="196" fill="white" transform="translate(0 602)"/>
</clipPath>
<clipPath id="clip9_11_177">
<rect width="196" height="196" fill="white" transform="translate(14 330)"/>
</clipPath>
</defs>
</svg>
