<svg width="500" height="385" viewBox="0 0 500 385" fill="none" xmlns="http://www.w3.org/2000/svg">
<path d="M449.9 348.92H359V349.17H449.9V348.92Z" fill="#EBEBEB"/>
<path d="M331.22 346.21H306.33V346.46H331.22V346.21Z" fill="#EBEBEB"/>
<path d="M388.11 358.21H349.52V358.46H388.11V358.21Z" fill="#EBEBEB"/>
<path d="M75.1 356.53H52.46V356.78H75.1V356.53Z" fill="#EBEBEB"/>
<path d="M110.89 356.53H84V356.78H110.89V356.53Z" fill="#EBEBEB"/>
<path d="M225.15 352.31H178.31V352.56H225.15V352.31Z" fill="#EBEBEB"/>
<path d="M429.17 219.11C427.689 219.115 426.214 219.307 424.78 219.68C423.362 217.75 421.565 216.13 419.499 214.918C417.433 213.707 415.142 212.93 412.765 212.634C410.389 212.338 407.977 212.53 405.677 213.198C403.377 213.866 401.238 214.997 399.39 216.52C396.357 211.396 391.779 207.364 386.313 205.003C380.847 202.642 374.773 202.074 368.964 203.378C363.154 204.683 357.907 207.795 353.976 212.267C350.044 216.739 347.63 222.341 347.08 228.27C343.931 227.57 340.659 227.642 337.544 228.48C334.429 229.318 331.563 230.897 329.19 233.083C326.817 235.269 325.008 237.996 323.918 241.032C322.827 244.068 322.487 247.323 322.927 250.519C323.366 253.714 324.572 256.757 326.442 259.385C328.312 262.014 330.79 264.152 333.665 265.616C336.539 267.08 339.726 267.826 342.951 267.792C346.177 267.758 349.347 266.944 352.19 265.42C353.462 270.016 356.085 274.124 359.719 277.212C363.353 280.3 367.83 282.225 372.571 282.739C377.312 283.253 382.098 282.332 386.309 280.094C390.52 277.857 393.963 274.406 396.19 270.19C400.006 273.447 404.667 275.557 409.632 276.276C414.598 276.995 419.665 276.293 424.248 274.252C428.832 272.211 432.743 268.914 435.531 264.742C438.318 260.571 439.868 255.695 440 250.68C442.913 248.432 445.05 245.328 446.11 241.804C447.169 238.281 447.099 234.513 445.909 231.031C444.719 227.549 442.469 224.527 439.474 222.389C436.479 220.251 432.89 219.104 429.21 219.11H429.17Z" fill="#F5F5F5"/>
<path d="M72.67 113.32C70.4248 112.341 67.8828 112.293 65.6027 113.188C63.3225 114.082 61.4908 115.846 60.51 118.09C59.3886 117.528 58.1645 117.2 56.9122 117.126C55.6599 117.052 54.4057 117.234 53.2261 117.661C52.0464 118.087 50.9659 118.749 50.0505 119.607C49.1351 120.465 48.404 121.5 47.9016 122.65C47.3993 123.799 47.1363 125.039 47.1286 126.293C47.1209 127.548 47.3688 128.791 47.857 129.946C48.3453 131.102 49.0637 132.146 49.9685 133.015C50.8734 133.883 51.9456 134.559 53.12 135L70.05 142.39L77.44 125.46C78.4155 123.217 78.461 120.679 77.5667 118.403C76.6723 116.127 74.9112 114.299 72.67 113.32Z" fill="#F5F5F5"/>
<path d="M151.61 32.66C151.233 31.9419 150.718 31.3051 150.095 30.7862C149.471 30.2672 148.752 29.8763 147.977 29.6358C147.202 29.3952 146.388 29.3097 145.58 29.3843C144.773 29.4588 143.987 29.6918 143.27 30.07C142.479 28.6696 141.174 27.6324 139.631 27.1787C138.088 26.7251 136.43 26.8907 135.007 27.6405C133.584 28.3902 132.51 29.665 132.012 31.1942C131.514 32.7233 131.632 34.3863 132.34 35.83L138.1 46.76L149 41C149.72 40.6247 150.358 40.1111 150.879 39.4884C151.4 38.8658 151.793 38.1465 152.036 37.3717C152.278 36.597 152.366 35.782 152.292 34.9734C152.219 34.1649 151.987 33.3788 151.61 32.66Z" fill="#E6E6E6"/>
<path d="M403 7.83991C402.622 7.12261 402.106 6.48682 401.483 5.96889C400.859 5.45096 400.139 5.06105 399.365 4.82145C398.59 4.58184 397.776 4.49723 396.969 4.57247C396.161 4.6477 395.377 4.8813 394.66 5.2599C394.283 4.54026 393.768 3.9019 393.145 3.38126C392.521 2.86063 391.801 2.46793 391.026 2.22556C390.25 1.9832 389.435 1.89593 388.626 1.96874C387.816 2.04155 387.03 2.27301 386.31 2.64991C385.59 3.0268 384.952 3.54175 384.431 4.16535C383.911 4.78895 383.518 5.50899 383.276 6.28436C383.033 7.05973 382.946 7.87524 383.019 8.68433C383.092 9.49343 383.323 10.2803 383.7 10.9999L389.46 21.9199L400.38 16.1699C401.829 15.4097 402.918 14.1066 403.409 12.5456C403.9 10.9846 403.753 9.29273 403 7.83991Z" fill="#F5F5F5"/>
<path d="M443 188.57C442.81 187.374 442.155 186.301 441.177 185.587C440.198 184.873 438.977 184.576 437.78 184.76C437.544 183.612 436.875 182.599 435.912 181.931C434.949 181.263 433.766 180.992 432.608 181.173C431.45 181.355 430.406 181.975 429.693 182.905C428.981 183.836 428.654 185.005 428.78 186.17L430.19 195.17L439.19 193.76C440.381 193.573 441.45 192.922 442.164 191.95C442.878 190.978 443.178 189.763 443 188.57Z" fill="#EBEBEB"/>
<path d="M350.53 111.26C350.062 111.113 349.569 111.06 349.08 111.103C348.592 111.147 348.116 111.286 347.682 111.514C347.247 111.741 346.861 112.053 346.547 112.429C346.233 112.806 345.996 113.241 345.85 113.71C345.381 113.564 344.888 113.511 344.399 113.555C343.91 113.599 343.434 113.739 342.999 113.967C342.564 114.195 342.178 114.507 341.863 114.884C341.549 115.261 341.311 115.696 341.165 116.165C341.019 116.634 340.966 117.127 341.01 117.616C341.054 118.105 341.194 118.581 341.422 119.016C341.65 119.451 341.962 119.837 342.339 120.152C342.716 120.466 343.151 120.704 343.62 120.85L350.76 123.08L352.99 115.94C353.284 114.993 353.19 113.968 352.729 113.091C352.267 112.213 351.477 111.555 350.53 111.26Z" fill="#F5F5F5"/>
<path d="M73.39 20.0001C72.4419 19.7058 71.4157 19.7995 70.5365 20.2606C69.6573 20.7218 68.9969 21.5128 68.7 22.4601C68.2318 22.3143 67.7396 22.2622 67.2513 22.3067C66.7629 22.3512 66.2882 22.4914 65.8541 22.7194C65.4199 22.9473 65.035 23.2586 64.7212 23.6353C64.4073 24.0121 64.1708 24.4469 64.025 24.9151C63.8792 25.3833 63.8271 25.8755 63.8716 26.3639C63.9161 26.8522 64.0563 27.3269 64.2843 27.761C64.5123 28.1952 64.8235 28.5801 65.2002 28.8939C65.577 29.2078 66.0119 29.4443 66.48 29.5901L73.61 31.8201L75.84 24.6801C75.9872 24.212 76.0405 23.7194 75.9969 23.2306C75.9534 22.7418 75.8138 22.2664 75.5862 21.8317C75.3586 21.3969 75.0475 21.0113 74.6706 20.697C74.2937 20.3828 73.8586 20.1459 73.39 20.0001Z" fill="#F5F5F5"/>
<path d="M184.91 186.92C184.904 180.964 182.683 175.224 178.68 170.814C174.677 166.405 169.177 163.641 163.25 163.06C160.291 156.408 155.629 150.654 149.735 146.379C143.842 142.104 136.925 139.459 129.683 138.712C122.441 137.964 115.129 139.14 108.487 142.121C101.844 145.102 96.1056 149.783 91.8499 155.69C88.3221 153.119 84.0841 151.703 79.719 151.639C75.3539 151.575 71.0762 152.865 67.4745 155.332C63.8728 157.799 61.124 161.322 59.6064 165.415C58.0888 169.508 57.8769 173.971 58.9999 178.19C55.6633 181 52.9382 184.464 50.9929 188.368C49.0476 192.272 47.9235 196.534 47.6898 200.89C47.4562 205.245 48.1181 209.603 49.6347 213.693C51.1512 217.783 53.4901 221.518 56.5071 224.669C59.524 227.819 63.1548 230.318 67.1752 232.01C71.1956 233.702 75.5203 234.552 79.8821 234.507C84.2439 234.462 88.5502 233.523 92.535 231.749C96.5198 229.975 100.098 227.402 103.05 224.19C106.978 229.294 112.28 233.171 118.335 235.365C124.39 237.559 130.945 237.979 137.231 236.576C143.516 235.173 149.271 232.005 153.818 227.444C158.365 222.884 161.516 217.12 162.9 210.83C168.899 210.331 174.491 207.596 178.568 203.167C182.644 198.738 184.908 192.94 184.91 186.92Z" fill="#EBEBEB"/>
<path d="M346.8 74.4199C346.803 70.3833 348.308 66.4922 351.021 63.5035C353.735 60.5148 357.463 58.6422 361.48 58.2499C363.474 53.7314 366.628 49.8207 370.621 46.9146C374.615 44.0084 379.306 42.2103 384.218 41.7026C389.131 41.1948 394.091 41.9956 398.594 44.0236C403.097 46.0516 406.984 49.2347 409.86 53.2499C412.252 51.5198 415.121 50.5713 418.073 50.5343C421.024 50.4972 423.916 51.3734 426.351 53.0429C428.785 54.7125 430.645 57.0937 431.674 59.8607C432.703 62.6276 432.852 65.6451 432.1 68.4999C434.37 70.401 436.225 72.7482 437.551 75.3958C438.876 78.0434 439.644 80.9351 439.806 83.8916C439.968 86.848 439.521 89.8063 438.493 92.5829C437.465 95.3595 435.877 97.8954 433.828 100.033C431.78 102.171 429.314 103.865 426.584 105.011C423.853 106.156 420.917 106.729 417.956 106.693C414.995 106.657 412.074 106.014 409.372 104.802C406.67 103.59 404.246 101.837 402.25 99.6499C399.594 103.111 396.004 105.742 391.904 107.234C387.804 108.726 383.363 109.016 379.103 108.071C374.843 107.126 370.942 104.984 367.858 101.898C364.773 98.8122 362.633 94.9099 361.69 90.6499C357.624 90.3084 353.835 88.4494 351.076 85.4425C348.317 82.4355 346.791 78.5006 346.8 74.4199Z" fill="#F0F0F0"/>
<path d="M250 384.56C357.083 384.56 443.89 379.492 443.89 373.24C443.89 366.988 357.083 361.92 250 361.92C142.918 361.92 56.1101 366.988 56.1101 373.24C56.1101 379.492 142.918 384.56 250 384.56Z" fill="#F5F5F5"/>
<path d="M136.11 347.75H81.78C80.5077 347.737 79.292 347.222 78.3969 346.318C77.5019 345.413 76.9999 344.192 77 342.92V320.63C77.0024 319.491 77.4061 318.39 78.14 317.52L139.54 244.52C139.994 243.981 140.561 243.548 141.2 243.251C141.839 242.954 142.535 242.8 143.24 242.8H166.77C168.051 242.8 169.28 243.309 170.185 244.214C171.091 245.12 171.6 246.349 171.6 247.63V315.63C171.6 316.911 172.109 318.139 173.015 319.045C173.92 319.951 175.149 320.46 176.43 320.46H182.64C183.921 320.46 185.15 320.969 186.055 321.874C186.961 322.78 187.47 324.009 187.47 325.29V342.88C187.47 344.161 186.961 345.389 186.055 346.295C185.15 347.201 183.921 347.71 182.64 347.71H176.43C175.149 347.71 173.92 348.219 173.015 349.124C172.109 350.03 171.6 351.259 171.6 352.54V366.54C171.6 367.821 171.091 369.049 170.185 369.955C169.28 370.861 168.051 371.37 166.77 371.37H145.77C144.489 371.37 143.26 370.861 142.355 369.955C141.449 369.049 140.94 367.821 140.94 366.54V352.54C140.929 351.266 140.416 350.047 139.511 349.15C138.607 348.253 137.384 347.75 136.11 347.75ZM140.94 317.12V289.92C140.951 289.217 140.744 288.529 140.346 287.95C139.948 287.371 139.379 286.93 138.719 286.69C138.059 286.449 137.341 286.419 136.663 286.606C135.986 286.792 135.384 287.185 134.94 287.73L111.83 314.93C111.412 315.421 111.144 316.022 111.056 316.661C110.968 317.3 111.065 317.95 111.335 318.536C111.606 319.122 112.038 319.618 112.581 319.966C113.124 320.314 113.755 320.499 114.4 320.5H137.52C137.967 320.505 138.411 320.422 138.826 320.254C139.24 320.087 139.618 319.838 139.936 319.524C140.254 319.21 140.507 318.835 140.679 318.423C140.851 318.01 140.94 317.567 140.94 317.12Z" fill="#468D99"/>
<path d="M198.37 307.66C198.37 283.66 202.703 266.843 211.37 257.21C220.037 247.576 233.213 242.776 250.9 242.81C259.407 242.81 266.407 243.86 271.9 245.96C276.865 247.751 281.411 250.538 285.26 254.15C288.505 257.243 291.254 260.819 293.41 264.75C295.546 268.865 297.155 273.232 298.2 277.75C300.587 287.397 301.775 297.302 301.74 307.24C301.74 330.18 297.857 346.966 290.09 357.6C282.323 368.233 268.96 373.566 250 373.6C239.333 373.6 230.737 371.903 224.21 368.51C217.56 365.062 211.961 359.887 208 353.53C204.947 348.863 202.573 342.496 200.88 334.43C199.127 325.616 198.286 316.646 198.37 307.66ZM233.21 307.74C233.21 323.84 234.633 334.84 237.48 340.74C240.327 346.64 244.45 349.59 249.85 349.59C251.567 349.606 253.27 349.282 254.861 348.637C256.452 347.992 257.9 347.038 259.12 345.83C261.74 343.33 263.667 339.376 264.9 333.97C266.133 328.563 266.75 320.143 266.75 308.71C266.75 291.93 265.327 280.65 262.48 274.87C259.633 269.09 255.367 266.2 249.68 266.2C243.867 266.2 239.67 269.146 237.09 275.04C234.51 280.933 233.217 291.833 233.21 307.74Z" fill="#468D99"/>
<path d="M371.69 347.75H317.37C316.089 347.75 314.861 347.241 313.955 346.335C313.049 345.429 312.54 344.201 312.54 342.92V320.63C312.54 319.493 312.94 318.392 313.67 317.52L375.08 244.52C375.532 243.981 376.097 243.548 376.735 243.251C377.372 242.954 378.067 242.8 378.77 242.8H402.31C403.591 242.8 404.82 243.309 405.725 244.214C406.631 245.12 407.14 246.349 407.14 247.63V315.63C407.135 316.27 407.257 316.905 407.499 317.497C407.741 318.09 408.099 318.629 408.551 319.082C409.003 319.535 409.541 319.894 410.133 320.137C410.725 320.381 411.36 320.504 412 320.5H418.2C419.481 320.5 420.71 321.009 421.615 321.914C422.521 322.82 423.03 324.049 423.03 325.33V342.92C423.03 344.201 422.521 345.429 421.615 346.335C420.71 347.241 419.481 347.75 418.2 347.75H412C410.719 347.75 409.491 348.259 408.585 349.164C407.679 350.07 407.17 351.299 407.17 352.58V366.58C407.17 367.861 406.661 369.089 405.755 369.995C404.85 370.901 403.621 371.41 402.34 371.41H381.34C380.059 371.41 378.831 370.901 377.925 369.995C377.019 369.089 376.51 367.861 376.51 366.58V352.58C376.51 351.301 376.003 350.074 375.099 349.168C374.195 348.263 372.969 347.752 371.69 347.75ZM376.52 317.12V289.92C376.519 289.229 376.306 288.555 375.911 287.989C375.515 287.423 374.956 286.992 374.308 286.753C373.659 286.515 372.954 286.48 372.286 286.655C371.617 286.83 371.019 287.205 370.57 287.73L347.45 314.93C347.033 315.42 346.765 316.019 346.677 316.656C346.588 317.293 346.683 317.942 346.951 318.527C347.219 319.112 347.648 319.608 348.188 319.958C348.728 320.307 349.357 320.495 350 320.5H373.11C373.556 320.504 373.999 320.419 374.413 320.251C374.826 320.083 375.202 319.835 375.519 319.521C375.837 319.206 376.088 318.832 376.26 318.42C376.432 318.008 376.52 317.566 376.52 317.12Z" fill="#468D99"/>
<path d="M157.82 255.88C156.89 257.88 155.91 259.68 154.96 261.54L152.16 267.09L149.36 272.66C148.42 274.53 147.45 276.4 146.3 278.24C146.472 276.097 146.885 273.98 147.53 271.93C148.143 269.865 148.936 267.857 149.9 265.93C150.86 264.001 151.998 262.166 153.3 260.45C154.587 258.724 156.108 257.186 157.82 255.88Z" fill="white"/>
<path d="M161.38 260.58C160.51 262.31 159.61 263.94 158.73 265.58L156.14 270.48L153.55 275.4C152.68 277.05 151.79 278.71 150.73 280.33C150.917 278.421 151.316 276.54 151.92 274.72C152.504 272.896 153.244 271.127 154.13 269.43C155.014 267.725 156.062 266.11 157.26 264.61C158.436 263.078 159.823 261.722 161.38 260.58Z" fill="white"/>
<path d="M151.66 253.91C150.89 255.71 150.07 257.4 149.27 259.1L146.92 264.19L144.57 269.29C143.77 271 142.96 272.72 141.98 274.41C142.072 272.474 142.384 270.555 142.91 268.69C143.411 266.816 144.08 264.992 144.91 263.24C145.716 261.487 146.683 259.813 147.8 258.24C148.883 256.627 150.182 255.17 151.66 253.91Z" fill="white"/>
<path d="M381 329.91C382.711 331.228 384.232 332.775 385.52 334.51C386.849 336.227 388.014 338.065 389 340C389.958 341.928 390.747 343.936 391.36 346C392.004 348.051 392.42 350.167 392.6 352.31C391.44 350.47 390.48 348.6 389.53 346.73L386.73 341.16L383.93 335.61C382.94 333.71 382 331.87 381 329.91Z" fill="white"/>
<path d="M377.48 334.61C379.027 335.748 380.41 337.094 381.59 338.61C382.789 340.113 383.837 341.731 384.72 343.44C385.614 345.133 386.354 346.904 386.93 348.73C387.542 350.548 387.944 352.43 388.13 354.34C387.07 352.72 386.18 351.06 385.3 349.41L382.71 344.49L380.12 339.59C379.24 338 378.34 336.34 377.48 334.61Z" fill="white"/>
<path d="M387.19 327.94C388.687 329.188 390.006 330.634 391.11 332.24C392.227 333.811 393.191 335.485 393.99 337.24C394.815 338.995 395.484 340.818 395.99 342.69C396.511 344.556 396.823 346.475 396.92 348.41C395.92 346.71 395.12 345 394.33 343.29L391.98 338.18L389.63 333.1C388.79 331.43 388 329.74 387.19 327.94Z" fill="white"/>
<path d="M299.12 358.62H312.4V362H304.09V364.55H311.8V367.82H304.09V371H312.64V374.63H299.12V358.62Z" fill="#66E8FA"/>
<path d="M312.64 376.59H299.12C298.608 376.59 298.117 376.387 297.755 376.025C297.393 375.663 297.19 375.172 297.19 374.66V358.66C297.189 358.406 297.238 358.155 297.334 357.92C297.431 357.685 297.573 357.472 297.752 357.292C297.932 357.113 298.145 356.971 298.38 356.874C298.615 356.778 298.866 356.729 299.12 356.73H312.4C312.654 356.729 312.905 356.778 313.14 356.874C313.375 356.971 313.588 357.113 313.768 357.292C313.947 357.472 314.089 357.685 314.186 357.92C314.282 358.155 314.331 358.406 314.33 358.66V362C313.928 362.272 313.642 362.685 313.531 363.158C313.42 363.63 313.491 364.127 313.73 364.55V367.82C313.507 368.06 313.349 368.352 313.27 368.67C313.191 368.987 313.193 369.32 313.277 369.636C313.361 369.953 313.523 370.243 313.749 370.479C313.975 370.716 314.258 370.892 314.57 370.99V374.62C314.575 374.877 314.529 375.132 314.435 375.371C314.34 375.61 314.199 375.827 314.019 376.011C313.839 376.194 313.625 376.34 313.388 376.439C313.151 376.539 312.897 376.59 312.64 376.59ZM301.05 372.73H303.18C302.874 372.564 302.62 372.319 302.444 372.019C302.267 371.72 302.176 371.378 302.18 371.03V367.86C302.455 367.685 302.681 367.443 302.837 367.157C302.994 366.871 303.076 366.551 303.076 366.225C303.076 365.899 302.994 365.579 302.837 365.293C302.681 365.007 302.455 364.765 302.18 364.59V362C302.18 361.714 302.244 361.433 302.367 361.175C302.49 360.917 302.668 360.69 302.89 360.51H301.07L301.05 372.73Z" fill="#66E8FA"/>
<path d="M315.38 374.66V358.66H323.64C324.823 358.618 326.005 358.749 327.15 359.05C327.964 359.293 328.67 359.809 329.15 360.51C329.505 361.019 329.752 361.596 329.875 362.205C329.998 362.813 329.994 363.441 329.863 364.048C329.733 364.655 329.479 365.228 329.117 365.733C328.755 366.237 328.293 366.662 327.76 366.98C327.218 367.285 326.63 367.501 326.02 367.62C326.476 367.754 326.91 367.953 327.31 368.21C327.606 368.457 327.871 368.739 328.1 369.05C328.362 369.363 328.596 369.697 328.8 370.05L331.2 374.7H325.6L322.95 369.8C322.737 369.33 322.431 368.908 322.05 368.56C321.695 368.313 321.272 368.183 320.84 368.19H320.4V374.7L315.38 374.66ZM320.38 365.12H322.47C322.912 365.082 323.35 365.008 323.78 364.9C324.105 364.838 324.394 364.656 324.59 364.39C324.819 364.074 324.926 363.686 324.893 363.297C324.86 362.908 324.689 362.543 324.41 362.27C323.854 361.937 323.205 361.793 322.56 361.86H320.38V365.12Z" fill="#66E8FA"/>
<path d="M331.16 376.59H325.56C325.213 376.591 324.872 376.498 324.573 376.322C324.274 376.147 324.028 375.894 323.86 375.59L322.29 372.67V374.67C322.287 375.181 322.083 375.671 321.722 376.032C321.36 376.393 320.871 376.598 320.36 376.6H315.36C315.106 376.6 314.856 376.55 314.621 376.453C314.387 376.356 314.174 376.214 313.995 376.035C313.816 375.856 313.674 375.643 313.577 375.409C313.48 375.175 313.43 374.924 313.43 374.67V358.67C313.429 358.416 313.478 358.165 313.574 357.93C313.671 357.695 313.813 357.482 313.992 357.303C314.172 357.123 314.385 356.981 314.62 356.885C314.855 356.788 315.106 356.739 315.36 356.74H323.62C325.007 356.693 326.393 356.858 327.73 357.23C328.927 357.612 329.962 358.383 330.67 359.42C331.412 360.509 331.793 361.803 331.76 363.12C331.782 364.268 331.495 365.401 330.93 366.4C330.587 366.989 330.147 367.516 329.63 367.96C329.947 368.345 330.225 368.761 330.46 369.2L332.85 373.82C333.003 374.114 333.077 374.443 333.066 374.774C333.055 375.105 332.96 375.428 332.788 375.711C332.616 375.994 332.374 376.229 332.086 376.391C331.797 376.554 331.471 376.64 331.14 376.64L331.16 376.59ZM326.71 372.73H328L327 370.9C326.868 370.655 326.706 370.427 326.52 370.22C326.38 370.041 326.23 369.871 326.07 369.71C325.835 369.584 325.587 369.484 325.33 369.41C325.083 369.325 324.856 369.193 324.66 369.02L326.71 372.73ZM317.31 372.73H318.43V368.15C318.43 367.857 318.496 367.568 318.625 367.305C318.753 367.042 318.939 366.811 319.17 366.63C318.94 366.452 318.753 366.223 318.625 365.961C318.497 365.699 318.43 365.412 318.43 365.12V361.86C318.43 361.375 318.612 360.908 318.94 360.55H317.31V372.73ZM323.17 366.98C323.533 367.26 323.847 367.598 324.1 367.98C324.063 367.813 324.046 367.642 324.05 367.47C324.068 367.225 324.129 366.985 324.23 366.76H324.14C323.76 366.88 323.44 366.94 323.17 367V366.98ZM325.4 360.63L325.63 360.8C326.015 361.125 326.322 361.534 326.526 361.995C326.73 362.455 326.827 362.957 326.81 363.46C326.815 364.215 326.569 364.951 326.11 365.55C326.324 365.492 326.53 365.405 326.72 365.29C327.093 365.074 327.405 364.768 327.63 364.4C327.846 363.991 327.949 363.532 327.93 363.07C327.957 362.544 327.817 362.022 327.53 361.58C327.294 361.224 326.94 360.962 326.53 360.84C326.16 360.737 325.782 360.667 325.4 360.63Z" fill="#66E8FA"/>
<path d="M332.81 374.66V358.66H341.07C342.256 358.617 343.442 358.749 344.59 359.05C345.405 359.292 346.111 359.808 346.59 360.51C346.946 361.019 347.192 361.596 347.315 362.205C347.438 362.813 347.434 363.441 347.304 364.048C347.173 364.655 346.919 365.229 346.557 365.733C346.195 366.238 345.733 366.662 345.2 366.98C344.658 367.285 344.07 367.501 343.46 367.62C343.916 367.755 344.35 367.953 344.75 368.21C345.05 368.456 345.319 368.738 345.55 369.05C345.806 369.365 346.037 369.699 346.24 370.05L348.64 374.7H343L340.35 369.8C340.141 369.328 339.834 368.905 339.45 368.56C339.097 368.309 338.673 368.179 338.24 368.19H337.8V374.7L332.81 374.66ZM337.81 365.12H339.9C340.342 365.083 340.78 365.009 341.21 364.9C341.535 364.838 341.824 364.656 342.02 364.39C342.228 364.126 342.338 363.797 342.33 363.46C342.343 363.238 342.306 363.015 342.221 362.809C342.136 362.603 342.006 362.419 341.84 362.27C341.284 361.937 340.635 361.793 339.99 361.86H337.81V365.12Z" fill="#66E8FA"/>
<path d="M348.59 376.59H343C342.653 376.591 342.312 376.498 342.013 376.322C341.714 376.146 341.468 375.893 341.3 375.59L339.73 372.67V374.67C339.73 375.182 339.527 375.673 339.165 376.035C338.803 376.397 338.312 376.6 337.8 376.6H332.8C332.289 376.597 331.799 376.393 331.438 376.032C331.077 375.67 330.873 375.181 330.87 374.67V358.67C330.87 358.158 331.073 357.667 331.435 357.305C331.797 356.943 332.288 356.74 332.8 356.74H341.06C342.447 356.692 343.833 356.857 345.17 357.23C346.371 357.608 347.41 358.38 348.12 359.42C348.791 360.455 349.168 361.653 349.212 362.885C349.256 364.118 348.965 365.34 348.37 366.42C348.027 367.006 347.591 367.533 347.08 367.98C347.393 368.368 347.671 368.783 347.91 369.22L350.29 373.84C350.443 374.134 350.517 374.462 350.506 374.794C350.495 375.125 350.399 375.447 350.228 375.731C350.056 376.014 349.814 376.248 349.525 376.411C349.237 376.574 348.911 376.66 348.58 376.66L348.59 376.59ZM344.14 372.73H345.43L344.48 370.9C344.336 370.66 344.172 370.433 343.99 370.22C343.858 370.035 343.707 369.864 343.54 369.71C343.305 369.584 343.056 369.484 342.8 369.41C342.557 369.324 342.333 369.191 342.14 369.02L344.14 372.73ZM334.74 372.73H335.86V368.15C335.86 367.857 335.926 367.568 336.055 367.305C336.183 367.041 336.369 366.811 336.6 366.63C336.369 366.451 336.183 366.223 336.055 365.961C335.926 365.699 335.86 365.411 335.86 365.12V361.86C335.86 361.373 336.046 360.904 336.38 360.55H334.74V372.73ZM340.6 367C340.963 367.28 341.277 367.618 341.53 368C341.505 367.831 341.505 367.659 341.53 367.49C341.54 367.245 341.598 367.003 341.7 366.78H341.62C341.19 366.88 340.87 366.94 340.6 367ZM342.84 360.65L343.06 360.82C343.445 361.145 343.751 361.554 343.956 362.014C344.16 362.475 344.257 362.976 344.24 363.48C344.245 364.235 343.999 364.97 343.54 365.57C343.757 365.511 343.966 365.424 344.16 365.31C344.53 365.093 344.839 364.787 345.06 364.42C345.275 364.011 345.379 363.552 345.36 363.09C345.387 362.564 345.247 362.042 344.96 361.6C344.724 361.244 344.37 360.982 343.96 360.86C343.594 360.751 343.219 360.674 342.84 360.63V360.65Z" fill="#66E8FA"/>
<path d="M349.17 366.65C349.06 365.533 349.199 364.406 349.576 363.349C349.953 362.292 350.56 361.332 351.353 360.538C352.145 359.743 353.104 359.134 354.16 358.754C355.216 358.374 356.343 358.233 357.46 358.34C358.58 358.269 359.703 358.422 360.762 358.791C361.822 359.161 362.797 359.738 363.63 360.49C364.375 361.293 364.951 362.239 365.322 363.27C365.693 364.301 365.852 365.396 365.79 366.49C365.852 368.08 365.529 369.661 364.85 371.1C364.232 372.283 363.279 373.257 362.11 373.9C360.734 374.612 359.198 374.956 357.65 374.9C356.108 374.951 354.574 374.657 353.16 374.04C351.945 373.439 350.941 372.483 350.28 371.3C349.5 369.877 349.117 368.271 349.17 366.65ZM354.17 366.65C354.061 367.882 354.378 369.114 355.07 370.14C355.389 370.472 355.772 370.736 356.195 370.916C356.619 371.096 357.075 371.189 357.535 371.189C357.995 371.189 358.451 371.096 358.874 370.916C359.298 370.736 359.681 370.472 360 370.14C360.698 369.028 361.007 367.716 360.88 366.41C360.974 365.233 360.648 364.06 359.96 363.1C359.646 362.761 359.26 362.496 358.832 362.323C358.403 362.15 357.941 362.074 357.48 362.1C357.026 362.083 356.574 362.17 356.158 362.354C355.742 362.537 355.373 362.813 355.08 363.16C354.365 364.184 354.029 365.425 354.13 366.67L354.17 366.65Z" fill="#66E8FA"/>
<path d="M357.65 376.86C355.816 376.912 353.994 376.55 352.32 375.8C350.762 375.038 349.472 373.821 348.62 372.31C347.654 370.584 347.177 368.627 347.24 366.65C347.312 364.626 347.961 362.665 349.11 360.996C350.258 359.328 351.859 358.022 353.724 357.233C355.59 356.443 357.641 356.202 359.639 356.538C361.636 356.874 363.496 357.773 365 359.13C365.933 360.112 366.658 361.273 367.129 362.544C367.6 363.814 367.808 365.167 367.74 366.52C367.802 368.424 367.4 370.315 366.57 372.03C365.783 373.543 364.565 374.789 363.07 375.61C361.401 376.488 359.534 376.918 357.65 376.86ZM359 360.37C359.924 360.623 360.753 361.145 361.38 361.87C362.394 363.172 362.889 364.804 362.77 366.45C362.77 368.74 362.34 370.36 361.45 371.45C360.879 372.127 360.131 372.633 359.29 372.91C359.952 372.813 360.592 372.6 361.18 372.28C362.03 371.827 362.727 371.131 363.18 370.28C363.716 369.12 363.966 367.847 363.91 366.57C363.972 365.726 363.863 364.877 363.588 364.076C363.313 363.275 362.878 362.538 362.31 361.91C361.408 361.043 360.244 360.502 359 360.37ZM355.91 360.37C354.712 360.515 353.595 361.049 352.73 361.89C352.153 362.531 351.712 363.283 351.433 364.099C351.155 364.916 351.045 365.78 351.11 366.64C351.053 367.926 351.344 369.204 351.95 370.34C352.415 371.203 353.134 371.901 354.01 372.34C354.521 372.581 355.063 372.753 355.62 372.85C354.824 372.56 354.117 372.067 353.57 371.42C352.678 369.996 352.205 368.35 352.205 366.67C352.205 364.99 352.678 363.344 353.57 361.92C354.178 361.189 354.989 360.653 355.9 360.38L355.91 360.37ZM357.45 364.02C357.274 364.003 357.097 364.028 356.933 364.094C356.769 364.16 356.624 364.265 356.51 364.4C356.127 365.088 355.973 365.879 356.07 366.66C355.973 367.435 356.127 368.22 356.51 368.9C356.633 369.04 356.788 369.148 356.962 369.215C357.137 369.281 357.325 369.303 357.51 369.28C358.21 369.28 358.41 369.05 358.51 368.93C358.61 368.81 358.93 368.37 358.93 366.44C359.009 365.743 358.854 365.039 358.49 364.44C358.364 364.287 358.202 364.167 358.019 364.09C357.836 364.013 357.637 363.983 357.44 364L357.45 364.02Z" fill="#66E8FA"/>
<path d="M368.53 374.66V358.66H376.79C377.973 358.618 379.155 358.749 380.3 359.05C381.114 359.293 381.82 359.809 382.3 360.51C382.656 361.019 382.902 361.596 383.025 362.205C383.148 362.813 383.144 363.441 383.014 364.048C382.883 364.655 382.629 365.228 382.267 365.733C381.905 366.237 381.443 366.662 380.91 366.98C380.368 367.285 379.78 367.501 379.17 367.62C379.626 367.754 380.06 367.953 380.46 368.21C380.756 368.457 381.022 368.739 381.25 369.05C381.512 369.363 381.746 369.697 381.95 370.05L384.35 374.7H378.75L376.1 369.8C375.887 369.33 375.581 368.908 375.2 368.56C374.846 368.313 374.422 368.183 373.99 368.19H373.55V374.7L368.53 374.66ZM373.53 365.12H375.62C376.062 365.082 376.5 365.008 376.93 364.9C377.255 364.838 377.544 364.656 377.74 364.39C377.969 364.074 378.077 363.686 378.044 363.297C378.011 362.908 377.839 362.543 377.56 362.27C377.004 361.937 376.355 361.793 375.71 361.86H373.53V365.12Z" fill="#66E8FA"/>
<path d="M384.31 376.59H378.71C378.363 376.591 378.022 376.498 377.723 376.322C377.424 376.147 377.178 375.894 377.01 375.59L375.44 372.67V374.67C375.437 375.181 375.233 375.671 374.872 376.032C374.51 376.393 374.021 376.598 373.51 376.6H368.51C367.998 376.6 367.507 376.397 367.145 376.035C366.783 375.673 366.58 375.182 366.58 374.67V358.67C366.579 358.416 366.628 358.165 366.724 357.93C366.821 357.695 366.963 357.482 367.142 357.303C367.322 357.123 367.535 356.981 367.77 356.885C368.004 356.788 368.256 356.739 368.51 356.74H376.77C378.157 356.693 379.543 356.858 380.88 357.23C382.077 357.612 383.112 358.383 383.82 359.42C384.565 360.508 384.95 361.802 384.92 363.12C384.939 364.269 384.649 365.402 384.08 366.4C383.737 366.989 383.297 367.516 382.78 367.96C383.097 368.345 383.375 368.761 383.61 369.2L386 373.82C386.153 374.114 386.227 374.443 386.216 374.774C386.205 375.105 386.109 375.428 385.938 375.711C385.766 375.994 385.524 376.229 385.235 376.391C384.947 376.554 384.621 376.64 384.29 376.64L384.31 376.59ZM379.86 372.73H381.14L380.2 370.9C380.056 370.66 379.892 370.433 379.71 370.22C379.57 370.041 379.42 369.871 379.26 369.71C379.024 369.584 378.776 369.484 378.52 369.41C378.273 369.325 378.046 369.193 377.85 369.02L379.86 372.73ZM370.46 372.73H371.58V368.15C371.58 367.857 371.646 367.568 371.775 367.305C371.903 367.042 372.089 366.811 372.32 366.63C372.089 366.452 371.903 366.223 371.775 365.961C371.646 365.699 371.58 365.412 371.58 365.12V361.86C371.576 361.374 371.759 360.906 372.09 360.55H370.46V372.73ZM376.32 366.98C376.683 367.26 376.997 367.598 377.25 367.98C377.225 367.811 377.225 367.639 377.25 367.47C377.26 367.225 377.318 366.984 377.42 366.76H377.33C376.91 366.88 376.59 366.94 376.32 367V366.98ZM378.56 360.63L378.78 360.8C379.165 361.125 379.471 361.534 379.676 361.995C379.88 362.455 379.977 362.957 379.96 363.46C379.965 364.215 379.719 364.951 379.26 365.55C379.891 365.373 380.431 364.962 380.77 364.4C380.987 363.959 381.093 363.471 381.077 362.979C381.061 362.487 380.925 362.007 380.68 361.58C380.444 361.224 380.09 360.962 379.68 360.84C379.313 360.738 378.939 360.667 378.56 360.63Z" fill="#66E8FA"/>
<path d="M299.12 358.62H312.4V362H304.09V364.55H311.8V367.82H304.09V371H312.64V374.63H299.12V358.62Z" fill="white"/>
<path d="M315.38 374.66V358.66H323.64C324.823 358.618 326.005 358.749 327.15 359.05C327.964 359.293 328.67 359.809 329.15 360.51C329.505 361.019 329.752 361.596 329.875 362.205C329.998 362.813 329.994 363.441 329.863 364.048C329.733 364.655 329.479 365.228 329.117 365.733C328.755 366.237 328.293 366.662 327.76 366.98C327.218 367.285 326.63 367.501 326.02 367.62C326.476 367.754 326.91 367.953 327.31 368.21C327.606 368.457 327.871 368.739 328.1 369.05C328.362 369.363 328.596 369.697 328.8 370.05L331.2 374.7H325.6L322.95 369.8C322.737 369.33 322.431 368.908 322.05 368.56C321.695 368.313 321.272 368.183 320.84 368.19H320.4V374.7L315.38 374.66ZM320.38 365.12H322.47C322.912 365.082 323.35 365.008 323.78 364.9C324.105 364.838 324.394 364.656 324.59 364.39C324.819 364.074 324.926 363.686 324.893 363.297C324.86 362.908 324.689 362.543 324.41 362.27C323.854 361.937 323.205 361.793 322.56 361.86H320.38V365.12Z" fill="white"/>
<path d="M332.81 374.66V358.66H341.07C342.256 358.617 343.442 358.749 344.59 359.05C345.405 359.292 346.111 359.808 346.59 360.51C346.946 361.019 347.192 361.596 347.315 362.205C347.438 362.813 347.434 363.441 347.304 364.048C347.173 364.655 346.919 365.229 346.557 365.733C346.195 366.238 345.733 366.662 345.2 366.98C344.658 367.285 344.07 367.501 343.46 367.62C343.916 367.755 344.35 367.953 344.75 368.21C345.05 368.456 345.319 368.738 345.55 369.05C345.806 369.365 346.037 369.699 346.24 370.05L348.64 374.7H343L340.35 369.8C340.141 369.328 339.834 368.905 339.45 368.56C339.097 368.309 338.673 368.179 338.24 368.19H337.8V374.7L332.81 374.66ZM337.81 365.12H339.9C340.342 365.083 340.78 365.009 341.21 364.9C341.535 364.838 341.824 364.656 342.02 364.39C342.228 364.126 342.338 363.797 342.33 363.46C342.343 363.238 342.306 363.015 342.221 362.809C342.136 362.603 342.006 362.419 341.84 362.27C341.284 361.937 340.635 361.793 339.99 361.86H337.81V365.12Z" fill="white"/>
<path d="M349.17 366.65C349.06 365.533 349.199 364.406 349.576 363.349C349.953 362.292 350.56 361.332 351.353 360.538C352.145 359.743 353.104 359.134 354.16 358.754C355.216 358.374 356.343 358.233 357.46 358.34C358.58 358.269 359.703 358.422 360.762 358.791C361.822 359.161 362.797 359.738 363.63 360.49C364.375 361.293 364.951 362.239 365.322 363.27C365.693 364.301 365.852 365.396 365.79 366.49C365.852 368.08 365.529 369.661 364.85 371.1C364.232 372.283 363.279 373.257 362.11 373.9C360.734 374.612 359.198 374.956 357.65 374.9C356.108 374.951 354.574 374.657 353.16 374.04C351.945 373.439 350.941 372.483 350.28 371.3C349.5 369.877 349.117 368.271 349.17 366.65ZM354.17 366.65C354.061 367.882 354.378 369.114 355.07 370.14C355.389 370.472 355.772 370.736 356.195 370.916C356.619 371.096 357.075 371.189 357.535 371.189C357.995 371.189 358.451 371.096 358.874 370.916C359.298 370.736 359.681 370.472 360 370.14C360.698 369.028 361.007 367.716 360.88 366.41C360.974 365.233 360.648 364.06 359.96 363.1C359.646 362.761 359.26 362.496 358.832 362.323C358.403 362.15 357.941 362.074 357.48 362.1C357.026 362.083 356.574 362.17 356.158 362.354C355.742 362.537 355.373 362.813 355.08 363.16C354.365 364.184 354.029 365.425 354.13 366.67L354.17 366.65Z" fill="white"/>
<path d="M368.53 374.66V358.66H376.79C377.973 358.618 379.155 358.749 380.3 359.05C381.114 359.293 381.82 359.809 382.3 360.51C382.656 361.019 382.902 361.596 383.025 362.205C383.148 362.813 383.144 363.441 383.014 364.048C382.883 364.655 382.629 365.228 382.267 365.733C381.905 366.237 381.443 366.662 380.91 366.98C380.368 367.285 379.78 367.501 379.17 367.62C379.626 367.754 380.06 367.953 380.46 368.21C380.756 368.457 381.022 368.739 381.25 369.05C381.512 369.363 381.746 369.697 381.95 370.05L384.35 374.7H378.75L376.1 369.8C375.887 369.33 375.581 368.908 375.2 368.56C374.846 368.313 374.422 368.183 373.99 368.19H373.55V374.7L368.53 374.66ZM373.53 365.12H375.62C376.062 365.082 376.5 365.008 376.93 364.9C377.255 364.838 377.544 364.656 377.74 364.39C377.969 364.074 378.077 363.686 378.044 363.297C378.011 362.908 377.839 362.543 377.56 362.27C377.004 361.937 376.355 361.793 375.71 361.86H373.53V365.12Z" fill="white"/>
<path d="M426.5 113.28C422.299 111.945 417.908 111.3 413.5 111.37C409.22 111.395 404.982 112.212 401 113.78C399.327 114.437 397.755 115.326 396.33 116.42C396.19 116.54 396.03 116.65 395.92 116.76C395.81 116.87 395.7 116.95 395.52 117.14C395.34 117.33 394.87 117.81 394.52 118.14C393.881 118.865 393.29 119.63 392.75 120.43C390.516 123.716 389.096 127.487 388.61 131.43C388.372 133.298 388.396 135.189 388.68 137.05C388.814 137.925 389.018 138.788 389.29 139.63C389.562 140.474 389.896 141.296 390.29 142.09C391.387 144.145 392.626 146.12 394 148C395.53 150.18 397.3 152.56 399 155.47C400.978 158.693 402.388 162.231 403.17 165.93C403.568 168.012 403.716 170.134 403.61 172.25C403.491 174.326 403.125 176.381 402.52 178.37C401.353 182.182 399.413 185.712 396.82 188.74C395.541 190.228 394.118 191.585 392.57 192.79C391.076 193.966 389.476 195 387.79 195.88C384.537 197.558 381.042 198.716 377.43 199.31C374.051 199.87 370.617 200.031 367.2 199.79C363.942 199.559 360.712 199.03 357.55 198.21C354.58 197.44 351.658 196.495 348.8 195.38C343.24 193.25 338.2 190.81 333.39 188.74C328.935 186.695 324.275 185.126 319.49 184.06C317.321 183.62 315.113 183.399 312.9 183.4C310.655 183.407 308.416 183.622 306.21 184.04C301.56 184.989 297.064 186.578 292.85 188.76C284.11 193.17 276.03 199.89 267.67 206.93C266.158 208.209 264.201 208.837 262.227 208.678C260.253 208.519 258.422 207.586 257.133 206.082C255.845 204.579 255.203 202.626 255.349 200.651C255.494 198.676 256.415 196.839 257.91 195.54C266.16 188.35 274.85 180.64 285.63 174.88C291.111 171.908 296.981 169.72 303.07 168.38C306.238 167.711 309.463 167.339 312.7 167.27C315.974 167.197 319.248 167.455 322.47 168.04C328.428 169.206 334.245 171.006 339.82 173.41C345.12 175.58 350.01 177.81 354.73 179.51C356.994 180.344 359.305 181.045 361.65 181.61C363.809 182.129 366.012 182.444 368.23 182.55C372.129 182.869 376.041 182.111 379.54 180.36C380.275 179.951 380.971 179.476 381.62 178.94C382.224 178.444 382.78 177.892 383.28 177.29C384.239 176.113 384.947 174.751 385.36 173.29C385.546 172.639 385.647 171.967 385.66 171.29C385.676 170.665 385.616 170.04 385.48 169.43C385.046 167.777 384.343 166.206 383.4 164.78C382.29 162.98 380.77 160.96 379.1 158.69C377.173 156.153 375.431 153.479 373.89 150.69C373.018 149.055 372.269 147.357 371.65 145.61C371.045 143.856 370.577 142.057 370.25 140.23C369.617 136.676 369.479 133.052 369.84 129.46C370.538 122.459 372.904 115.728 376.74 109.83C377.705 108.338 378.764 106.908 379.91 105.55C380.5 104.87 381.1 104.2 381.73 103.55C382.02 103.24 382.44 102.85 382.81 102.5C383.18 102.15 383.57 101.83 383.95 101.5C386.807 99.1617 389.986 97.2486 393.39 95.8202C399.588 93.2261 406.214 91.8086 412.93 91.6402C419.491 91.4313 426.042 92.2857 432.33 94.1702C434.713 95.0501 436.672 96.8041 437.809 99.0759C438.946 101.348 439.176 103.967 438.451 106.402C437.727 108.837 436.103 110.905 433.91 112.186C431.716 113.467 429.117 113.866 426.64 113.3L426.5 113.28Z" fill="#263238"/>
<path d="M426.26 114.09C420.886 112.268 415.192 111.587 409.54 112.09C406.814 112.338 404.127 112.915 401.54 113.81C399.399 114.541 397.397 115.629 395.62 117.03L395.05 117.52C393.166 119.25 390.671 120.162 388.115 120.053C385.559 119.944 383.151 118.824 381.42 116.94C379.689 115.056 378.778 112.561 378.887 110.005C378.996 107.449 380.116 105.04 382 103.31C385.503 99.8836 389.635 97.167 394.17 95.3099C398.252 93.6085 402.527 92.4162 406.9 91.7599C415.48 90.4996 424.23 91.0584 432.58 93.3999C435.352 94.1585 437.708 95.9869 439.132 98.483C440.555 100.979 440.929 103.938 440.17 106.71C439.411 109.481 437.583 111.838 435.087 113.262C432.591 114.685 429.632 115.058 426.86 114.3L426.33 114.14L426.26 114.09Z" fill="#66E8FA"/>
<path d="M239.8 237.85L243.51 243.63C239.78 245.58 235.88 245.29 231.9 245.29C230.21 237.47 239.8 237.85 239.8 237.85Z" fill="#263238"/>
<path d="M217.19 207C221.92 220.61 239.46 238.66 239.46 238.66C239.46 238.66 232.06 240.14 234.07 245.25H244.4L266.64 241.06C267.382 240.887 268.03 240.439 268.454 239.806C268.877 239.172 269.044 238.402 268.92 237.65L260.71 210.11L217.19 207Z" fill="#66E8FA"/>
<path d="M303.46 214.79L305.46 222.9C309.38 221.35 312.69 220.29 314.39 216.65C312.42 211.59 303.46 214.79 303.46 214.79Z" fill="#263238"/>
<path d="M285.9 173.18C292.9 185.72 307.66 216.3 307.66 216.3C307.66 216.3 315.24 216.62 314.23 221.95L284.84 229.21C284.185 229.437 283.473 229.442 282.815 229.223C282.156 229.004 281.589 228.574 281.2 228L260.2 210.22C271.66 203.22 285 184.85 285.9 173.18Z" fill="#66E8FA"/>
<path opacity="0.1" d="M272.28 199.49C268.838 203.657 264.793 207.287 260.28 210.26L266.28 215.15C272.75 209.36 274.59 203.16 272.28 199.49Z" fill="black"/>
<path d="M264.8 136.77C272.96 138.16 306.85 133.56 309.37 133.44C309.64 131.57 310.5 126.94 312.53 127.76C314.56 128.58 315.6 132.08 315.19 133.76C320 132.9 326.32 142.76 319.13 150.76C308.6 162.58 270.13 164.39 270.13 164.39C270.13 164.39 249.26 138.73 264.8 136.77Z" fill="#66E8FA"/>
<path opacity="0.1" d="M267.34 152.5C265.714 152.32 264.068 152.501 262.52 153.03C264.753 157.014 267.301 160.813 270.14 164.39C270.14 164.39 277.9 164.02 287.4 162.56C282.17 158.82 273.88 153.55 267.34 152.5Z" fill="black"/>
<path d="M315.19 133.73C320.05 131.73 323.45 130.73 324.57 132.4C325.69 134.07 324.19 137.58 319.49 138.49C315.18 135.79 315.19 133.73 315.19 133.73Z" fill="#66E8FA"/>
<path d="M318.35 137.89C323.47 137.72 326.9 138.02 327.35 139.89C327.8 141.76 325.22 144.48 320.64 143.69C317.63 139.77 318.35 137.89 318.35 137.89Z" fill="#66E8FA"/>
<path d="M321.58 143.12C324.87 144.65 326.89 145.99 326.29 147.6C325.69 149.21 322.84 150.45 320.29 148.35C320.26 144.33 321.58 143.12 321.58 143.12Z" fill="#66E8FA"/>
<path d="M202.15 162.34C198.39 169.71 174.43 194.11 172.82 196.07C171.16 195.16 166.94 193.07 166.39 195.2C165.84 197.33 168.01 200.25 169.57 200.9C166.01 204.24 170.1 215.19 180.87 214.25C196.64 212.87 221.09 183.14 221.09 183.14C221.09 183.14 213 151.05 202.15 162.34Z" fill="#66E8FA"/>
<path opacity="0.1" d="M213.23 173.78C214.066 172.373 215.195 171.162 216.54 170.23C218.403 174.403 219.924 178.721 221.09 183.14C221.09 183.14 216.16 189.14 209.3 195.87C209.43 189.45 210.16 179.65 213.23 173.78Z" fill="black"/>
<path d="M169.57 200.9C165.04 203.58 162.23 205.73 162.9 207.62C163.57 209.51 167.28 210.42 170.82 207.2C171.23 202.13 169.57 200.9 169.57 200.9Z" fill="#66E8FA"/>
<path d="M171 205.93C167.8 209.93 166 212.85 167.26 214.34C168.52 215.83 172.2 215.34 174.31 211.22C173 206.47 171 205.93 171 205.93Z" fill="#66E8FA"/>
<path d="M173.28 211.64C172.53 215.19 172.4 217.64 174.06 218.1C175.72 218.56 178.4 217.04 178.22 213.76C175 211.31 173.28 211.64 173.28 211.64Z" fill="#66E8FA"/>
<path opacity="0.1" d="M260.73 210.21V210.15L247.43 209.15C247.16 214.88 253.83 218.51 262.79 216.97L260.73 210.21Z" fill="black"/>
<path d="M263.19 141.37L235.75 153.12L208.32 164.87C208.32 164.87 211.24 200.33 220.24 212.48C229.24 224.63 246.62 220.89 261.97 214.31C277.32 207.73 291.97 197.74 289.43 182.84C286.89 167.94 263.19 141.37 263.19 141.37Z" fill="#66E8FA"/>
<path opacity="0.2" d="M251.25 148L236.31 154.4L221.38 160.8C221.6 157.89 215.5 184.96 225.9 199.39C232.68 208.79 245.34 206.21 256.47 201.44C267.6 196.67 278.19 189.29 276.06 177.9C272.8 160.43 249 146.18 251.25 148Z" fill="white"/>
<path opacity="0.2" d="M246.5 152.22L236.5 156.48L226.55 160.75C226.62 158.65 223.17 178.12 230.55 188.84C235.38 195.84 243.89 194.28 251.31 191.1C258.73 187.92 265.73 182.83 264 174.51C261.41 161.76 244.92 150.83 246.5 152.22Z" fill="white"/>
<path opacity="0.2" d="M176.528 210.345C178.42 209.587 179.158 206.989 178.177 204.544C177.196 202.099 174.868 200.732 172.976 201.491C171.085 202.25 170.347 204.847 171.328 207.292C172.308 209.737 174.637 211.104 176.528 210.345Z" fill="white"/>
<path opacity="0.2" d="M319.48 142.84C319.67 145.47 318.18 147.72 316.15 147.84C314.12 147.96 312.31 145.98 312.15 143.36C311.99 140.74 313.45 138.48 315.48 138.36C317.51 138.24 319.29 140.22 319.48 142.84Z" fill="white"/>
<path d="M175.69 77.0001C135.82 48.7802 74.56 66.0901 69.75 76.7501C64.64 88.1002 120.12 118.67 133.75 148.21C153.65 111.24 175.69 77.0001 175.69 77.0001Z" fill="#263238"/>
<path opacity="0.5" d="M161 88.57C129.44 66.57 84.94 76.47 82.06 83.97C78.99 91.97 122.34 116.32 134.45 138.22C146.8 112.37 161 88.57 161 88.57Z" fill="#66E8FA"/>
<path d="M164.93 83.23C155.99 83.83 148.42 86.83 141.75 93.87C144.756 92.9064 147.959 92.7361 151.05 93.3757C154.141 94.0152 157.014 95.4428 159.39 97.52L164.93 83.23Z" fill="#263238"/>
<path d="M223.4 56.5501C242.56 -3.90989 310.8 -4.14989 324.4 5.00011C334.73 12.0001 290.74 39.9301 302.53 80.2501C262.85 66.6701 223.4 56.5501 223.4 56.5501Z" fill="#263238"/>
<path opacity="0.5" d="M241.43 55.2399C257.43 20.2399 294.75 6.23988 312.18 9.36988C328.66 12.3099 279.42 50.7399 289.48 84.5699C265.7 68.5699 241.43 55.2399 241.43 55.2399Z" fill="#66E8FA"/>
<path d="M240.34 49.8403C243.424 48.17 246.809 47.1272 250.298 46.7719C253.787 46.4166 257.313 46.7559 260.67 47.7703C258.203 48.3233 255.921 49.5054 254.046 51.2017C252.171 52.898 250.767 55.0507 249.97 57.4503L240.34 49.8403Z" fill="#263238"/>
<path d="M241.17 47C243.212 45.0907 245.612 43.6041 248.231 42.6259C250.85 41.6476 253.636 41.197 256.43 41.3C254.638 42.2256 253.117 43.5987 252.013 45.2861C250.909 46.9736 250.26 48.9178 250.13 50.93L241.17 47Z" fill="#263238"/>
<path d="M314.33 83.3401C324.41 106.86 288.05 135.34 237.43 157.03C186.81 178.72 141.11 185.4 131 161.87C120.89 138.34 145.24 81.7601 195.86 60.0701C246.48 38.3801 304.25 59.8101 314.33 83.3401Z" fill="#66E8FA"/>
<path opacity="0.1" d="M294.35 85.5803C303.69 107.39 275.21 132.39 234.35 149.89C193.49 167.39 155.76 170.76 146.42 148.94C137.08 127.12 159.66 88.3703 200.5 70.8803C241.34 53.3903 285 63.7603 294.35 85.5803Z" fill="black"/>
<path d="M212.17 117.37C211.29 115.31 213.98 112.95 217.83 111.29C221.68 109.63 225.26 109.29 226.14 111.38C227.02 113.47 225.67 118.92 221.81 120.58C217.95 122.24 213.05 119.43 212.17 117.37Z" fill="#263238"/>
<path opacity="0.3" d="M220.34 135.74C219.75 134.34 222.58 132.31 226.44 130.66C230.3 129.01 233.72 128.36 234.31 129.75C234.9 131.14 232.98 135.28 229.13 136.93C225.28 138.58 220.94 137.13 220.34 135.74Z" fill="black"/>
<path opacity="0.4" d="M148.91 118.77C154.42 102.99 167.01 91.2799 179.85 88.3499C201.5 83.4099 207.85 110.52 197.39 129.21C185.71 150.13 159.91 146.94 157.39 137.37C153.76 143.74 139 147.07 148.91 118.77Z" fill="white"/>
<path d="M197.4 101C197.4 101 195.93 120.21 185.79 127C175.65 133.79 160.67 125.47 160.67 125.47C160.67 125.47 162.14 106.27 172.28 99.4702C182.42 92.6702 197.4 101 197.4 101Z" fill="white"/>
<path d="M160.67 125.37C160.578 120.665 161.254 115.977 162.67 111.49C163.366 109.194 164.326 106.985 165.53 104.91C166.746 102.757 168.342 100.843 170.24 99.2599C172.196 97.6642 174.508 96.5632 176.98 96.0499C179.381 95.5398 181.855 95.4721 184.28 95.8499C188.976 96.5397 193.454 98.2833 197.38 100.95C193.115 99.3131 188.635 98.3026 184.08 97.9499C181.895 97.8037 179.701 98.0062 177.58 98.5499C175.509 99.0287 173.582 99.9955 171.96 101.37C170.28 102.737 168.848 104.385 167.73 106.24L167.27 106.93L166.86 107.66C166.6 108.15 166.31 108.66 166.06 109.13C165.59 110.13 165.06 111.13 164.67 112.2C162.965 116.468 161.626 120.874 160.67 125.37Z" fill="#263238"/>
<path d="M224.45 89.3601C224.45 89.3601 239.37 101.55 251.24 98.8601C263.11 96.1701 267.46 79.6201 267.46 79.6201C267.46 79.6201 252.55 67.4301 240.67 70.1201C228.79 72.8101 224.45 89.3601 224.45 89.3601Z" fill="white"/>
<path d="M267.46 79.62C263.544 77.2214 259.433 75.1574 255.17 73.45C254.17 73.03 253.04 72.71 251.98 72.35C251.45 72.18 250.9 72.06 250.36 71.91L249.56 71.7L248.74 71.56C246.626 71.0939 244.448 70.9924 242.3 71.26C240.187 71.4946 238.158 72.2244 236.38 73.39C234.523 74.5468 232.865 75.9954 231.47 77.68C228.581 81.2123 226.223 85.1471 224.47 89.36C225.243 84.6784 227.069 80.2334 229.81 76.36C231.211 74.3441 232.966 72.5992 234.99 71.21C237.075 69.7721 239.476 68.8595 241.99 68.55C244.443 68.2693 246.926 68.4353 249.32 69.04C251.634 69.6008 253.875 70.4262 256 71.5C260.235 73.5671 264.106 76.3096 267.46 79.62Z" fill="#263238"/>
<path d="M187.868 123.53C193.68 122.116 197.245 116.259 195.831 110.447C194.418 104.635 188.561 101.07 182.749 102.484C176.937 103.897 173.371 109.754 174.785 115.566C176.199 121.378 182.056 124.944 187.868 123.53Z" fill="#263238"/>
<path d="M176.61 113.65C176.968 114.478 177.562 115.181 178.319 115.67C179.076 116.16 179.96 116.414 180.862 116.401C181.763 116.388 182.64 116.109 183.382 115.597C184.125 115.086 184.699 114.367 185.032 113.529C185.366 112.692 185.444 111.775 185.256 110.893C185.069 110.011 184.624 109.205 183.979 108.576C183.333 107.947 182.516 107.523 181.63 107.359C180.744 107.194 179.829 107.295 179 107.65C178.449 107.887 177.949 108.229 177.53 108.659C177.112 109.089 176.782 109.597 176.56 110.154C176.338 110.712 176.228 111.307 176.237 111.907C176.245 112.507 176.372 113.1 176.61 113.65Z" fill="white"/>
<path d="M251.156 93.1268C253.378 87.5737 250.678 81.2706 245.125 79.0484C239.571 76.8261 233.268 79.5264 231.046 85.0795C228.824 90.6326 231.524 96.9357 237.077 99.1579C242.63 101.38 248.934 98.6799 251.156 93.1268Z" fill="#263238"/>
<path d="M232.4 89.7402C232.758 90.5675 233.352 91.2704 234.109 91.7601C234.866 92.2497 235.75 92.5041 236.652 92.4911C237.553 92.4782 238.43 92.1984 239.172 91.6872C239.915 91.176 240.489 90.4563 240.822 89.619C241.156 88.7817 241.234 87.8643 241.046 86.9828C240.859 86.1012 240.414 85.295 239.769 84.6659C239.123 84.0369 238.306 83.6132 237.42 83.4484C236.534 83.2837 235.619 83.3852 234.79 83.7402C234.238 83.9754 233.737 84.3176 233.318 84.7471C232.898 85.1766 232.568 85.6848 232.346 86.2426C232.124 86.8003 232.014 87.3965 232.023 87.9968C232.033 88.5971 232.161 89.1896 232.4 89.7402Z" fill="white"/>
<path d="M186.9 113.67C187.044 114 187.282 114.279 187.584 114.474C187.887 114.668 188.24 114.768 188.6 114.762C188.959 114.756 189.309 114.644 189.604 114.439C189.9 114.234 190.128 113.947 190.261 113.612C190.393 113.278 190.423 112.912 190.348 112.561C190.272 112.209 190.094 111.888 189.837 111.637C189.579 111.387 189.253 111.218 188.899 111.153C188.545 111.088 188.18 111.128 187.85 111.27C187.407 111.464 187.058 111.825 186.88 112.274C186.702 112.724 186.709 113.226 186.9 113.67Z" fill="white"/>
<path d="M242.69 89.7603C242.828 90.0915 243.062 90.3744 243.36 90.5734C243.659 90.7724 244.01 90.8787 244.369 90.8788C244.728 90.8789 245.079 90.7728 245.378 90.574C245.676 90.3751 245.91 90.0924 246.048 89.7613C246.187 89.4301 246.224 89.0654 246.156 88.713C246.088 88.3606 245.917 88.0363 245.665 87.7807C245.413 87.5252 245.091 87.3499 244.74 87.2768C244.388 87.2038 244.023 87.2363 243.69 87.3703C243.465 87.4592 243.261 87.592 243.089 87.7611C242.916 87.9301 242.78 88.1319 242.686 88.3546C242.593 88.5773 242.546 88.8164 242.546 89.0578C242.547 89.2992 242.596 89.5381 242.69 89.7603Z" fill="white"/>
<path d="M236.88 123.87C236.33 124.22 235.78 124.58 235.21 124.87C234.64 125.16 234.01 125.44 233.38 125.67C232.093 126.12 230.743 126.36 229.38 126.38C227.978 126.361 226.595 126.061 225.31 125.5C223.989 124.92 222.816 124.049 221.88 122.95L223.51 122.25C223.655 123.688 223.477 125.14 222.99 126.5C222.51 127.816 221.773 129.023 220.82 130.05C219.869 131.024 218.764 131.835 217.55 132.45C216.95 132.738 216.336 132.995 215.71 133.22C215.07 133.41 214.43 133.57 213.8 133.72C214.37 133.38 214.94 133.07 215.5 132.72C216.06 132.37 216.58 132.05 217.08 131.65C218.07 130.914 218.961 130.054 219.73 129.09C220.451 128.136 220.999 127.063 221.35 125.92C221.523 125.356 221.644 124.777 221.71 124.19C221.775 123.632 221.775 123.068 221.71 122.51C221.687 122.275 221.755 122.04 221.9 121.854C222.045 121.668 222.257 121.545 222.49 121.51C222.649 121.49 222.81 121.51 222.959 121.57C223.108 121.629 223.239 121.726 223.34 121.85C223.703 122.279 224.109 122.671 224.55 123.02C225.025 123.366 225.526 123.674 226.05 123.94C227.121 124.466 228.275 124.804 229.46 124.94C230.692 125.051 231.933 124.997 233.15 124.78C233.78 124.7 234.39 124.5 235.02 124.38C235.65 124.26 236.25 124.05 236.88 123.87Z" fill="#263238"/>
<path d="M222.61 123.35C222.432 123.348 222.258 123.295 222.109 123.198C221.96 123.1 221.843 122.962 221.77 122.8L219 116.29C218.907 116.068 218.905 115.819 218.995 115.596C219.084 115.373 219.259 115.195 219.48 115.1C219.59 115.051 219.709 115.024 219.829 115.022C219.95 115.019 220.07 115.041 220.182 115.086C220.294 115.131 220.395 115.197 220.481 115.282C220.567 115.367 220.634 115.468 220.68 115.58L223.47 122.08C223.53 122.219 223.554 122.37 223.541 122.521C223.527 122.671 223.477 122.816 223.393 122.942C223.31 123.068 223.196 123.171 223.063 123.242C222.93 123.314 222.781 123.351 222.63 123.35H222.61Z" fill="#263238"/>
<path d="M131.72 137.23C123.61 141.04 117.72 149.14 116.25 158.73C123.41 149.99 131.76 152.56 131.76 152.56L131.72 137.23Z" fill="#66E8FA"/>
<path d="M132.55 160.86C131.135 164.082 130.527 167.6 130.779 171.11C131.032 174.62 132.138 178.015 134 181C133.92 172.4 140.06 169.84 140.06 169.84L132.55 160.86Z" fill="#66E8FA"/>
<path d="M132.08 147.66C123.91 153.76 119.23 164.13 119.72 175.17C125.72 163.78 135.62 164.75 135.62 164.75L132.08 147.66Z" fill="#66E8FA"/>
<path d="M296 66.8401C304.35 63.6001 314.25 64.9601 322.24 70.4701C310.97 69.6301 307.07 77.4701 307.07 77.4701L296 66.8401Z" fill="#66E8FA"/>
<path d="M309.86 83.3402C316.59 82.2502 323.93 83.1002 328.43 87.4802C322.906 87.4769 317.558 89.4248 313.33 92.9802L309.86 83.3402Z" fill="#66E8FA"/>
<path d="M307.61 82.3604C313.72 85.3604 319.18 90.3604 320.28 96.5504C315.794 93.3217 310.311 91.7843 304.8 92.2104L307.61 82.3604Z" fill="#66E8FA"/>
<path d="M303.32 74.3003C313.37 72.5903 324.1 76.3603 331.76 84.3003C319.38 80.7903 313.25 88.6203 313.25 88.6203L303.32 74.3003Z" fill="#66E8FA"/>
<path d="M190 64.5302C189.62 58.8702 192.35 54.0002 199.11 48.9702C197.69 57.0502 203.54 59.0702 203.54 59.0702L190 64.5302Z" fill="#66E8FA"/>
<path d="M197.38 61.38C198.72 54.8 205.46 48.38 215.27 44.25C208.27 51.79 213.91 56.47 213.91 56.47L197.38 61.38Z" fill="#66E8FA"/>
<path d="M141.59 179.55C141.501 179.547 141.415 179.519 141.34 179.47C141.29 179.437 141.248 179.394 141.215 179.344C141.182 179.295 141.159 179.239 141.148 179.18C141.137 179.122 141.138 179.061 141.15 179.003C141.162 178.945 141.186 178.889 141.22 178.84C167.73 139.22 215.97 123.59 216.45 123.44C216.567 123.405 216.692 123.417 216.801 123.473C216.909 123.529 216.991 123.625 217.03 123.74C217.065 123.855 217.053 123.98 216.996 124.086C216.94 124.193 216.845 124.273 216.73 124.31C216.25 124.46 168.31 140 141.97 179.31C141.935 179.381 141.881 179.441 141.814 179.484C141.747 179.526 141.669 179.549 141.59 179.55Z" fill="#263238"/>
<path d="M148.89 204.51C148.841 204.519 148.79 204.519 148.74 204.51C148.625 204.471 148.53 204.388 148.476 204.28C148.421 204.171 148.412 204.045 148.45 203.93C166.75 150.48 214.65 127.32 215.13 127.1C215.238 127.048 215.361 127.042 215.474 127.081C215.586 127.12 215.678 127.203 215.73 127.31C215.757 127.364 215.773 127.422 215.777 127.482C215.782 127.542 215.774 127.602 215.754 127.659C215.734 127.716 215.704 127.769 215.663 127.813C215.623 127.858 215.575 127.894 215.52 127.92C215.04 128.15 167.52 151.15 149.32 204.23C149.283 204.313 149.223 204.384 149.147 204.434C149.07 204.484 148.981 204.51 148.89 204.51Z" fill="#263238"/>
<path d="M227.8 119.53C227.72 119.532 227.641 119.511 227.572 119.47C227.503 119.43 227.447 119.371 227.41 119.3C227.378 119.249 227.357 119.193 227.348 119.133C227.338 119.074 227.341 119.014 227.356 118.955C227.371 118.897 227.398 118.843 227.435 118.796C227.471 118.748 227.518 118.709 227.57 118.68C228.01 118.42 272.08 93.35 319.22 100.49C319.279 100.497 319.336 100.516 319.387 100.546C319.439 100.576 319.484 100.616 319.519 100.664C319.555 100.711 319.58 100.766 319.594 100.824C319.608 100.881 319.61 100.941 319.6 101C319.578 101.118 319.512 101.224 319.416 101.296C319.32 101.369 319.2 101.402 319.08 101.39C272.27 94.29 228.47 119.21 228.08 119.47C227.995 119.519 227.897 119.54 227.8 119.53Z" fill="#263238"/>
<path d="M322.38 122.89C322.334 122.9 322.286 122.9 322.24 122.89C266.44 104.89 231.83 120.89 231.48 121.07C231.371 121.122 231.246 121.128 231.133 121.088C231.02 121.048 230.927 120.964 230.875 120.855C230.823 120.746 230.817 120.622 230.857 120.508C230.898 120.395 230.981 120.302 231.09 120.25C231.43 120.08 266.34 103.89 322.52 122.02C322.634 122.061 322.727 122.144 322.781 122.252C322.835 122.36 322.845 122.485 322.81 122.6C322.777 122.687 322.718 122.761 322.641 122.813C322.564 122.865 322.473 122.892 322.38 122.89Z" fill="#263238"/>
<path d="M219.154 367.259C227.773 357.951 227.215 343.418 217.907 334.799C208.599 326.179 194.066 326.738 185.446 336.046C176.827 345.354 177.385 359.887 186.693 368.506C196.001 377.126 210.535 376.567 219.154 367.259Z" fill="#66E8FA"/>
<path d="M266.75 375.62C255.37 375.62 251.35 371.31 247.47 367.15C246.185 365.697 244.777 364.358 243.26 363.15C237.44 358.71 228.26 356.68 223.63 358.81C223.414 358.846 223.192 358.81 222.999 358.708C222.805 358.605 222.65 358.442 222.558 358.243C222.466 358.045 222.442 357.821 222.489 357.607C222.537 357.394 222.653 357.201 222.82 357.06C228.12 354.63 238.01 356.72 244.43 361.61C246.035 362.897 247.527 364.319 248.89 365.86C252.65 369.91 256.21 373.73 266.75 373.73C269.322 373.798 271.865 373.168 274.108 371.907C276.351 370.647 278.211 368.802 279.49 366.57C280.546 364.818 281.117 362.816 281.144 360.77C281.17 358.724 280.651 356.709 279.64 354.93C277.25 351.08 272.33 349.12 265.77 349.43C265.624 349.476 265.469 349.489 265.318 349.466C265.166 349.443 265.022 349.385 264.896 349.298C264.77 349.21 264.666 349.095 264.592 348.96C264.518 348.826 264.475 348.677 264.468 348.523C264.461 348.37 264.489 348.217 264.551 348.077C264.612 347.936 264.705 347.812 264.822 347.713C264.939 347.614 265.077 347.543 265.226 347.506C265.375 347.469 265.53 347.467 265.68 347.5C272.97 347.17 278.51 349.44 281.28 353.91C282.471 355.982 283.089 358.334 283.071 360.723C283.053 363.113 282.401 365.455 281.18 367.51C279.73 370.038 277.624 372.126 275.083 373.554C272.543 374.982 269.663 375.696 266.75 375.62Z" fill="#66E8FA"/>
<path d="M212 369.2C199.897 369.077 188.232 364.653 179.09 356.72C178.972 356.536 178.917 356.319 178.934 356.101C178.95 355.883 179.038 355.677 179.183 355.514C179.328 355.351 179.523 355.239 179.737 355.197C179.952 355.155 180.174 355.184 180.37 355.28C188.37 362.42 202.65 369.18 218.58 366.78C218.721 366.718 218.873 366.69 219.027 366.697C219.18 366.704 219.329 366.746 219.464 366.82C219.598 366.894 219.714 366.998 219.801 367.124C219.889 367.25 219.947 367.394 219.97 367.546C219.993 367.698 219.98 367.853 219.934 367.999C219.888 368.145 219.808 368.278 219.702 368.389C219.596 368.5 219.465 368.584 219.321 368.636C219.177 368.689 219.023 368.707 218.87 368.69C216.596 369.03 214.3 369.201 212 369.2Z" fill="#66E8FA"/>
<path d="M209.48 372.06C197.69 372.06 187.62 367.42 178.83 357.96C178.659 357.775 178.563 357.532 178.563 357.28C178.563 357.028 178.659 356.785 178.83 356.6C179.015 356.426 179.26 356.329 179.515 356.329C179.77 356.329 180.015 356.426 180.2 356.6C189.93 367.08 201.3 371.37 214.95 369.75C215.093 369.69 215.247 369.664 215.402 369.674C215.556 369.685 215.706 369.73 215.839 369.808C215.973 369.886 216.087 369.994 216.172 370.123C216.257 370.252 216.311 370.399 216.329 370.553C216.348 370.706 216.33 370.862 216.279 371.008C216.227 371.154 216.142 371.285 216.03 371.393C215.919 371.5 215.784 371.58 215.637 371.626C215.489 371.673 215.333 371.684 215.18 371.66C213.29 371.908 211.386 372.042 209.48 372.06Z" fill="#66E8FA"/>
<path d="M192.06 373.22C191.811 373.221 191.571 373.13 191.386 372.963C191.201 372.797 191.085 372.567 191.06 372.32C190.22 361.04 194.11 343.08 204.67 328.39C204.84 328.252 205.051 328.173 205.269 328.166C205.488 328.159 205.704 328.224 205.882 328.351C206.06 328.479 206.192 328.661 206.257 328.87C206.321 329.079 206.315 329.304 206.24 329.51C196 343.82 192.21 361.25 193 372.18C193.002 372.427 192.911 372.666 192.747 372.851C192.583 373.035 192.356 373.153 192.11 373.18L192.06 373.22Z" fill="#66E8FA"/>
<path d="M182.47 364.27C182.286 364.269 182.106 364.217 181.95 364.12C181.741 363.977 181.594 363.761 181.538 363.514C181.483 363.267 181.523 363.009 181.65 362.79C185.01 357.48 197.49 339.67 217.05 333.42C217.293 333.352 217.552 333.378 217.777 333.493C218.001 333.608 218.174 333.803 218.26 334.04C218.328 334.283 218.302 334.542 218.187 334.767C218.073 334.991 217.877 335.164 217.64 335.25C198.7 341.31 186.55 358.65 183.28 363.82C183.192 363.955 183.072 364.066 182.93 364.145C182.789 364.223 182.632 364.266 182.47 364.27Z" fill="#66E8FA"/>
<path d="M182.47 364.27C182.347 364.271 182.224 364.247 182.11 364.2C181.879 364.098 181.695 363.913 181.594 363.681C181.494 363.449 181.486 363.188 181.57 362.95C184.528 355.679 189.001 349.121 194.691 343.714C200.381 338.306 207.158 334.173 214.57 331.59C214.789 331.574 215.007 331.631 215.19 331.751C215.373 331.872 215.512 332.049 215.585 332.256C215.657 332.463 215.66 332.688 215.593 332.896C215.525 333.105 215.39 333.285 215.21 333.41C208.051 335.899 201.505 339.885 196.008 345.103C190.51 350.321 186.189 356.65 183.33 363.67C183.256 363.84 183.137 363.986 182.985 364.092C182.833 364.198 182.655 364.259 182.47 364.27Z" fill="#66E8FA"/>
<path d="M189.21 371.54C188.967 371.542 188.732 371.456 188.548 371.298C188.364 371.14 188.244 370.92 188.21 370.68C185.79 349.84 192.63 337.92 200.39 328.15C200.554 327.958 200.783 327.835 201.034 327.805C201.284 327.776 201.536 327.842 201.74 327.99C201.935 328.154 202.06 328.386 202.089 328.638C202.119 328.891 202.051 329.145 201.9 329.35C194.4 338.8 187.79 350.35 190.13 370.46C190.151 370.713 190.074 370.964 189.916 371.163C189.759 371.361 189.531 371.493 189.28 371.53L189.21 371.54Z" fill="#66E8FA"/>
<path d="M186.53 369.36C186.321 369.355 186.12 369.285 185.953 369.159C185.786 369.034 185.663 368.859 185.6 368.66C182.6 357.61 184.83 340.33 197.07 328.48C197.255 328.309 197.498 328.213 197.75 328.213C198.002 328.213 198.245 328.309 198.43 328.48C198.604 328.666 198.702 328.911 198.702 329.165C198.702 329.42 198.604 329.665 198.43 329.85C187.28 340.64 184.48 357.27 187.48 368.12C187.54 368.366 187.504 368.626 187.38 368.847C187.255 369.068 187.052 369.234 186.81 369.31L186.53 369.36Z" fill="#66E8FA"/>
<path d="M225 355.86C224.8 355.857 224.604 355.795 224.44 355.68C210.14 345.39 192.7 341.6 181.77 342.42C181.553 342.379 181.355 342.268 181.207 342.103C181.059 341.939 180.971 341.729 180.955 341.509C180.939 341.288 180.996 341.068 181.119 340.884C181.241 340.7 181.421 340.561 181.63 340.49C192.91 339.66 210.87 343.54 225.57 354.11C225.718 354.239 225.825 354.408 225.877 354.597C225.929 354.786 225.925 354.987 225.864 355.173C225.803 355.36 225.689 355.524 225.535 355.646C225.382 355.768 225.196 355.843 225 355.86Z" fill="#66E8FA"/>
<path d="M225.2 353.19C225.066 353.193 224.932 353.166 224.81 353.11C211.99 347.42 192.59 346.67 179.69 351.35C179.565 351.44 179.42 351.499 179.268 351.524C179.116 351.549 178.96 351.538 178.813 351.492C178.665 351.447 178.53 351.368 178.419 351.261C178.307 351.155 178.221 351.024 178.168 350.88C178.116 350.735 178.097 350.579 178.114 350.426C178.131 350.273 178.183 350.126 178.267 349.996C178.35 349.866 178.463 349.758 178.595 349.678C178.727 349.599 178.876 349.552 179.03 349.54C192.35 344.7 212.36 345.48 225.59 351.35C225.817 351.461 225.994 351.653 226.085 351.889C226.175 352.124 226.174 352.386 226.08 352.62C226.001 352.787 225.876 352.929 225.721 353.03C225.565 353.13 225.385 353.186 225.2 353.19Z" fill="#66E8FA"/>
<path d="M225.16 350.49C225.027 350.488 224.896 350.46 224.774 350.406C224.652 350.353 224.542 350.276 224.45 350.18C214.94 339.84 202.62 336.18 184.45 338.27C184.308 338.33 184.153 338.355 183.999 338.345C183.844 338.335 183.694 338.29 183.561 338.212C183.427 338.134 183.313 338.026 183.228 337.897C183.143 337.768 183.089 337.621 183.071 337.467C183.052 337.313 183.07 337.158 183.122 337.012C183.174 336.866 183.259 336.735 183.37 336.627C183.481 336.52 183.616 336.44 183.764 336.394C183.911 336.347 184.067 336.336 184.22 336.36C202.78 334.2 216 338.18 225.83 348.88C225.941 349.022 226.011 349.192 226.033 349.371C226.055 349.55 226.028 349.731 225.955 349.896C225.882 350.061 225.766 350.204 225.619 350.308C225.472 350.413 225.3 350.475 225.12 350.49H225.16Z" fill="#66E8FA"/>
<path d="M224.44 346.57C224.185 346.564 223.941 346.46 223.76 346.28C211.87 334.42 195.1 332.71 187.51 335.28C187.29 335.295 187.072 335.236 186.889 335.114C186.706 334.991 186.568 334.812 186.497 334.603C186.427 334.395 186.427 334.168 186.498 333.96C186.569 333.752 186.707 333.572 186.89 333.45C194.94 330.72 212.66 332.45 225.12 344.91C225.292 345.095 225.387 345.338 225.387 345.59C225.387 345.842 225.292 346.085 225.12 346.27C224.94 346.454 224.697 346.561 224.44 346.57Z" fill="#66E8FA"/>
<path d="M220 367.31C219.911 367.325 219.82 367.325 219.73 367.31C196.73 360.5 179.82 345.04 179.66 344.88C179.545 344.695 179.494 344.477 179.514 344.26C179.535 344.043 179.625 343.839 179.772 343.678C179.92 343.517 180.115 343.409 180.33 343.369C180.544 343.33 180.766 343.362 180.96 343.46C181.13 343.62 197.73 358.78 220.28 365.46C220.473 365.552 220.631 365.704 220.731 365.893C220.831 366.081 220.868 366.297 220.837 366.508C220.806 366.72 220.708 366.915 220.557 367.067C220.406 367.218 220.211 367.318 220 367.35V367.31Z" fill="#66E8FA"/>
<path d="M220.46 366.72C220.329 366.719 220.2 366.691 220.08 366.64C206.163 360.426 192.83 352.98 180.24 344.39C180.094 344.339 179.962 344.255 179.854 344.144C179.746 344.033 179.665 343.898 179.618 343.751C179.571 343.603 179.558 343.447 179.582 343.294C179.606 343.141 179.664 342.995 179.754 342.869C179.843 342.743 179.961 342.639 180.097 342.565C180.233 342.492 180.385 342.451 180.54 342.447C180.694 342.442 180.848 342.473 180.989 342.538C181.129 342.603 181.253 342.699 181.35 342.82C193.829 351.333 207.045 358.713 220.84 364.87C221.018 364.976 221.159 365.136 221.243 365.326C221.326 365.516 221.349 365.727 221.307 365.93C221.265 366.133 221.162 366.319 221.01 366.46C220.858 366.602 220.666 366.693 220.46 366.72Z" fill="#66E8FA"/>
<path d="M221.31 365.53C221.153 365.533 220.998 365.495 220.86 365.42C201.19 354.84 180.57 344.57 180.37 344.47C180.207 344.325 180.095 344.13 180.053 343.915C180.011 343.701 180.04 343.478 180.137 343.282C180.233 343.085 180.392 342.926 180.587 342.828C180.783 342.73 181.005 342.699 181.22 342.74C181.43 342.84 202.08 353.13 221.77 363.74C221.935 363.857 222.061 364.021 222.131 364.211C222.201 364.4 222.212 364.607 222.162 364.803C222.113 364.999 222.004 365.176 221.852 365.309C221.7 365.442 221.511 365.526 221.31 365.55V365.53Z" fill="#66E8FA"/>
<path d="M222 364.47C221.786 364.474 221.578 364.403 221.41 364.27C203.55 350.27 181.1 343.77 180.87 343.71C180.68 343.597 180.533 343.425 180.451 343.22C180.369 343.014 180.358 342.788 180.418 342.576C180.479 342.363 180.608 342.177 180.786 342.045C180.963 341.914 181.179 341.845 181.4 341.85C181.63 341.92 204.4 348.5 222.6 362.75C222.792 362.913 222.915 363.143 222.945 363.393C222.975 363.644 222.909 363.896 222.76 364.1C222.671 364.217 222.556 364.311 222.424 364.375C222.292 364.439 222.147 364.472 222 364.47Z" fill="#66E8FA"/>
<path d="M223.84 360.59C223.619 360.589 223.405 360.515 223.23 360.38C206.87 346.94 181.23 343.77 181.01 343.74C180.805 343.658 180.632 343.512 180.519 343.322C180.407 343.132 180.36 342.91 180.386 342.691C180.412 342.472 180.51 342.268 180.665 342.11C180.819 341.952 181.022 341.85 181.24 341.82C181.5 341.82 207.65 345.09 224.46 358.89C224.648 359.057 224.765 359.289 224.789 359.539C224.813 359.79 224.742 360.04 224.59 360.24C224.497 360.348 224.382 360.436 224.253 360.496C224.124 360.556 223.983 360.588 223.84 360.59Z" fill="#66E8FA"/>
<path d="M193.69 374C193.498 373.979 193.315 373.903 193.165 373.781C193.015 373.659 192.904 373.496 192.844 373.312C192.785 373.128 192.781 372.93 192.831 372.743C192.882 372.557 192.986 372.389 193.13 372.26C211.36 359.07 221.77 340.77 221.87 340.59C221.908 340.441 221.98 340.303 222.08 340.186C222.18 340.069 222.305 339.977 222.447 339.917C222.588 339.856 222.741 339.829 222.895 339.838C223.048 339.847 223.198 339.89 223.331 339.966C223.465 340.042 223.58 340.147 223.666 340.274C223.753 340.401 223.808 340.547 223.83 340.699C223.851 340.851 223.837 341.006 223.788 341.152C223.74 341.298 223.658 341.43 223.55 341.54C223.45 341.72 212.83 360.39 194.26 373.82C194.093 373.936 193.894 373.999 193.69 374Z" fill="#66E8FA"/>
<g opacity="0.3">
<path d="M212 369.2C199.897 369.077 188.232 364.653 179.09 356.72C178.972 356.536 178.917 356.319 178.934 356.101C178.95 355.883 179.038 355.677 179.183 355.514C179.328 355.351 179.523 355.239 179.737 355.197C179.952 355.155 180.174 355.184 180.37 355.28C188.37 362.42 202.65 369.18 218.58 366.78C218.721 366.718 218.873 366.69 219.027 366.697C219.18 366.704 219.329 366.746 219.464 366.82C219.598 366.894 219.714 366.998 219.801 367.124C219.889 367.25 219.947 367.394 219.97 367.546C219.993 367.698 219.98 367.853 219.934 367.999C219.888 368.145 219.808 368.278 219.702 368.389C219.596 368.5 219.465 368.584 219.321 368.636C219.177 368.689 219.023 368.707 218.87 368.69C216.596 369.03 214.3 369.201 212 369.2Z" fill="black"/>
<path d="M209.48 372.06C197.69 372.06 187.62 367.42 178.83 357.96C178.659 357.775 178.563 357.532 178.563 357.28C178.563 357.028 178.659 356.785 178.83 356.6C179.015 356.426 179.26 356.329 179.515 356.329C179.77 356.329 180.015 356.426 180.2 356.6C189.93 367.08 201.3 371.37 214.95 369.75C215.093 369.69 215.247 369.664 215.402 369.674C215.556 369.685 215.706 369.73 215.839 369.808C215.973 369.886 216.087 369.994 216.172 370.123C216.257 370.252 216.311 370.399 216.329 370.553C216.348 370.706 216.33 370.862 216.279 371.008C216.227 371.154 216.142 371.285 216.03 371.393C215.919 371.5 215.784 371.58 215.637 371.626C215.489 371.673 215.333 371.684 215.18 371.66C213.29 371.908 211.386 372.042 209.48 372.06Z" fill="black"/>
<path d="M192.06 373.22C191.811 373.221 191.571 373.13 191.386 372.963C191.201 372.797 191.085 372.567 191.06 372.32C190.22 361.04 194.11 343.08 204.67 328.39C204.84 328.252 205.051 328.173 205.269 328.166C205.488 328.159 205.704 328.224 205.882 328.351C206.06 328.479 206.192 328.661 206.257 328.87C206.321 329.079 206.315 329.304 206.24 329.51C196 343.82 192.21 361.25 193 372.18C193.002 372.427 192.911 372.666 192.747 372.851C192.583 373.035 192.356 373.153 192.11 373.18L192.06 373.22Z" fill="black"/>
<path d="M182.47 364.27C182.286 364.269 182.106 364.217 181.95 364.12C181.741 363.977 181.594 363.761 181.538 363.514C181.483 363.267 181.523 363.009 181.65 362.79C185.01 357.48 197.49 339.67 217.05 333.42C217.293 333.352 217.552 333.378 217.777 333.493C218.001 333.608 218.174 333.803 218.26 334.04C218.328 334.283 218.302 334.542 218.187 334.767C218.073 334.991 217.877 335.164 217.64 335.25C198.7 341.31 186.55 358.65 183.28 363.82C183.192 363.955 183.072 364.066 182.93 364.145C182.789 364.223 182.632 364.266 182.47 364.27Z" fill="black"/>
<path d="M182.47 364.27C182.347 364.271 182.224 364.247 182.11 364.2C181.879 364.098 181.695 363.913 181.594 363.681C181.494 363.449 181.486 363.188 181.57 362.95C184.528 355.679 189.001 349.121 194.691 343.714C200.381 338.306 207.158 334.173 214.57 331.59C214.789 331.574 215.007 331.631 215.19 331.751C215.373 331.872 215.512 332.049 215.585 332.256C215.657 332.463 215.66 332.688 215.593 332.896C215.525 333.105 215.39 333.285 215.21 333.41C208.051 335.899 201.505 339.885 196.008 345.103C190.51 350.321 186.189 356.65 183.33 363.67C183.256 363.84 183.137 363.986 182.985 364.092C182.833 364.198 182.655 364.259 182.47 364.27Z" fill="black"/>
<path d="M189.21 371.54C188.967 371.542 188.732 371.456 188.548 371.298C188.364 371.14 188.244 370.92 188.21 370.68C185.79 349.84 192.63 337.92 200.39 328.15C200.554 327.958 200.783 327.835 201.034 327.805C201.284 327.776 201.536 327.842 201.74 327.99C201.935 328.154 202.06 328.386 202.089 328.638C202.119 328.891 202.051 329.145 201.9 329.35C194.4 338.8 187.79 350.35 190.13 370.46C190.151 370.713 190.074 370.964 189.916 371.163C189.759 371.361 189.531 371.493 189.28 371.53L189.21 371.54Z" fill="black"/>
<path d="M186.53 369.36C186.321 369.355 186.12 369.285 185.953 369.159C185.786 369.034 185.663 368.859 185.6 368.66C182.6 357.61 184.83 340.33 197.07 328.48C197.255 328.309 197.498 328.213 197.75 328.213C198.002 328.213 198.245 328.309 198.43 328.48C198.604 328.666 198.702 328.911 198.702 329.165C198.702 329.42 198.604 329.665 198.43 329.85C187.28 340.64 184.48 357.27 187.48 368.12C187.54 368.366 187.504 368.626 187.38 368.847C187.255 369.068 187.052 369.234 186.81 369.31L186.53 369.36Z" fill="black"/>
<path d="M225 355.86C224.8 355.858 224.604 355.795 224.44 355.68C210.14 345.39 192.7 341.6 181.77 342.42C181.553 342.38 181.355 342.269 181.207 342.104C181.059 341.939 180.971 341.73 180.955 341.509C180.939 341.289 180.996 341.069 181.119 340.885C181.241 340.7 181.421 340.561 181.63 340.49C192.91 339.66 210.87 343.54 225.57 354.11C225.718 354.239 225.825 354.409 225.877 354.598C225.929 354.787 225.925 354.987 225.864 355.174C225.803 355.36 225.689 355.525 225.535 355.647C225.382 355.769 225.196 355.843 225 355.86Z" fill="black"/>
<path d="M225.2 353.19C225.066 353.193 224.932 353.166 224.81 353.11C211.99 347.42 192.59 346.67 179.69 351.35C179.565 351.44 179.42 351.499 179.268 351.524C179.116 351.549 178.96 351.538 178.813 351.492C178.665 351.447 178.53 351.368 178.419 351.261C178.307 351.155 178.221 351.024 178.168 350.88C178.116 350.735 178.097 350.579 178.114 350.426C178.131 350.273 178.183 350.126 178.267 349.996C178.35 349.866 178.463 349.758 178.595 349.678C178.727 349.599 178.876 349.552 179.03 349.54C192.35 344.7 212.36 345.48 225.59 351.35C225.817 351.461 225.994 351.653 226.085 351.889C226.175 352.124 226.174 352.386 226.08 352.62C226.001 352.787 225.876 352.929 225.721 353.03C225.565 353.13 225.385 353.186 225.2 353.19Z" fill="black"/>
<path d="M225.16 350.49C225.027 350.488 224.896 350.46 224.774 350.406C224.652 350.353 224.542 350.276 224.45 350.18C214.94 339.84 202.62 336.18 184.45 338.27C184.308 338.33 184.153 338.355 183.999 338.345C183.844 338.335 183.694 338.29 183.561 338.212C183.427 338.134 183.313 338.026 183.228 337.897C183.143 337.768 183.089 337.621 183.071 337.467C183.052 337.313 183.07 337.158 183.122 337.012C183.174 336.866 183.259 336.735 183.37 336.627C183.481 336.52 183.616 336.44 183.764 336.394C183.911 336.347 184.067 336.336 184.22 336.36C202.78 334.2 216 338.18 225.83 348.88C225.941 349.022 226.011 349.192 226.033 349.371C226.055 349.55 226.028 349.731 225.955 349.896C225.882 350.061 225.766 350.204 225.619 350.308C225.472 350.413 225.3 350.475 225.12 350.49H225.16Z" fill="black"/>
<path d="M224.44 346.57C224.185 346.564 223.941 346.46 223.76 346.28C211.87 334.42 195.1 332.71 187.51 335.28C187.29 335.295 187.072 335.236 186.889 335.114C186.706 334.991 186.568 334.812 186.497 334.603C186.427 334.395 186.427 334.168 186.498 333.96C186.569 333.752 186.707 333.572 186.89 333.45C194.94 330.72 212.66 332.45 225.12 344.91C225.292 345.095 225.387 345.338 225.387 345.59C225.387 345.842 225.292 346.085 225.12 346.27C224.94 346.454 224.697 346.561 224.44 346.57Z" fill="black"/>
<path d="M220 367.31C219.911 367.325 219.82 367.325 219.73 367.31C196.73 360.5 179.82 345.04 179.66 344.88C179.545 344.695 179.494 344.477 179.514 344.26C179.535 344.043 179.625 343.839 179.772 343.678C179.92 343.517 180.115 343.409 180.33 343.369C180.544 343.33 180.766 343.362 180.96 343.46C181.13 343.62 197.73 358.78 220.28 365.46C220.473 365.552 220.631 365.704 220.731 365.893C220.831 366.081 220.868 366.297 220.837 366.508C220.806 366.72 220.708 366.915 220.557 367.067C220.406 367.218 220.211 367.318 220 367.35V367.31Z" fill="black"/>
<path d="M220.46 366.72C220.329 366.719 220.2 366.691 220.08 366.64C206.163 360.426 192.83 352.98 180.24 344.39C180.094 344.339 179.962 344.255 179.854 344.144C179.746 344.033 179.665 343.898 179.618 343.751C179.571 343.603 179.558 343.447 179.582 343.294C179.606 343.141 179.664 342.995 179.754 342.869C179.843 342.743 179.961 342.639 180.097 342.565C180.233 342.492 180.385 342.451 180.54 342.447C180.694 342.442 180.848 342.473 180.989 342.538C181.129 342.603 181.253 342.699 181.35 342.82C193.829 351.333 207.045 358.713 220.84 364.87C221.018 364.976 221.159 365.136 221.243 365.326C221.326 365.516 221.349 365.727 221.307 365.93C221.265 366.133 221.162 366.319 221.01 366.46C220.858 366.602 220.666 366.693 220.46 366.72Z" fill="black"/>
<path d="M221.31 365.53C221.153 365.533 220.998 365.495 220.86 365.42C201.19 354.84 180.57 344.57 180.37 344.47C180.207 344.325 180.095 344.13 180.053 343.915C180.011 343.701 180.04 343.478 180.137 343.282C180.233 343.085 180.392 342.926 180.587 342.828C180.783 342.73 181.005 342.699 181.22 342.74C181.43 342.84 202.08 353.13 221.77 363.74C221.935 363.857 222.061 364.021 222.131 364.211C222.201 364.4 222.212 364.607 222.162 364.803C222.113 364.999 222.004 365.176 221.852 365.309C221.7 365.442 221.511 365.526 221.31 365.55V365.53Z" fill="black"/>
<path d="M222 364.47C221.786 364.474 221.578 364.403 221.41 364.27C203.55 350.27 181.1 343.77 180.87 343.71C180.68 343.597 180.533 343.425 180.451 343.22C180.369 343.014 180.358 342.788 180.418 342.576C180.479 342.363 180.608 342.177 180.786 342.045C180.963 341.914 181.179 341.845 181.4 341.85C181.63 341.92 204.4 348.5 222.6 362.75C222.792 362.913 222.915 363.143 222.945 363.393C222.975 363.644 222.909 363.896 222.76 364.1C222.671 364.217 222.556 364.311 222.424 364.375C222.292 364.439 222.147 364.472 222 364.47Z" fill="black"/>
<path d="M223.84 360.59C223.619 360.589 223.405 360.515 223.23 360.38C206.87 346.94 181.23 343.77 181.01 343.74C180.805 343.658 180.632 343.512 180.519 343.322C180.407 343.132 180.36 342.91 180.386 342.691C180.412 342.472 180.51 342.268 180.665 342.11C180.819 341.952 181.022 341.85 181.24 341.82C181.5 341.82 207.65 345.09 224.46 358.89C224.648 359.057 224.765 359.289 224.789 359.539C224.813 359.79 224.742 360.04 224.59 360.24C224.497 360.348 224.382 360.436 224.253 360.496C224.124 360.556 223.983 360.588 223.84 360.59Z" fill="black"/>
<path d="M193.69 374C193.498 373.98 193.315 373.904 193.165 373.782C193.015 373.659 192.904 373.496 192.844 373.312C192.785 373.128 192.781 372.931 192.831 372.744C192.882 372.557 192.986 372.389 193.13 372.26C211.36 359.07 221.77 340.77 221.87 340.59C221.908 340.441 221.98 340.303 222.08 340.186C222.18 340.07 222.305 339.978 222.447 339.917C222.588 339.857 222.741 339.83 222.895 339.838C223.048 339.847 223.198 339.891 223.331 339.966C223.465 340.042 223.58 340.148 223.666 340.275C223.753 340.402 223.808 340.547 223.83 340.699C223.851 340.852 223.837 341.007 223.788 341.152C223.74 341.298 223.658 341.431 223.55 341.54C223.45 341.72 212.83 360.39 194.26 373.82C194.093 373.937 193.894 374 193.69 374Z" fill="black"/>
</g>
</svg>
