<svg width="377" height="357" viewBox="0 0 377 357" fill="none" xmlns="http://www.w3.org/2000/svg">
<path d="M276 1.00003C276.33 2.65003 276.66 4.30003 277 6.00003C281.29 6.00003 285.58 6.00003 290 6.00003C290.66 4.68003 291.32 3.36003 292 2.00003C299.457 2.33899 307.697 5.69733 313 11C312.801 11.7657 312.603 12.5314 312.398 13.3203C311.699 16.0891 311.699 16.0891 313.477 18.4922C314.54 19.6717 314.54 19.6717 315.625 20.875C316.319 21.6768 317.012 22.4786 317.727 23.3047C319.901 25.3185 319.901 25.3185 322.773 24.7578C323.508 24.5078 324.243 24.2577 325 24C330.331 31.169 332.487 38.0749 332 47C330.68 47 329.36 47 328 47C328.012 47.5917 328.023 48.1834 328.035 48.793C328.083 53.0024 328.06 56.8923 327 61C327.639 61.1238 328.279 61.2475 328.938 61.375C329.618 61.5813 330.299 61.7875 331 62C332 64 332 64 331.398 66.3203C329.191 72.3702 326.694 77.7163 323 83C322.154 82.6907 321.309 82.3813 320.438 82.0625C317.049 81.6373 317.049 81.6373 315.113 83.4922C313.883 84.7768 312.682 86.0909 311.516 87.4336C311.015 87.9505 310.515 88.4675 310 89C309.34 89 308.68 89 308 89C308.33 91.31 308.66 93.62 309 96C295.444 102.752 295.444 102.752 288 103C287.34 102.34 286.68 101.68 286 101C286 100.01 286 99.02 286 98C285.01 98 284.02 98 283 98C283.33 129.35 283.66 160.7 284 193C294.713 186.304 303.278 180.689 312 172C312.887 172.784 313.774 173.568 314.688 174.375C333.39 190.298 352.815 199.318 376 207C376.032 220.645 376.018 234.288 375.792 247.931C375.764 249.861 375.743 251.791 375.729 253.72C375.614 268.897 374.713 283.537 367.312 297.188C366.968 297.844 366.623 298.499 366.268 299.175C355.671 318.876 336.034 341.597 314 349C309.069 348.775 305.812 346.984 301.688 344.375C301.126 344.021 300.565 343.667 299.987 343.303C294.779 339.966 289.394 336.394 285 332C284.853 332.87 284.853 332.87 284.703 333.758C283.301 341.084 281.119 345.41 275 350C304.04 350.33 333.08 350.66 363 351C363.33 352.32 363.66 353.64 364 355C363 356 363 356 360.548 356.124C359.446 356.124 358.344 356.123 357.208 356.123C355.308 356.126 355.308 356.126 353.37 356.129C351.946 356.126 350.523 356.123 349.099 356.12C347.601 356.121 346.103 356.122 344.604 356.123C340.468 356.125 336.331 356.121 332.195 356.116C327.741 356.112 323.288 356.113 318.835 356.114C311.113 356.115 303.39 356.111 295.668 356.106C284.503 356.098 273.338 356.095 262.173 356.094C244.06 356.092 225.947 356.085 207.834 356.075C190.235 356.066 172.635 356.059 155.035 356.055C153.951 356.055 152.867 356.054 151.751 356.054C146.313 356.053 140.875 356.052 135.437 356.05C90.2911 356.04 45.1456 356.022 0 356C0.33 354.35 0.66 352.7 1 351C8.59 351 16.18 351 24 351C24.6346 344.654 25.22 338.342 25.6484 331.984C25.7677 330.303 25.8875 328.622 26.0078 326.941C26.1925 324.351 26.3743 321.761 26.5469 319.169C28.2068 294.408 28.2068 294.408 32.7031 283.719C34.3317 279.049 34.1561 275.367 33.75 270.5C33.6921 269.619 33.6341 268.738 33.5745 267.831C33.4003 265.219 33.2042 262.61 33 260C31.2014 236.409 30.0089 213.794 39.0049 191.541C41.0307 186.393 41.5855 182.465 41 177C34.8627 181.536 30.8447 187.118 26.5742 193.336C24.9335 195.716 23.2321 197.995 21.3945 200.227C16.3655 206.415 13.5502 210.868 14 219C10.2984 219.947 8.60888 220.304 5.125 218.563C4.42375 218.047 3.7225 217.531 3 217C3.50302 211.684 4.8631 207.604 7.375 202.875C7.72659 202.199 8.07818 201.523 8.44043 200.827C9.21113 199.346 9.98537 197.868 10.7627 196.391C12.0661 193.872 13.3128 191.331 14.5547 188.781C20.1344 177.487 26.1565 167.985 35 159C36.3013 157.623 36.3013 157.623 37.6289 156.219C43.0068 150.9 47.4007 148.501 55 148C55 147.34 55 146.68 55 146C54.2987 145.979 53.5975 145.959 52.875 145.938C49.3061 144.774 47.5132 143.473 45.1797 140.547C42.1821 134.075 42.9377 125.639 44.8906 118.949C47.8162 112.523 51.8873 107.855 58.3555 104.938C65.7721 102.362 72.1256 102.526 79.3125 105.688C83.1213 107.816 85.1675 109.953 87 114C87.298 117.034 87.2429 119.964 87 123C85.515 123.495 85.515 123.495 84 124C83.9626 124.58 83.9252 125.16 83.8867 125.758C83.4568 130.867 82.4952 134.444 80 139C80 139.99 80 140.98 80 142C80.66 142.33 81.32 142.66 82 143C81.5 144.938 81.5 144.938 80 147C77.3034 147.688 74.7983 147.819 72 148C74.2367 150.407 76.5588 152.112 79.3438 153.848C80.1778 154.37 81.0118 154.893 81.8711 155.432C83.1724 156.239 83.1724 156.239 84.5 157.063C86.2189 158.137 87.9376 159.211 89.6562 160.285C90.4174 160.758 91.1786 161.232 91.9629 161.719C93.6592 162.786 95.3327 163.889 97 165C97.8021 159.373 98.1595 153.931 98.125 148.25C98.1231 147.472 98.1211 146.693 98.1191 145.891C98.0721 139.562 97.691 133.293 97 127C98.485 127.495 98.485 127.495 100 128C100.495 130.475 100.495 130.475 101 133C102.207 133.217 102.207 133.217 103.438 133.438C106 134 106 134 107 135C106.794 136.258 106.588 137.516 106.375 138.813C105.716 143.989 106.856 148.182 108.23 153.16C110.804 162.659 111.509 173.71 108 183C107 184 107 184 103.438 184.438C95.4711 184.412 87.0324 180.516 80 177C79.6849 178.52 79.3731 180.041 79.0625 181.563C78.8015 182.833 78.8015 182.833 78.5352 184.129C78.3586 185.076 78.182 186.024 78 187C77.7744 188.097 77.5488 189.194 77.3164 190.324C76.8838 195.349 78.095 199.463 79.4414 204.273C80.7949 209.63 81.2796 214.942 81.5547 220.447C81.5968 221.275 81.6388 222.104 81.6822 222.957C82.1533 233.102 82.1446 243.245 82.1328 253.398C82.1335 255.493 82.1345 257.587 82.1357 259.681C82.1372 264.032 82.1351 268.383 82.1304 272.735C82.1247 278.279 82.128 283.822 82.1339 289.366C82.1376 293.676 82.1364 297.987 82.1338 302.297C82.1332 304.34 82.1339 306.384 82.1363 308.427C82.1458 319.001 82.0815 329.471 81 340C81.66 340 82.32 340 83 340C83.0413 340.619 83.0825 341.238 83.125 341.875C83.4137 342.576 83.7025 343.278 84 344C84.99 344.33 85.98 344.66 87 345C87.99 345.33 88.98 345.66 90 346C90.33 347.32 90.66 348.64 91 350C104.2 350 117.4 350 131 350C129.35 348.35 127.7 346.7 126 345C123.916 341.831 123.755 339.348 123.773 335.589C123.773 334.508 123.773 333.427 123.773 332.314C123.784 331.153 123.794 329.993 123.805 328.797C123.808 327.604 123.81 326.411 123.813 325.182C123.824 321.371 123.85 317.561 123.875 313.75C123.885 311.167 123.894 308.583 123.902 306C123.924 299.667 123.958 293.333 124 287C123.071 286.906 123.071 286.906 122.122 286.809C120.905 286.681 120.905 286.681 119.662 286.55C118.857 286.466 118.052 286.383 117.222 286.297C113.344 285.779 110.089 284.396 107 282C106 279.25 106 279.25 106 277C103.199 275.969 103.199 275.969 100.98 275.703C98.2071 274.719 97.6612 273.32 96.3125 270.75C95.8961 269.982 95.4798 269.213 95.0508 268.422C93.9761 265.945 93.429 263.659 93 261C93.99 261 94.98 261 96 261C96 258.69 96 256.38 96 254C95.01 254 94.02 254 93 254C92.4973 248.093 93.5572 242.952 97 238C99.0273 237.359 99.0273 237.359 101 237C102.882 235.213 102.882 235.213 104 233C103.67 232.01 103.34 231.02 103 230C107.9 226.665 112.206 224.328 118 223C118.33 223.99 118.66 224.98 119 226C120.65 226 122.3 226 124 226C123.994 225.292 123.988 224.584 123.982 223.854C123.834 206.602 123.692 189.349 123.557 172.096C123.492 163.753 123.424 155.41 123.352 147.066C123.289 139.792 123.23 132.517 123.175 125.242C123.146 121.393 123.115 117.543 123.079 113.694C123.046 110.065 123.018 106.437 122.993 102.808C122.979 100.852 122.959 98.8965 122.939 96.9409C122.901 90.531 123.129 84.3527 124 78C123.328 78.0045 122.656 78.0089 121.963 78.0135C114.988 78.0576 108.014 78.0879 101.039 78.1099C98.4331 78.12 95.8276 78.1336 93.2222 78.1509C89.484 78.1751 85.746 78.1865 82.0078 78.1953C80.2515 78.2108 80.2515 78.2108 78.4597 78.2266C76.8383 78.2269 76.8383 78.2269 75.1841 78.2271C74.2292 78.2315 73.2744 78.236 72.2906 78.2405C70 78 70 78 68 76C67.7595 73.5956 67.7595 73.5956 67.7729 70.5406C67.7731 69.3995 67.7733 68.2585 67.7734 67.0829C67.7837 65.8464 67.7941 64.6099 67.8047 63.336C67.8075 62.0736 67.8103 60.8113 67.8133 59.5107C67.8226 56.1536 67.8406 52.7967 67.8627 49.4397C67.8831 46.0145 67.8923 42.5893 67.9023 39.1641C67.9244 32.4427 67.9579 25.7214 68 19C66.515 18.505 66.515 18.505 65 18C65.99 18 66.98 18 68 18C67.9768 17.0848 67.9536 16.1696 67.9297 15.2266C67.9116 14.0381 67.8936 12.8496 67.875 11.625C67.8518 10.4417 67.8286 9.25831 67.8047 8.0391C68 5.00003 68 5.00003 70 3.00003C72.1302 2.74556 72.1302 2.74556 74.8207 2.73934C75.8387 2.73225 76.8566 2.72517 77.9054 2.71787C79.0265 2.72034 80.1477 2.72282 81.3027 2.72537C83.0686 2.71771 83.0686 2.71771 84.8702 2.70989C88.1036 2.69835 91.3369 2.69592 94.5703 2.69845C97.2668 2.69952 99.9633 2.69464 102.66 2.68984C109.019 2.67874 115.378 2.67832 121.738 2.68436C128.306 2.6904 134.873 2.67808 141.441 2.65679C147.074 2.6392 152.707 2.63317 158.34 2.63643C161.707 2.63824 165.074 2.63557 168.441 2.62171C172.193 2.60944 175.945 2.61608 179.697 2.62772C180.818 2.62007 181.939 2.61243 183.095 2.60456C184.113 2.61157 185.131 2.61858 186.179 2.62581C187.067 2.62564 187.955 2.62548 188.87 2.6253C189.573 2.74896 190.276 2.87262 191 3.00003C193.422 6.63309 193.233 8.31822 193.195 12.6368C193.19 13.8068 193.185 14.9769 193.18 16.1824C193.162 17.6691 193.144 19.1558 193.125 20.6875C193.084 25.4107 193.043 30.1338 193 35C206.53 34.67 220.06 34.34 234 34C234.33 32.35 234.66 30.7 235 29C236.41 26.543 236.41 26.543 238.062 24.1875C238.884 23.0022 238.884 23.0022 239.723 21.793C240.144 21.2013 240.566 20.6096 241 20C241.825 20.3094 242.65 20.6188 243.5 20.9375C248.372 21.0245 250.056 18.8249 253.461 15.5664C253.969 15.0495 254.477 14.5326 255 14C254.773 13.2369 254.546 12.4738 254.312 11.6875C254 9.00003 254 9.00003 255.129 7.32035C257.32 5.77443 259.432 4.83183 261.938 3.87503C262.792 3.54245 263.647 3.20988 264.527 2.86722C268.513 1.46931 271.763 0.88234 276 1.00003ZM265.938 8.00003C265.018 8.37128 264.099 8.74253 263.152 9.12503C262.442 9.41378 261.732 9.70253 261 10C261.248 11.2994 261.248 11.2994 261.5 12.625C261 16 261 16 259.359 17.5938C257.27 19.1109 255.14 20.5545 253 22C250.579 24.0814 250.579 24.0814 249 26C249 26.66 249 27.32 249 28C246.69 27.67 244.38 27.34 242 27C239.741 30.254 239.741 30.254 239 34C242.896 34.1165 246.791 34.1874 250.688 34.25C251.79 34.2835 252.893 34.3171 254.029 34.3516C260.379 34.5247 260.379 34.5247 266.082 32.0938C266.715 31.4028 267.348 30.7119 268 30C274.94 25.9515 282.832 25.7626 290.594 27.6211C297.237 30.1804 301.972 34.8649 305.098 41.2383C308.116 49.3655 307.64 55.8367 304.191 63.6719C300.929 70.047 296.65 73.4713 290 76C287.341 76.7974 284.719 77.4174 282 78C281.91 83.1517 282.153 87.9192 283 93C284.98 93 286.96 93 289 93C289.66 94.32 290.32 95.64 291 97C292.44 96.7434 293.877 96.4691 295.312 96.1875C296.113 96.0367 296.914 95.8859 297.738 95.7305C300.339 94.8907 301.441 94.2445 303 92C302.985 91.175 302.969 90.35 302.953 89.5C303 87 303 87 304.609 85.375C305.669 84.6944 305.669 84.6944 306.75 84C310.152 81.6719 312.598 79.4031 315 76C316.98 76.33 318.96 76.66 321 77C321.838 75.3775 322.67 73.7519 323.5 72.125C323.964 71.2201 324.428 70.3152 324.906 69.3828C326.139 67.1341 326.139 67.1341 326 65C324.68 64.34 323.36 63.68 322 63C322.246 61.7277 322.246 61.7277 322.496 60.4297C323.009 56.9355 323.099 53.6538 323.062 50.125C323.053 48.9726 323.044 47.8202 323.035 46.6328C323.024 45.764 323.012 44.8952 323 44C324.32 43.67 325.64 43.34 327 43C325.84 35.9137 325.84 35.9137 322 30C320.68 30.33 319.36 30.66 318 31C316.178 29.0914 314.368 27.174 312.562 25.25C312.046 24.7112 311.53 24.1724 310.998 23.6172C307.294 19.6468 306 17.365 306 12C302.7 10.35 299.4 8.70003 296 7.00003C295.34 8.32003 294.68 9.64003 294 11C287.4 10.67 280.8 10.34 274 10C273.34 8.68003 272.68 7.36003 272 6.00003C269.921 6.00003 267.827 7.23461 265.938 8.00003ZM268 35C268.722 35.5775 269.444 36.155 270.188 36.75C271.116 37.4925 272.044 38.235 273 39C274.299 39.9282 274.299 39.9282 275.625 40.875C280.13 44.9061 281.17 48.9502 281.512 54.836C281.584 57.0152 281.643 59.195 281.688 61.375C281.739 63.0515 281.739 63.0515 281.791 64.7618C281.873 67.5077 281.942 70.2534 282 73C288.19 72.2915 292.268 71.0571 297 67C301.663 61.0935 303.708 55.5943 303 48C301.667 40.9892 297.7 37.0477 292 33C284.344 28.2644 275.158 30.595 268 35ZM112 230C111.01 231.485 111.01 231.485 110 233C110.33 233.66 110.66 234.32 111 235C109.855 235.835 109.855 235.835 108.688 236.688C105.904 238.827 105.904 238.827 104.438 241.688C103 244 103 244 100.812 244.813C100.214 244.874 99.6162 244.936 99 245C98.67 246.32 98.34 247.64 98 249C98.66 249.33 99.32 249.66 100 250C100.468 252.337 100.827 254.697 101.125 257.063C101.293 258.353 101.46 259.643 101.633 260.973C101.754 261.972 101.875 262.971 102 264C101.34 264 100.68 264 100 264C100.33 265.65 100.66 267.3 101 269C101.681 269.041 102.361 269.083 103.062 269.125C106.739 270.22 108.693 272.126 111.449 274.723C112.922 276.212 112.922 276.212 115 276C114.67 277.32 114.34 278.64 114 280C116.397 280.68 116.397 280.68 119 281C119.66 280.34 120.32 279.68 121 279C121.99 279 122.98 279 124 279C124 276.36 124 273.72 124 271C123.408 270.853 122.817 270.706 122.207 270.555C116.259 268.866 113.442 267.163 110 262C108.402 257.205 107.994 252.511 109.906 247.738C113.017 242.344 116.361 240.054 122.375 238.313C122.911 238.209 123.447 238.106 124 238C124 235.69 124 233.38 124 231C119.545 231.495 119.545 231.495 115 232C115 231.34 115 230.68 115 230C114.01 230 113.02 230 112 230ZM115 247C112.414 250.409 112.635 253.839 113 258C114.67 261.675 116.549 263.908 120 266C121.32 266.33 122.64 266.66 124 267C124 259.08 124 251.16 124 243C119.925 243 118.195 244.553 115 247ZM58 254C57.8571 254.563 57.7142 255.127 57.567 255.707C56.0321 261.759 54.4948 267.809 52.9561 273.86C52.3619 276.197 51.7681 278.535 51.1747 280.873C48.2163 292.528 45.2543 304.179 42.0977 315.781C41.8825 316.575 41.6674 317.37 41.4458 318.188C40.4623 321.815 39.4677 325.438 38.4534 329.056C37.9389 330.943 37.9389 330.943 37.4141 332.867C37.1145 333.941 36.815 335.014 36.5063 336.121C35.9705 339.168 35.9783 341.084 37 344C38.9832 345.033 40.9835 346.034 43 347C43.33 348.32 43.66 349.64 44 351C52.25 351 60.5 351 69 351C71.7937 341.222 70.2383 333.687 68.135 323.907C65.7859 312.853 64.732 302.549 65.0625 291.25C65.4465 278.014 63.1769 266.521 59 254C58.67 254 58.34 254 58 254Z" fill="#84B455"/>
<path d="M276 1.00003C276.33 2.65003 276.66 4.30003 277 6.00003C281.29 6.00003 285.58 6.00003 290 6.00003C290.66 4.68003 291.32 3.36003 292 2.00003C299.457 2.33899 307.697 5.69733 313 11C312.801 11.7657 312.603 12.5314 312.398 13.3203C311.699 16.0891 311.699 16.0891 313.477 18.4922C314.54 19.6717 314.54 19.6717 315.625 20.875C316.319 21.6768 317.012 22.4786 317.727 23.3047C319.901 25.3185 319.901 25.3185 322.773 24.7578C323.508 24.5078 324.243 24.2577 325 24C330.331 31.169 332.487 38.0749 332 47C330.68 47 329.36 47 328 47C328.012 47.5917 328.023 48.1834 328.035 48.793C328.083 53.0024 328.06 56.8923 327 61C327.639 61.1238 328.279 61.2475 328.938 61.375C329.618 61.5813 330.299 61.7875 331 62C332 64 332 64 331.398 66.3203C329.191 72.3702 326.694 77.7163 323 83C322.154 82.6907 321.309 82.3813 320.438 82.0625C317.049 81.6373 317.049 81.6373 315.113 83.4922C313.883 84.7768 312.682 86.0909 311.516 87.4336C311.015 87.9505 310.515 88.4675 310 89C309.34 89 308.68 89 308 89C308.33 91.31 308.66 93.62 309 96C295.444 102.752 295.444 102.752 288 103C287.34 102.34 286.68 101.68 286 101C286 100.01 286 99.02 286 98C285.01 98 284.02 98 283 98C283.33 129.35 283.66 160.7 284 193C294.713 186.304 303.278 180.689 312 172C312.887 172.784 313.774 173.568 314.688 174.375C333.39 190.298 352.815 199.318 376 207C376.032 220.645 376.018 234.288 375.792 247.931C375.764 249.861 375.743 251.791 375.729 253.72C375.614 268.897 374.713 283.537 367.312 297.188C366.968 297.844 366.623 298.499 366.268 299.175C355.671 318.876 336.034 341.597 314 349C309.069 348.775 305.812 346.984 301.688 344.375C301.126 344.021 300.565 343.667 299.987 343.303C294.779 339.966 289.394 336.394 285 332C284.853 332.87 284.853 332.87 284.703 333.758C283.301 341.084 281.119 345.41 275 350C304.04 350.33 333.08 350.66 363 351C363.33 352.32 363.66 353.64 364 355C363 356 363 356 360.548 356.124C359.446 356.124 358.344 356.123 357.208 356.123C355.308 356.126 355.308 356.126 353.37 356.129C351.946 356.126 350.523 356.123 349.099 356.12C347.601 356.121 346.103 356.122 344.604 356.123C340.468 356.125 336.331 356.121 332.195 356.116C327.741 356.112 323.288 356.113 318.835 356.114C311.113 356.115 303.39 356.111 295.668 356.106C284.503 356.098 273.338 356.095 262.173 356.094C244.06 356.092 225.947 356.085 207.834 356.075C190.235 356.066 172.635 356.059 155.035 356.055C153.951 356.055 152.867 356.054 151.751 356.054C146.313 356.053 140.875 356.052 135.437 356.05C90.2911 356.04 45.1456 356.022 0 356C0.33 354.35 0.66 352.7 1 351C8.59 351 16.18 351 24 351C24.6346 344.654 25.22 338.342 25.6484 331.984C25.7677 330.303 25.8875 328.622 26.0078 326.941C26.1925 324.351 26.3743 321.761 26.5469 319.169C28.2068 294.408 28.2068 294.408 32.7031 283.719C34.3317 279.049 34.1561 275.367 33.75 270.5C33.6921 269.619 33.6341 268.738 33.5745 267.831C33.4003 265.219 33.2042 262.61 33 260C31.2014 236.409 30.0089 213.794 39.0049 191.541C41.0307 186.393 41.5855 182.465 41 177C34.8627 181.536 30.8447 187.118 26.5742 193.336C24.9335 195.716 23.2321 197.995 21.3945 200.227C16.3655 206.415 13.5502 210.868 14 219C10.2984 219.947 8.60888 220.304 5.125 218.563C4.42375 218.047 3.7225 217.531 3 217C3.50302 211.684 4.8631 207.604 7.375 202.875C7.72659 202.199 8.07818 201.523 8.44043 200.827C9.21113 199.346 9.98537 197.868 10.7627 196.391C12.0661 193.872 13.3128 191.331 14.5547 188.781C20.1344 177.487 26.1565 167.985 35 159C36.3013 157.623 36.3013 157.623 37.6289 156.219C43.0068 150.9 47.4007 148.501 55 148C55 147.34 55 146.68 55 146C54.2987 145.979 53.5975 145.959 52.875 145.938C49.3061 144.774 47.5132 143.473 45.1797 140.547C42.1821 134.075 42.9377 125.639 44.8906 118.949C47.8162 112.523 51.8873 107.855 58.3555 104.938C65.7721 102.362 72.1256 102.526 79.3125 105.688C83.1213 107.816 85.1675 109.953 87 114C87.298 117.034 87.2429 119.964 87 123C85.515 123.495 85.515 123.495 84 124C83.9626 124.58 83.9252 125.16 83.8867 125.758C83.4568 130.867 82.4952 134.444 80 139C80 139.99 80 140.98 80 142C80.66 142.33 81.32 142.66 82 143C81.5 144.938 81.5 144.938 80 147C77.3034 147.688 74.7983 147.819 72 148C74.2367 150.407 76.5588 152.112 79.3438 153.848C80.1778 154.37 81.0118 154.893 81.8711 155.432C83.1724 156.239 83.1724 156.239 84.5 157.063C86.2189 158.137 87.9376 159.211 89.6562 160.285C90.4174 160.758 91.1786 161.232 91.9629 161.719C93.6592 162.786 95.3327 163.889 97 165C97.8021 159.373 98.1595 153.931 98.125 148.25C98.1231 147.472 98.1211 146.693 98.1191 145.891C98.0721 139.562 97.691 133.293 97 127C98.485 127.495 98.485 127.495 100 128C100.495 130.475 100.495 130.475 101 133C102.207 133.217 102.207 133.217 103.438 133.438C106 134 106 134 107 135C106.794 136.258 106.588 137.516 106.375 138.813C105.716 143.989 106.856 148.182 108.23 153.16C110.804 162.659 111.509 173.71 108 183C107 184 107 184 103.438 184.438C95.4711 184.412 87.0324 180.516 80 177C79.6849 178.52 79.3731 180.041 79.0625 181.563C78.8015 182.833 78.8015 182.833 78.5352 184.129C78.3586 185.076 78.182 186.024 78 187C77.7744 188.097 77.5488 189.194 77.3164 190.324C76.8838 195.349 78.095 199.463 79.4414 204.273C80.7949 209.63 81.2796 214.942 81.5547 220.447C81.5968 221.275 81.6388 222.104 81.6822 222.957C82.1533 233.102 82.1446 243.245 82.1328 253.398C82.1335 255.493 82.1345 257.587 82.1357 259.681C82.1372 264.032 82.1351 268.383 82.1304 272.735C82.1247 278.279 82.128 283.822 82.1339 289.366C82.1376 293.676 82.1364 297.987 82.1338 302.297C82.1332 304.34 82.1339 306.384 82.1363 308.427C82.1458 319.001 82.0815 329.471 81 340C81.66 340 82.32 340 83 340C83.0413 340.619 83.0825 341.238 83.125 341.875C83.4137 342.576 83.7025 343.278 84 344C84.99 344.33 85.98 344.66 87 345C87.99 345.33 88.98 345.66 90 346C90.33 347.32 90.66 348.64 91 350C104.2 350 117.4 350 131 350C129.35 348.35 127.7 346.7 126 345C123.916 341.831 123.755 339.348 123.773 335.589C123.773 334.508 123.773 333.427 123.773 332.314C123.784 331.153 123.794 329.993 123.805 328.797C123.808 327.604 123.81 326.411 123.813 325.182C123.824 321.371 123.85 317.561 123.875 313.75C123.885 311.167 123.894 308.583 123.902 306C123.924 299.667 123.958 293.333 124 287C123.071 286.906 123.071 286.906 122.122 286.809C120.905 286.681 120.905 286.681 119.662 286.55C118.857 286.466 118.052 286.383 117.222 286.297C113.344 285.779 110.089 284.396 107 282C106 279.25 106 279.25 106 277C103.199 275.969 103.199 275.969 100.98 275.703C98.2071 274.719 97.6612 273.32 96.3125 270.75C95.8961 269.982 95.4798 269.213 95.0508 268.422C93.9761 265.945 93.429 263.659 93 261C93.99 261 94.98 261 96 261C96 258.69 96 256.38 96 254C95.01 254 94.02 254 93 254C92.4973 248.093 93.5572 242.952 97 238C99.0273 237.359 99.0273 237.359 101 237C102.882 235.213 102.882 235.213 104 233C103.67 232.01 103.34 231.02 103 230C107.9 226.665 112.206 224.328 118 223C118.33 223.99 118.66 224.98 119 226C120.65 226 122.3 226 124 226C123.994 225.292 123.988 224.584 123.982 223.854C123.834 206.602 123.692 189.349 123.557 172.096C123.492 163.753 123.424 155.41 123.352 147.066C123.289 139.792 123.23 132.517 123.175 125.242C123.146 121.393 123.115 117.543 123.079 113.694C123.046 110.065 123.018 106.437 122.993 102.808C122.979 100.852 122.959 98.8965 122.939 96.9409C122.901 90.531 123.129 84.3527 124 78C123.328 78.0045 122.656 78.0089 121.963 78.0135C114.988 78.0576 108.014 78.0879 101.039 78.1099C98.4331 78.12 95.8276 78.1336 93.2222 78.1509C89.484 78.1751 85.746 78.1865 82.0078 78.1953C80.2515 78.2108 80.2515 78.2108 78.4597 78.2266C76.8383 78.2269 76.8383 78.2269 75.1841 78.2271C74.2292 78.2315 73.2744 78.236 72.2906 78.2405C70 78 70 78 68 76C67.7595 73.5956 67.7595 73.5956 67.7729 70.5406C67.7731 69.3995 67.7733 68.2585 67.7734 67.0829C67.7837 65.8464 67.7941 64.6099 67.8047 63.336C67.8075 62.0736 67.8103 60.8113 67.8133 59.5107C67.8226 56.1536 67.8406 52.7967 67.8627 49.4397C67.8831 46.0145 67.8923 42.5893 67.9023 39.1641C67.9244 32.4427 67.9579 25.7214 68 19C66.515 18.505 66.515 18.505 65 18C65.99 18 66.98 18 68 18C67.9768 17.0848 67.9536 16.1696 67.9297 15.2266C67.9116 14.0381 67.8936 12.8496 67.875 11.625C67.8518 10.4417 67.8286 9.25831 67.8047 8.0391C68 5.00003 68 5.00003 70 3.00003C72.1302 2.74556 72.1302 2.74556 74.8207 2.73934C75.8387 2.73225 76.8566 2.72517 77.9054 2.71787C79.0265 2.72034 80.1477 2.72282 81.3027 2.72537C83.0686 2.71771 83.0686 2.71771 84.8702 2.70989C88.1036 2.69835 91.3369 2.69592 94.5703 2.69845C97.2668 2.69952 99.9633 2.69464 102.66 2.68984C109.019 2.67874 115.378 2.67832 121.738 2.68436C128.306 2.6904 134.873 2.67808 141.441 2.65679C147.074 2.6392 152.707 2.63317 158.34 2.63643C161.707 2.63824 165.074 2.63557 168.441 2.62171C172.193 2.60944 175.945 2.61608 179.697 2.62772C180.818 2.62007 181.939 2.61243 183.095 2.60456C184.113 2.61157 185.131 2.61858 186.179 2.62581C187.067 2.62564 187.955 2.62548 188.87 2.6253C189.573 2.74896 190.276 2.87262 191 3.00003C193.422 6.63309 193.233 8.31822 193.195 12.6368C193.19 13.8068 193.185 14.9769 193.18 16.1824C193.162 17.6691 193.144 19.1558 193.125 20.6875C193.084 25.4107 193.043 30.1338 193 35C206.53 34.67 220.06 34.34 234 34C234.33 32.35 234.66 30.7 235 29C236.41 26.543 236.41 26.543 238.062 24.1875C238.884 23.0022 238.884 23.0022 239.723 21.793C240.144 21.2013 240.566 20.6096 241 20C241.825 20.3094 242.65 20.6188 243.5 20.9375C248.372 21.0245 250.056 18.8249 253.461 15.5664C253.969 15.0495 254.477 14.5326 255 14C254.773 13.2369 254.546 12.4738 254.312 11.6875C254 9.00003 254 9.00003 255.129 7.32035C257.32 5.77443 259.432 4.83183 261.938 3.87503C262.792 3.54245 263.647 3.20988 264.527 2.86722C268.513 1.46931 271.763 0.88234 276 1.00003ZM265.938 8.00003C265.018 8.37128 264.099 8.74253 263.152 9.12503C262.442 9.41378 261.732 9.70253 261 10C261.248 11.2994 261.248 11.2994 261.5 12.625C261 16 261 16 259.359 17.5938C257.27 19.1109 255.14 20.5545 253 22C250.579 24.0814 250.579 24.0814 249 26C249 26.66 249 27.32 249 28C246.69 27.67 244.38 27.34 242 27C239.741 30.254 239.741 30.254 239 34C242.896 34.1165 246.791 34.1874 250.688 34.25C251.79 34.2835 252.893 34.3171 254.029 34.3516C260.379 34.5247 260.379 34.5247 266.082 32.0938C266.715 31.4028 267.348 30.7119 268 30C274.94 25.9515 282.832 25.7626 290.594 27.6211C297.237 30.1804 301.972 34.8649 305.098 41.2383C308.116 49.3655 307.64 55.8367 304.191 63.6719C300.929 70.047 296.65 73.4713 290 76C287.341 76.7974 284.719 77.4174 282 78C281.91 83.1517 282.153 87.9192 283 93C284.98 93 286.96 93 289 93C289.66 94.32 290.32 95.64 291 97C292.44 96.7434 293.877 96.4691 295.312 96.1875C296.113 96.0367 296.914 95.8859 297.738 95.7305C300.339 94.8907 301.441 94.2445 303 92C302.985 91.175 302.969 90.35 302.953 89.5C303 87 303 87 304.609 85.375C305.669 84.6944 305.669 84.6944 306.75 84C310.152 81.6719 312.598 79.4031 315 76C316.98 76.33 318.96 76.66 321 77C321.838 75.3775 322.67 73.7519 323.5 72.125C323.964 71.2201 324.428 70.3152 324.906 69.3828C326.139 67.1341 326.139 67.1341 326 65C324.68 64.34 323.36 63.68 322 63C322.246 61.7277 322.246 61.7277 322.496 60.4297C323.009 56.9355 323.099 53.6538 323.062 50.125C323.053 48.9726 323.044 47.8202 323.035 46.6328C323.024 45.764 323.012 44.8952 323 44C324.32 43.67 325.64 43.34 327 43C325.84 35.9137 325.84 35.9137 322 30C320.68 30.33 319.36 30.66 318 31C316.178 29.0914 314.368 27.174 312.562 25.25C312.046 24.7112 311.53 24.1724 310.998 23.6172C307.294 19.6468 306 17.365 306 12C302.7 10.35 299.4 8.70003 296 7.00003C295.34 8.32003 294.68 9.64003 294 11C287.4 10.67 280.8 10.34 274 10C273.34 8.68003 272.68 7.36003 272 6.00003C269.921 6.00003 267.827 7.23461 265.938 8.00003ZM268 35C268.722 35.5775 269.444 36.155 270.188 36.75C271.116 37.4925 272.044 38.235 273 39C274.299 39.9282 274.299 39.9282 275.625 40.875C280.13 44.9061 281.17 48.9502 281.512 54.836C281.584 57.0152 281.643 59.195 281.688 61.375C281.739 63.0515 281.739 63.0515 281.791 64.7618C281.873 67.5077 281.942 70.2534 282 73C288.19 72.2915 292.268 71.0571 297 67C301.663 61.0935 303.708 55.5943 303 48C301.667 40.9892 297.7 37.0477 292 33C284.344 28.2644 275.158 30.595 268 35ZM128 43C126.147 46.1183 125.749 48.4039 125.743 52.0145C125.736 53.0312 125.73 54.0479 125.723 55.0954C125.726 56.2106 125.729 57.3258 125.733 58.4747C125.728 59.6608 125.724 60.8469 125.719 62.0689C125.708 65.3624 125.707 68.6556 125.709 71.949C125.71 75.5006 125.699 79.0522 125.689 82.6038C125.672 89.5629 125.667 96.5221 125.666 103.481C125.665 109.138 125.661 114.796 125.654 120.453C125.637 136.492 125.628 152.531 125.629 168.57C125.629 169.435 125.629 170.3 125.629 171.191C125.629 172.057 125.63 172.923 125.63 173.815C125.63 187.845 125.611 201.875 125.583 215.905C125.554 230.31 125.541 244.716 125.542 259.121C125.543 267.209 125.537 275.297 125.516 283.384C125.498 290.271 125.493 297.158 125.507 304.045C125.514 307.558 125.514 311.071 125.496 314.584C125.481 318.395 125.49 322.206 125.506 326.017C125.495 327.124 125.485 328.23 125.474 329.37C125.531 335.69 126.086 340.848 130 346C133.477 348.86 136.138 349.377 140.579 349.394C142.244 349.411 142.244 349.411 143.943 349.429C145.152 349.426 146.36 349.423 147.605 349.42C148.886 349.428 150.166 349.437 151.485 349.446C154.989 349.468 158.493 349.471 161.997 349.469C164.924 349.469 167.852 349.477 170.779 349.486C177.686 349.505 184.592 349.508 191.499 349.501C198.621 349.494 205.742 349.517 212.863 349.554C218.983 349.585 225.101 349.596 231.221 349.592C234.873 349.59 238.526 349.596 242.178 349.62C246.251 349.647 250.322 349.633 254.395 349.615C255.603 349.629 256.811 349.642 258.057 349.655C264.715 349.796 264.715 349.796 270.225 346.587C275.314 339.17 274.202 327.643 273 319C271.406 315.598 269.833 313.694 267.16 311.102C256.159 300.399 250.796 280.19 250.531 265.355C250.507 263.18 250.497 261.006 250.488 258.832C250.471 257.301 250.453 255.769 250.434 254.238C250.387 250.245 250.357 246.252 250.33 242.259C250.3 238.169 250.254 234.08 250.209 229.99C250.123 221.994 250.056 213.997 250 206C251.487 205.832 251.487 205.832 253.004 205.66C257.164 205.066 260.982 203.823 264.938 202.438C265.621 202.204 266.305 201.97 267.01 201.729C268.675 201.158 270.338 200.58 272 200C272.07 180.303 272.123 160.605 272.155 140.908C272.171 131.762 272.192 122.616 272.226 113.47C272.256 105.497 272.276 97.5243 272.282 89.5517C272.286 85.331 272.295 81.1105 272.317 76.8899C272.338 72.9148 272.344 68.94 272.339 64.9648C272.34 63.5084 272.346 62.0519 272.358 60.5955C272.681 50.3001 272.681 50.3001 269 41C264.532 36.5589 260.194 36.5146 254.208 36.4357C252.462 36.4431 252.462 36.4431 250.68 36.4507C248.823 36.4354 248.823 36.4354 246.928 36.4197C243.544 36.3967 240.16 36.3918 236.775 36.3969C233.945 36.399 231.114 36.3892 228.284 36.3797C221.604 36.3575 214.924 36.3566 208.244 36.3687C201.364 36.3808 194.484 36.3561 187.604 36.3135C181.686 36.2783 175.769 36.2663 169.851 36.2728C166.321 36.2764 162.792 36.2712 159.262 36.2434C155.324 36.2135 151.387 36.2322 147.449 36.2554C146.287 36.2401 145.125 36.2248 143.927 36.2091C136.909 36.3004 132.412 37.2595 128 43ZM112 230C111.01 231.485 111.01 231.485 110 233C110.33 233.66 110.66 234.32 111 235C109.855 235.835 109.855 235.835 108.688 236.688C105.904 238.827 105.904 238.827 104.438 241.688C103 244 103 244 100.812 244.813C100.214 244.874 99.6162 244.936 99 245C98.67 246.32 98.34 247.64 98 249C98.66 249.33 99.32 249.66 100 250C100.468 252.337 100.827 254.697 101.125 257.063C101.293 258.353 101.46 259.643 101.633 260.973C101.754 261.972 101.875 262.971 102 264C101.34 264 100.68 264 100 264C100.33 265.65 100.66 267.3 101 269C101.681 269.041 102.361 269.083 103.062 269.125C106.739 270.22 108.693 272.126 111.449 274.723C112.922 276.212 112.922 276.212 115 276C114.67 277.32 114.34 278.64 114 280C116.397 280.68 116.397 280.68 119 281C119.66 280.34 120.32 279.68 121 279C121.99 279 122.98 279 124 279C124 276.36 124 273.72 124 271C123.408 270.853 122.817 270.706 122.207 270.555C116.259 268.866 113.442 267.163 110 262C108.402 257.205 107.994 252.511 109.906 247.738C113.017 242.344 116.361 240.054 122.375 238.313C122.911 238.209 123.447 238.106 124 238C124 235.69 124 233.38 124 231C119.545 231.495 119.545 231.495 115 232C115 231.34 115 230.68 115 230C114.01 230 113.02 230 112 230ZM115 247C112.414 250.409 112.635 253.839 113 258C114.67 261.675 116.549 263.908 120 266C121.32 266.33 122.64 266.66 124 267C124 259.08 124 251.16 124 243C119.925 243 118.195 244.553 115 247ZM58 254C57.8571 254.563 57.7142 255.127 57.567 255.707C56.0321 261.759 54.4948 267.809 52.9561 273.86C52.3619 276.197 51.7681 278.535 51.1747 280.873C48.2163 292.528 45.2543 304.179 42.0977 315.781C41.8825 316.575 41.6674 317.37 41.4458 318.188C40.4623 321.815 39.4677 325.438 38.4534 329.056C37.9389 330.943 37.9389 330.943 37.4141 332.867C37.1145 333.941 36.815 335.014 36.5063 336.121C35.9705 339.168 35.9783 341.084 37 344C38.9832 345.033 40.9835 346.034 43 347C43.33 348.32 43.66 349.64 44 351C52.25 351 60.5 351 69 351C71.7937 341.222 70.2383 333.687 68.135 323.907C65.7859 312.853 64.732 302.549 65.0625 291.25C65.4465 278.014 63.1769 266.521 59 254C58.67 254 58.34 254 58 254Z" fill="#C4C4C3"/>
<path d="M314 179C314 179.66 314 180.32 314 181C314.562 181.257 315.124 181.513 315.703 181.777C318.28 183.149 320.435 184.783 322.75 186.562C334.25 194.989 346.629 201.14 360 206C360.916 206.333 361.833 206.667 362.777 207.01C363.754 207.366 364.731 207.721 365.737 208.087C366.724 208.445 367.71 208.804 368.727 209.174C369.477 209.446 370.227 209.719 371 210C371.094 217.677 371.164 225.354 371.207 233.031C371.228 236.598 371.256 240.164 371.302 243.731C371.681 274.054 371.681 274.054 367 287C366.417 288.656 366.417 288.656 365.823 290.346C358.492 310.192 341.411 326.873 324.187 338.5C323.254 339.133 323.254 339.133 322.302 339.778C318.687 342.142 315.299 344.182 311 345C289.948 337.65 271.223 314.852 261.187 296.25C253.002 278.52 253.487 260.713 253.725 241.628C253.767 237.94 253.785 234.252 253.805 230.564C253.847 223.376 253.915 216.188 254 209C254.84 208.712 254.84 208.712 255.696 208.418C258.282 207.528 260.865 206.633 263.449 205.738C264.329 205.436 265.209 205.134 266.116 204.823C281.781 199.383 296.652 192.073 309.301 181.199C312 179 312 179 314 179Z" fill="#B4E233"/>
<path d="M83 108C86.3296 111.579 87.2201 114.107 87.25 118.875C87.1864 120.251 87.1099 121.627 87 123C85.515 123.495 85.515 123.495 84 124C83.9626 124.58 83.9252 125.16 83.8867 125.758C83.4568 130.867 82.4952 134.444 80 139C80 139.99 80 140.98 80 142C80.66 142.33 81.32 142.66 82 143C81.5 144.938 81.5 144.938 80 147C77.3034 147.688 74.7983 147.82 72 148C74.2367 150.407 76.5588 152.112 79.3438 153.848C80.1778 154.37 81.0118 154.893 81.8711 155.432C82.7386 155.97 83.6062 156.508 84.5 157.063C86.2189 158.137 87.9376 159.211 89.6562 160.285C90.4174 160.758 91.1786 161.232 91.9629 161.719C93.6592 162.786 95.3327 163.889 97 165C97.8021 159.373 98.1595 153.931 98.125 148.25C98.1231 147.472 98.1211 146.693 98.1191 145.891C98.0721 139.562 97.691 133.294 97 127C98.485 127.495 98.485 127.495 100 128C100.495 130.475 100.495 130.475 101 133C101.804 133.144 102.609 133.289 103.438 133.438C106 134 106 134 107 135C106.794 136.258 106.588 137.516 106.375 138.813C105.716 143.989 106.856 148.182 108.23 153.16C110.804 162.659 111.509 173.711 108 183C107 184 107 184 103.438 184.438C95.4711 184.412 87.0324 180.516 80 177C79.6849 178.52 79.3731 180.041 79.0625 181.563C78.8885 182.409 78.7145 183.256 78.5352 184.129C78.3586 185.076 78.182 186.024 78 187C77.7744 188.097 77.5488 189.194 77.3164 190.324C76.8838 195.349 78.095 199.463 79.4414 204.274C80.7957 209.633 81.2797 214.947 81.5547 220.456C81.5968 221.284 81.6388 222.113 81.6822 222.967C82.1511 233.062 82.1446 243.154 82.1328 253.258C82.1335 255.342 82.1345 257.427 82.1357 259.511C82.1372 263.846 82.1351 268.181 82.1304 272.515C82.1247 278.023 82.128 283.53 82.1339 289.038C82.1376 293.331 82.1364 297.624 82.1338 301.918C82.1332 303.947 82.1339 305.976 82.1363 308.005C82.1472 320.042 81.8727 331.992 81 344C73.25 344.125 73.25 344.125 71 343C70.3157 340.6 69.763 338.27 69.2734 335.828C69.0445 334.716 69.0445 334.716 68.8109 333.582C68.3177 331.14 67.844 328.696 67.375 326.25C67.2126 325.417 67.0502 324.584 66.8829 323.725C64.4855 311.228 63.5672 299.58 63.9934 286.834C64.2587 276.598 62.5325 267.59 59 258C58.67 257.67 58.34 257.34 58 257C57.5333 258.891 57.5333 258.891 57.0571 260.819C46.5898 303.167 46.5898 303.167 41.0187 323.97C40.5904 325.57 40.1643 327.171 39.7405 328.773C39.1545 330.984 38.5594 333.191 37.9609 335.399C37.6288 336.633 37.2967 337.867 36.9546 339.138C36 342 36 342 34 344C31.8359 343.977 31.8359 343.977 29.375 343.625C28.5577 343.514 27.7405 343.403 26.8984 343.289C26.272 343.194 25.6455 343.098 25 343C25.3591 337.416 25.7321 331.834 26.1169 326.252C26.2456 324.359 26.3707 322.466 26.4919 320.573C28.1657 294.537 28.1657 294.537 32.7031 283.719C34.3317 279.049 34.1561 275.367 33.75 270.5C33.6921 269.619 33.6341 268.738 33.5745 267.831C33.4003 265.219 33.2042 262.61 33 260C31.2014 236.409 30.0089 213.794 39.0049 191.541C41.0307 186.393 41.5855 182.465 41 177C34.8627 181.536 30.8447 187.118 26.5742 193.336C24.9335 195.716 23.2321 197.995 21.3945 200.227C16.3655 206.415 13.5502 210.868 14 219C10.2984 219.947 8.60888 220.305 5.125 218.563C4.42375 218.047 3.7225 217.531 3 217C3.50302 211.684 4.8631 207.604 7.375 202.875C7.72659 202.199 8.07818 201.523 8.44043 200.827C9.21113 199.346 9.98537 197.868 10.7627 196.391C12.0661 193.872 13.3128 191.331 14.5547 188.781C20.1344 177.487 26.1565 167.985 35 159C35.8675 158.082 36.7351 157.164 37.6289 156.219C43.0068 150.9 47.4007 148.501 55 148C55 147.34 55 146.68 55 146C53.9481 145.969 53.9481 145.969 52.875 145.938C49.3061 144.774 47.5132 143.473 45.1797 140.547C42.1821 134.075 42.9377 125.639 44.8906 118.949C47.8162 112.523 51.8873 107.855 58.3555 104.938C67.0889 101.905 75.3434 102.608 83 108Z" fill="#ADFA1D"/>
<path d="M313 180C316.529 182.117 319.58 184.151 322.813 186.625C334.312 195.022 346.651 201.148 360 206C360.916 206.333 361.833 206.667 362.777 207.01C363.754 207.366 364.731 207.721 365.737 208.087C366.724 208.445 367.711 208.804 368.727 209.174C369.477 209.446 370.227 209.719 371 210C371.094 217.677 371.164 225.354 371.207 233.031C371.228 236.598 371.256 240.164 371.302 243.731C371.681 274.054 371.681 274.054 367 287C366.612 288.104 366.223 289.208 365.823 290.346C358.473 310.243 341.345 326.937 324.063 338.562C323.423 338.993 322.784 339.423 322.126 339.866C319.107 341.835 316.519 343.257 313 344C312.767 336.159 312.59 328.318 312.482 320.474C312.43 316.83 312.36 313.188 312.246 309.545C311.352 280.335 311.352 280.335 320.395 270.455C321.255 269.645 322.114 268.835 323 268C324.511 266.259 326.013 264.511 327.5 262.75C328.991 261.158 330.491 259.574 332 258C332.768 257.169 333.537 256.337 334.328 255.48C341.933 247.496 350.521 241.589 360 236C359.67 234.35 359.34 232.7 359 231C342.796 231.935 327.999 242.651 316.637 253.602C315 255 315 255 313 255C313 230.25 313 205.5 313 180Z" fill="#84B555"/>
<path d="M147.222 36.4824C149.082 36.4719 149.082 36.4719 150.979 36.4612C154.372 36.4466 157.763 36.45 161.156 36.4627C164.712 36.4728 168.267 36.4634 171.822 36.4571C177.793 36.4499 183.764 36.4594 189.735 36.4785C196.631 36.5003 203.526 36.4932 210.421 36.4712C216.348 36.453 222.275 36.4505 228.203 36.4609C231.74 36.4672 235.276 36.468 238.813 36.4548C242.759 36.4411 246.703 36.4601 250.648 36.4824C252.399 36.4703 252.399 36.4703 254.186 36.4579C264.547 36.5663 264.547 36.5663 269 41C273.3 47.5606 272.401 55.162 272.341 62.7478C272.34 64.2463 272.34 65.7449 272.342 67.2434C272.343 71.2967 272.325 75.3497 272.304 79.403C272.285 83.6444 272.284 87.8858 272.28 92.1272C272.271 100.152 272.246 108.177 272.216 116.202C272.183 125.341 272.166 134.48 272.151 143.619C272.12 162.413 272.067 181.206 272 200C270.68 200.33 269.36 200.66 268 201C267.867 187.349 267.737 173.697 267.609 160.046C267.549 153.702 267.489 147.358 267.427 141.015C267.367 134.855 267.309 128.695 267.252 122.535C267.231 120.224 267.208 117.912 267.185 115.601C266.971 94.0655 267 72.5384 267 51C221.79 51 176.58 51 130 51C130 145.05 130 239.1 130 336C175.87 336 221.74 336 269 336C269 329.4 269 322.8 269 316C273 319 273 319 273.502 321.373C273.5 322.289 273.498 323.205 273.496 324.148C273.497 325.154 273.497 326.159 273.498 327.195C273.478 328.245 273.458 329.294 273.438 330.375C273.445 331.417 273.452 332.458 273.459 333.531C273.379 343.136 273.379 343.136 270 347C266.654 349.23 265.575 349.254 261.668 349.267C260.009 349.28 260.009 349.28 258.317 349.293C257.102 349.292 255.888 349.291 254.637 349.29C253.359 349.297 252.081 349.304 250.764 349.311C247.256 349.329 243.747 349.333 240.239 349.334C238.046 349.336 235.854 349.34 233.661 349.345C226.01 349.364 218.358 349.372 210.707 349.371C203.578 349.369 196.45 349.39 189.322 349.422C183.2 349.448 177.077 349.459 170.955 349.458C167.299 349.457 163.644 349.463 159.989 349.484C155.909 349.507 151.83 349.498 147.751 349.486C146.543 349.497 145.335 349.508 144.09 349.52C133.409 349.439 133.409 349.439 129 345C125.529 338.785 125.574 333.165 125.612 326.151C125.607 324.961 125.602 323.771 125.596 322.545C125.584 319.254 125.586 315.964 125.593 312.673C125.598 309.12 125.585 305.566 125.575 302.013C125.558 295.057 125.557 288.101 125.562 281.145C125.566 275.491 125.565 269.838 125.56 264.185C125.559 263.38 125.558 262.575 125.557 261.745C125.556 260.11 125.554 258.475 125.553 256.839C125.539 241.51 125.544 226.181 125.556 210.852C125.566 196.828 125.553 182.803 125.529 168.779C125.505 154.375 125.495 139.972 125.502 125.568C125.505 117.483 125.503 109.398 125.485 101.312C125.471 94.4312 125.47 87.5502 125.487 80.669C125.496 77.1583 125.498 73.6479 125.483 70.1373C125.466 66.332 125.481 62.5272 125.499 58.7219C125.489 57.6119 125.48 56.5019 125.47 55.3582C125.529 49.2275 125.939 45.6838 130 41C130.655 40.2269 131.311 39.4538 131.986 38.6573C136.856 35.9793 141.757 36.4446 147.222 36.4824Z" fill="#070706"/>
<path d="M276 1.00003C276.33 2.65003 276.66 4.30003 277 6.00003C281.29 6.00003 285.58 6.00003 290 6.00003C290.66 4.68003 291.32 3.36003 292 2.00003C299.457 2.33899 307.697 5.69733 313 11C312.801 11.7657 312.603 12.5314 312.398 13.3203C311.699 16.0891 311.699 16.0891 313.477 18.4922C314.54 19.6717 314.54 19.6717 315.625 20.875C316.319 21.6768 317.012 22.4786 317.727 23.3047C319.901 25.3185 319.901 25.3185 322.773 24.7578C323.508 24.5078 324.243 24.2577 325 24C330.331 31.169 332.487 38.0749 332 47C330.68 47 329.36 47 328 47C328.012 47.5917 328.023 48.1834 328.035 48.793C328.083 53.0024 328.06 56.8923 327 61C327.959 61.1857 327.959 61.1857 328.938 61.375C329.958 61.6844 329.958 61.6844 331 62C332 64 332 64 331.398 66.3203C329.191 72.3702 326.694 77.7163 323 83C322.154 82.6907 321.309 82.3813 320.438 82.0625C317.049 81.6373 317.049 81.6373 315.113 83.4922C313.883 84.7768 312.682 86.0909 311.516 87.4336C311.015 87.9505 310.515 88.4675 310 89C309.34 89 308.68 89 308 89C308.33 91.31 308.66 93.62 309 96C295.444 102.752 295.444 102.752 288 103C287.34 102.34 286.68 101.68 286 101C286 100.01 286 99.02 286 98C285.01 98 284.02 98 283 98C283.33 129.35 283.66 160.7 284 193C294.713 186.304 303.278 180.689 312 172C312.887 172.784 313.774 173.568 314.688 174.375C333.39 190.298 352.815 199.318 376 207C376.032 220.645 376.018 234.288 375.792 247.931C375.764 249.861 375.743 251.791 375.729 253.72C375.614 268.897 374.713 283.537 367.312 297.188C366.968 297.844 366.623 298.499 366.268 299.175C355.671 318.876 336.034 341.597 314 349C300.03 348.363 286.128 333.415 277 324C276.154 323.196 275.309 322.391 274.438 321.563C257.732 304 249.445 282.88 249.707 258.832C249.713 257.301 249.717 255.77 249.72 254.238C249.731 250.245 249.761 246.252 249.794 242.259C249.825 238.169 249.838 234.08 249.854 229.99C249.886 221.993 249.937 213.997 250 206C253.29 204.996 256.582 203.997 259.875 203C260.812 202.714 261.749 202.428 262.715 202.133C263.611 201.862 264.507 201.591 265.43 201.313C266.671 200.935 266.671 200.935 267.937 200.551C270 200 270 200 272 200C271.939 180.302 271.862 160.605 271.764 140.908C271.719 131.762 271.68 122.616 271.654 113.47C271.631 105.497 271.597 97.5243 271.551 89.5517C271.527 85.3311 271.509 81.1106 271.502 76.8899C271.496 72.9147 271.476 68.9399 271.446 64.9648C271.437 63.5084 271.433 62.052 271.435 60.5955C271.673 50.3118 271.673 50.3118 268 41C264.429 38.4066 261.945 37.6257 257.56 37.6325C256.48 37.627 255.4 37.6214 254.288 37.6157C253.114 37.6249 251.94 37.6341 250.73 37.6436C249.486 37.6415 248.241 37.6395 246.959 37.6374C243.554 37.6349 240.15 37.6458 236.745 37.6629C233.18 37.678 229.616 37.6768 226.051 37.6776C220.067 37.6813 214.084 37.6962 208.1 37.7188C200.418 37.7477 192.737 37.758 185.055 37.7625C178.45 37.7664 171.845 37.7789 165.239 37.7928C163.116 37.7969 160.993 37.7998 158.869 37.8026C154.917 37.8084 150.964 37.8231 147.011 37.8389C145.833 37.84 144.655 37.8411 143.441 37.8423C142.367 37.848 141.293 37.8537 140.186 37.8596C139.252 37.8626 138.317 37.8655 137.354 37.8686C134.847 37.9051 134.847 37.9051 132 39C132 38.01 132 37.02 132 36C134.797 35.2111 137.299 34.8679 140.201 34.8418C141.447 34.8271 141.447 34.8271 142.717 34.8122C143.619 34.8064 144.521 34.8006 145.45 34.7947C146.885 34.7799 146.885 34.7799 148.348 34.7647C151.508 34.7331 154.668 34.7084 157.828 34.6836C160.02 34.6631 162.211 34.6421 164.403 34.6207C170.17 34.5655 175.937 34.516 181.704 34.4678C187.589 34.4176 193.474 34.3619 199.359 34.3067C210.906 34.1991 222.453 34.0977 234 34C234.136 33.2257 234.272 32.4514 234.412 31.6536C235.09 28.5929 236.269 26.7436 238.062 24.1875C238.884 23.0022 238.884 23.0022 239.723 21.793C240.144 21.2013 240.566 20.6096 241 20C241.825 20.3094 242.65 20.6188 243.5 20.9375C248.372 21.0245 250.056 18.8249 253.461 15.5664C254.223 14.7911 254.223 14.7911 255 14C254.773 13.2369 254.546 12.4738 254.312 11.6875C254 9.00003 254 9.00003 255.129 7.32035C257.32 5.77443 259.432 4.83183 261.938 3.87503C263.219 3.37617 263.219 3.37617 264.527 2.86722C268.513 1.46931 271.763 0.88234 276 1.00003ZM265.938 8.00003C265.018 8.37128 264.099 8.74253 263.152 9.12503C262.442 9.41378 261.732 9.70253 261 10C261.248 11.2994 261.248 11.2994 261.5 12.625C261 16 261 16 259.359 17.5938C257.27 19.1109 255.14 20.5545 253 22C250.579 24.0814 250.579 24.0814 249 26C249 26.66 249 27.32 249 28C246.69 27.67 244.38 27.34 242 27C239.741 30.254 239.741 30.254 239 34C242.896 34.1165 246.791 34.1874 250.688 34.25C251.79 34.2835 252.893 34.3171 254.029 34.3516C260.379 34.5247 260.379 34.5247 266.082 32.0938C266.715 31.4028 267.348 30.7119 268 30C274.94 25.9515 282.832 25.7626 290.594 27.6211C297.237 30.1804 301.972 34.8649 305.098 41.2383C308.116 49.3655 307.64 55.8367 304.191 63.6719C300.929 70.047 296.65 73.4713 290 76C287.341 76.7974 284.719 77.4174 282 78C281.91 83.1517 282.153 87.9192 283 93C284.98 93 286.96 93 289 93C289.66 94.32 290.32 95.64 291 97C292.44 96.7434 293.877 96.4691 295.312 96.1875C296.113 96.0367 296.914 95.8859 297.738 95.7305C300.339 94.8907 301.441 94.2445 303 92C302.985 91.175 302.969 90.35 302.953 89.5C303 87 303 87 304.609 85.375C305.669 84.6944 305.669 84.6944 306.75 84C310.152 81.6719 312.598 79.4031 315 76C316.98 76.33 318.96 76.66 321 77C321.838 75.3775 322.67 73.7519 323.5 72.125C323.964 71.2201 324.428 70.3152 324.906 69.3828C326.139 67.1341 326.139 67.1341 326 65C324.68 64.34 323.36 63.68 322 63C322.246 61.7277 322.246 61.7277 322.496 60.4297C323.009 56.9355 323.099 53.6538 323.062 50.125C323.053 48.9726 323.044 47.8202 323.035 46.6328C323.024 45.764 323.012 44.8952 323 44C324.32 43.67 325.64 43.34 327 43C325.84 35.9137 325.84 35.9137 322 30C320.68 30.33 319.36 30.66 318 31C316.178 29.0914 314.368 27.174 312.562 25.25C312.046 24.7112 311.53 24.1724 310.998 23.6172C307.294 19.6468 306 17.365 306 12C302.7 10.35 299.4 8.70003 296 7.00003C295.34 8.32003 294.68 9.64003 294 11C287.4 10.67 280.8 10.34 274 10C273.34 8.68003 272.68 7.36003 272 6.00003C269.921 6.00003 267.827 7.23461 265.938 8.00003ZM268 35C268.722 35.5775 269.444 36.155 270.188 36.75C271.116 37.4925 272.044 38.235 273 39C274.299 39.9282 274.299 39.9282 275.625 40.875C280.13 44.9061 281.17 48.9502 281.512 54.836C281.584 57.0152 281.643 59.195 281.688 61.375C281.739 63.0515 281.739 63.0515 281.791 64.7618C281.873 67.5077 281.942 70.2534 282 73C288.19 72.2915 292.268 71.0571 297 67C301.663 61.0935 303.708 55.5943 303 48C301.667 40.9892 297.7 37.0477 292 33C284.344 28.2644 275.158 30.595 268 35ZM307.812 182.438C298.696 189.833 288.685 195.443 278 200.25C277.326 200.555 276.652 200.86 275.957 201.174C268.816 204.275 261.398 206.6 254 209C253.906 216.921 253.836 224.841 253.793 232.762C253.772 236.442 253.744 240.121 253.698 243.801C253.309 275.89 258.501 299.827 281.188 323.625C287.577 329.824 294.64 335.015 302 340C302.906 340.617 303.812 341.235 304.746 341.871C308.981 344.684 308.981 344.684 313.891 344.328C337.039 334.441 356.654 312.253 366.117 289.289C370.308 278.37 371.289 268.343 371.195 256.68C371.192 255.326 371.189 253.973 371.187 252.62C371.179 249.092 371.16 245.564 371.137 242.036C371.117 238.423 371.108 234.809 371.098 231.195C371.076 224.13 371.042 217.065 371 210C370.409 209.779 369.818 209.558 369.209 209.33C366.484 208.308 363.762 207.281 361.039 206.254C359.645 205.733 359.645 205.733 358.223 205.201C344.33 199.946 330.199 193.417 318.938 183.563C316.398 180.781 316.398 180.781 314 181C314 180.34 314 179.68 314 179C311.06 179 310.027 180.535 307.812 182.438Z" fill="#DFDFDF"/>
<path d="M33 214C33.8685 214.64 33.8685 214.64 34.7546 215.293C41.7183 219.996 47.0174 220.866 55.3125 220.562C56.4081 220.543 57.5037 220.524 58.6326 220.504C66.4421 220.281 73.5278 219.326 81 217C82.1119 228.931 82.1466 240.798 82.1328 252.77C82.1335 254.861 82.1345 256.953 82.1357 259.044C82.1372 263.409 82.1351 267.773 82.1304 272.138C82.1247 277.685 82.128 283.232 82.1339 288.779C82.1376 293.093 82.1364 297.408 82.1338 301.723C82.1332 303.766 82.1339 305.809 82.1363 307.852C82.1472 319.94 81.8782 331.941 81 344C73.25 344.125 73.25 344.125 71 343C70.3157 340.6 69.763 338.27 69.2734 335.828C69.1208 335.087 68.9682 334.345 68.8109 333.582C68.3177 331.14 67.844 328.696 67.375 326.25C67.2126 325.417 67.0502 324.584 66.8829 323.725C64.4855 311.227 63.5672 299.58 63.9934 286.834C64.2587 276.598 62.5325 267.59 59 258C58.67 257.67 58.34 257.34 58 257C57.6889 258.26 57.3777 259.521 57.0571 260.819C46.5898 303.167 46.5898 303.167 41.0187 323.97C40.5904 325.57 40.1643 327.171 39.7405 328.773C39.1545 330.984 38.5594 333.191 37.9609 335.398C37.6288 336.633 37.2967 337.867 36.9546 339.138C36 342 36 342 34 344C31.8359 343.977 31.8359 343.977 29.375 343.625C28.5577 343.514 27.7405 343.403 26.8984 343.289C26.272 343.194 25.6455 343.098 25 343C25.3591 337.416 25.7321 331.834 26.1169 326.252C26.2456 324.359 26.3707 322.466 26.4919 320.573C28.1657 294.537 28.1657 294.537 32.7031 283.719C34.3317 279.049 34.1561 275.367 33.75 270.5C33.6921 269.619 33.6341 268.738 33.5745 267.831C33.4003 265.219 33.2042 262.61 33 260C32.2424 250.062 31.8975 240.216 31.875 230.25C31.8704 229.106 31.8658 227.962 31.8611 226.783C31.8631 225.705 31.8651 224.626 31.8672 223.516C31.8683 222.549 31.8694 221.583 31.8706 220.587C31.9881 218.238 32.3326 216.247 33 214Z" fill="#00050D"/>
<path d="M74.8207 2.73927C75.8387 2.73219 76.8566 2.7251 77.9054 2.7178C79.5871 2.72152 79.5871 2.72152 81.3027 2.72531C82.48 2.7202 83.6573 2.71509 84.8702 2.70982C88.1036 2.69828 91.3369 2.69586 94.5703 2.69839C97.2668 2.69945 99.9633 2.69458 102.66 2.68978C109.019 2.67868 115.378 2.67825 121.738 2.6843C128.306 2.69034 134.873 2.67802 141.441 2.65673C147.074 2.63913 152.707 2.6331 158.34 2.63636C161.707 2.63818 165.074 2.6355 168.441 2.62165C172.193 2.60938 175.945 2.61602 179.697 2.62766C181.379 2.61619 181.379 2.61619 183.095 2.60449C184.113 2.61151 185.131 2.61852 186.179 2.62575C187.067 2.62558 187.955 2.62541 188.87 2.62524C189.573 2.7489 190.276 2.87256 191 2.99997C196.006 10.5089 193 20.9753 193 30C151.75 30 110.5 30 68 30C68 26.37 68 22.74 68 19C67.01 18.67 66.02 18.34 65 18C65.99 18 66.98 18 68 18C67.9768 17.0847 67.9536 16.1695 67.9297 15.2265C67.9116 14.038 67.8936 12.8495 67.875 11.625C67.8518 10.4416 67.8286 9.25825 67.8047 8.03903C68.1328 2.93387 70.2674 2.7498 74.8207 2.73927Z" fill="#C4C4C4"/>
<path d="M171 254C189.48 254 207.96 254 227 254C227 268.19 227 282.38 227 297C217.998 299.251 217.998 299.251 214.439 299.259C213.243 299.268 213.243 299.268 212.022 299.278C211.189 299.274 210.355 299.27 209.496 299.266C208.173 299.268 208.173 299.268 206.823 299.271C204.97 299.273 203.117 299.269 201.264 299.261C198.442 299.25 195.621 299.261 192.799 299.273C190.99 299.272 189.18 299.27 187.371 299.266C186.535 299.27 185.7 299.274 184.839 299.278C184.044 299.272 183.25 299.265 182.431 299.259C181.743 299.257 181.054 299.256 180.344 299.254C177.159 298.909 174.081 297.88 171 297C171 282.81 171 268.62 171 254Z" fill="#FEFEFD"/>
<path d="M273 320C273.477 320.412 273.954 320.824 274.446 321.249C275.073 321.789 275.701 322.33 276.348 322.887C276.969 323.423 277.59 323.958 278.231 324.51C279.594 325.659 281.007 326.749 282.438 327.812C284.56 330.783 284.617 333.019 284.457 336.617C283.291 342.694 279.818 346.386 275 350C304.04 350.33 333.08 350.66 363 351C363.33 352.32 363.66 353.64 364 355C363 356 363 356 360.548 356.124C359.446 356.124 358.344 356.123 357.208 356.123C355.308 356.126 355.308 356.126 353.37 356.129C351.946 356.126 350.523 356.123 349.099 356.12C347.601 356.121 346.103 356.122 344.604 356.123C340.468 356.125 336.331 356.121 332.195 356.116C327.741 356.112 323.288 356.113 318.835 356.114C311.113 356.114 303.39 356.111 295.668 356.106C284.503 356.098 273.338 356.095 262.173 356.094C244.06 356.092 225.947 356.085 207.834 356.075C190.235 356.066 172.635 356.059 155.035 356.055C153.951 356.055 152.867 356.054 151.751 356.054C146.313 356.053 140.875 356.052 135.437 356.05C90.2911 356.04 45.1456 356.022 0 356C0.33 354.35 0.66 352.7 1 351C8.59 351 16.18 351 24 351C24 349.02 24 347.04 24 345C24.33 344.34 24.66 343.68 25 343C25.6149 343.012 26.2298 343.023 26.8633 343.035C28.0756 343.049 28.0756 343.049 29.3125 343.062C30.113 343.074 30.9135 343.086 31.7383 343.098C34.1686 343.097 34.1686 343.097 37 342C37.495 342.99 37.495 342.99 38 344C39.2375 344.402 39.2375 344.402 40.5 344.812C41.325 345.204 42.15 345.596 43 346C43.495 348.475 43.495 348.475 44 351C52.25 351 60.5 351 69 351C69.33 348.69 69.66 346.38 70 344C74.0505 342.65 76.792 343.379 81 344C81 342.68 81 341.36 81 340C81.66 340 82.32 340 83 340C83.0413 340.619 83.0825 341.238 83.125 341.875C83.4137 342.576 83.7025 343.277 84 344C85.485 344.495 85.485 344.495 87 345C88.485 345.495 88.485 345.495 90 346C90.495 347.98 90.495 347.98 91 350C149.08 350 207.16 350 267 350C267.33 349.01 267.66 348.02 268 347C268.979 345.98 269.979 344.979 271 344C272.231 341.539 272.206 339.742 272.316 336.992C272.358 336.006 272.4 335.02 272.443 334.004C272.502 332.455 272.502 332.455 272.562 330.875C272.606 329.835 272.649 328.794 272.693 327.723C272.8 325.149 272.902 322.574 273 320Z" fill="#979797"/>
<path d="M268 39C271.048 41.5858 272.817 43.1142 273.639 47.0957C273.646 48.2618 273.653 49.4279 273.659 50.6294C273.67 51.2817 273.68 51.9339 273.691 52.606C273.72 54.7821 273.714 56.9566 273.707 59.1328C273.72 60.6934 273.736 62.2539 273.753 63.8144C273.794 68.0389 273.803 72.263 273.807 76.4877C273.816 80.897 273.853 85.306 273.886 89.7151C273.957 99.8767 273.981 110.038 273.996 120.2C274.001 123.909 274.01 127.619 274.019 131.329C274.071 153.553 274.065 175.776 274 198C275.916 197.052 277.831 196.102 279.746 195.151C280.812 194.623 281.879 194.094 282.978 193.549C286.667 191.658 290.135 189.574 293.563 187.25C294.185 186.833 294.807 186.416 295.448 185.987C301.47 181.852 306.779 177.101 312 172C312.887 172.784 313.774 173.567 314.688 174.375C333.39 190.298 352.815 199.318 376 207C376.032 220.645 376.018 234.288 375.793 247.931C375.764 249.861 375.743 251.791 375.729 253.72C375.614 268.897 374.713 283.537 367.313 297.188C366.968 297.843 366.623 298.499 366.268 299.175C355.671 318.876 336.034 341.597 314 349C300.03 348.363 286.128 333.415 277 324C275.732 322.793 275.732 322.793 274.438 321.562C257.732 304 249.445 282.88 249.707 258.832C249.713 257.301 249.717 255.769 249.72 254.238C249.731 250.245 249.761 246.252 249.794 242.259C249.825 238.169 249.838 234.08 249.854 229.99C249.886 221.993 249.937 213.997 250 206C253.29 204.996 256.582 203.997 259.875 203C260.812 202.714 261.749 202.428 262.715 202.133C263.611 201.862 264.507 201.591 265.43 201.312C266.257 201.061 267.085 200.81 267.937 200.551C270 200 270 200 272 200C271.939 180.337 271.862 160.674 271.764 141.011C271.719 131.881 271.68 122.751 271.654 113.62C271.631 105.66 271.597 97.7 271.551 89.7398C271.527 85.527 271.509 81.3143 271.502 77.1013C271.496 73.1311 271.476 69.1611 271.446 65.191C271.437 63.7387 271.433 62.2863 271.435 60.8339C271.442 52.9116 271.041 46.3588 268 39ZM307.813 182.438C298.696 189.833 288.685 195.443 278 200.25C277.326 200.555 276.652 200.86 275.957 201.174C268.816 204.275 261.398 206.6 254 209C253.906 216.921 253.836 224.841 253.793 232.762C253.772 236.442 253.744 240.121 253.698 243.801C253.309 275.89 258.501 299.827 281.188 323.625C287.577 329.824 294.64 335.015 302 340C302.906 340.617 303.812 341.235 304.746 341.871C308.981 344.684 308.981 344.684 313.891 344.328C337.039 334.441 356.654 312.253 366.117 289.289C370.308 278.37 371.289 268.343 371.195 256.68C371.192 255.326 371.189 253.973 371.187 252.62C371.179 249.092 371.16 245.564 371.137 242.036C371.117 238.423 371.108 234.809 371.098 231.195C371.076 224.13 371.042 217.065 371 210C370.409 209.779 369.818 209.558 369.209 209.33C366.484 208.308 363.762 207.281 361.039 206.254C359.645 205.733 359.645 205.733 358.223 205.201C344.33 199.946 330.199 193.417 318.938 183.562C316.399 180.781 316.399 180.781 314 181C314 180.34 314 179.68 314 179C311.06 179 310.027 180.535 307.813 182.438Z" fill="#F8FAF4"/>
<path d="M359 230C359.99 230.99 359.99 230.99 361 232C360.934 234.418 360.934 234.418 360 237C357.848 238.738 357.848 238.738 355.062 240.312C333.284 253.402 319.505 272.433 307 294C305.25 293.858 303.5 293.711 301.75 293.562C300.775 293.481 299.801 293.4 298.797 293.316C297.412 293.16 297.412 293.16 296 293C295.257 292.924 294.515 292.848 293.75 292.77C292 292 292 292 291.016 289.883C290.763 288.973 290.51 288.063 290.25 287.125C286.763 276.693 280.622 269.279 271 264C272.971 261.635 274.964 259.308 277 257C277.661 256.247 278.323 255.494 279.004 254.719C279.683 253.987 280.363 253.254 281.062 252.5C281.693 251.809 282.323 251.118 282.973 250.406C285 249 285 249 287.566 249.164C295.447 251.871 298.985 259.217 303 266C303.594 265.31 304.189 264.621 304.801 263.91C316.105 251.094 339.816 227.611 359 230Z" fill="#FDFDFB"/>
<path d="M127 41C127.66 41 128.32 41 129 41C128.676 41.7484 128.351 42.4967 128.017 43.2678C126.605 48.4492 126.718 53.3678 126.733 58.7152C126.728 59.903 126.724 61.0908 126.719 62.3146C126.708 65.6035 126.707 68.8922 126.709 72.1811C126.71 75.7313 126.699 79.2815 126.689 82.8317C126.673 89.7839 126.667 96.736 126.666 103.688C126.665 109.34 126.661 114.991 126.655 120.643C126.637 136.67 126.628 152.697 126.629 168.724C126.629 170.02 126.629 170.02 126.629 171.342C126.63 172.207 126.63 173.071 126.63 173.962C126.63 187.979 126.611 201.996 126.583 216.013C126.554 230.41 126.541 244.806 126.542 259.203C126.543 267.284 126.538 275.365 126.516 283.446C126.498 290.325 126.493 297.205 126.507 304.084C126.514 307.593 126.514 311.102 126.496 314.611C126.481 318.418 126.49 322.224 126.506 326.031C126.495 327.136 126.485 328.241 126.474 329.379C126.529 335.521 126.97 341.078 131 346C134.28 347.981 136.708 348.257 140.53 348.278C141.655 348.29 142.779 348.301 143.938 348.312C145.782 348.316 145.782 348.316 147.663 348.319C148.961 348.329 150.259 348.339 151.596 348.349C155.151 348.377 158.707 348.392 162.262 348.405C165.979 348.42 169.696 348.447 173.413 348.473C180.45 348.52 187.487 348.556 194.524 348.589C202.536 348.628 210.548 348.677 218.56 348.727C235.04 348.831 251.52 348.92 268 349C267.67 349.66 267.34 350.32 267 351C249.632 351.093 232.265 351.164 214.897 351.207C206.832 351.228 198.768 351.256 190.704 351.302C183.674 351.342 176.645 351.367 169.615 351.376C165.893 351.382 162.172 351.394 158.451 351.423C154.294 351.455 150.138 351.456 145.982 351.454C144.751 351.468 143.519 351.483 142.25 351.498C135.892 351.467 131.772 351.403 127 347C122.872 341.498 123.619 335.175 123.707 328.602C123.711 327.411 123.716 326.221 123.72 324.995C123.737 321.205 123.774 317.415 123.813 313.625C123.828 311.051 123.841 308.477 123.854 305.902C123.887 299.601 123.937 293.301 124 287C123.071 286.906 123.071 286.906 122.122 286.809C120.905 286.681 120.905 286.681 119.662 286.55C118.857 286.466 118.052 286.383 117.222 286.297C113.344 285.779 110.089 284.396 107 282C106 279.25 106 279.25 106 277C103.199 275.969 103.199 275.969 100.981 275.703C98.2071 274.718 97.6613 273.32 96.3125 270.75C95.688 269.598 95.688 269.598 95.0508 268.422C93.9762 265.945 93.429 263.659 93 261C93.99 261 94.98 261 96 261C96 258.69 96 256.38 96 254C95.01 254 94.02 254 93 254C92.4973 248.093 93.5573 242.952 97 238C99.0274 237.359 99.0274 237.359 101 237C102.882 235.213 102.882 235.213 104 233C103.67 232.01 103.34 231.02 103 230C107.9 226.665 112.206 224.328 118 223C118.33 223.99 118.66 224.98 119 226C120.65 226 122.3 226 124 226C123.994 225.301 123.988 224.602 123.982 223.882C123.833 206.793 123.692 189.704 123.557 172.614C123.492 164.35 123.424 156.085 123.352 147.821C123.289 140.608 123.229 133.396 123.175 126.183C123.146 122.373 123.115 118.562 123.08 114.751C122.934 99.1276 122.942 83.5968 124 68C117.73 68 111.46 68 105 68C104.67 66.68 104.34 65.36 104 64C105 63 105 63 106.858 62.8865C107.648 62.8917 108.439 62.8969 109.254 62.9023C110.535 62.9072 110.535 62.9072 111.842 62.9121C113.189 62.9247 113.189 62.9247 114.563 62.9375C115.464 62.942 116.366 62.9465 117.295 62.9512C119.53 62.963 121.765 62.9795 124 63C123.948 61.3719 123.948 61.3719 123.895 59.7109C123.866 58.2656 123.839 56.8203 123.813 55.375C123.787 54.6621 123.762 53.9493 123.736 53.2148C123.67 48.3772 124.444 45.2526 127 41ZM112 230C111.01 231.485 111.01 231.485 110 233C110.33 233.66 110.66 234.32 111 235C109.855 235.835 109.855 235.835 108.688 236.688C105.904 238.827 105.904 238.827 104.438 241.688C103 244 103 244 100.813 244.812C100.214 244.874 99.6163 244.936 99 245C98.67 246.32 98.34 247.64 98 249C98.66 249.33 99.32 249.66 100 250C100.468 252.337 100.827 254.697 101.125 257.062C101.293 258.353 101.46 259.643 101.633 260.973C101.754 261.972 101.875 262.971 102 264C101.34 264 100.68 264 100 264C100.33 265.65 100.66 267.3 101 269C101.681 269.041 102.361 269.082 103.063 269.125C106.739 270.22 108.693 272.126 111.449 274.723C112.922 276.212 112.922 276.212 115 276C114.67 277.32 114.34 278.64 114 280C116.397 280.68 116.397 280.68 119 281C119.66 280.34 120.32 279.68 121 279C121.99 279 122.98 279 124 279C124 276.36 124 273.72 124 271C123.408 270.853 122.817 270.706 122.207 270.555C116.259 268.866 113.442 267.163 110 262C108.402 257.205 107.994 252.511 109.906 247.738C113.017 242.344 116.361 240.053 122.375 238.312C122.911 238.209 123.448 238.106 124 238C124 235.69 124 233.38 124 231C119.545 231.495 119.545 231.495 115 232C115 231.34 115 230.68 115 230C114.01 230 113.02 230 112 230ZM115 247C112.414 250.409 112.635 253.839 113 258C114.67 261.675 116.549 263.908 120 266C121.32 266.33 122.64 266.66 124 267C124 259.08 124 251.16 124 243C119.925 243 118.195 244.553 115 247Z" fill="#F1F1F1"/>
<path d="M73.1062 16.8797C74.1621 16.8783 75.218 16.8769 76.3059 16.8755C77.464 16.8791 78.622 16.8827 79.8152 16.8864C81.0348 16.8862 82.2545 16.8861 83.511 16.8859C86.8558 16.8865 90.2005 16.8915 93.5453 16.8985C97.0407 16.9048 100.536 16.9054 104.031 16.9065C110.651 16.9096 117.27 16.9179 123.889 16.9279C131.424 16.9391 138.96 16.9446 146.496 16.9496C161.997 16.96 177.499 16.9778 193 16.9999C193 21.2899 193 25.5799 193 29.9999C151.75 29.9999 110.5 29.9999 68 29.9999C68 26.3699 68 22.7399 68 18.9999C67.01 18.6699 66.02 18.3399 65 17.9999C68.0016 16.9994 69.9715 16.8765 73.1062 16.8797Z" fill="#FDFDFD"/>
<path d="M83 108C86.3296 111.579 87.2201 114.107 87.25 118.875C87.1864 120.251 87.1099 121.627 87 123C86.01 123.33 85.02 123.66 84 124C83.9626 124.58 83.9252 125.16 83.8867 125.758C83.4568 130.867 82.4952 134.443 80 139C80 139.99 80 140.98 80 142C80.99 142.495 80.99 142.495 82 143C81.1875 144.937 81.1875 144.937 80 147C72.2171 149.594 59.3765 149.401 51.7695 146.07C48.0886 143.844 45.7033 142.06 44 138C42.7673 129.621 42.9838 121.492 47.4609 114.051C56.1385 102.488 70.9342 99.5021 83 108Z" fill="black"/>
<path d="M208.484 81.8398C213.785 84.8908 218.719 90.0637 220.637 95.957C221.953 103.359 221.224 109.186 217.559 115.801C215.205 119.122 212.564 121.102 209 123C208.216 123.433 207.432 123.866 206.625 124.312C199.676 126.132 193.365 125.218 187 122C181.922 118.929 178.999 114.513 177 109C176.012 102.519 176.304 96.4825 179.66 90.7499C186.775 81.4566 197.095 77.9894 208.484 81.8398Z" fill="#FAFCF9"/>
<path d="M261 40C267.327 40.2636 271.579 42.424 276 47C279.379 52.0734 280.599 55.8566 280.609 61.9922C280.634 63.2142 280.634 63.2142 280.66 64.461C280.71 67.2657 280.73 70.0699 280.75 72.875C280.778 74.9153 280.808 76.9556 280.838 78.9958C281.352 119.324 281.081 159.67 281 200C275.375 203 275.375 203 272 203C271.993 202.21 271.987 201.42 271.98 200.606C271.818 181.394 271.633 162.182 271.425 142.97C271.325 133.679 271.232 124.389 271.156 115.098C271.09 107.001 271.011 98.9041 270.914 90.8074C270.864 86.5193 270.82 82.2314 270.793 77.9431C270.768 73.9078 270.724 69.8732 270.665 65.8383C270.647 64.3564 270.636 62.8745 270.632 61.3926C270.625 59.3708 270.592 57.349 270.557 55.3275C270.54 53.6295 270.54 53.6295 270.523 51.8973C269.883 48.3508 268.797 47.2022 266 45C263.368 43.7456 263.368 43.7456 261 43C261 42.01 261 41.02 261 40Z" fill="#C5C5C5"/>
<path d="M153.13 158.733C153.97 158.724 154.81 158.716 155.675 158.707C157.052 158.708 157.052 158.708 158.457 158.709C159.426 158.703 160.396 158.696 161.394 158.689C164.605 158.67 167.816 158.666 171.027 158.664C173.255 158.658 175.484 158.651 177.712 158.644C182.385 158.632 187.058 158.628 191.731 158.629C197.725 158.63 203.718 158.602 209.712 158.568C214.314 158.546 218.917 158.542 223.519 158.543C225.729 158.54 227.939 158.531 230.149 158.516C233.238 158.496 236.325 158.502 239.414 158.514C240.33 158.503 241.246 158.492 242.189 158.48C248.35 158.541 248.35 158.541 251.603 160.835C253 163 253 163 252.937 166.125C252 169 252 169 249 171C247.062 171.257 247.062 171.257 244.825 171.267C243.975 171.276 243.126 171.284 242.25 171.293C240.857 171.292 240.857 171.292 239.436 171.291C238.455 171.297 237.474 171.304 236.464 171.311C233.215 171.33 229.967 171.334 226.719 171.336C224.466 171.342 222.213 171.349 219.96 171.356C215.235 171.368 210.511 171.372 205.787 171.371C199.723 171.37 193.66 171.398 187.597 171.432C182.944 171.454 178.291 171.458 173.638 171.457C171.402 171.46 169.166 171.469 166.93 171.484C163.808 171.504 160.687 171.498 157.564 171.486C156.636 171.497 155.707 171.508 154.75 171.52C148.526 171.458 148.526 171.458 145.894 169.165C144.62 166.081 145.041 164.152 146 161C149.063 158.958 149.681 158.748 153.13 158.733Z" fill="#F5FAE6"/>
<path d="M152.213 140.619C153.5 140.606 153.5 140.606 154.813 140.593C156.22 140.603 156.22 140.603 157.656 140.612C158.647 140.607 159.637 140.601 160.658 140.596C163.939 140.583 167.219 140.591 170.5 140.602C172.775 140.6 175.051 140.597 177.326 140.593C182.098 140.588 186.869 140.595 191.641 140.609C197.764 140.626 203.888 140.616 210.012 140.598C214.711 140.587 219.41 140.591 224.11 140.599C226.368 140.601 228.626 140.598 230.885 140.591C234.038 140.584 237.19 140.595 240.344 140.612C241.282 140.606 242.22 140.6 243.187 140.593C244.045 140.602 244.903 140.61 245.787 140.619C246.533 140.62 247.278 140.621 248.046 140.622C250.574 141.111 251.488 141.942 253 144C252.777 147.647 252.616 149.384 250 152C248.169 152.254 248.169 152.254 245.907 152.261C245.051 152.268 244.194 152.275 243.311 152.282C242.37 152.28 241.428 152.277 240.457 152.275C238.972 152.282 238.972 152.282 237.456 152.29C234.17 152.304 230.884 152.303 227.598 152.301C225.321 152.305 223.044 152.309 220.767 152.314C215.99 152.321 211.212 152.321 206.435 152.316C200.303 152.31 194.172 152.327 188.04 152.35C183.337 152.365 178.633 152.366 173.929 152.363C171.668 152.363 169.407 152.368 167.146 152.378C163.988 152.391 160.83 152.384 157.672 152.372C156.732 152.38 155.792 152.388 154.824 152.395C153.965 152.388 153.105 152.381 152.22 152.374C151.099 152.374 151.099 152.374 149.957 152.375C147.439 151.893 146.549 151.008 145 149C144.625 146.5 144.625 146.5 145 144C147.196 141.155 148.67 140.624 152.213 140.619Z" fill="#F9FAF7"/>
<path d="M328 96C337.181 96.7781 337.181 96.7781 341 100C341 101.32 341 102.64 341 104C342.072 104.227 343.145 104.454 344.25 104.688C348.985 106.345 350.799 108.598 353 113C353.04 115 353.043 117 353 119C352.34 119 351.68 119 351 119C351.495 121.97 351.495 121.97 352 125C352.66 125 353.32 125 354 125C354.314 130.24 353.938 133.592 351 138C349.453 139.021 349.453 139.021 347.875 140.062C346.926 140.702 345.977 141.341 345 142C344.856 142.825 344.711 143.65 344.562 144.5C344 147 344 147 340.75 149.312C336.276 151.563 333.484 151.448 328.687 150C327.801 149.67 326.914 149.34 326 149C325.67 149.99 325.34 150.98 325 152C323.582 151.885 322.166 151.757 320.75 151.625C319.961 151.555 319.172 151.486 318.359 151.414C315.868 150.977 314.132 150.355 312 149C311.711 148.175 311.422 147.35 311.125 146.5C310.754 145.675 310.382 144.85 310 144C309.051 143.691 308.102 143.381 307.125 143.062C302.954 141.644 302.002 139.855 300 136C299.187 132.688 299.187 132.688 299 130C299.495 129.505 299.495 129.505 300 129C300.222 126.262 300.303 124.531 298.926 122.113C297.442 118.726 298.656 116.445 299.871 113.105C301.524 110.023 304.072 108.806 307 107C307.289 106.01 307.577 105.02 307.875 104C309.36 100.04 311.228 99.3953 314.93 97.6641C317 97 317 97 321 97C321 97.66 321 98.32 321 99C322.98 99 324.96 99 327 99C327.33 98.01 327.66 97.02 328 96ZM331 101C330.67 101.66 330.34 102.32 330 103C327.602 103.449 327.602 103.449 324.625 103.688C323.648 103.774 322.671 103.86 321.664 103.949C319 104 319 104 316 103C313.782 103.825 313.782 103.825 313.187 106.188C311.64 109.852 309.717 112.085 307 115C306.01 115.33 305.02 115.66 304 116C304.156 117.132 304.312 118.264 304.473 119.43C304.67 120.911 304.866 122.393 305.062 123.875C305.166 124.621 305.27 125.368 305.377 126.137C306.113 131.773 306.113 131.773 305 134C305.825 136.218 305.825 136.218 308.187 136.812C311.865 138.365 314.105 140.24 317 143C317 143.99 317 144.98 317 146C318.847 146.692 318.847 146.692 321 147C321.99 146.34 322.98 145.68 324 145C327.066 144.875 327.066 144.875 330.562 145C333.972 145.167 333.972 145.167 337 145C339.032 143.187 339.032 143.187 339.875 141.188C341.898 137.254 343.74 134.42 348 133C348.733 130.985 348.733 130.985 349 129C348.34 129 347.68 129 347 129C347 123.72 347 118.44 347 113C344.525 112.505 344.525 112.505 342 112C341.505 110.515 341.505 110.515 341 109C338.365 106.59 338.365 106.59 335 106C335 104.68 335 103.36 335 102C333.68 101.67 332.36 101.34 331 101Z" fill="#DFDFDF"/>
<path d="M119 224C119 224.66 119 225.32 119 226C120.65 226 122.3 226 124 226C124 227.65 124 229.3 124 231C119.545 231.495 119.545 231.495 115 232C115 231.34 115 230.68 115 230C113.02 230.99 113.02 230.99 111 232C111.33 232.99 111.66 233.98 112 235C111.258 235.536 110.515 236.072 109.75 236.625C106.842 238.916 106.842 238.916 104.875 242.25C104.256 243.157 103.638 244.065 103 245C102.01 245 101.02 245 100 245C100 246.32 100 247.64 100 249C100.33 249.33 100.66 249.66 101 250C101.235 252.35 101.414 254.706 101.563 257.062C101.646 258.353 101.73 259.643 101.816 260.973C101.877 261.972 101.938 262.971 102 264C101.34 264 100.68 264 100 264C100.33 265.65 100.66 267.3 101 269C101.575 268.765 102.15 268.531 102.742 268.289C105 268 105 268 107.07 269.398C107.748 270.051 108.426 270.703 109.125 271.375C111.836 274.01 111.836 274.01 115 276C115.625 278.062 115.625 278.062 116 280C116.99 280 117.98 280 119 280C119.66 279.34 120.32 278.68 121 278C122.485 278.495 122.485 278.495 124 279C124 281.64 124 284.28 124 287C117.808 286.713 112.029 285.9 107 282C106 279.25 106 279.25 106 277C103.199 275.969 103.199 275.969 100.981 275.703C98.2071 274.718 97.6613 273.32 96.3125 270.75C95.688 269.598 95.688 269.598 95.0508 268.422C93.9762 265.945 93.429 263.659 93 261C93.99 261 94.98 261 96 261C96 258.69 96 256.38 96 254C95.01 254 94.02 254 93 254C92.4973 248.093 93.5573 242.952 97 238C99.0274 237.359 99.0274 237.359 101 237C102.882 235.213 102.882 235.213 104 233C103.67 232.01 103.34 231.02 103 230C115.017 222.009 115.017 222.009 119 224Z" fill="#DFDFDF"/>
<path d="M254.427 121.029C255.235 121.019 256.043 121.01 256.875 121C257.744 121.006 258.612 121.012 259.507 121.018C260.404 121.016 261.3 121.013 262.224 121.01C264.119 121.008 266.015 121.013 267.91 121.026C270.81 121.042 273.708 121.026 276.607 121.007C278.449 121.009 280.291 121.013 282.132 121.018C283.433 121.009 283.433 121.009 284.759 121C288.325 121.042 290.748 121.084 293.945 122.75C295.386 124.417 295.386 124.417 295.699 127.479C295.386 130.417 295.386 130.417 294.386 132.417C291.693 133.315 290.097 133.551 287.33 133.578C286.519 133.588 285.708 133.597 284.872 133.607C284 133.611 283.128 133.616 282.23 133.62C281.331 133.626 280.433 133.631 279.507 133.637C277.607 133.647 275.707 133.653 273.808 133.657C270.897 133.667 267.988 133.698 265.078 133.729C263.233 133.736 261.388 133.741 259.543 133.745C258.671 133.757 257.799 133.77 256.9 133.782C256.089 133.779 255.279 133.776 254.443 133.773C253.73 133.777 253.018 133.781 252.283 133.784C249.793 133.302 248.91 132.414 247.386 130.417C246.742 125.26 246.742 125.26 248.657 122.754C250.759 121.129 251.795 121.038 254.427 121.029Z" fill="#F99F35"/>
<path d="M295 28.6679C301.304 32.8667 305.562 38.0331 307.688 45.3749C308.804 54.7531 307.182 62.3065 301.25 69.8749C295.836 75.6426 289.706 77.4495 282 77.9999C282 76.3499 282 74.6999 282 72.9999C282.736 72.7576 283.472 72.5152 284.23 72.2655C291.533 69.7573 296.74 67.9321 300.312 60.7499C302.93 54.249 302.809 48.4031 300.117 41.8905C297.432 37.3457 292.858 33.9575 288 31.9999C280.844 31.1093 275.342 31.8732 268.98 35.1757C266.103 36.3732 263.915 35.8968 261 34.9999C269.532 25.0912 283.261 22.561 295 28.6679Z" fill="#DFDFDF"/>
<path d="M209.313 226.5C214.771 229.691 219.687 235.083 222 241C222.195 243.578 222.195 243.578 222.125 246.25C222.107 247.142 222.089 248.034 222.07 248.953C222.047 249.629 222.024 250.304 222 251C220.35 251 218.7 251 217 251C216.853 250.13 216.853 250.13 216.703 249.242C215.439 242.638 213.467 238.344 208.5 233.625C203.328 231.224 198.606 231.26 193 232C187.478 234.409 184.471 238.63 182 244C181.385 246.402 181.156 248.51 181 251C179.35 251 177.7 251 176 251C175.526 244.46 175.591 239.232 180 234C188.024 225.791 198.005 221.509 209.313 226.5Z" fill="#FAFCF8"/>
<path d="M332 110C336.355 112.258 339.195 114.388 341 119C341.677 123.989 341.576 127.803 339.375 132.375C335.509 136.648 332.354 139.205 326.5 139.5C320.8 139.222 317.642 136.642 313.687 132.687C311.25 128.806 310.505 125.501 311.406 120.949C313.071 115.686 315.483 113.105 320 110C324.195 108.602 327.715 109.055 332 110ZM319 117C316.485 120.018 316.008 121.545 315.937 125.5C317.322 130.06 318.958 131.53 323 134C327.329 134.684 329.19 134.528 332.875 132.125C335.787 129.213 335.961 128.4 336.375 124.187C336.319 120.77 336.018 120.025 333.937 117.062C328.672 113.366 324.061 112.782 319 117Z" fill="#DFDFDF"/>
<path d="M273 320C273.716 320.618 273.716 320.618 274.446 321.249C275.073 321.789 275.701 322.33 276.348 322.887C276.969 323.423 277.59 323.958 278.231 324.51C279.594 325.659 281.007 326.749 282.438 327.812C284.561 330.785 284.621 333.021 284.449 336.621C283.389 342.235 280.319 345.95 275.938 349.438C272.152 351.451 269.134 352.126 264.874 352.12C264.061 352.122 263.248 352.123 262.41 352.124C261.527 352.121 260.643 352.117 259.733 352.114C258.796 352.114 257.86 352.114 256.894 352.114C253.799 352.113 250.704 352.105 247.609 352.098C245.463 352.096 243.316 352.094 241.169 352.093C235.521 352.09 229.872 352.08 224.223 352.069C218.459 352.058 212.694 352.054 206.93 352.049C195.62 352.038 184.31 352.021 173 352C173 351.67 173 351.34 173 351C204.02 350.67 235.04 350.34 267 350C267.495 348.515 267.495 348.515 268 347C268.979 345.98 269.979 344.979 271 344C272.231 341.539 272.206 339.742 272.316 336.992C272.358 336.006 272.4 335.02 272.443 334.004C272.483 332.971 272.522 331.939 272.562 330.875C272.627 329.315 272.627 329.315 272.693 327.723C272.8 325.149 272.902 322.574 273 320Z" fill="#C6C6C6"/>
<path d="M82.8164 36.9023C84.3985 36.909 85.9805 36.921 87.5625 36.9375C88.3688 36.942 89.1751 36.9465 90.0059 36.9512C92.0039 36.963 94.002 36.9809 96 37C97.5327 40.0653 97.1028 43.2675 97.0625 46.625C97.058 47.3314 97.0535 48.0378 97.0488 48.7656C97.037 50.5105 97.0191 52.2552 97 54C93.8261 55.587 90.4183 55.1431 86.9375 55.125C86.1918 55.1289 85.4461 55.1327 84.6777 55.1367C79.1266 55.1266 79.1266 55.1266 78 54C77.9002 51.3227 77.8612 48.677 77.875 46C77.8711 45.2498 77.8673 44.4995 77.8633 43.7266C77.8754 37.0288 77.8754 37.0288 82.8164 36.9023Z" fill="#ADFA1D"/>
<path d="M234.898 33.8992C238.095 33.8591 241.292 33.8311 244.489 33.8064C245.953 33.7925 247.417 33.7733 248.881 33.7486C250.866 33.7158 252.852 33.7032 254.837 33.6918C255.939 33.6788 257.041 33.6659 258.177 33.6526C261.379 34.0468 262.544 35.0087 265 37.0001C264.333 37.0043 263.666 37.0086 262.978 37.0129C246.754 37.1162 230.53 37.2248 214.306 37.3394C206.46 37.3948 198.614 37.4482 190.768 37.4974C183.931 37.5403 177.094 37.5866 170.257 37.637C166.635 37.6636 163.014 37.6884 159.393 37.7092C155.353 37.7324 151.314 37.7633 147.274 37.7948C146.069 37.8005 144.865 37.8063 143.623 37.8122C142.525 37.822 141.427 37.8318 140.296 37.8419C138.862 37.8516 138.862 37.8516 137.399 37.8614C134.854 37.9038 134.854 37.9038 132 39.0001C132 38.0101 132 37.0201 132 36.0001C136.09 34.8666 140.049 34.8258 144.268 34.7948C145.518 34.7799 145.518 34.7799 146.794 34.7648C149.563 34.7331 152.332 34.7083 155.102 34.6837C157.055 34.6631 159.008 34.6421 160.961 34.6207C165.078 34.5767 169.196 34.5358 173.313 34.4974C178.484 34.4491 183.654 34.3953 188.823 34.3395C198.756 34.2323 208.689 34.141 218.622 34.0684C224.048 34.0278 229.473 33.9715 234.898 33.8992Z" fill="#FBFBFB"/>
<path d="M198.5 103.625C199.603 103.617 200.707 103.61 201.844 103.602C205.598 104.076 208.302 105.302 211 108C211.25 111.438 211.25 111.438 211 115C207.875 117.083 207.171 117.249 203.621 117.23C202.783 117.229 201.944 117.227 201.08 117.225C200.208 117.212 199.336 117.2 198.438 117.188C197.562 117.187 196.686 117.186 195.783 117.186C189.281 117.14 189.281 117.14 187 116C186.865 114.565 186.768 113.127 186.688 111.688C186.629 110.887 186.571 110.086 186.512 109.262C187 107 187 107 189.113 105.23C192.451 103.808 194.88 103.6 198.5 103.625Z" fill="#86B657"/>
<path d="M202 263C204.438 264.563 204.438 264.563 206 267C205.786 273.214 205.786 273.214 203 276C202.692 279.347 202.621 282.672 202.539 286.031C202.361 287.011 202.183 287.991 202 289C199.961 290.406 199.961 290.406 198 291C194.753 287.753 195.596 283.593 195.441 279.164C194.966 275.753 194.1 274.612 192 272C192.125 268.375 192.125 268.375 193 265C196.491 262.673 197.892 262.497 202 263Z" fill="#87B75A"/>
<path d="M124 238C124 239.65 124 241.3 124 243C123.169 243.364 123.169 243.364 122.32 243.734C121.234 244.237 121.234 244.237 120.125 244.75C119.406 245.075 118.686 245.4 117.945 245.734C115.608 247.255 114.953 248.404 114 251C113.667 254.667 113.704 257.252 115.062 260.688C117.676 263.807 120.381 265.156 124 267C124 268.32 124 269.64 124 271C118.42 270.772 115.508 269.451 111.445 265.598C107.906 261.685 107.489 257.456 107.625 252.344C108.405 247.472 110.904 243.661 114.75 240.613C118.075 238.571 120.054 238 124 238Z" fill="#DFDFDF"/>
<path d="M153.157 158.76C154.425 158.755 154.425 158.755 155.719 158.751C156.644 158.758 157.568 158.766 158.52 158.773C159.496 158.773 160.472 158.772 161.477 158.772C164.708 158.774 167.938 158.789 171.168 158.805C173.406 158.808 175.643 158.811 177.881 158.813C183.775 158.821 189.668 158.841 195.562 158.863C201.575 158.883 207.587 158.892 213.6 158.902C225.4 158.924 237.2 158.958 249 159C249 159.33 249 159.66 249 160C217.98 160 186.96 160 155 160C155.33 160.66 155.66 161.32 156 162C156.04 164.333 156.043 166.667 156 169C151.545 169.495 151.545 169.495 147 170C145 167 145 167 145.187 163.938C146.441 159.407 148.831 158.749 153.157 158.76Z" fill="#D0E2BE"/>
<path d="M10 198C12.64 199.65 15.28 201.3 18 203C16.125 207.875 16.125 207.875 15 209C14.7671 210.682 14.5874 212.371 14.4375 214.062C14.3537 214.982 14.2699 215.901 14.1836 216.848C14.123 217.558 14.0624 218.268 14 219C10.2984 219.947 8.60888 220.304 5.125 218.562C4.42375 218.047 3.7225 217.531 3 217C3.32578 209.833 6.65444 204.231 10 198Z" fill="#F6A48E"/>
<path d="M202 87.9999C204.437 89.5624 204.437 89.5624 206 91.9999C205.939 95.496 205.653 97.9351 203.812 100.937C201.044 102.56 199.145 102.449 196 102C193.625 100.375 193.625 100.375 192 97.9999C191.388 94.3282 191.513 92.7118 193.625 89.6249C196.712 87.5129 198.328 87.388 202 87.9999Z" fill="#88B75B"/>
<path d="M97 127C97.99 127.33 98.98 127.66 100 128C100.33 129.65 100.66 131.3 101 133C101.804 133.144 102.609 133.289 103.438 133.438C106 134 106 134 107 135C106.882 136.38 106.704 137.755 106.5 139.125C105.966 143.353 106.201 146.827 107 151C104.36 151 101.72 151 99 151C98.34 143.08 97.68 135.16 97 127Z" fill="#F7A58E"/>
<path d="M81 340C81.66 340 82.32 340 83 340C83.0619 340.928 83.0619 340.928 83.125 341.875C83.4137 342.576 83.7025 343.277 84 344C84.99 344.33 85.98 344.66 87 345C87.99 345.33 88.98 345.66 90 346C90.9375 348.062 90.9375 348.062 91 350C90 351 90 351 87.9587 351.114C87.0842 351.108 86.2096 351.103 85.3086 351.098C84.3644 351.094 83.4201 351.091 82.4473 351.088C81.454 351.08 80.4608 351.071 79.4375 351.062C78.4404 351.058 77.4433 351.053 76.416 351.049C73.944 351.037 71.472 351.021 69 351C69.33 348.69 69.66 346.38 70 344C74.0505 342.65 76.792 343.379 81 344C81 342.68 81 341.36 81 340Z" fill="#FBFBFB"/>
<path d="M35 342C35.66 342 36.32 342 37 342C37.33 342.66 37.66 343.32 38 344C38.825 344.268 39.65 344.536 40.5 344.812C41.7375 345.4 41.7375 345.4 43 346C43.33 347.65 43.66 349.3 44 351C37.4 351 30.8 351 24 351C24 345 24 345 25 343C25.6381 343.012 26.2762 343.023 26.9336 343.035C27.7599 343.044 28.5862 343.053 29.4375 343.062C30.6731 343.08 30.6731 343.08 31.9336 343.098C33.9916 343.233 33.9916 343.233 35 342Z" fill="#FBFBFB"/>
<path d="M234.492 33.7969C235.606 33.7884 235.606 33.7884 236.742 33.7797C238.314 33.7702 239.886 33.7637 241.458 33.7598C243.859 33.7501 246.259 33.7191 248.66 33.6876C250.187 33.681 251.715 33.6758 253.242 33.6719C253.959 33.6596 254.676 33.6472 255.414 33.6345C260.051 33.6552 261.07 34.0527 265 37.0001C247.51 37.0001 230.02 37.0001 212 37.0001C212 36.6701 212 36.3401 212 36.0001C212.915 35.9395 213.83 35.8789 214.773 35.8165C216.556 35.6908 216.556 35.6908 218.375 35.5626C219.558 35.4814 220.742 35.4001 221.961 35.3165C226.275 34.8673 230.01 33.8234 234.492 33.7969Z" fill="#ECECEC"/>
<path d="M77.9453 123.805C79.9635 123.87 81.9818 123.935 84 124C83.6388 129.605 83.0803 134.143 80 139C79.01 139.66 78.02 140.32 77 141C74.6588 137.342 74.9241 134.253 75 130C74.7938 129.237 74.5875 128.474 74.375 127.688C74.2512 127.131 74.1275 126.574 74 126C76 124 76 124 77.9453 123.805Z" fill="#E99B86"/>
<path d="M78.9495 62.8865C79.7821 62.8917 80.6148 62.8969 81.4727 62.9023C82.3718 62.9056 83.2709 62.9088 84.1973 62.9121C85.6156 62.9247 85.6156 62.9247 87.0625 62.9375C88.0119 62.942 88.9613 62.9465 89.9395 62.9512C92.293 62.963 94.6465 62.9795 97 63C97.33 64.65 97.66 66.3 98 68C91.07 68 84.14 68 77 68C76.67 66.68 76.34 65.36 76 64C77 63 77 63 78.9495 62.8865Z" fill="#ADFA1C"/>
<path d="M148.848 159.902C150.898 159.935 152.949 159.967 155 160C156.478 162.957 156.06 165.742 156 169C151.545 169.495 151.545 169.495 147 170C145 167 145 167 145.313 163.875C146.229 160.041 146.229 160.041 148.848 159.902Z" fill="#CBCCCA"/>
<path d="M127 41C127.66 41 128.32 41 129 41C128.679 41.8426 128.357 42.6851 128.026 43.5532C126.933 47.2253 126.684 50.3241 126.586 54.1484C126.567 54.8058 126.547 55.4632 126.527 56.1405C126.468 58.2186 126.421 60.2966 126.375 62.375C126.337 63.793 126.298 65.211 126.258 66.6289C126.162 70.0857 126.078 73.5427 126 77C125.01 77.495 125.01 77.495 124 78C123.925 73.695 123.871 69.3904 123.835 65.085C123.82 63.6223 123.8 62.1597 123.774 60.6973C123.737 58.5871 123.72 56.4776 123.707 54.3672C123.691 53.0999 123.676 51.8326 123.659 50.5269C124.028 46.7115 125.082 44.288 127 41Z" fill="#F3F4F4"/>
<path d="M165 145C172.59 145 180.18 145 188 145C188.33 145.99 188.66 146.98 189 148C180.75 148 172.5 148 164 148C164.33 147.01 164.66 146.02 165 145Z" fill="#B5E337"/>
<path d="M192 145C199.92 145 207.84 145 216 145C216 145.99 216 146.98 216 148C208.08 148 200.16 148 192 148C192 147.01 192 146.02 192 145Z" fill="#B5E335"/>
<path d="M84 7C87.96 7 91.92 7 96 7C96.33 8.65 96.66 10.3 97 12C92.38 12 87.76 12 83 12C83.33 10.35 83.66 8.7 84 7Z" fill="#ADFA1C"/>
<path d="M273 320C276.265 323.265 275.369 327.313 275.375 331.75C275.399 332.645 275.424 333.539 275.449 334.461C275.474 340.146 274.881 343.544 271 348C270.01 348.66 269.02 349.32 268 350C268 347 268 347 269.438 345.438C269.953 344.963 270.469 344.489 271 344C272.231 341.539 272.206 339.742 272.316 336.992C272.358 336.006 272.4 335.02 272.443 334.004C272.483 332.971 272.522 331.939 272.562 330.875C272.627 329.315 272.627 329.315 272.693 327.723C272.8 325.149 272.902 322.574 273 320Z" fill="#C3C3C3"/>
<path d="M76 7C77.98 7.495 77.98 7.495 80 8C79.67 9.32 79.34 10.64 79 12C77.68 11.67 76.36 11.34 75 11C75.33 9.68 75.66 8.36 76 7Z" fill="#ADFA1C"/>
<path d="M8 210C9.32 210.66 10.64 211.32 12 212C11.67 212.99 11.34 213.98 11 215C9.35 215 7.7 215 6 215C6.66 213.35 7.32 211.7 8 210Z" fill="#EB8F75"/>
<path d="M272 342C272.66 342 273.32 342 274 342C272.731 345.914 271.488 347.791 268 350C268 347 268 347 269.438 345.438C269.953 344.963 270.469 344.489 271 344C271.33 343.34 271.66 342.68 272 342Z" fill="#ECECEC"/>
<path d="M116 87C117.65 87 119.3 87 121 87C121 87.66 121 88.32 121 89C119.35 88.67 117.7 88.34 116 88C116 87.67 116 87.34 116 87Z" fill="#BFD7FF"/>
<path d="M110 87C111.65 87 113.3 87 115 87C114.67 87.66 114.34 88.32 114 89C112.68 89 111.36 89 110 89C110 88.34 110 87.68 110 87Z" fill="#BFD7FF"/>
<path d="M103 87C104.65 87 106.3 87 108 87C108 87.66 108 88.32 108 89C106.35 88.67 104.7 88.34 103 88C103 87.67 103 87.34 103 87Z" fill="#BFD7FF"/>
<path d="M97 87C98.65 87 100.3 87 102 87C101.67 87.66 101.34 88.32 101 89C99.68 89 98.36 89 97 89C97 88.34 97 87.68 97 87Z" fill="#BFD7FF"/>
<path d="M90 87C91.65 87 93.3 87 95 87C95 87.66 95 88.32 95 89C93.35 88.67 91.7 88.34 90 88C90 87.67 90 87.34 90 87Z" fill="#BFD7FF"/>
<path d="M84 87C85.65 87 87.3 87 89 87C88.67 87.66 88.34 88.32 88 89C86.68 89 85.36 89 84 89C84 88.34 84 87.68 84 87Z" fill="#BFD7FF"/>
<path d="M77 87C78.65 87 80.3 87 82 87C82 87.66 82 88.32 82 89C80.35 88.67 78.7 88.34 77 88C77 87.67 77 87.34 77 87Z" fill="#BFD8FF"/>
<path d="M71 87C72.65 87 74.3 87 76 87C75.67 87.66 75.34 88.32 75 89C73.68 89 72.36 89 71 89C71 88.34 71 87.68 71 87Z" fill="#BFD7FF"/>
<path d="M64 87C65.65 87 67.3 87 69 87C69 87.66 69 88.32 69 89C67.35 88.67 65.7 88.34 64 88C64 87.67 64 87.34 64 87Z" fill="#BFD8FF"/>
<path d="M57 80C57.66 80 58.32 80 59 80C58.67 81.65 58.34 83.3 58 85C57.67 85 57.34 85 57 85C57 83.35 57 81.7 57 80Z" fill="#BFD7FF"/>
<path d="M57 73C57.99 73.495 57.99 73.495 59 74C59 75.32 59 76.64 59 78C58.34 78 57.68 78 57 78C57 76.35 57 74.7 57 73Z" fill="#BFD7FF"/>
<path d="M57 67C57.66 67 58.32 67 59 67C58.67 68.65 58.34 70.3 58 72C57.67 72 57.34 72 57 72C57 70.35 57 68.7 57 67Z" fill="#BFD7FF"/>
<path d="M57 60C57.99 60.495 57.99 60.495 59 61C59 62.32 59 63.64 59 65C58.34 65 57.68 65 57 65C57 63.35 57 61.7 57 60Z" fill="#BFD7FF"/>
<path d="M57 54C57.66 54 58.32 54 59 54C58.67 55.65 58.34 57.3 58 59C57.67 59 57.34 59 57 59C57 57.35 57 55.7 57 54Z" fill="#BFD7FF"/>
<path d="M57 47C57.99 47.495 57.99 47.495 59 48C59 49.32 59 50.64 59 52C58.34 52 57.68 52 57 52C57 50.35 57 48.7 57 47Z" fill="#BFD7FF"/>
<path d="M57 41C57.66 41 58.32 41 59 41C58.67 42.65 58.34 44.3 58 46C57.67 46 57.34 46 57 46C57 44.35 57 42.7 57 41Z" fill="#BFD7FF"/>
<path d="M57 34C57.99 34.495 57.99 34.495 59 35C59 36.32 59 37.64 59 39C58.34 39 57.68 39 57 39C57 37.35 57 35.7 57 34Z" fill="#BFD7FF"/>
<path d="M57 28C57.66 28 58.32 28 59 28C58.67 29.65 58.34 31.3 58 33C57.67 33 57.34 33 57 33C57 31.35 57 29.7 57 28Z" fill="#BFD7FF"/>
<path d="M57 21C57.99 21.495 57.99 21.495 59 22C59 23.32 59 24.64 59 26C58.34 26 57.68 26 57 26C57 24.35 57 22.7 57 21Z" fill="#BFD7FF"/>
<path d="M58 86C60.475 86.495 60.475 86.495 63 87C62.34 87.66 61.68 88.32 61 89C60.01 88.67 59.02 88.34 58 88C58 87.34 58 86.68 58 86Z" fill="#BFD9FF"/>
<path d="M59 18C60.98 18.495 60.98 18.495 63 19C61.35 19.33 59.7 19.66 58 20C58.33 19.34 58.66 18.68 59 18Z" fill="#BFD9FF"/>
</svg>
