<svg width="239" height="65" viewBox="0 0 239 65" fill="none" xmlns="http://www.w3.org/2000/svg">
<path fill-rule="evenodd" clip-rule="evenodd" d="M217 18.921H229.643L237.641 11H225.008L217 18.921ZM231 20.4889V33L239 25.079V12.5679L231 20.4889Z" fill="#66E8FA"/>
<path d="M82.0339 21.7867L81.1622 29.7089H84.2131C85.6395 29.7089 86.7489 29.392 87.5017 28.7186C88.2149 28.0452 88.6508 27.0154 88.8093 25.629C88.9678 24.4406 88.6904 23.5296 88.0564 22.8166C87.4225 22.1432 86.4716 21.7867 85.2036 21.7867H82.0339ZM87.5017 44.7215L82.5093 34.9772H80.5678L79.4188 44.7611H73L76.249 16.5977H85.9565C88.0168 16.5977 89.8394 16.9542 91.3451 17.7464C92.8507 18.499 93.9602 19.5685 94.6337 20.9153C95.3073 22.262 95.5847 23.8465 95.3866 25.5894C95.1488 27.6491 94.4752 29.392 93.4054 30.7784C92.296 32.1648 90.9489 33.1947 89.2847 33.9077L95.1488 44.7215H87.5017Z" fill="white"/>
<path d="M112.068 32.2044L112.107 31.6894C112.186 29.2336 111.235 27.966 109.294 27.966C108.977 27.966 108.7 28.0056 108.383 28.0848C108.105 28.1641 107.788 28.2433 107.511 28.4017C107.194 28.5602 106.917 28.7582 106.639 28.9959C106.362 29.2336 106.124 29.4712 105.886 29.7881C105.649 30.105 105.411 30.5011 105.213 30.8972C105.015 31.2933 104.856 31.7291 104.698 32.2044H112.068ZM115.752 38.3837L115.158 43.5331C114.405 44.0085 113.375 44.365 112.068 44.6026C110.8 44.8403 109.571 44.9591 108.343 44.9591C106.005 44.9591 104.064 44.4838 102.479 43.5331C100.894 42.5825 99.7846 41.2753 99.1507 39.6909C98.5167 38.0668 98.3186 36.2051 98.5563 34.1453C98.9526 30.7784 100.181 28.1245 102.241 26.2231C104.341 24.3218 106.758 23.3711 109.532 23.3711C112.384 23.3711 114.524 24.1634 115.99 25.827C117.456 27.4907 118.011 29.9466 117.654 33.2739C117.575 33.8681 117.337 34.9772 116.941 36.5616H104.46C104.737 37.7103 105.332 38.6214 106.322 39.2551C107.273 39.8889 108.502 40.2058 109.928 40.2058C112.068 40.2058 114.009 39.6116 115.752 38.3837Z" fill="white"/>
<path d="M129.105 23.5296L128.748 26.8569C129.184 26.1439 129.739 25.5101 130.373 24.9952C131.007 24.4802 131.76 24.0841 132.552 23.7673C133.345 23.49 134.216 23.3315 135.128 23.3315C138.099 23.3315 139.962 24.6783 140.635 27.3322C141.269 26.1043 142.18 25.114 143.329 24.401C144.518 23.688 145.865 23.3315 147.371 23.3315C149.471 23.3315 151.016 24.0049 152.086 25.3517C153.156 26.6985 153.552 28.5998 153.275 31.1349L151.69 44.7215H145.588L147.054 32.1648C147.173 30.9765 147.054 30.0258 146.658 29.3128C146.261 28.6394 145.588 28.2829 144.716 28.2829C144.32 28.2829 143.924 28.3621 143.528 28.5206C143.131 28.679 142.695 28.9167 142.26 29.2336C141.824 29.5901 141.467 30.1446 141.15 30.8576C140.833 31.6102 140.635 32.5213 140.516 33.5512L139.209 44.7215H133.107L134.573 32.1648C134.692 30.9765 134.573 30.0258 134.177 29.3128C133.78 28.6394 133.107 28.2829 132.235 28.2829C131.799 28.2829 131.403 28.3621 131.007 28.5206C130.611 28.679 130.214 28.9167 129.779 29.2336C129.343 29.5901 128.986 30.1446 128.63 30.8576C128.313 31.6102 128.115 32.5213 127.996 33.5512L126.728 44.7215H120.626L123.003 23.5296H129.105Z" fill="white"/>
<path d="M156.722 44.7215L159.099 23.5296H165.161L162.784 44.7215H156.722Z" fill="white"/>
<path d="M176.929 28.0056L175.82 37.7499C175.701 38.5422 175.859 39.0967 176.256 39.4928C176.652 39.8889 177.206 40.0474 177.92 40.0474C178.989 40.0474 180.02 39.7701 180.971 39.2155L180.416 44.2857C179.306 44.7215 177.88 44.9195 176.137 44.9195C171.342 44.9195 169.203 42.5429 169.757 37.7103L170.867 28.0056H167.776L168.252 23.5296H171.342L171.937 18.5386H177.999L177.405 23.5296H182.357L181.882 28.0056H176.929Z" fill="white"/>
<path d="M189.965 44.4046L184.14 23.5692H190.797L192.342 30.1842C192.738 31.8479 193.055 33.3135 193.293 34.5811C193.531 35.809 193.689 36.6012 193.729 36.9577L193.769 37.5519C194.204 36.4428 195.235 33.9473 196.859 30.1446L199.712 23.5296H205.972L195.987 44.1273C193.095 50.069 189.41 53.0002 184.893 53.0002C184.021 53.0002 183.229 52.9606 182.555 52.8021L183.11 47.93C183.546 48.0488 184.021 48.0884 184.537 48.0884C185.765 48.0884 186.835 47.8111 187.667 47.217C188.538 46.6228 189.291 45.6721 189.965 44.4046Z" fill="white"/>
<path d="M214.729 23.5296L214.332 27.1342C214.808 26.3816 215.363 25.7082 215.997 25.1536C216.67 24.5991 217.423 24.1237 218.334 23.8069C219.206 23.49 220.157 23.3315 221.187 23.3315C223.366 23.3315 224.991 24.0049 226.061 25.2725C227.13 26.5796 227.527 28.481 227.249 30.9765L225.704 44.7215H219.602L221.029 32.1252C221.147 30.8576 220.989 29.907 220.434 29.2732C219.919 28.6394 219.127 28.2829 218.097 28.2829C217.383 28.2829 216.71 28.481 216.115 28.8375C215.481 29.194 214.966 29.7881 214.491 30.5803C214.055 31.3726 213.738 32.3628 213.619 33.5512L212.351 44.7215H206.25L208.627 23.5296H214.729Z" fill="white"/>
<path d="M161.109 14.0695C160.356 14.7825 159.921 15.6143 159.802 16.565C159.683 17.5553 159.96 18.3871 160.554 19.1001C161.149 19.8131 161.941 20.1696 162.932 20.1696C163.922 20.1696 164.794 19.8131 165.547 19.1001C166.339 18.3871 166.775 17.5553 166.894 16.565C167.013 15.6143 166.775 14.7825 166.141 14.0695C165.507 13.3565 164.715 13 163.724 13C162.773 13 161.902 13.3565 161.109 14.0695Z" fill="#66E8FA"/>
<rect width="65" height="65" rx="32.5" fill="#66E8FA"/>
<rect width="65" height="65" rx="32.5" fill="url(#paint0_linear_63_37)" fill-opacity="0.05"/>
<rect width="65" height="65" rx="32.5" fill="url(#paint1_radial_63_37)" fill-opacity="0.05"/>
<rect x="0.5" y="0.5" width="64" height="64" rx="32" stroke="url(#paint2_linear_63_37)" stroke-opacity="0.3"/>
<rect x="0.5" y="0.5" width="64" height="64" rx="32" stroke="url(#paint3_linear_63_37)" stroke-opacity="0.1"/>
<path d="M28.9297 27.0332L24.5312 32.433L22.978 34.3359L22.0663 35.4546L21.9991 35.5387C21.6182 35.9931 21.1391 36.3591 20.5965 36.61C20.0538 36.861 19.4611 36.9908 18.8611 36.9901H10.6571L15.063 31.5903L16.6237 29.6874L17.5336 28.5742L17.6063 28.4828C17.9853 28.0309 18.4614 27.6666 19.0006 27.416C19.5399 27.1654 20.1289 27.0347 20.7257 27.0332H28.9297Z" fill="#2E3539"/>
<path d="M45.4981 23.4176H25.4692C24.4439 23.4171 23.4595 23.0234 22.7264 22.3208L15.9637 15.6963H35.9908C36.5079 15.6951 37.0201 15.7942 37.4979 15.9881C37.9757 16.182 38.4096 16.4668 38.7746 16.826L45.4981 23.4176Z" fill="#2E3539"/>
<path d="M55.3429 23.4189L48.6771 31.5881L48.623 31.6521C48.2568 32.0959 47.7944 32.4543 47.2694 32.7012C46.7443 32.9481 46.1698 33.0774 45.5875 33.0797H37.6222L41.892 27.8444L43.3986 26L45.498 23.4281L55.3429 23.4189Z" fill="#2E3539"/>
<path d="M46.8293 46.935C46.8301 47.4876 46.7093 48.0338 46.475 48.5363L46.3501 48.7813L43.5346 54.3036L40.0573 49.6167L39.4121 48.7466L27.7773 33.0791H37.6222L46.0555 44.6556L46.1301 44.7561C46.5826 45.3964 46.8264 46.1561 46.8293 46.935Z" fill="#2E3539"/>
<defs>
<linearGradient id="paint0_linear_63_37" x1="32.5" y1="0" x2="32.5" y2="65" gradientUnits="userSpaceOnUse">
<stop stop-color="white"/>
<stop offset="1" stop-color="white" stop-opacity="0.8"/>
</linearGradient>
<radialGradient id="paint1_radial_63_37" cx="0" cy="0" r="1" gradientUnits="userSpaceOnUse" gradientTransform="translate(32.5) rotate(90) scale(65 32.5)">
<stop stop-color="white"/>
<stop offset="1" stop-color="white" stop-opacity="0"/>
</radialGradient>
<linearGradient id="paint2_linear_63_37" x1="24.8637" y1="-190.886" x2="156.581" y2="-57.8536" gradientUnits="userSpaceOnUse">
<stop stop-color="white"/>
<stop offset="1" stop-color="white" stop-opacity="0"/>
</linearGradient>
<linearGradient id="paint3_linear_63_37" x1="4.77457" y1="2.88714e-06" x2="7.68011" y2="32.2463" gradientUnits="userSpaceOnUse">
<stop stop-color="white"/>
<stop offset="0.379814" stop-color="white" stop-opacity="0"/>
</linearGradient>
</defs>
</svg>
