<svg width="46" height="40" viewBox="0 0 46 40" fill="none" xmlns="http://www.w3.org/2000/svg">
<path d="M18.9297 12.0332L14.5312 17.433L12.978 19.3359L12.0663 20.4546L11.9991 20.5387C11.6182 20.9931 11.1391 21.3591 10.5965 21.61C10.0538 21.861 9.46112 21.9908 8.86111 21.9901H0.657104L5.06303 16.5903L6.62366 14.6874L7.53356 13.5742L7.60627 13.4828C7.98525 13.0309 8.46138 12.6666 9.00062 12.416C9.53986 12.1654 10.1289 12.0347 10.7257 12.0332H18.9297Z" fill="#66E8FA"/>
<path d="M35.4981 8.41761H15.4692C14.4439 8.41706 13.4595 8.02343 12.7264 7.32083L5.96368 0.696301H25.9908C26.5079 0.695057 27.0201 0.794245 27.4979 0.98814C27.9757 1.18203 28.4096 1.46679 28.7746 1.82598L35.4981 8.41761Z" fill="#66E8FA"/>
<path d="M45.3429 8.41895L38.6771 16.5881L38.623 16.6521C38.2568 17.0959 37.7944 17.4543 37.2694 17.7012C36.7443 17.9481 36.1698 18.0774 35.5875 18.0797H27.6222L31.892 12.8444L33.3986 11L35.498 8.42809L45.3429 8.41895Z" fill="#66E8FA"/>
<path d="M36.8293 31.935C36.8301 32.4876 36.7093 33.0338 36.475 33.5363L36.3501 33.7813L33.5346 39.3036L30.0573 34.6167L29.4121 33.7466L17.7773 18.0791H27.6222L36.0555 29.6556L36.1301 29.7561C36.5826 30.3964 36.8264 31.1561 36.8293 31.935Z" fill="#66E8FA"/>
</svg>
