<svg width="240" height="212" viewBox="0 0 240 212" fill="none" xmlns="http://www.w3.org/2000/svg">
<path d="M98 62.0195L74.41 91.5595L66.08 101.97L61.19 108.09L60.83 108.55C58.7868 111.036 56.2174 113.037 53.307 114.41C50.3967 115.783 47.218 116.494 44 116.49H0L23.63 86.9495L32 76.5396L36.88 70.4495L37.27 69.9495C39.3025 67.4772 41.8561 65.4845 44.7482 64.1136C47.6403 62.7428 50.7995 62.0277 54 62.0195H98Z" fill="#ADFA1C"/>
<path d="M186.86 42.2401H79.44C73.9414 42.2371 68.662 40.0837 64.73 36.2401L28.46 6.31793e-05H135.87C138.643 -0.00673953 141.391 0.535874 143.953 1.59659C146.516 2.65731 148.843 4.21511 150.8 6.18006L186.86 42.2401Z" fill="#ADFA1C"/>
<path d="M239.66 42.2402L203.91 86.9302L203.62 87.2802C201.656 89.7082 199.176 91.6686 196.36 93.0195C193.544 94.3703 190.463 95.0776 187.34 95.0902H144.62L167.52 66.4502L175.6 56.3602L186.86 42.2903L239.66 42.2402Z" fill="#ADFA1C"/>
<path d="M194 170.89C194.005 173.913 193.356 176.901 192.1 179.65L191.43 180.99L176.33 211.2L157.68 185.56L154.22 180.8L91.8201 95.0898H144.62L189.85 158.42L190.25 158.97C192.677 162.472 193.985 166.629 194 170.89Z" fill="#ADFA1C"/>
</svg>
