<svg width="750" height="500" viewBox="0 0 750 500" fill="none" xmlns="http://www.w3.org/2000/svg">
<path d="M166.52 49.1899H159.37V202.95H166.52V49.1899Z" fill="#777777"/>
<path d="M158.19 50.38H55.74C55.6848 50.38 55.64 50.4248 55.64 50.48V203.06C55.64 203.115 55.6848 203.16 55.74 203.16H158.19C158.245 203.16 158.29 203.115 158.29 203.06V50.48C158.29 50.4248 158.245 50.38 158.19 50.38Z" fill="#595A5B"/>
<path d="M159.37 204.35H54.55C54.536 204.35 54.5221 204.347 54.5093 204.341C54.4964 204.336 54.4849 204.328 54.4755 204.317C54.4661 204.307 54.4589 204.295 54.4545 204.281C54.4501 204.268 54.4486 204.254 54.45 204.24V49.2399C54.4484 49.2264 54.4499 49.2127 54.4543 49.1998C54.4588 49.187 54.4661 49.1753 54.4757 49.1656C54.4854 49.156 54.497 49.1487 54.5099 49.1442C54.5228 49.1398 54.5365 49.1383 54.55 49.1399H159.37C159.384 49.1385 159.398 49.1401 159.411 49.1445C159.425 49.1488 159.437 49.156 159.447 49.1654C159.458 49.1748 159.466 49.1864 159.472 49.1992C159.477 49.212 159.48 49.2259 159.48 49.2399V204.24C159.48 204.269 159.468 204.297 159.448 204.318C159.427 204.338 159.399 204.35 159.37 204.35ZM56.93 202H157C157.029 202 157.057 201.988 157.078 201.968C157.098 201.947 157.11 201.919 157.11 201.89V51.6699C157.11 51.6559 157.107 51.642 157.102 51.6292C157.096 51.6164 157.088 51.6048 157.077 51.5954C157.067 51.586 157.055 51.5788 157.041 51.5745C157.028 51.5701 157.014 51.5685 157 51.5699H56.93C56.9165 51.5683 56.9028 51.5698 56.8899 51.5742C56.877 51.5787 56.8654 51.586 56.8557 51.5956C56.8461 51.6053 56.8388 51.617 56.8343 51.6298C56.8299 51.6427 56.8284 51.6564 56.83 51.6699V201.86C56.823 201.876 56.8202 201.893 56.822 201.91C56.8238 201.928 56.83 201.944 56.8401 201.958C56.8502 201.973 56.8638 201.984 56.8796 201.991C56.8953 201.998 56.9127 202.001 56.93 202Z" fill="#3D3C3C"/>
<path d="M148.03 59.7999H66.07C66.0148 59.7999 65.97 59.8447 65.97 59.8999V193.53C65.97 193.585 66.0148 193.63 66.07 193.63H148.03C148.085 193.63 148.13 193.585 148.13 193.53V59.8999C148.13 59.8447 148.085 59.7999 148.03 59.7999Z" fill="#3D3D3D"/>
<path d="M129.97 97.74H83.96C83.9269 97.74 83.9 97.7669 83.9 97.8V151.75C83.9 151.783 83.9269 151.81 83.96 151.81H129.97C130.003 151.81 130.03 151.783 130.03 151.75V97.8C130.03 97.7669 130.003 97.74 129.97 97.74Z" fill="#4A4A4A"/>
<path d="M126.38 145.19C126.44 145.37 124.16 146.37 119.83 145.86C117.16 145.497 114.625 144.465 112.46 142.86C109.515 140.662 107.48 137.459 106.74 133.86C106.313 131.606 106.494 129.278 107.263 127.117C108.033 124.955 109.364 123.037 111.12 121.56C112.107 120.713 113.23 120.037 114.44 119.56C115.765 119.069 117.189 118.907 118.59 119.09C120.13 119.24 121.582 119.874 122.74 120.9C123.388 121.509 123.875 122.269 124.16 123.111C124.444 123.953 124.516 124.853 124.37 125.73C124.055 127.315 123.259 128.764 122.09 129.88C121.065 130.899 119.896 131.762 118.62 132.44C116.074 133.853 113.238 134.664 110.33 134.81C107.255 134.978 104.194 134.285 101.49 132.81C98.7045 131.255 96.4425 128.91 94.99 126.07C93.4944 123.161 93.0798 119.816 93.82 116.63C94.5573 113.545 96.3202 110.802 98.82 108.85C100.061 107.887 101.477 107.174 102.99 106.75C104.524 106.34 106.133 106.289 107.69 106.6C109.333 106.917 110.828 107.759 111.95 109C113.022 110.278 113.613 111.892 113.62 113.56C113.632 115.078 113.25 116.574 112.51 117.9C111.827 119.1 110.936 120.17 109.88 121.06C107.968 122.664 105.74 123.846 103.34 124.53C101.112 125.184 98.7719 125.365 96.47 125.06C94.3207 124.768 92.2676 123.984 90.47 122.77C88.9305 121.753 87.6252 120.42 86.6407 118.86C85.6561 117.299 85.0151 115.547 84.76 113.72C84.4496 110.959 85.2042 108.184 86.87 105.96C87.8646 104.577 89.2208 103.494 90.79 102.83C91.87 102.42 92.48 102.43 92.51 102.54C92.54 102.65 92.02 102.92 91.15 103.54C89.9217 104.4 88.8975 105.52 88.15 106.82C86.9492 108.808 86.5087 111.163 86.91 113.45C87.2141 114.924 87.8232 116.318 88.698 117.542C89.5729 118.767 90.6942 119.795 91.99 120.56C93.5583 121.481 95.3089 122.047 97.1193 122.22C98.9297 122.393 100.756 122.168 102.47 121.56C104.405 120.932 106.189 119.911 107.71 118.56C108.456 117.974 109.063 117.23 109.487 116.38C109.911 115.531 110.141 114.599 110.16 113.65C110.155 112.783 109.831 111.948 109.251 111.304C108.67 110.661 107.872 110.253 107.01 110.16C106.012 109.98 104.987 110.028 104.01 110.3C102.976 110.617 102.01 111.122 101.16 111.79C99.3629 113.245 98.103 115.258 97.58 117.51C97.0481 119.829 97.3601 122.261 98.46 124.37C99.5838 126.544 101.323 128.338 103.46 129.53C105.548 130.676 107.911 131.226 110.29 131.12C112.637 131.02 114.93 130.391 117 129.28C117.98 128.782 118.882 128.146 119.68 127.39C120.343 126.801 120.816 126.028 121.04 125.17C121.107 124.851 121.092 124.52 120.995 124.209C120.899 123.897 120.725 123.616 120.49 123.39C119.872 122.834 119.096 122.485 118.27 122.39C117.395 122.26 116.501 122.335 115.66 122.61C114.78 122.922 113.956 123.375 113.22 123.95C111.831 125.056 110.758 126.507 110.106 128.159C109.455 129.81 109.25 131.604 109.51 133.36C110.008 136.39 111.564 139.147 113.9 141.14C115.736 142.664 117.899 143.746 120.22 144.3C124 145.31 126.35 144.86 126.38 145.19Z" fill="#777777"/>
<path d="M701.94 61.73H620.28V146.86H701.94V61.73Z" fill="#777777"/>
<path d="M696.41 61.73H614.75V146.86H696.41V61.73Z" fill="#4A4A4A"/>
<path d="M696.44 146.89H614.73V61.71H696.44V146.89ZM614.78 146.83H696.39V61.76H614.78V146.83Z" fill="#777777"/>
<path d="M685.44 73.1799H625.73V135.42H685.44V73.1799Z" fill="#3D3D3D"/>
<path d="M625.73 135.83C625.311 136.458 624.818 137.032 624.26 137.54C623.26 138.54 621.96 139.91 620.46 141.39C618.96 142.87 617.58 144.19 616.56 145.12C616.045 145.669 615.464 146.153 614.83 146.56C615.254 145.939 615.747 145.369 616.3 144.86C617.3 143.86 618.6 142.48 620.1 141C621.6 139.52 622.99 138.2 624.01 137.26C624.52 136.712 625.098 136.232 625.73 135.83Z" fill="#777777"/>
<path d="M685.44 135.68C686.063 136.105 686.636 136.598 687.15 137.15C688.15 138.1 689.52 139.44 691 140.95C692.48 142.46 693.8 143.83 694.73 144.85C695.275 145.366 695.758 145.943 696.17 146.57C695.545 146.151 694.972 145.661 694.46 145.11C693.46 144.11 692.09 142.81 690.61 141.3C689.13 139.79 687.8 138.41 686.87 137.4C686.325 136.887 685.845 136.309 685.44 135.68Z" fill="#777777"/>
<path d="M685.27 73.34C685.701 72.7187 686.197 72.1454 686.75 71.63C687.75 70.63 689.04 69.26 690.54 67.78C692.04 66.3 693.43 64.98 694.44 64.05C694.958 63.5033 695.538 63.02 696.17 62.61C695.749 63.2359 695.256 63.8099 694.7 64.32C693.7 65.32 692.41 66.69 690.9 68.17C689.39 69.65 688 71 687 71.91C686.487 72.4583 685.905 72.9388 685.27 73.34Z" fill="#777777"/>
<path d="M625.57 73.49C624.936 73.0681 624.358 72.5674 623.85 72C622.85 71 621.48 69.71 620.01 68.21C618.54 66.71 617.21 65.32 616.27 64.31C615.727 63.7887 615.244 63.2084 614.83 62.58C615.458 62.9977 616.033 63.4915 616.54 64.05C617.54 65.05 618.91 66.34 620.4 67.85C621.89 69.36 623.2 70.74 624.14 71.76C624.677 72.2843 625.156 72.8643 625.57 73.49Z" fill="#777777"/>
<path d="M685.27 135.42C685.27 135.42 685.27 135.31 685.27 135.11C685.27 134.91 685.27 134.62 685.27 134.25C685.27 133.47 685.27 132.34 685.27 130.89C685.27 127.94 685.27 123.65 685.21 118.2C685.21 107.3 685.14 91.7699 685.09 73.1999L685.32 73.4299H625.79L626.05 73.1699C626.05 96.0099 626.05 117.38 626.05 135.41L625.82 135.18L668.93 135.3L681.04 135.35H684.25H685H685.28H684.22H681.06L669 135.41L625.74 135.52H625.51V135.3C625.51 117.3 625.51 95.8999 625.51 73.0599V72.7899H625.79H685.32H685.56V73.0199C685.56 91.6699 685.48 107.25 685.45 118.19C685.45 123.61 685.45 127.88 685.39 130.82C685.39 132.26 685.39 133.37 685.39 134.14C685.39 134.5 685.39 134.77 685.39 134.98C685.374 135.132 685.333 135.28 685.27 135.42Z" fill="#777777"/>
<path d="M665.54 94.33H645.62V114.25H665.54V94.33Z" fill="#797979"/>
<path d="M701.94 176.63H620.28V261.76H701.94V176.63Z" fill="#777777"/>
<path d="M696.41 176.63H614.75V261.76H696.41V176.63Z" fill="#4A4A4A"/>
<path d="M696.44 261.78H614.73V176.6H696.44V261.78ZM614.78 261.78H696.39V176.65H614.78V261.78Z" fill="#777777"/>
<path d="M685.44 188.07H625.73V250.31H685.44V188.07Z" fill="#3D3D3D"/>
<path d="M625.73 250.72C625.31 251.35 624.817 251.927 624.26 252.44C623.26 253.44 621.96 254.8 620.46 256.28C618.96 257.76 617.58 259.08 616.56 260.02C616.047 260.568 615.465 261.049 614.83 261.45C615.257 260.832 615.75 260.262 616.3 259.75C617.3 258.75 618.6 257.38 620.1 255.89C621.6 254.4 622.99 253.09 624.01 252.15C624.527 251.61 625.104 251.13 625.73 250.72Z" fill="#777777"/>
<path d="M685.44 250.57C686.063 250.995 686.636 251.488 687.15 252.04C688.15 253.04 689.52 254.34 691 255.84C692.48 257.34 693.8 258.72 694.73 259.74C695.279 260.255 695.763 260.836 696.17 261.47C695.547 261.045 694.974 260.552 694.46 260C693.46 259.05 692.09 257.7 690.61 256.2C689.13 254.7 687.8 253.31 686.87 252.29C686.322 251.78 685.842 251.202 685.44 250.57Z" fill="#777777"/>
<path d="M685.27 188.23C685.701 187.609 686.197 187.035 686.75 186.52C687.75 185.52 689.04 184.15 690.54 182.67C692.04 181.19 693.43 179.88 694.44 178.94C694.958 178.393 695.538 177.91 696.17 177.5C695.752 178.128 695.258 178.703 694.7 179.21C693.7 180.21 692.41 181.58 690.9 183.06C689.39 184.54 688 185.87 687 186.8C686.487 187.348 685.905 187.829 685.27 188.23Z" fill="#777777"/>
<path d="M625.57 188.39C624.942 187.964 624.365 187.468 623.85 186.91C622.85 185.96 621.48 184.62 620.01 183.12C618.54 181.62 617.21 180.24 616.27 179.22C615.727 178.699 615.244 178.118 614.83 177.49C615.458 177.908 616.033 178.402 616.54 178.96C617.54 179.91 618.91 181.26 620.4 182.76C621.89 184.26 623.2 185.65 624.14 186.67C624.68 187.187 625.16 187.764 625.57 188.39Z" fill="#777777"/>
<path d="M685.27 250.31C685.27 250.31 685.27 250.2 685.27 250.01C685.27 249.82 685.27 249.51 685.27 249.14C685.27 248.36 685.27 247.24 685.27 245.78C685.27 242.83 685.27 238.54 685.21 233.09C685.21 222.19 685.14 206.66 685.09 188.09L685.32 188.32H625.79L626.05 188.06C626.05 210.9 626.05 232.28 626.05 250.3L625.82 250.07L668.93 250.19L681.04 250.25H684.25H685.08H684.3H681.14L669.08 250.31L625.82 250.43H625.59V250.2C625.59 232.2 625.59 210.8 625.59 187.96V187.69H625.87H685.4H685.64V187.92C685.64 206.57 685.56 222.15 685.53 233.09C685.53 238.52 685.53 242.79 685.47 245.72C685.47 247.16 685.47 248.27 685.47 249.04C685.47 249.4 685.47 249.68 685.47 249.88C685.427 250.033 685.36 250.179 685.27 250.31Z" fill="#777777"/>
<path d="M665.54 209.23H645.62V229.15H665.54V209.23Z" fill="#777777"/>
<path d="M508.37 120.63C508.078 130.721 504.797 140.499 498.943 148.724C493.089 156.949 484.926 163.252 475.488 166.834C466.049 170.416 455.76 171.116 445.923 168.846C436.086 166.576 427.145 161.438 420.23 154.082C413.316 146.726 408.741 137.483 407.083 127.525C405.426 117.566 406.762 107.34 410.921 98.141C415.08 88.9422 421.876 81.1847 430.447 75.8511C439.018 70.5175 448.98 67.8477 459.07 68.18C472.563 68.5979 485.337 74.3586 494.583 84.1948C503.828 94.031 508.788 107.137 508.37 120.63Z" fill="#3D3C3C"/>
<path d="M497.64 120.81C497.407 128.491 494.9 135.931 490.436 142.187C485.973 148.443 479.755 153.234 472.567 155.955C465.38 158.675 457.547 159.202 450.06 157.47C442.573 155.737 435.769 151.822 430.507 146.22C425.246 140.619 421.765 133.583 420.504 126.002C419.243 118.421 420.26 110.637 423.425 103.634C426.59 96.6308 431.761 90.7243 438.284 86.6615C444.807 82.5986 452.389 80.5623 460.07 80.81C465.163 80.969 470.176 82.1299 474.821 84.2262C479.465 86.3226 483.652 89.3134 487.14 93.0278C490.629 96.7423 493.352 101.108 495.154 105.875C496.955 110.641 497.8 115.717 497.64 120.81Z" fill="#3D3C3C"/>
<path d="M496.25 120.24C496.219 120.031 496.202 119.821 496.2 119.61C496.2 119.15 496.2 118.54 496.13 117.77C496.13 117.36 496.13 116.9 496.08 116.41C496.03 115.92 495.95 115.41 495.88 114.78C495.746 113.432 495.515 112.095 495.19 110.78C494.387 107.135 493.039 103.632 491.19 100.39C486.325 91.7973 478.369 85.3813 468.941 82.4479C459.513 79.5144 449.321 80.284 440.44 84.5999C439.61 85.0099 438.82 85.4899 438 85.9399C437.175 86.3898 436.383 86.8977 435.63 87.4599C434.058 88.5366 432.561 89.7194 431.15 90.9999C429.752 92.3512 428.446 93.7944 427.24 95.3199C424.749 98.4425 422.78 101.948 421.41 105.7C418.504 113.466 418.23 121.973 420.63 129.91C421.755 133.747 423.498 137.374 425.79 140.65C426.891 142.254 428.1 143.781 429.41 145.22C430.738 146.588 432.155 147.867 433.65 149.05C435.111 150.212 436.652 151.272 438.26 152.22C446.839 157.134 456.973 158.578 466.583 156.253C476.192 153.928 484.546 148.012 489.93 139.72C491.98 136.603 493.548 133.195 494.58 129.61C494.993 128.301 495.31 126.964 495.53 125.61C495.64 125.03 495.76 124.5 495.84 124.01C495.92 123.52 495.93 123.01 495.97 122.66C496.05 121.88 496.11 121.27 496.16 120.82C496.177 120.612 496.207 120.405 496.25 120.2C496.272 120.409 496.272 120.621 496.25 120.83C496.25 121.28 496.19 121.89 496.14 122.67C496.14 123.08 496.08 123.54 496.05 124.03C496.02 124.52 495.88 125.03 495.78 125.66C495.583 127.013 495.289 128.35 494.9 129.66C493.914 133.323 492.366 136.811 490.31 140C487.339 144.678 483.404 148.669 478.769 151.708C474.134 154.746 468.905 156.761 463.43 157.62C456.511 158.694 449.43 157.9 442.92 155.32C441.202 154.636 439.531 153.838 437.92 152.93C436.279 151.964 434.706 150.888 433.21 149.71C430.096 147.31 427.394 144.419 425.21 141.15C422.865 137.794 421.082 134.079 419.93 130.15C417.483 122.045 417.764 113.36 420.73 105.43C422.146 101.596 424.172 98.017 426.73 94.8299C427.965 93.2771 429.302 91.8073 430.73 90.4299C432.176 89.1246 433.706 87.9153 435.31 86.8099C436.076 86.2352 436.885 85.7204 437.73 85.2699C438.56 84.8099 439.38 84.2699 440.22 83.8999C441.897 83.0933 443.627 82.4049 445.4 81.8399C452.058 79.6754 459.174 79.3301 466.01 80.8399C471.418 82.0522 476.506 84.4009 480.937 87.7301C485.368 91.0593 489.04 95.2929 491.71 100.15C493.549 103.44 494.864 106.996 495.61 110.69C495.924 112.025 496.134 113.382 496.24 114.75C496.3 115.34 496.38 115.88 496.4 116.39C496.42 116.9 496.4 117.34 496.4 117.75C496.4 118.53 496.4 119.14 496.4 119.6C496.378 119.819 496.328 120.034 496.25 120.24Z" fill="#777777"/>
<path d="M461.09 142.28L460.97 149.05L454.97 148.94L455.09 142.36C449.09 141.89 443.41 139.92 440.14 137.26L443.59 129.95C447.014 132.435 451.025 133.986 455.23 134.45L455.4 124.36C448.73 122.61 441.28 120.25 441.4 111.61C441.52 105.21 446.26 99.7999 455.82 98.8799L455.94 92.1799L461.94 92.2799L461.82 98.8699C466.137 99.1822 470.319 100.515 474.02 102.76L470.87 110.14C468.057 108.436 464.933 107.311 461.68 106.83L461.5 117.1C468.18 118.79 475.5 121.16 475.35 129.67C475.27 136 470.59 141.3 461.09 142.28ZM455.52 115.48L455.67 106.91C452.46 107.58 451.16 109.31 451.12 111.3C451.08 113.29 452.88 114.59 455.52 115.48ZM465.65 130.22C465.65 128.11 463.96 126.93 461.38 125.98L461.23 134.31C464.26 133.7 465.62 132.15 465.65 130.22Z" fill="#777777"/>
<path d="M505.81 166.34C496.889 174.447 486.04 180.134 474.297 182.86C462.555 185.585 450.31 185.258 438.73 181.91C419.48 176.29 402.98 162.15 395.33 143.49C391.52 134.081 390.02 123.896 390.954 113.787C391.888 103.679 395.23 93.9417 400.7 85.39C411.8 68.05 431 56.7 451.46 54.73C477.13 52.25 502.52 63.99 516.58 85.73C518.67 88.96 523.86 85.96 521.76 82.73C515.061 72.4145 505.94 63.8944 495.192 57.9124C484.445 51.9304 472.397 48.6681 460.1 48.41C437.43 47.94 414.94 57.82 400.55 75.41C393.463 84.05 388.552 94.2645 386.231 105.196C383.91 116.127 384.246 127.455 387.21 138.23C393.26 159.66 409.62 176.91 430.14 185.23C457.14 196.23 488.62 190.13 510.05 170.56C512.91 167.95 508.65 163.71 505.81 166.31V166.34Z" fill="#595A5B"/>
<path d="M500.25 83.7399L524.7 67.2799V92.1699L500.25 83.7399Z" fill="#595A5B"/>
<path d="M691.74 469.79C691.74 469.94 548.13 470.05 371.02 470.05C193.91 470.05 50.26 469.94 50.26 469.79C50.26 469.64 193.84 469.53 371.02 469.53C548.2 469.53 691.74 469.65 691.74 469.79Z" fill="#595A5B"/>
<path d="M407.29 204.36C407.29 204.36 443.94 214.02 455.53 252.67L440 259.58C440 259.58 436.43 232.69 400.12 220.98C380.47 214.64 354.45 223.58 347.25 231.78L329.76 224.23C341.45 211.36 370.3 194.28 407.29 204.36Z" fill="#ADFA1C"/>
<path d="M465.5 242.93L426.76 255.78L456.49 270.68L465.5 242.93Z" fill="#ADFA1C"/>
<path d="M361.57 469.79L224.57 469.71C208.09 469.71 194.74 455.71 194.74 438.34L194.81 77.39C194.81 60.07 208.19 46.03 224.67 46.04L361.67 46.12C378.15 46.12 391.5 60.18 391.5 77.49L391.43 438.49C391.43 455.76 378.06 469.8 361.57 469.79Z" fill="#595A5B"/>
<path d="M361.53 58.8901H334.97C331.4 58.8901 328.51 62.0601 328.51 65.9701V71.0001C328.51 74.9101 325.62 78.0801 322.06 78.0801H270.29C266.73 78.0801 263.84 74.9001 263.84 70.9901V65.9101C263.84 62.0001 260.95 58.8301 257.39 58.8301H248.05H224.8C213.25 58.8301 203.89 68.6601 203.89 80.8301L203.82 433.14C203.82 445.27 213.17 455.14 224.71 455.14L361.44 455.23C372.98 455.23 382.35 445.4 382.35 433.23L382.42 80.9201C382.42 68.7301 373.07 58.9001 361.53 58.8901Z" fill="#363636"/>
<path d="M232.77 427.26V437.6C232.779 437.807 232.731 438.012 232.631 438.194C232.531 438.375 232.384 438.526 232.204 438.629C232.025 438.732 231.82 438.784 231.613 438.779C231.406 438.774 231.204 438.712 231.03 438.6L222.9 433.43C222.739 433.327 222.606 433.185 222.515 433.017C222.423 432.849 222.375 432.661 222.375 432.47C222.375 432.279 222.423 432.091 222.515 431.923C222.606 431.755 222.739 431.613 222.9 431.51L231 426.3C231.172 426.182 231.373 426.114 231.581 426.103C231.789 426.092 231.996 426.138 232.179 426.238C232.362 426.337 232.514 426.485 232.619 426.666C232.723 426.846 232.775 427.052 232.77 427.26Z" fill="#919191"/>
<path d="M299.56 432.33C299.558 433.74 299.138 435.117 298.354 436.289C297.569 437.46 296.455 438.372 295.152 438.91C293.849 439.448 292.415 439.588 291.033 439.312C289.65 439.036 288.381 438.356 287.385 437.358C286.389 436.361 285.711 435.09 285.436 433.707C285.162 432.325 285.304 430.891 285.844 429.589C286.384 428.287 287.297 427.174 288.47 426.391C289.642 425.608 291.02 425.19 292.43 425.19C294.322 425.193 296.135 425.946 297.472 427.285C298.809 428.624 299.56 430.438 299.56 432.33Z" fill="#919191"/>
<path d="M362 426.12H352.59C351.557 426.12 350.72 426.957 350.72 427.99V437.43C350.72 438.463 351.557 439.3 352.59 439.3H362C363.033 439.3 363.87 438.463 363.87 437.43V427.99C363.87 426.957 363.033 426.12 362 426.12Z" fill="#919191"/>
<path d="M253.52 186.12H264.52L262.38 184.49C264 189.823 265.623 195.157 267.25 200.49L274.96 225.89C275.55 227.89 276.15 229.79 276.74 231.74C276.878 232.204 277.159 232.611 277.544 232.904C277.929 233.197 278.397 233.36 278.88 233.37L310.34 233.28H314.85C317.7 233.28 317.71 228.84 314.85 228.85L283.39 228.93H278.88L281.02 230.55L276.16 214.55L268.44 189.16L266.66 183.3C266.522 182.837 266.241 182.429 265.856 182.136C265.471 181.843 265.003 181.68 264.52 181.67H253.52C250.66 181.67 250.66 186.11 253.52 186.11V186.12Z" fill="#595A5B"/>
<path d="M321.86 191.77C319.787 201.05 317.713 210.33 315.64 219.61C315.35 220.94 315.05 222.28 314.75 223.61L316.36 222.39L302.89 222.26L281.29 222.05L276.35 222L277.95 223.22C275.07 214.033 272.183 204.843 269.29 195.65L268.07 191.77L266.46 193.87H323.46C323.879 193.838 324.271 193.648 324.557 193.339C324.842 193.031 325.001 192.626 325.001 192.205C325.001 191.784 324.842 191.379 324.557 191.071C324.271 190.762 323.879 190.573 323.46 190.54H266.46C266.205 190.544 265.954 190.605 265.726 190.721C265.498 190.836 265.3 191.001 265.145 191.205C264.991 191.408 264.885 191.644 264.836 191.894C264.786 192.145 264.795 192.403 264.86 192.65C267.747 201.837 270.633 211.027 273.52 220.22C273.93 221.51 274.34 222.81 274.74 224.1C274.845 224.448 275.057 224.755 275.346 224.975C275.635 225.196 275.986 225.32 276.35 225.33L289.82 225.46L311.42 225.67L316.36 225.72C316.722 225.713 317.072 225.592 317.36 225.372C317.648 225.153 317.858 224.847 317.96 224.5L324.17 196.65L325.07 192.65C325.53 190.56 322.33 189.67 321.86 191.77Z" fill="#595A5B"/>
<path d="M277.8 193.19C279.55 203.34 281.8 213.41 283.53 223.56C283.89 225.67 287.1 224.77 286.74 222.68C284.99 212.52 282.74 202.46 281.01 192.3C280.65 190.2 277.44 191.09 277.8 193.19Z" fill="#595A5B"/>
<path d="M295.37 192.75C295.537 203.163 295.713 213.573 295.9 223.98C295.9 226.12 299.26 226.13 299.23 223.98C299.063 213.573 298.887 203.163 298.7 192.75C298.7 190.61 295.34 190.6 295.37 192.75Z" fill="#595A5B"/>
<path d="M311.6 224.36L315.83 196.62L316.43 192.62C316.531 192.195 316.468 191.747 316.253 191.367C316.038 190.987 315.686 190.702 315.27 190.57C314.85 190.474 314.41 190.541 314.038 190.758C313.666 190.976 313.392 191.327 313.27 191.74C311.857 200.98 310.45 210.227 309.05 219.48C308.85 220.8 308.64 222.12 308.44 223.48C308.339 223.905 308.402 224.353 308.617 224.733C308.832 225.113 309.184 225.398 309.6 225.53C310.026 225.647 310.48 225.59 310.864 225.373C311.248 225.156 311.531 224.795 311.65 224.37L311.6 224.36Z" fill="#595A5B"/>
<path d="M270.09 203.61H320.42C320.839 203.578 321.231 203.388 321.517 203.079C321.802 202.771 321.961 202.366 321.961 201.945C321.961 201.524 321.802 201.119 321.517 200.811C321.231 200.502 320.839 200.313 320.42 200.28H270.09C269.671 200.313 269.279 200.502 268.993 200.811C268.708 201.119 268.549 201.524 268.549 201.945C268.549 202.366 268.708 202.771 268.993 203.079C269.279 203.388 269.671 203.578 270.09 203.61Z" fill="#595A5B"/>
<path d="M274.81 215.29H318.39C318.83 215.29 319.253 215.115 319.564 214.804C319.875 214.493 320.05 214.07 320.05 213.63C320.05 213.19 319.875 212.768 319.564 212.456C319.253 212.145 318.83 211.97 318.39 211.97H274.81C274.37 211.97 273.948 212.145 273.636 212.456C273.325 212.768 273.15 213.19 273.15 213.63C273.15 214.07 273.325 214.493 273.636 214.804C273.948 215.115 274.37 215.29 274.81 215.29Z" fill="#595A5B"/>
<path d="M314.83 247.97C318.1 247.97 320.75 245.32 320.75 242.05C320.75 238.78 318.1 236.13 314.83 236.13C311.56 236.13 308.91 238.78 308.91 242.05C308.91 245.32 311.56 247.97 314.83 247.97Z" fill="#595A5B"/>
<path d="M282.27 247.97C285.54 247.97 288.19 245.32 288.19 242.05C288.19 238.78 285.54 236.13 282.27 236.13C279 236.13 276.35 238.78 276.35 242.05C276.35 245.32 279 247.97 282.27 247.97Z" fill="#595A5B"/>
<path d="M270.92 162.32C270.92 162.32 246.57 161.5 232.29 183.17L240.61 190.3C240.61 190.3 247.78 174.4 272.3 173.89C285.58 173.62 294.7 181.35 297.63 187.73L312.68 187.47C307.83 177.38 295.56 162.94 270.92 162.32Z" fill="#ADFA1C"/>
<path d="M229.07 176.11L250.56 191.18L231.04 195.14L229.07 176.11Z" fill="#ADFA1C"/>
<path d="M371.36 96.0001C371.362 96.4791 371.222 96.948 370.957 97.3473C370.692 97.7466 370.315 98.0583 369.873 98.243C369.431 98.4277 368.944 98.477 368.474 98.3848C368.004 98.2926 367.572 98.0629 367.232 97.7248C366.893 97.3868 366.661 96.9556 366.567 96.4859C366.473 96.0162 366.52 95.5291 366.703 95.0863C366.886 94.6435 367.196 94.265 367.594 93.9986C367.993 93.7323 368.461 93.5901 368.94 93.5901C369.58 93.5901 370.194 93.8437 370.648 94.2954C371.101 94.747 371.357 95.36 371.36 96.0001Z" fill="#595A5B"/>
<path d="M368.94 105.03C370.277 105.03 371.36 103.947 371.36 102.61C371.36 101.274 370.277 100.19 368.94 100.19C367.603 100.19 366.52 101.274 366.52 102.61C366.52 103.947 367.603 105.03 368.94 105.03Z" fill="#595A5B"/>
<path d="M368.94 111.64C370.277 111.64 371.36 110.557 371.36 109.22C371.36 107.884 370.277 106.8 368.94 106.8C367.603 106.8 366.52 107.884 366.52 109.22C366.52 110.557 367.603 111.64 368.94 111.64Z" fill="#595A5B"/>
<path d="M224.84 94.8501L214.97 102.25H217.48V111.09L222.8 111.11V104.49L227 104.47V111.09H232.14V102.16L234.7 102.13L224.84 94.8501Z" fill="#595A5B"/>
<path d="M383.05 120.41C383.05 120.55 342.78 120.67 293.12 120.67C243.46 120.67 203.19 120.55 203.19 120.41C203.19 120.27 243.45 120.15 293.12 120.15C342.79 120.15 383.05 120.27 383.05 120.41Z" fill="#E0E0E0"/>
<path d="M291.22 286.89H289.62C284.208 286.89 279.82 291.278 279.82 296.69V375.53C279.82 380.942 284.208 385.33 289.62 385.33H291.22C296.632 385.33 301.02 380.942 301.02 375.53V296.69C301.02 291.278 296.632 286.89 291.22 286.89Z" fill="#4E4C4C"/>
<path d="M331.7 338.45C331.724 345.211 329.741 351.827 326.003 357.461C322.265 363.095 316.94 367.493 310.701 370.1C304.462 372.706 297.591 373.402 290.956 372.102C284.321 370.801 278.221 367.561 273.429 362.792C268.636 358.023 265.366 351.939 264.032 345.311C262.698 338.683 263.36 331.808 265.935 325.556C268.51 319.305 272.882 313.957 278.497 310.191C284.113 306.425 290.719 304.41 297.48 304.4C301.963 304.388 306.404 305.26 310.55 306.965C314.696 308.669 318.466 311.174 321.643 314.336C324.821 317.498 327.345 321.255 329.07 325.393C330.796 329.53 331.69 333.967 331.7 338.45Z" fill="#ADFA1C"/>
<path d="M324.51 338.81C324.52 343.951 323.005 348.98 320.158 353.26C317.311 357.541 313.258 360.881 308.513 362.859C303.768 364.837 298.542 365.363 293.498 364.372C288.453 363.381 283.816 360.917 280.171 357.291C276.527 353.664 274.039 349.039 273.023 344C272.007 338.96 272.507 333.732 274.462 328.977C276.416 324.222 279.736 320.153 284.002 317.284C288.268 314.415 293.289 312.876 298.43 312.86C301.847 312.849 305.232 313.513 308.393 314.811C311.553 316.11 314.427 318.019 316.849 320.429C319.271 322.839 321.194 325.703 322.509 328.857C323.823 332.011 324.503 335.393 324.51 338.81Z" fill="#ADFA1C"/>
<path d="M323.57 338.46C323.539 338.322 323.522 338.181 323.52 338.04C323.52 337.73 323.46 337.32 323.43 336.8C323.43 336.527 323.41 336.227 323.37 335.9C323.37 335.56 323.26 335.2 323.19 334.81C323.073 333.904 322.889 333.009 322.64 332.13C322.019 329.707 321.038 327.392 319.73 325.26C317.83 322.131 315.291 319.438 312.279 317.358C309.267 315.278 305.849 313.858 302.25 313.19C297.719 312.365 293.049 312.758 288.72 314.33C287.568 314.746 286.445 315.241 285.36 315.81C284.82 316.11 284.3 316.45 283.76 316.81C283.217 317.127 282.699 317.485 282.21 317.88C281.181 318.643 280.202 319.471 279.28 320.36C278.376 321.305 277.535 322.307 276.76 323.36C275.16 325.51 273.917 327.904 273.08 330.45C272.231 333.074 271.786 335.812 271.76 338.57C271.798 341.329 272.25 344.066 273.1 346.69C273.944 349.234 275.193 351.625 276.8 353.77C277.575 354.826 278.42 355.828 279.33 356.77C280.252 357.659 281.231 358.487 282.26 359.25C283.265 359.991 284.321 360.659 285.42 361.25C286.506 361.814 287.629 362.305 288.78 362.72C293.115 364.283 297.788 364.667 302.32 363.83C306.266 363.102 309.985 361.458 313.18 359.03C315.823 357.032 318.06 354.548 319.77 351.71C321.07 349.573 322.045 347.254 322.66 344.83C322.908 343.952 323.089 343.056 323.2 342.15C323.26 341.76 323.34 341.4 323.37 341.07C323.4 340.74 323.37 340.44 323.43 340.16C323.47 339.64 323.5 339.23 323.52 338.93C323.522 338.789 323.539 338.648 323.57 338.51C323.583 338.65 323.583 338.79 323.57 338.93V340.17C323.57 340.44 323.57 340.75 323.57 341.08C323.57 341.41 323.48 341.78 323.42 342.18C323.327 343.092 323.16 343.995 322.92 344.88C322.347 347.346 321.392 349.708 320.09 351.88C318.195 355.077 315.645 357.836 312.606 359.975C309.567 362.115 306.109 363.585 302.46 364.29C297.848 365.163 293.087 364.786 288.67 363.2C287.494 362.783 286.348 362.285 285.24 361.71C284.116 361.122 283.037 360.454 282.01 359.71C280.958 358.935 279.956 358.093 279.01 357.19C278.085 356.248 277.224 355.245 276.43 354.19C274.784 352.001 273.504 349.559 272.64 346.96C270.82 341.583 270.82 335.757 272.64 330.38C273.493 327.779 274.763 325.334 276.4 323.14C277.188 322.08 278.05 321.078 278.98 320.14C279.923 319.231 280.925 318.386 281.98 317.61C282.479 317.208 283.007 316.844 283.56 316.52C284.11 316.2 284.64 315.85 285.2 315.52C286.308 314.942 287.454 314.441 288.63 314.02C293.045 312.424 297.806 312.037 302.42 312.9C306.421 313.656 310.189 315.341 313.42 317.82C316.095 319.846 318.348 322.377 320.05 325.27C321.361 327.441 322.326 329.802 322.91 332.27C323.145 333.159 323.312 334.065 323.41 334.98C323.47 335.37 323.53 335.74 323.56 336.07V336.99C323.56 337.51 323.56 337.92 323.56 338.23C323.567 338.306 323.571 338.383 323.57 338.46Z" fill="#595A5B"/>
<g opacity="0.3">
<path d="M323.36 338.73C323.21 338.73 323.1 337.59 322.68 335.6C322.099 332.795 321.087 330.096 319.68 327.6C318.718 325.902 317.571 324.316 316.26 322.87C314.757 321.228 313.05 319.787 311.18 318.58C310.177 317.93 309.128 317.355 308.04 316.86C305.729 315.802 303.271 315.101 300.75 314.78C299.423 314.615 298.086 314.551 296.75 314.59C295.424 314.638 294.103 314.788 292.8 315.04C291.533 315.277 290.286 315.611 289.07 316.04C287.894 316.458 286.754 316.97 285.66 317.57C284.613 318.137 283.61 318.782 282.66 319.5C280.869 320.829 279.256 322.381 277.86 324.12C276.65 325.649 275.61 327.305 274.76 329.06C273.525 331.637 272.695 334.39 272.3 337.22C272.01 339.22 271.97 340.38 271.82 340.39C271.67 340.4 271.48 339.25 271.53 337.15C271.656 334.161 272.334 331.222 273.53 328.48C275.812 323.162 279.779 318.741 284.82 315.9C285.993 315.241 287.217 314.676 288.48 314.21C289.781 313.724 291.118 313.343 292.48 313.07C293.888 312.795 295.316 312.631 296.75 312.58C298.183 312.539 299.618 312.609 301.04 312.79C302.418 312.97 303.779 313.261 305.11 313.66C307.638 314.415 310.035 315.551 312.22 317.03C314.196 318.359 315.982 319.95 317.53 321.76C318.869 323.342 320.02 325.073 320.96 326.92C322.308 329.584 323.159 332.471 323.47 335.44C323.63 337.57 323.48 338.73 323.36 338.73Z" fill="black"/>
</g>
<g opacity="0.3">
<path d="M300.49 354L300.56 358.53L296.51 358.6L296.44 354.18C292.44 354 288.57 352.81 286.31 351.1L288.46 346.1C290.813 347.682 293.534 348.629 296.36 348.85L296.25 342.09C291.74 341.09 286.7 339.64 286.61 333.85C286.54 329.56 289.61 325.85 295.99 325L295.92 320.5L299.97 320.44L300.04 324.85C302.936 324.968 305.763 325.77 308.29 327.19L306.35 332.19C304.426 331.117 302.309 330.437 300.12 330.19L300.23 337.07C304.74 338.07 309.7 339.48 309.79 345.18C309.86 349.46 306.84 353.15 300.49 354ZM296.16 336.16L296.07 330.41C293.93 330.93 293.07 332.12 293.12 333.46C293.17 334.8 294.37 335.65 296.16 336.18V336.16ZM303.28 345.81C303.28 344.4 302.07 343.65 300.28 343.06L300.37 348.65C302.43 348.2 303.3 347.13 303.28 345.83V345.81Z" fill="black"/>
</g>
<path d="M279.04 290.84H239.6V379H279.04V290.84Z" fill="#363636"/>
<path d="M497.94 330.74C499.535 337.787 499.003 345.148 496.412 351.892C493.821 358.637 489.288 364.461 483.385 368.627C477.483 372.793 470.477 375.115 463.254 375.298C456.031 375.48 448.917 373.516 442.811 369.653C436.706 365.791 431.883 360.204 428.955 353.599C426.026 346.994 425.123 339.669 426.359 332.551C427.596 325.433 430.916 318.841 435.901 313.611C440.885 308.381 447.309 304.747 454.36 303.17C459.032 302.118 463.865 301.997 468.584 302.813C473.302 303.63 477.814 305.367 481.861 307.928C485.908 310.488 489.411 313.82 492.17 317.734C494.929 321.649 496.889 326.068 497.94 330.74Z" fill="#ADFA1C"/>
<path d="M490.52 332.78C491.737 338.149 491.333 343.759 489.36 348.898C487.387 354.038 483.933 358.477 479.436 361.652C474.939 364.828 469.601 366.598 464.097 366.739C458.594 366.879 453.172 365.384 448.519 362.441C443.866 359.499 440.191 355.242 437.958 350.21C435.726 345.178 435.036 339.596 435.977 334.172C436.919 328.747 439.448 323.724 443.245 319.738C447.043 315.752 451.938 312.983 457.31 311.78C460.87 310.978 464.552 310.884 468.148 311.506C471.743 312.127 475.181 313.45 478.265 315.4C481.349 317.351 484.019 319.889 486.121 322.871C488.224 325.853 489.719 329.22 490.52 332.78Z" fill="#ADFA1C"/>
<path d="M489.46 332.63C489.396 332.495 489.346 332.355 489.31 332.21L488.93 330.94L488.66 330.01C488.54 329.67 488.38 329.31 488.23 328.92C487.892 328.007 487.491 327.118 487.03 326.26C485.821 323.874 484.26 321.683 482.4 319.76C477.975 315.127 472.078 312.176 465.718 311.409C459.357 310.643 452.928 312.11 447.53 315.56C446.426 316.261 445.37 317.036 444.37 317.88C443.87 318.32 443.37 318.8 442.92 319.25C442.428 319.709 441.97 320.204 441.55 320.73C440.653 321.762 439.827 322.855 439.08 324C438.351 325.185 437.703 326.418 437.14 327.69C435.969 330.303 435.229 333.09 434.95 335.94C434.321 341.845 435.649 347.793 438.73 352.87C440.199 355.329 442.056 357.534 444.23 359.4C446.301 361.252 448.667 362.746 451.23 363.82C452.451 364.371 453.711 364.832 455 365.2C456.262 365.536 457.545 365.787 458.84 365.95C465.195 366.765 471.636 365.349 477.063 361.944C482.49 358.539 486.568 353.356 488.6 347.28C489.468 344.754 489.946 342.11 490.02 339.44C490.071 338.467 490.054 337.491 489.97 336.52C489.97 336.1 489.97 335.71 489.89 335.35C489.81 334.99 489.79 334.68 489.74 334.35C489.66 333.8 489.6 333.35 489.55 333.04C489.521 332.891 489.505 332.741 489.5 332.59C489.55 332.733 489.587 332.88 489.61 333.03C489.67 333.35 489.75 333.78 489.86 334.33C489.907 334.623 489.967 334.957 490.04 335.33C490.04 335.69 490.1 336.08 490.14 336.51C490.248 337.486 490.281 338.469 490.24 339.45C490.209 342.149 489.761 344.828 488.91 347.39C487.678 351.16 485.659 354.625 482.987 357.555C480.314 360.486 477.05 362.816 473.41 364.39C468.805 366.371 463.753 367.082 458.78 366.45C457.454 366.292 456.141 366.041 454.85 365.7C453.535 365.324 452.249 364.856 451 364.3C449.726 363.738 448.49 363.094 447.3 362.37C446.109 361.592 444.973 360.734 443.9 359.8C441.674 357.904 439.775 355.653 438.28 353.14C436.745 350.549 435.612 347.74 434.92 344.81C434.299 341.853 434.127 338.818 434.41 335.81C434.699 332.9 435.459 330.056 436.66 327.39C437.238 326.088 437.907 324.829 438.66 323.62C439.43 322.459 440.275 321.35 441.19 320.3C441.62 319.764 442.088 319.259 442.59 318.79C443.09 318.33 443.59 317.84 444.07 317.4C445.088 316.537 446.168 315.748 447.3 315.04C451.534 312.353 456.408 310.844 461.42 310.67C465.388 310.544 469.338 311.264 473.007 312.781C476.675 314.298 479.98 316.578 482.7 319.47C484.561 321.424 486.11 323.653 487.29 326.08C487.741 326.954 488.129 327.86 488.45 328.79C488.6 329.19 488.75 329.55 488.86 329.89C488.97 330.23 489.03 330.55 489.1 330.89L489.43 332.17C489.454 332.322 489.464 332.476 489.46 332.63Z" fill="#595A5B"/>
<g opacity="0.3">
<path d="M489.31 333C489.15 333 488.77 331.87 487.87 329.89C486.605 327.105 484.919 324.531 482.87 322.26C481.47 320.719 479.908 319.334 478.21 318.13C476.26 316.765 474.143 315.656 471.91 314.83C469.456 313.92 466.882 313.378 464.27 313.22C462.897 313.13 461.52 313.15 460.15 313.28C458.751 313.419 457.364 313.659 456 314C454.635 314.363 453.298 314.824 452 315.38C450.735 315.93 449.514 316.579 448.35 317.32C446.14 318.724 444.146 320.442 442.43 322.42C440.871 324.218 439.554 326.211 438.51 328.35C437.601 330.225 436.897 332.193 436.41 334.22C435.726 337.195 435.5 340.257 435.74 343.3C435.91 345.47 436.14 346.67 435.97 346.71C435.8 346.75 435.35 345.61 434.97 343.4C434.38 340.264 434.38 337.046 434.97 333.91C435.84 329.209 437.906 324.811 440.97 321.14C441.846 320.069 442.802 319.066 443.83 318.14C444.899 317.177 446.042 316.301 447.25 315.52C448.498 314.709 449.809 314.001 451.17 313.4C452.576 312.79 454.027 312.288 455.51 311.9C456.994 311.523 458.505 311.262 460.03 311.12C461.511 311 462.999 311 464.48 311.12C465.915 311.219 467.339 311.433 468.74 311.76C470.083 312.062 471.401 312.47 472.68 312.98C475.046 313.91 477.276 315.155 479.31 316.68C481.071 318.018 482.672 319.554 484.08 321.26C486.108 323.726 487.667 326.542 488.68 329.57C489.32 331.7 489.43 332.94 489.31 333Z" fill="black"/>
</g>
<g opacity="0.3">
<path d="M469 354.21L470.13 358.93L465.92 359.93L464.82 355.35C460.59 356.09 456.29 355.74 453.54 354.48L454.63 348.8C457.45 349.895 460.507 350.239 463.5 349.8L461.82 342.8C456.88 342.8 451.29 342.47 449.82 336.45C448.76 331.99 451.08 327.39 457.55 325.04L456.43 320.37L460.64 319.37L461.74 323.96C464.788 323.407 467.924 323.585 470.89 324.48L470.03 330.16C467.763 329.482 465.383 329.261 463.03 329.51L464.74 336.67C469.68 336.67 475.18 336.98 476.6 342.91C477.72 347.28 475.42 351.84 469 354.21ZM460.35 336.62L458.92 330.62C456.81 331.62 456.22 333.09 456.55 334.47C456.88 335.85 458.36 336.48 460.36 336.62H460.35ZM470 345C469.65 343.53 468.23 343 466.27 342.82L467.66 348.63C469.68 347.69 470.34 346.38 470 345Z" fill="black"/>
</g>
<path d="M419.11 314.76C416.836 319.571 413.637 323.887 409.695 327.462C405.753 331.036 401.146 333.8 396.136 335.594C391.127 337.388 385.813 338.177 380.498 337.918C375.183 337.658 369.971 336.354 365.16 334.08C363.003 333.064 360.939 331.863 358.99 330.49C352.718 326.023 347.85 319.86 344.956 312.724C342.063 305.588 341.264 297.775 342.654 290.201C344.043 282.628 347.564 275.607 352.802 269.964C358.041 264.32 364.78 260.287 372.23 258.338C379.679 256.389 387.53 256.604 394.861 258.959C402.193 261.314 408.7 265.711 413.621 271.633C418.542 277.556 421.673 284.759 422.645 292.397C423.617 300.036 422.391 307.794 419.11 314.76Z" fill="#ADFA1C"/>
<path d="M411.21 311.5C408.615 317.038 404.435 321.682 399.2 324.843C393.965 328.005 387.909 329.543 381.799 329.261C375.69 328.98 369.801 326.893 364.879 323.264C359.956 319.635 356.22 314.627 354.145 308.874C352.069 303.12 351.747 296.881 353.219 290.945C354.691 285.009 357.891 279.643 362.414 275.526C366.937 271.409 372.579 268.726 378.627 267.817C384.675 266.908 390.857 267.814 396.39 270.42C400.061 272.143 403.357 274.573 406.089 277.57C408.821 280.568 410.936 284.074 412.312 287.889C413.688 291.704 414.299 295.753 414.11 299.804C413.921 303.855 412.936 307.83 411.21 311.5Z" fill="#ADFA1C"/>
<path d="M410.38 310.64C410.425 310.48 410.478 310.324 410.54 310.17C410.67 309.83 410.85 309.38 411.07 308.8L411.47 307.8C411.59 307.43 411.7 307 411.83 306.55C412.161 305.52 412.415 304.467 412.59 303.4C413.162 300.486 413.287 297.502 412.96 294.55C412.24 287.464 409.08 280.849 404.019 275.838C398.958 270.826 392.312 267.73 385.22 267.08C383.771 266.939 382.314 266.899 380.86 266.96C380.13 266.96 379.4 267.11 378.66 267.18C377.915 267.245 377.177 267.365 376.45 267.54C373.423 268.089 370.51 269.14 367.83 270.65C365.019 272.142 362.469 274.08 360.28 276.39C355.704 281.146 352.817 287.273 352.06 293.83C351.674 296.99 351.802 300.191 352.44 303.31C352.983 306.335 354.028 309.249 355.53 311.93C356.226 313.246 357.019 314.51 357.9 315.71C358.779 316.866 359.734 317.962 360.76 318.99C364.628 322.875 369.46 325.66 374.76 327.06C378.965 328.157 383.354 328.354 387.639 327.637C391.925 326.92 396.011 325.306 399.63 322.9C402.116 321.27 404.341 319.274 406.23 316.98C406.938 316.161 407.586 315.292 408.17 314.38C408.44 313.99 408.7 313.64 408.9 313.31L409.43 312.36L410.15 311.08C410.224 310.93 410.311 310.786 410.41 310.65C410.357 310.809 410.29 310.963 410.21 311.11C410.04 311.43 409.82 311.87 409.54 312.42L409.04 313.42C408.84 313.76 408.59 314.12 408.33 314.52C407.76 315.449 407.121 316.335 406.42 317.17C404.551 319.516 402.332 321.56 399.84 323.23C396.187 325.707 392.049 327.378 387.701 328.133C383.353 328.888 378.894 328.71 374.62 327.61C370.457 326.555 366.561 324.64 363.182 321.99C359.803 319.34 357.016 316.012 355 312.22C354.264 310.854 353.62 309.441 353.07 307.99C352.553 306.497 352.138 304.97 351.83 303.42C351.179 300.239 351.047 296.973 351.44 293.75C352.217 287.052 355.168 280.792 359.84 275.93C362.076 273.576 364.68 271.6 367.55 270.08C368.938 269.314 370.378 268.645 371.86 268.08C373.33 267.585 374.829 267.184 376.35 266.88C377.09 266.706 377.842 266.585 378.6 266.52C379.36 266.45 380.11 266.34 380.85 266.31C387.929 266.02 394.901 268.104 400.66 272.23C404.229 274.824 407.206 278.148 409.392 281.981C411.578 285.813 412.924 290.067 413.34 294.46C413.642 297.447 413.481 300.463 412.86 303.4C412.667 304.473 412.393 305.529 412.04 306.56C411.89 307.01 411.78 307.43 411.64 307.81C411.5 308.19 411.34 308.51 411.21 308.81L410.62 310.16C410.563 310.33 410.482 310.492 410.38 310.64Z" fill="#595A5B"/>
<g opacity="0.3">
<path d="M410 310.83C409.83 310.76 410.29 309.48 410.85 307.13C411.649 303.834 411.932 300.433 411.69 297.05C411.515 294.741 411.09 292.457 410.42 290.24C409.643 287.713 408.544 285.296 407.15 283.05C406.4 281.839 405.561 280.686 404.64 279.6C403.687 278.468 402.651 277.408 401.54 276.43C400.391 275.415 399.164 274.492 397.87 273.67C395.205 271.976 392.289 270.714 389.23 269.93C384.914 268.832 380.408 268.713 376.04 269.58C373.446 270.101 370.929 270.952 368.55 272.11C366.474 273.138 364.516 274.389 362.71 275.84C360.077 277.98 357.791 280.513 355.93 283.35C354.6 285.35 353.98 286.58 353.81 286.5C353.64 286.42 354.02 285.11 355.14 282.88C356.78 279.736 358.983 276.919 361.64 274.57C363.468 272.939 365.482 271.529 367.64 270.37C370.14 269.045 372.808 268.063 375.57 267.45C377.061 267.119 378.576 266.901 380.1 266.8C383.348 266.577 386.611 266.864 389.77 267.65C393.076 268.468 396.228 269.819 399.1 271.65C400.49 272.541 401.804 273.544 403.03 274.65C405.358 276.739 407.354 279.17 408.95 281.86C411.664 286.404 413.165 291.569 413.31 296.86C413.417 300.403 412.868 303.936 411.69 307.28C410.9 309.73 410.15 310.89 410 310.83Z" fill="black"/>
</g>
<g opacity="0.3">
<path d="M377.72 315.64L375.49 320.54L371.12 318.54L373.28 313.77C369.07 311.54 365.52 308.29 363.97 305.32L368.8 301.07C370.513 303.978 372.953 306.39 375.88 308.07L379.2 300.76C374.88 297.37 370.2 293.29 373.02 287.02C375.13 282.38 380.31 279.93 387.58 282.28L389.79 277.42L394.17 279.42L392 284.16C395.058 285.749 397.691 288.046 399.68 290.86L395.05 295.25C393.532 293.12 391.605 291.315 389.38 289.94L386 297.38C390.35 300.72 394.95 304.77 392.15 310.94C390.09 315.5 385 317.93 377.72 315.64ZM382.12 294.3L384.94 288.08C382.38 287.55 380.89 288.41 380.23 289.85C379.57 291.29 380.47 292.81 382.12 294.3ZM384.87 308.3C385.56 306.77 384.67 305.36 383.08 303.85L380.34 309.85C382.75 310.37 384.23 309.67 384.87 308.27V308.3Z" fill="black"/>
</g>
<path d="M162.1 245.45C150.39 251.51 141.41 261.96 134.95 273.45C128.49 284.94 124.34 297.57 120.21 310.1L116.61 374.71C130.23 351.53 141.17 324.28 144.13 297.55L135.06 296.74C141.14 295.81 146.24 291.41 149.49 286.18C152.74 280.95 154.41 275 156 269L145 270.66C153.726 264.765 159.849 255.738 162.1 245.45Z" fill="#363636"/>
<g opacity="0.3">
<path d="M162.1 245.45C150.39 251.51 141.41 261.96 134.95 273.45C128.49 284.94 124.34 297.57 120.21 310.1L116.61 374.71C130.23 351.53 141.17 324.28 144.13 297.55L135.06 296.74C141.14 295.81 146.24 291.41 149.49 286.18C152.74 280.95 154.41 275 156 269L145 270.66C153.726 264.765 159.849 255.738 162.1 245.45Z" fill="black"/>
</g>
<path d="M114.59 389.86C114.59 389.86 85 354.46 85.35 320.66H97.35C97.35 320.66 84.35 312.13 85.35 307.35C86.35 302.57 86.72 284.48 86.72 284.48L97.64 287.21C97.64 287.21 89.45 283.11 88.43 276.63C87.41 270.15 90.81 240.1 90.81 240.1C90.81 240.1 104.13 254.1 108.22 268.43C112.31 282.76 123.07 299.5 119.92 343.19C116.77 386.88 114.59 389.86 114.59 389.86Z" fill="#363636"/>
<path d="M129.58 393.2C129.58 393.2 161.58 371.85 168.75 344.61L159.14 342C159.14 342 171.44 338 171.66 333.92C171.88 329.84 175.57 315.23 175.57 315.23L166.19 315.03C166.19 315.03 173.67 313.53 175.91 308.54C178.15 303.55 182 278.64 182 278.64C182 278.64 168.24 286.98 161.81 297.64C155.38 308.3 143.05 319.34 136 355.16C128.95 390.98 129.58 393.2 129.58 393.2Z" fill="#363636"/>
<path d="M98.89 271C98.9427 271.115 98.9797 271.236 99 271.36C99.06 271.63 99.15 271.99 99.26 272.45L100.19 276.65C100.6 278.48 101.08 280.71 101.59 283.32C102.1 285.93 102.73 288.88 103.33 292.17C104.59 298.74 105.93 306.58 107.33 315.31C108.73 324.04 110 333.68 111.18 343.81C112.36 353.94 113.24 363.62 113.94 372.44C114.64 381.26 115.08 389.2 115.35 395.88C115.51 399.21 115.59 402.24 115.68 404.88C115.77 407.52 115.81 409.82 115.83 411.69C115.85 413.56 115.83 414.98 115.83 415.99V417.11C115.845 417.236 115.845 417.364 115.83 417.49C115.816 417.364 115.816 417.236 115.83 417.11C115.83 416.84 115.83 416.47 115.83 416C115.83 415 115.74 413.54 115.68 411.69C115.62 409.84 115.55 407.54 115.43 404.89C115.31 402.24 115.22 399.22 115.03 395.89C114.72 389.22 114.19 381.28 113.51 372.47C112.83 363.66 111.87 354 110.71 343.87C109.55 333.74 108.22 324.12 106.91 315.39C105.6 306.66 104.27 298.81 103.05 292.24C102.47 288.95 101.88 285.98 101.39 283.38C100.9 280.78 100.45 278.53 100.07 276.7L99.23 272.47C99.15 272.01 99.08 271.65 99.03 271.37C98.9759 271.25 98.9291 271.126 98.89 271Z" fill="#595A5B"/>
<path d="M110.49 411.54C110.49 411.54 83.42 380.83 75 362.26L81.34 359.55C76.74 360.31 72.03 358.33 68.46 355.33C64.89 352.33 62.28 348.38 59.71 344.49L68.07 343.08C60.3876 340.892 53.8463 335.823 49.81 328.93C59.67 330.56 68.59 335.93 75.95 342.74C81.7927 348.354 87.0991 354.5 91.8 361.1C94.1826 364.266 96.2586 367.651 98 371.21C102.5 380.61 110.5 400.26 110.49 411.54Z" fill="#363636"/>
<path d="M169.17 296.52C169.143 296.628 169.103 296.732 169.05 296.83L168.63 297.72C168.24 298.53 167.68 299.67 166.98 301.13C165.53 304.08 163.47 308.36 160.98 313.69C158.49 319.02 155.61 325.38 152.52 332.51C149.43 339.64 146.2 347.51 142.96 355.9C139.72 364.29 136.84 372.3 134.3 379.64C131.76 386.98 129.62 393.64 127.89 399.26C126.16 404.88 124.79 409.43 123.89 412.59C123.43 414.14 123.08 415.36 122.82 416.22L122.53 417.16C122.505 417.269 122.465 417.373 122.41 417.47C122.41 417.47 122.41 417.36 122.48 417.14L122.72 416.19C122.95 415.32 123.28 414.1 123.72 412.53C124.57 409.36 125.87 404.78 127.57 399.15C129.27 393.52 131.39 386.85 133.88 379.49C136.37 372.13 139.28 364.09 142.51 355.71C145.74 347.33 149.03 339.45 152.11 332.32C155.19 325.19 158.11 318.83 160.68 313.53C163.25 308.23 165.29 304 166.8 301C167.54 299.56 168.12 298.43 168.54 297.64C168.73 297.27 168.88 296.99 169 296.77C169.047 296.681 169.104 296.597 169.17 296.52Z" fill="#595A5B"/>
<path d="M112.78 424.7C112.715 424.516 112.675 424.324 112.66 424.13L112.39 422.5C112.29 421.79 112.16 420.93 111.97 419.93C111.78 418.93 111.62 417.78 111.35 416.53C110.86 414.01 110.17 411.04 109.28 407.78C108.39 404.52 107.28 400.97 105.88 397.32C104.48 393.67 102.98 390.26 101.51 387.21C100.04 384.16 98.58 381.49 97.28 379.28C96.66 378.16 96.03 377.19 95.51 376.28C94.99 375.37 94.51 374.67 94.12 374.07L93.24 372.68C93.1295 372.52 93.0357 372.349 92.96 372.17C92.96 372.17 93.1 372.31 93.33 372.62L94.33 373.96C94.75 374.54 95.25 375.27 95.79 376.13C96.33 376.99 97 378 97.6 379.09C98.94 381.28 100.42 383.96 101.95 387C103.48 390.04 104.95 393.47 106.36 397.13C107.77 400.79 108.85 404.38 109.74 407.65C110.63 410.92 111.27 413.93 111.74 416.46C111.99 417.72 112.14 418.87 112.29 419.88C112.44 420.89 112.55 421.76 112.63 422.48C112.71 423.2 112.75 423.69 112.79 424.12C112.811 424.313 112.808 424.508 112.78 424.7Z" fill="#595A5B"/>
<path d="M148.5 417.47H89.26V429.55H148.5V417.47Z" fill="#ADFA1C"/>
<path d="M94.9 429.56L101.31 470.2H137.11L143.08 429.56H94.9Z" fill="#ADFA1C"/>
<path d="M144.86 429.56C144.86 429.7 133.66 429.82 119.86 429.82C106.06 429.82 94.86 429.7 94.86 429.56C94.86 429.42 106.06 429.3 119.86 429.3C133.66 429.3 144.86 429.41 144.86 429.56Z" fill="#595A5B"/>
<path d="M584.19 348.82H428.51C424.164 348.82 420.64 352.344 420.64 356.69V462.78C420.64 467.127 424.164 470.65 428.51 470.65H584.19C588.536 470.65 592.06 467.127 592.06 462.78V356.69C592.06 352.344 588.536 348.82 584.19 348.82Z" fill="#363636"/>
<path d="M589.53 398.55H545.16C537.798 398.55 531.83 404.518 531.83 411.88V414.07C531.83 421.432 537.798 427.4 545.16 427.4H589.53C596.892 427.4 602.86 421.432 602.86 414.07V411.88C602.86 404.518 596.892 398.55 589.53 398.55Z" fill="#363636"/>
<path d="M589.54 427.9H545.17C541.501 427.895 537.984 426.435 535.389 423.841C532.795 421.246 531.335 417.729 531.33 414.06V411.88C531.335 408.212 532.795 404.696 535.39 402.103C537.985 399.51 541.502 398.053 545.17 398.05H589.54C593.206 398.055 596.721 399.514 599.313 402.107C601.906 404.699 603.365 408.214 603.37 411.88V414.06C603.365 417.727 601.906 421.243 599.314 423.837C596.722 426.431 593.207 427.892 589.54 427.9ZM545.17 399.05C541.767 399.053 538.504 400.405 536.097 402.81C533.69 405.215 532.335 408.477 532.33 411.88V414.06C532.333 417.465 533.686 420.729 536.094 423.136C538.501 425.544 541.765 426.897 545.17 426.9H589.54C592.943 426.895 596.205 425.54 598.61 423.133C601.015 420.726 602.367 417.463 602.37 414.06V411.88C602.365 408.479 601.011 405.219 598.606 402.814C596.201 400.409 592.941 399.055 589.54 399.05H545.17Z" fill="#595A5B"/>
<path d="M556.134 418.825C559.39 414.195 558.277 407.801 553.646 404.544C549.016 401.288 542.622 402.401 539.366 407.031C536.109 411.662 537.223 418.055 541.853 421.312C546.483 424.569 552.877 423.455 556.134 418.825Z" fill="#595A5B"/>
<path d="M535.27 128.32C535.149 133.596 536.15 138.838 538.204 143.699C540.259 148.56 543.322 152.93 547.19 156.52C548.957 151.373 550.733 146.227 552.52 141.08" fill="#595A5B"/>
<path d="M575.44 97.61C570.86 95.11 565.34 94.75 560.23 95.78C555.141 96.9599 550.28 98.9665 545.84 101.72C543.233 103.068 540.9 104.889 538.96 107.09C535.64 111.27 532.36 118.09 532.04 123.46C531.78 127.77 533.43 138.55 535.25 142.46C536.92 146.05 544.74 148.78 548.6 149.67L584 108.48C583.364 106.192 582.28 104.053 580.81 102.187C579.341 100.321 577.515 98.7651 575.44 97.61Z" fill="#595A5B"/>
<path d="M581.54 103.17L573.05 101.65C577.69 112.65 578.95 137.98 581.61 149.65C584.74 145.1 592.01 131.27 591.61 125.77C591.21 120.27 591.63 102.23 581.54 103.17Z" fill="#595A5B"/>
<path d="M586.4 121.19C585.85 112.71 580.2 102.31 571.75 103.19L552.2 108.19C549.19 108.955 546.504 110.666 544.538 113.07C542.573 115.475 541.431 118.448 541.28 121.55C541.28 121.87 541.28 121.48 541.28 121.72L545.65 172.36L560.33 201.49L573.33 176.92C573.33 172.79 573.33 163.52 573.33 163.54C573.33 163.56 584.17 161.72 586.33 147.54C587.39 140.56 587 130.61 586.4 121.19Z" fill="#FFBF9D"/>
<path d="M580.34 132.79C580.348 133.263 580.171 133.721 579.845 134.065C579.52 134.409 579.073 134.612 578.6 134.63C578.369 134.648 578.137 134.619 577.918 134.547C577.698 134.474 577.495 134.359 577.32 134.207C577.145 134.056 577.002 133.871 576.899 133.664C576.796 133.457 576.735 133.231 576.72 133C576.717 132.526 576.898 132.07 577.224 131.727C577.55 131.384 577.997 131.181 578.47 131.16C578.7 131.144 578.931 131.173 579.149 131.246C579.368 131.319 579.57 131.435 579.744 131.586C579.917 131.738 580.06 131.922 580.162 132.129C580.264 132.335 580.325 132.56 580.34 132.79Z" fill="#595A5B"/>
<path d="M584.28 126.73C584.05 126.97 582.68 125.95 580.72 125.96C578.76 125.97 577.34 126.96 577.13 126.71C576.92 126.46 577.26 126.18 577.88 125.71C578.72 125.119 579.723 124.804 580.75 124.81C581.766 124.806 582.757 125.125 583.58 125.72C584.18 126.2 584.39 126.62 584.28 126.73Z" fill="#595A5B"/>
<path d="M564 132.79C564.008 133.263 563.831 133.721 563.505 134.065C563.18 134.409 562.733 134.612 562.26 134.63C562.029 134.648 561.797 134.619 561.578 134.547C561.358 134.474 561.155 134.359 560.98 134.207C560.805 134.056 560.662 133.871 560.559 133.664C560.456 133.457 560.395 133.231 560.38 133C560.377 132.527 560.558 132.07 560.884 131.727C561.21 131.384 561.657 131.181 562.13 131.16C562.36 131.141 562.592 131.168 562.812 131.24C563.032 131.313 563.235 131.428 563.409 131.58C563.584 131.732 563.726 131.917 563.827 132.125C563.929 132.333 563.987 132.559 564 132.79Z" fill="#595A5B"/>
<path d="M565.74 126.73C565.52 126.97 564.14 125.95 562.19 125.96C560.24 125.97 558.81 126.96 558.6 126.71C558.39 126.46 558.72 126.18 559.35 125.71C560.189 125.117 561.193 124.802 562.22 124.81C563.236 124.806 564.227 125.125 565.05 125.72C565.65 126.2 565.85 126.62 565.74 126.73Z" fill="#595A5B"/>
<path d="M571.84 142.06C572.868 141.733 573.933 141.538 575.01 141.48C575.51 141.48 576.01 141.33 576.01 140.99C576.054 140.475 575.939 139.958 575.68 139.51C575.21 138.31 574.68 137.04 574.2 135.72C572.14 130.32 570.65 125.88 570.87 125.8C571.09 125.72 573 130 575 135.43C575.49 136.76 576 138.03 576.42 139.24C576.742 139.854 576.835 140.564 576.68 141.24C576.607 141.416 576.496 141.573 576.354 141.699C576.212 141.825 576.043 141.918 575.86 141.97C575.586 142.044 575.304 142.084 575.02 142.09C573.963 142.212 572.895 142.202 571.84 142.06Z" fill="#595A5B"/>
<path d="M554.49 158.53C554.49 158.53 559.09 168.24 573.24 166.89V163.56C566.644 163.657 560.152 161.915 554.49 158.53Z" fill="#FF9A6C"/>
<path d="M565.13 119.68C564.94 120.21 562.99 119.96 560.7 120.24C558.41 120.52 556.56 121.15 556.26 120.68C556.12 120.45 556.44 119.95 557.19 119.44C558.178 118.794 559.306 118.392 560.48 118.27C561.652 118.132 562.84 118.269 563.95 118.67C564.79 119 565.21 119.43 565.13 119.68Z" fill="#595A5B"/>
<path d="M583.64 120.76C583.3 121.21 581.95 120.76 580.34 120.76C578.73 120.76 577.34 121.06 577.03 120.6C576.9 120.38 577.11 119.93 577.71 119.51C578.513 119.007 579.446 118.754 580.393 118.78C581.339 118.807 582.257 119.113 583.03 119.66C583.6 120.09 583.79 120.54 583.64 120.76Z" fill="#595A5B"/>
<path d="M582.56 108.28C582.059 107.241 581.28 106.361 580.309 105.737C579.338 105.114 578.213 104.773 577.06 104.75C574.749 104.753 572.487 105.416 570.54 106.66C562.12 111.52 557.79 123.28 549.47 128.32C547.42 129.56 544.76 128.42 543.02 130.06C541.28 131.7 540.15 134.33 541.11 136.52C539.919 135.036 538.946 133.389 538.22 131.63C537.866 130.747 537.704 129.799 537.746 128.849C537.787 127.899 538.031 126.969 538.46 126.12C539.18 124.87 540.46 123.92 540.8 122.52C541.11 121.29 540.62 120.01 540.67 118.74C540.815 117.452 541.26 116.215 541.97 115.13C545.23 109.37 549.71 104.13 555.49 100.91C559.259 98.7348 563.549 97.6252 567.9 97.7001C572.267 97.805 576.453 99.4685 579.7 102.39C581.57 104.13 583.52 105.92 582.56 108.28Z" fill="#595A5B"/>
<path d="M543.22 131.82C543.07 131.41 535.7 128.75 535.6 136.59C535.5 144.2 543.19 142.71 543.21 142.49C543.23 142.27 543.22 131.82 543.22 131.82Z" fill="#FFBF9D"/>
<path d="M540.88 139.58C540.88 139.58 540.75 139.67 540.52 139.77C540.362 139.837 540.192 139.872 540.02 139.872C539.848 139.872 539.678 139.837 539.52 139.77C538.72 139.47 538.05 138.19 538.03 136.77C538.019 136.119 538.152 135.473 538.42 134.88C538.494 134.645 538.623 134.432 538.798 134.258C538.972 134.084 539.185 133.954 539.42 133.88C539.573 133.84 539.735 133.855 539.878 133.923C540.02 133.99 540.134 134.106 540.2 134.25C540.3 134.46 540.2 134.61 540.29 134.63C540.38 134.65 540.45 134.5 540.39 134.19C540.356 134 540.253 133.829 540.1 133.71C539.892 133.55 539.63 133.479 539.37 133.51C539.057 133.567 538.763 133.703 538.518 133.906C538.272 134.109 538.084 134.373 537.97 134.67C537.636 135.326 537.471 136.054 537.49 136.79C537.49 138.33 538.3 139.79 539.39 140.1C539.595 140.162 539.81 140.176 540.022 140.144C540.233 140.111 540.434 140.031 540.61 139.91C540.87 139.76 540.91 139.59 540.88 139.58Z" fill="#FF9A6C"/>
<path d="M540.19 127.9C540.352 127.829 540.506 127.742 540.65 127.64C540.94 127.46 541.39 127.21 541.93 126.83C543.427 125.731 544.805 124.477 546.04 123.09C547.828 121.009 549.498 118.829 551.04 116.56C552.914 113.779 555.018 111.159 557.33 108.73C558.544 107.519 559.885 106.443 561.33 105.52C562.704 104.679 564.175 104.008 565.71 103.52C568.312 102.678 571.051 102.338 573.78 102.52C575.619 102.616 577.438 102.952 579.19 103.52C579.81 103.71 580.28 103.93 580.6 104.05C580.761 104.121 580.929 104.178 581.1 104.22L580.63 103.98C580.174 103.761 579.707 103.568 579.23 103.4C577.484 102.754 575.656 102.357 573.8 102.22C571.039 102.003 568.262 102.318 565.62 103.15C564.056 103.627 562.557 104.299 561.16 105.15C559.672 106.083 558.287 107.173 557.03 108.4C554.704 110.841 552.595 113.481 550.73 116.29C549.193 118.559 547.541 120.749 545.78 122.85C544.571 124.239 543.232 125.508 541.78 126.64C541.26 127.04 540.78 127.3 540.54 127.5C540.414 127.625 540.297 127.759 540.19 127.9Z" fill="#363636"/>
<path d="M542.11 130.06C541.99 132.14 541.89 134.33 542.85 136.18C543.81 138.03 546.24 139.29 548.05 138.25C549.52 137.41 549.96 135.52 550.21 133.84C550.94 128.99 551.27 124.08 552.03 119.24L542.11 130.06Z" fill="#595A5B"/>
<path d="M580.68 104.65C580.68 104.65 580.01 104.53 578.79 104.49C577.078 104.458 575.378 104.771 573.79 105.41C572.682 105.836 571.623 106.379 570.63 107.03C569.494 107.794 568.406 108.625 567.37 109.52C564.98 111.551 562.841 113.861 561 116.4C560 117.76 559.18 119.15 558.25 120.4C557.372 121.659 556.348 122.811 555.2 123.83C553.221 125.503 551.061 126.948 548.76 128.14C546.76 129.14 545.18 129.89 544.06 130.39L542.76 130.94C542.609 131.011 542.451 131.068 542.29 131.11C542.29 131.11 542.43 131.01 542.72 130.86L543.99 130.23C545.09 129.69 546.7 128.93 548.62 127.87C550.878 126.657 552.997 125.202 554.94 123.53C556.072 122.528 557.079 121.393 557.94 120.15C558.85 118.87 559.71 117.47 560.69 116.15C562.549 113.579 564.722 111.251 567.16 109.22C568.211 108.322 569.32 107.494 570.48 106.74C571.498 106.083 572.584 105.54 573.72 105.12C575.366 104.499 577.123 104.227 578.88 104.32C579.355 104.346 579.827 104.413 580.29 104.52C580.424 104.551 580.554 104.595 580.68 104.65Z" fill="#363636"/>
<path d="M541.9 125.35C541.689 125.526 541.461 125.68 541.22 125.81L539.29 126.94L538.64 127.31C538.386 127.459 538.103 127.555 537.81 127.59C537.631 127.608 537.452 127.566 537.3 127.47C537.22 127.417 537.151 127.348 537.1 127.267C537.048 127.186 537.014 127.095 537 127C537.008 126.636 537.134 126.285 537.36 126L539.6 122.41L539.9 122.7C539.161 123.248 538.332 123.661 537.45 123.92C536.568 124.182 535.648 124.291 534.73 124.24C534.495 124.234 534.263 124.194 534.04 124.12C533.908 124.084 533.787 124.019 533.684 123.929C533.582 123.839 533.502 123.726 533.45 123.6C533.405 123.472 533.393 123.334 533.414 123.2C533.435 123.066 533.489 122.939 533.57 122.83C533.701 122.66 533.849 122.502 534.01 122.36C535.011 121.386 535.881 120.287 536.6 119.09C537.231 117.96 537.782 116.787 538.25 115.58C538.21 115.922 538.13 116.258 538.01 116.58C537.716 117.497 537.331 118.381 536.86 119.22C536.163 120.469 535.295 121.613 534.28 122.62C534 122.89 533.72 123.2 533.83 123.44C533.94 123.68 534.35 123.8 534.75 123.8C536.502 123.89 538.232 123.374 539.65 122.34L540.56 121.67L539.95 122.67L537.67 126.23C537.492 126.439 537.381 126.697 537.35 126.97C537.35 127.19 537.54 127.31 537.78 127.29C538.269 127.195 538.734 127.004 539.15 126.73L541.15 125.73C541.381 125.57 541.634 125.442 541.9 125.35Z" fill="#363636"/>
<path d="M570.15 145.76C569.774 145.329 569.296 144.999 568.76 144.8C568.224 144.601 567.646 144.539 567.08 144.62C566.668 144.668 566.271 144.799 565.91 145.003C565.549 145.207 565.233 145.482 564.98 145.81C564.739 146.125 564.602 146.506 564.588 146.902C564.573 147.298 564.683 147.689 564.9 148.02C565.219 148.341 565.623 148.563 566.065 148.659C566.507 148.754 566.967 148.72 567.39 148.56C568.263 148.221 569.061 147.715 569.74 147.07C569.948 146.919 570.124 146.728 570.26 146.51C570.328 146.408 570.365 146.288 570.365 146.165C570.365 146.042 570.328 145.922 570.26 145.82" fill="#FF9A6C"/>
<path d="M565.32 142.74C565.63 142.74 565.69 144.74 567.48 146.08C569.27 147.42 571.48 147.17 571.48 147.45C571.48 147.57 571.01 147.85 570.09 147.9C568.904 147.964 567.733 147.61 566.78 146.9C565.87 146.221 565.263 145.212 565.09 144.09C565 143.23 565.18 142.73 565.32 142.74Z" fill="#595A5B"/>
<path d="M593.73 278.09L601.92 296.59L562.17 311.46L553.28 291.57L593.73 278.09Z" fill="#595A5B"/>
<path d="M674.05 390.66L684.92 414.13C684.92 414.13 712.07 410.53 714.5 414.68L670.12 437.81L651.67 401.94L674.05 390.66Z" fill="#363636"/>
<path d="M670.44 419.14C670.075 419.494 669.852 419.97 669.816 420.477C669.779 420.984 669.93 421.487 670.24 421.89C670.58 422.266 671.05 422.499 671.555 422.541C672.06 422.584 672.562 422.433 672.96 422.12C673.347 421.745 673.582 421.241 673.618 420.703C673.655 420.166 673.492 419.634 673.16 419.21C672.766 418.851 672.249 418.658 671.716 418.672C671.183 418.685 670.676 418.903 670.3 419.28" fill="#E0E0E0"/>
<path d="M670.11 437.81L668.65 435L712.18 413.41C712.7 413.455 713.205 413.606 713.664 413.854C714.123 414.101 714.527 414.44 714.85 414.85L670.11 437.81Z" fill="#595A5B"/>
<path d="M685.41 414.07C685.51 414.29 684.46 414.95 683.74 416.2C683.02 417.45 682.91 418.68 682.66 418.7C682.41 418.72 682.09 417.27 683 415.77C683.91 414.27 685.35 413.84 685.41 414.07Z" fill="#595A5B"/>
<path d="M691.12 413.62C691.28 413.81 690.52 414.67 690.25 415.98C689.98 417.29 690.25 418.38 690.03 418.48C689.81 418.58 689.03 417.41 689.41 415.79C689.79 414.17 691 413.41 691.12 413.62Z" fill="#595A5B"/>
<path d="M696.68 417.92C696.51 418.06 695.68 417.12 695.59 415.63C695.5 414.14 696.33 413.13 696.52 413.27C696.71 413.41 696.4 414.37 696.45 415.6C696.5 416.83 696.89 417.78 696.68 417.92Z" fill="#595A5B"/>
<path d="M682.31 409C682.31 409.24 681.16 409.45 679.96 410.17C678.76 410.89 677.96 411.77 677.77 411.64C677.58 411.51 678.1 410.25 679.52 409.43C680.94 408.61 682.33 408.73 682.31 409Z" fill="#595A5B"/>
<path d="M680.59 403.58C680.59 403.67 679.84 404.25 678.33 404.72C677.443 404.989 676.526 405.147 675.6 405.19C675.054 405.23 674.506 405.23 673.96 405.19C673.619 405.181 673.282 405.121 672.96 405.01C672.735 404.929 672.544 404.774 672.417 404.571C672.29 404.368 672.235 404.128 672.26 403.89C672.292 403.679 672.373 403.479 672.496 403.305C672.619 403.132 672.782 402.989 672.97 402.89C673.253 402.743 673.556 402.638 673.87 402.58C674.413 402.457 674.965 402.38 675.52 402.35C676.457 402.308 677.395 402.412 678.3 402.66C679.83 403.1 680.61 403.74 680.55 403.82C680.49 403.9 679.63 403.51 678.16 403.25C677.305 403.103 676.435 403.066 675.57 403.14C675.067 403.185 674.569 403.272 674.08 403.4C673.53 403.51 673.08 403.72 673.08 403.99C673.08 404.1 673.08 404.13 673.26 404.22C673.486 404.297 673.722 404.34 673.96 404.35C674.471 404.406 674.986 404.433 675.5 404.43C676.373 404.418 677.243 404.327 678.1 404.16C678.915 403.907 679.747 403.713 680.59 403.58Z" fill="#595A5B"/>
<path d="M631.82 428.37L630.44 454.2C630.44 454.2 656.11 463.73 656.32 468.53L606.27 468.2L606.76 427.87L631.82 428.37Z" fill="#363636"/>
<path d="M615.3 451.86C614.809 451.996 614.387 452.311 614.115 452.741C613.844 453.172 613.742 453.688 613.83 454.19C613.956 454.681 614.263 455.105 614.69 455.378C615.117 455.651 615.632 455.752 616.13 455.66C616.648 455.51 617.092 455.174 617.376 454.716C617.661 454.258 617.765 453.711 617.67 453.18C617.491 452.679 617.123 452.267 616.645 452.031C616.167 451.796 615.617 451.756 615.11 451.92" fill="#E0E0E0"/>
<path d="M606.27 468.2V464.99L654.84 466.28C655.279 466.563 655.655 466.932 655.945 467.366C656.236 467.799 656.435 468.287 656.53 468.8L606.27 468.2Z" fill="#595A5B"/>
<path d="M630.89 454.37C630.89 454.62 629.65 454.71 628.42 455.48C627.19 456.25 626.53 457.28 626.3 457.18C626.07 457.08 626.47 455.66 627.97 454.75C629.47 453.84 631 454.15 630.89 454.37Z" fill="#595A5B"/>
<path d="M636.16 456.65C636.21 456.9 635.16 457.3 634.28 458.33C633.4 459.36 633.16 460.45 632.91 460.44C632.66 460.43 632.54 459.03 633.62 457.77C634.7 456.51 636.16 456.42 636.16 456.65Z" fill="#595A5B"/>
<path d="M639.06 463.05C638.83 463.1 638.51 461.86 639.17 460.52C639.83 459.18 640.99 458.66 641.09 458.87C641.19 459.08 640.46 459.79 639.94 460.87C639.42 461.95 639.3 463 639.06 463.05Z" fill="#595A5B"/>
<path d="M630.55 448.41C630.44 448.63 629.32 448.27 627.92 448.34C626.52 448.41 625.43 448.83 625.31 448.62C625.19 448.41 626.24 447.54 627.89 447.48C629.54 447.42 630.68 448.22 630.55 448.41Z" fill="#595A5B"/>
<path d="M631.55 442.86C630.716 443.064 629.843 443.043 629.02 442.8C628.109 442.621 627.222 442.332 626.38 441.94C625.883 441.706 625.402 441.439 624.94 441.14C624.659 440.979 624.405 440.773 624.19 440.53C624.032 440.353 623.937 440.128 623.92 439.89C623.904 439.653 623.967 439.417 624.1 439.22C624.227 439.051 624.392 438.913 624.581 438.818C624.77 438.723 624.978 438.672 625.19 438.67C625.512 438.679 625.831 438.729 626.14 438.82C627.587 439.216 628.914 439.965 630 441C631.15 442.11 631.54 443 631.45 443.08C631.36 443.16 630.78 442.38 629.6 441.46C628.915 440.931 628.166 440.491 627.37 440.15C626.901 439.952 626.416 439.794 625.92 439.68C625.39 439.53 624.92 439.52 624.79 439.75C624.66 439.98 624.73 439.88 624.84 440.04C625.007 440.21 625.195 440.358 625.4 440.48C625.826 440.767 626.266 441.03 626.72 441.27C627.499 441.674 628.312 442.009 629.15 442.27C629.963 442.407 630.766 442.605 631.55 442.86Z" fill="#595A5B"/>
<path d="M517.35 304.37C517.35 304.37 617.64 291.81 623.55 291.81C637.42 291.81 646.13 302.38 648.2 310.54C649.73 316.54 680.6 403.79 680.6 403.79L657.83 415.59L624.34 356.08L607.27 326.39L519.27 339.98L517.35 304.37Z" fill="#595A5B"/>
<path d="M611.41 323.65C611.41 323.65 625.16 323.65 632.58 334.65C636.94 341.12 635.41 352.65 635.5 361.38C635.62 373.25 632.75 445.57 632.75 445.57L604.64 446.04L598.75 370.67L599.09 356.74L543 352.16C543 352.16 537.89 335.16 550.46 321.72C552 320 611.41 323.65 611.41 323.65Z" fill="#595A5B"/>
<path d="M525.92 280.12C525.92 280.12 503.75 314.24 517.35 339.88C523.83 352.09 543.22 352.08 543.22 352.08L563.11 327.18V286L525.92 280.12Z" fill="#595A5B"/>
<path d="M543.22 352.08C543.341 352.003 543.468 351.936 543.6 351.88L544.72 351.36L549.04 349.36L565.04 342.25L588.73 331.78L602.73 325.61C603.96 325.1 605.14 324.49 606.44 324.05C607.742 323.601 609.08 323.267 610.44 323.05C613.216 322.637 616.037 322.613 618.82 322.98C621.613 323.312 624.336 324.081 626.89 325.26C628.144 325.851 629.309 326.615 630.35 327.53C631.363 328.452 632.223 329.529 632.9 330.72C634.224 333.021 635.026 335.585 635.25 338.23C635.36 339.53 635.25 340.78 635.25 342.03C635.25 343.28 635.25 344.51 635.25 345.73C635.13 355.48 635.03 364.25 634.95 371.63C634.87 379.01 634.76 384.94 634.7 389.09C634.7 391.09 634.63 392.72 634.61 393.84C634.61 394.36 634.61 394.77 634.61 395.07C634.621 395.21 634.621 395.35 634.61 395.49C634.601 395.35 634.601 395.21 634.61 395.07C634.61 394.77 634.61 394.36 634.61 393.84C634.61 392.72 634.61 391.13 634.61 389.09C634.61 384.94 634.61 378.98 634.68 371.63C634.75 364.28 634.79 355.47 634.86 345.73C634.86 344.51 634.86 343.28 634.86 342.03C634.86 340.78 634.92 339.51 634.81 338.27C634.592 335.707 633.81 333.225 632.52 331C631.874 329.857 631.05 328.825 630.08 327.94C629.077 327.06 627.952 326.329 626.74 325.77C624.243 324.616 621.581 323.86 618.85 323.53C616.12 323.173 613.354 323.196 610.63 323.6C609.303 323.82 607.999 324.154 606.73 324.6C605.48 325.03 604.27 325.6 603.05 326.15L589.05 332.29L565.32 342.65L549.32 349.59L544.95 351.45L543.81 351.92C543.623 352.005 543.424 352.059 543.22 352.08Z" fill="#363636"/>
<path d="M621.57 291.81C621.57 291.95 600.52 294.32 574.52 297.1C548.52 299.88 527.43 302.02 527.41 301.88C527.39 301.74 548.46 299.37 574.46 296.59C600.46 293.81 621.55 291.67 621.57 291.81Z" fill="#363636"/>
<path d="M596.78 242.1C598.41 236.91 604.11 217.81 602.83 207.74C601.83 199.74 594.6 189.4 592.45 183.9C591.45 181.31 583.34 178.64 578.51 177.21L573.71 171.54L573.31 174.31C571.895 175.928 570.123 177.194 568.134 178.008C566.145 178.822 563.993 179.162 561.85 179C554.72 178.36 548.85 175.45 544.98 171.15C526.46 176.8 526.52 178.06 522.98 179.47C518.4 181.29 532.1 225.18 532.1 225.18C532.1 225.18 537.01 252.75 532.39 262.04C529.79 267.27 526.78 273.24 524.57 278.1C524.57 278.1 518.41 289.84 519.73 289.54C522.5 288.9 541.73 293.54 559.8 294.54C593.21 296.3 599.6 291.35 599.6 291.35C597.85 282.8 594.92 252.83 594.93 247.01C594.91 246 596.49 243 596.78 242.1Z" fill="#ADFA1C"/>
<path d="M574.3 172.91C574.3 172.91 596.07 178.52 598.2 181.42C603.99 189.29 638.87 243.14 621.75 259.2C610.53 269.72 594.75 247.52 594.75 247.52L574.3 172.91Z" fill="#ADFA1C"/>
<path d="M619.66 236.33C619.144 236.285 618.632 236.198 618.13 236.07L613.96 235.21C610.41 234.49 605.44 233.47 599.74 232.65L600.04 232.48L598.33 236.7L594.27 246.61V246.36L600.57 253.92L602.32 256.08C602.538 256.328 602.732 256.596 602.9 256.88C602.9 256.88 604.51 257.62 602.2 256.18L600.33 254.11L593.87 246.68L593.77 246.56L593.83 246.43L597.83 236.49C598.42 235.05 599 233.64 599.55 232.28L599.63 232.08H599.86C605.59 232.93 610.55 234.01 614.08 234.83C615.85 235.24 617.25 235.59 618.22 235.83C618.712 235.961 619.193 236.128 619.66 236.33Z" fill="#595A5B"/>
<path d="M598.72 233.8C598.723 233.206 598.776 232.614 598.88 232.03C599.04 230.81 599.24 229.19 599.49 227.24C600.237 222.001 600.415 216.697 600.02 211.42C599.477 206.14 597.951 201.008 595.52 196.29C594.61 194.47 593.78 193.03 593.2 192.04C592.874 191.541 592.583 191.02 592.33 190.48C592.33 190.48 592.45 190.6 592.63 190.84C592.81 191.08 593.07 191.45 593.39 191.93C594.03 192.93 594.91 194.3 595.88 196.12C598.441 200.842 600.039 206.026 600.58 211.37C600.981 216.686 600.746 222.03 599.88 227.29C599.59 229.29 599.3 230.94 599.1 232.06C599.02 232.649 598.892 233.231 598.72 233.8Z" fill="#595A5B"/>
<g opacity="0.3">
<path d="M527.41 274L568.62 255L565.83 246.85L572.17 244.43L582.5 245.78C585.055 246.117 587.653 245.861 590.093 245.032C592.533 244.203 594.749 242.824 596.57 241L570.9 234.51L541.62 240.75L534.18 219.18L532.34 225.5L533.87 239.07L534.87 253.73L527.41 274Z" fill="black"/>
</g>
<path d="M523.48 179.25C520.941 180.362 518.68 182.022 516.858 184.11C515.036 186.199 513.698 188.664 512.94 191.33C511.525 194.486 510.452 197.785 509.74 201.17C506.27 216.47 498.74 245.17 498.46 252.83C497.92 266.61 508.88 270.52 514.8 271.72C520.72 272.92 561.8 251.66 561.8 251.66L553.26 228.45L528.15 238.84C528.15 238.84 533.88 221.14 535.54 213.9C537.2 206.66 523.48 179.25 523.48 179.25Z" fill="#ADFA1C"/>
<path d="M599.89 229.92C599.39 227.647 599.312 225.301 599.66 223C599.949 221.619 600 220.198 599.81 218.8C599.55 217.43 598.27 215.98 596.88 216.09L594.78 226.18L599.89 229.92Z" fill="#FFBF9D"/>
<path d="M598.92 206.24L591.53 241.9L574 240.84L579.19 205.56C579.257 205.11 579.484 204.7 579.83 204.404C580.175 204.109 580.615 203.947 581.07 203.95H597.07C597.352 203.95 597.631 204.012 597.886 204.134C598.141 204.255 598.366 204.433 598.543 204.652C598.72 204.872 598.846 205.129 598.912 205.403C598.977 205.678 598.98 205.964 598.92 206.24Z" fill="#595A5B"/>
<path d="M579.21 215.51C579.33 215.186 579.42 214.851 579.48 214.51C579.63 213.76 579.83 212.79 580.07 211.62L580.9 207.34C580.9 207.14 580.97 206.92 581.02 206.76C581.086 206.588 581.193 206.433 581.33 206.31C581.468 206.177 581.642 206.087 581.83 206.05C582.036 206.034 582.244 206.034 582.45 206.05H585.22C589.01 206.05 592.45 205.99 594.93 205.95L597.93 205.87C598.292 205.883 598.654 205.856 599.01 205.79C598.652 205.745 598.291 205.725 597.93 205.73H594.93C592.45 205.73 589.01 205.73 585.22 205.73H582.45C582.217 205.707 581.983 205.707 581.75 205.73C581.509 205.782 581.285 205.896 581.1 206.06C580.92 206.225 580.783 206.431 580.7 206.66C580.642 206.871 580.595 207.084 580.56 207.3C580.28 208.9 580.03 210.35 579.81 211.6L579.34 214.5C579.27 214.833 579.226 215.17 579.21 215.51Z" fill="#363636"/>
<path d="M588.58 207.73C588.656 207.538 588.799 207.379 588.983 207.283C589.167 207.188 589.379 207.162 589.58 207.21C589.739 207.253 589.882 207.341 589.992 207.463C590.103 207.586 590.175 207.737 590.2 207.9C590.206 208.078 590.165 208.254 590.081 208.41C589.996 208.567 589.872 208.698 589.72 208.79C589.564 208.877 589.385 208.916 589.206 208.9C589.028 208.883 588.858 208.814 588.72 208.7C588.594 208.576 588.512 208.414 588.487 208.239C588.461 208.063 588.494 207.885 588.58 207.73Z" fill="#FAFAFA"/>
<path d="M589.06 218.49C589.47 218.59 598.74 223.38 598.74 223.38L603.58 228.48C603.58 228.48 605.33 231.48 603.91 236.04C602.49 240.6 600.18 242.27 594.85 243.59L584.78 242L579.68 237.82C579.193 237.416 578.837 236.875 578.659 236.268C578.481 235.66 578.488 235.013 578.68 234.41L578.75 234.2L578.17 233.2C577.993 232.903 577.907 232.561 577.923 232.216C577.939 231.872 578.056 231.539 578.26 231.26C578.536 230.886 578.948 230.637 579.407 230.565C579.866 230.494 580.334 230.607 580.71 230.88L586.45 235.08L590.4 235.6L590.99 234.31L585.2 231.31L577.84 225.61C577.608 225.432 577.415 225.208 577.272 224.953C577.129 224.698 577.04 224.416 577.009 224.126C576.978 223.835 577.006 223.541 577.093 223.261C577.179 222.982 577.321 222.723 577.51 222.5C577.84 222.111 578.297 221.851 578.801 221.767C579.304 221.683 579.821 221.779 580.26 222.04L587.1 226.04L594.24 229.19L593.11 226.35L584.72 220.14C584.72 220.14 584 217.21 589.06 218.49Z" fill="#FFBF9D"/>
<path d="M588.22 213.6C588.22 213.6 586.29 212.49 583.08 213.82C579.87 215.15 575.77 217.16 575.77 217.16L569.62 218.91L570.35 217.39C570.35 217.39 576.42 218.01 576.13 213.59L572.47 213.75L569.33 212.14L563.14 218.14L560.81 226.65L554 230.19L559.35 244.75L568.96 239.42L580.96 239.19L585.37 235.62L585.86 231.09L590.18 226.69C590.18 226.69 590.72 224.49 588.73 224.28C586.74 224.07 581.95 228.83 581.95 228.83L577.14 228.94C577.14 228.94 576.32 228.19 576.99 227.76C577.66 227.33 591.83 220.37 592.46 218.81C593.09 217.25 593.74 216.23 592.33 215.81C591.069 215.621 589.782 215.745 588.58 216.17C588.58 216.17 589.29 213.94 588.22 213.6Z" fill="#FFBF9D"/>
<path d="M576.47 222.3C578.624 221.41 580.73 220.409 582.78 219.3C584.886 218.319 586.939 217.228 588.93 216.03C586.776 216.901 584.67 217.886 582.62 218.98C580.511 219.975 578.458 221.083 576.47 222.3Z" fill="#FF9A6C"/>
<path d="M573.61 233.61C573.839 233.718 574.081 233.795 574.33 233.84C574.8 233.96 575.49 234.14 576.33 234.29C577.342 234.475 578.372 234.546 579.4 234.5C580.671 234.431 581.912 234.09 583.04 233.5C585.044 232.38 586.783 230.842 588.14 228.99C588.67 228.3 589.08 227.73 589.35 227.33C589.509 227.13 589.643 226.912 589.75 226.68C589.104 227.362 588.496 228.08 587.93 228.83C586.548 230.597 584.832 232.075 582.88 233.18C581.794 233.75 580.603 234.091 579.38 234.18C578.378 234.242 577.373 234.199 576.38 234.05C574.68 233.78 573.62 233.55 573.61 233.61Z" fill="#FF9A6C"/>
<path d="M554 230.19L554.43 229.94L555.73 229.23L560.73 226.57L560.67 226.64L562.95 218.11L569.11 212.11L569.21 212.01L569.33 212.08L572.48 213.68H572.38L576.04 213.51H576.26V213.72C576.318 214.41 576.183 215.102 575.87 215.72C575.511 216.277 575.001 216.721 574.4 217C573.104 217.563 571.686 217.783 570.28 217.64L570.51 217.51L569.79 219.04L569.51 218.71L575.66 216.94L581.66 214.21C583.58 213.21 586.05 212.33 588.4 213.37C588.541 213.421 588.669 213.501 588.777 213.604C588.886 213.708 588.972 213.832 589.03 213.97C589.134 214.217 589.185 214.482 589.18 214.75C589.185 215.258 589.114 215.763 588.97 216.25L588.64 215.93C589.353 215.702 590.086 215.544 590.83 215.46C591.638 215.315 592.472 215.464 593.18 215.88C593.382 216.034 593.518 216.259 593.56 216.51C593.601 216.731 593.601 216.959 593.56 217.18C593.451 217.558 593.317 217.929 593.16 218.29L592.94 218.82C592.894 218.924 592.841 219.024 592.78 219.12C592.712 219.208 592.638 219.291 592.56 219.37C592.267 219.64 591.956 219.891 591.63 220.12C589.088 221.758 586.465 223.267 583.77 224.64L579.86 226.64C579.22 226.98 578.58 227.3 577.94 227.64C577.65 227.8 577.22 227.98 577.18 228.11C577.14 228.24 577.29 228.56 577.5 228.76L577.32 228.69L582.13 228.58L581.96 228.65C583.371 227.246 584.918 225.986 586.58 224.89C586.997 224.623 587.439 224.399 587.9 224.22C588.39 224.022 588.934 223.997 589.44 224.15C589.701 224.229 589.938 224.37 590.132 224.562C590.325 224.754 590.469 224.99 590.55 225.25C590.675 225.742 590.675 226.258 590.55 226.75V226.81L586 231.24L586.06 231.11C585.89 232.67 585.72 234.18 585.56 235.65V235.73L585.5 235.78L581.07 239.33H581.02H581L568.95 239.52H569.02L561.87 243.41L559.99 244.41L559.51 244.66C559.4 244.72 559.34 244.74 559.34 244.73L559.49 244.63L559.96 244.35L561.8 243.29L568.89 239.29H568.95L580.95 239.01H580.84L585.24 235.43L585.16 235.57C585.32 234.11 585.48 232.6 585.64 231.04V231L585.69 230.95L590 226.54L589.94 226.65C590.12 225.84 589.94 224.82 589.1 224.65C588.662 224.588 588.216 224.618 587.791 224.739C587.366 224.859 586.97 225.068 586.63 225.35C585.002 226.428 583.488 227.667 582.11 229.05L582.04 229.12H582L577.2 229.25H577.09L577.02 229.18C576.869 229.037 576.74 228.872 576.64 228.69C576.578 228.58 576.54 228.458 576.529 228.332C576.519 228.206 576.536 228.079 576.58 227.96C576.693 227.751 576.873 227.586 577.09 227.49L577.57 227.24L579.49 226.24L583.39 224.24C586.065 222.873 588.668 221.371 591.19 219.74C591.478 219.514 591.749 219.266 592 219C592.059 218.945 592.112 218.885 592.16 218.82C592.203 218.759 592.237 218.691 592.26 218.62L592.49 218.09C592.75 217.43 593.15 216.59 592.7 216.29C592.089 215.958 591.382 215.849 590.7 215.98C589.993 216.054 589.296 216.202 588.62 216.42L588.16 216.57L588.29 216.1C588.417 215.665 588.481 215.213 588.48 214.76C588.48 214.32 588.33 213.94 588.05 213.86C587.039 213.446 585.927 213.349 584.86 213.58C583.783 213.819 582.744 214.203 581.77 214.72L575.84 217.42L569.68 219.17L569.18 219.31L569.41 218.84L570.14 217.32L570.2 217.18H570.37C571.688 217.316 573.02 217.117 574.24 216.6C574.796 216.331 575.259 215.903 575.57 215.37C575.837 214.831 575.954 214.23 575.91 213.63L576.14 213.83L572.48 213.98H572.42L569.28 212.35H569.51L563.31 218.35V218.28C562.38 221.6 561.58 224.47 560.93 226.78V226.83L555.85 229.4L554.53 230.05L554 230.19Z" fill="#FF9A6C"/>
<path d="M528.16 267.71C528.361 267.58 528.571 267.467 528.79 267.37L530.64 266.45L537.64 263.11L561.75 251.71L561.62 252.02C560.06 247.76 558.38 243.15 556.62 238.38C555.4 235 554.2 231.71 553.05 228.53L553.39 228.68L528.82 239H528.77C526.756 239.174 524.775 239.618 522.88 240.32C521.455 240.845 520.155 241.658 519.06 242.71C518.368 243.377 517.817 244.176 517.44 245.06C517.32 245.36 517.25 245.6 517.2 245.76C517.188 245.846 517.164 245.93 517.13 246.01C517.112 245.924 517.112 245.836 517.13 245.75C517.178 245.502 517.245 245.258 517.33 245.02C517.676 244.105 518.207 243.271 518.89 242.57C519.989 241.473 521.304 240.615 522.75 240.05C524.675 239.304 526.694 238.83 528.75 238.64H528.69L553.19 228.19L553.44 228.09L553.53 228.34C554.69 231.52 555.89 234.81 557.11 238.18C558.85 242.95 560.52 247.57 562.11 251.83L562.19 252.05L561.98 252.15L537.8 263.37L530.8 266.59L528.91 267.43C528.666 267.539 528.415 267.632 528.16 267.71Z" fill="#595A5B"/>
<path d="M536.54 204C535.946 203.049 535.402 202.068 534.91 201.06C533.91 199.23 532.49 196.76 530.72 194.14C528.95 191.52 527.18 189.28 525.85 187.68C525.096 186.853 524.389 185.985 523.73 185.08C523.73 185.08 524 185.26 524.42 185.67C524.84 186.08 525.42 186.67 526.13 187.44C529.772 191.482 532.838 196.008 535.24 200.89C535.69 201.82 536.04 202.59 536.24 203.14C536.383 203.41 536.484 203.7 536.54 204Z" fill="#595A5B"/>
<path d="M537.53 208.9C537.489 209.333 537.395 209.76 537.25 210.17C537.03 210.97 536.7 212.17 536.25 213.54C535.4 216.39 534.19 220.31 532.81 224.62C531.43 228.93 530.11 232.82 529.12 235.62C528.62 237.01 528.21 238.14 527.9 238.92C527.773 239.332 527.598 239.728 527.38 240.1C527.451 239.674 527.562 239.256 527.71 238.85C527.99 237.96 528.35 236.85 528.77 235.5C529.71 232.57 530.94 228.72 532.31 224.5C533.68 220.28 534.95 216.4 535.9 213.5L537.03 210.18C537.151 209.737 537.319 209.308 537.53 208.9Z" fill="#595A5B"/>
</svg>
