<svg xmlns="http://www.w3.org/2000/svg" viewBox="0 0 2500 2500"><defs><style>.cls-1{fill:#93d307;}.cls-2{fill:#d6fc83;}.cls-3{fill:#cdf268;}.cls-4{fill:#adfa1c;}.cls-5{fill:#c7ea49;}.cls-6{fill:#ff9f34;}.cls-7,.cls-8{fill:none;stroke:#b9dd36;stroke-width:4px;}.cls-7{stroke-linejoin:round;}.cls-8{stroke-miterlimit:10;}.cls-9{fill:#a5e51a;}.cls-10{fill:#fff;}.cls-11{fill:#d5f78b;}.cls-12{fill:#4d4d4d;}.cls-13{fill:#d9ffff;}.cls-14{fill:#f7a58e;}.cls-15{fill:#262626;}.cls-16{fill:#e6856a;}</style></defs><g id="shadow"><path class="cls-1" d="M2370.63,2468.1H122.28a15.59,15.59,0,0,1-15.59-15.59h0a15.59,15.59,0,0,1,15.59-15.59H2370.63a15.59,15.59,0,0,1,15.6,15.59h0A15.59,15.59,0,0,1,2370.63,2468.1Z"/></g><g id="elements"><g id="cloud"><path class="cls-2" d="M130.7,782.56c.11-1.47.19-2.94.19-4.44a56.64,56.64,0,0,0-113.27,0c0,1.5.08,3,.19,4.44Z"/><path class="cls-2" d="M316.74,782.56c.12-1.47.19-2.94.19-4.44a56.63,56.63,0,0,0-113.26,0c0,1.5.07,3,.19,4.44Z"/><path class="cls-2" d="M364.92,782.56a38.36,38.36,0,0,0,.25-4.44,40,40,0,0,0-80.08,0,38.36,38.36,0,0,0,.25,4.44Z"/><path class="cls-2" d="M251.6,782.56a83,83,0,1,0-164.59,0Z"/><path class="cls-2" d="M1526.05,135.5c.11-1.47.19-2.94.19-4.44a56.63,56.63,0,0,0-113.26,0c0,1.5.07,3,.19,4.44Z"/><path class="cls-2" d="M1712.1,135.5c.11-1.47.19-2.94.19-4.44a56.64,56.64,0,0,0-113.27,0c0,1.5.08,3,.19,4.44Z"/><path class="cls-2" d="M1647,135.5a83,83,0,1,0-164.6,0Z"/></g><g id="card"><path class="cls-3" d="M1228.55,785.75h-20.41a2.73,2.73,0,0,1,0-5.46h20.41a2.73,2.73,0,0,1,0,5.46Zm-40.81,0h-20.4a2.73,2.73,0,1,1,0-5.46h20.4a2.73,2.73,0,0,1,0,5.46Zm-40.81,0h-20.4a2.73,2.73,0,0,1,0-5.46h20.4a2.73,2.73,0,1,1,0,5.46Zm-40.8,0h-20.4a2.73,2.73,0,1,1,0-5.46h20.4a2.73,2.73,0,0,1,0,5.46Zm-40.81,0h-20.4a2.73,2.73,0,0,1,0-5.46h20.4a2.73,2.73,0,1,1,0,5.46Zm-40.8,0h-20.4a2.73,2.73,0,1,1,0-5.46h20.4a2.73,2.73,0,0,1,0,5.46Zm-40.8,0H963.31a2.73,2.73,0,1,1,0-5.46h20.41a2.73,2.73,0,0,1,0,5.46Zm-40.81,0h-20.4a2.73,2.73,0,1,1,0-5.46h20.4a2.73,2.73,0,0,1,0,5.46Zm-40.8,0H881.7a2.73,2.73,0,0,1,0-5.46h20.41a2.73,2.73,0,1,1,0,5.46Zm-40.81,0H840.9a2.73,2.73,0,1,1,0-5.46h20.4a2.73,2.73,0,0,1,0,5.46Zm-40.81,0h-20.4a2.73,2.73,0,0,1,0-5.46h20.4a2.73,2.73,0,1,1,0,5.46Zm-40.8,0h-20.4a2.73,2.73,0,0,1,0-5.46h20.4a2.73,2.73,0,0,1,0,5.46Zm-40.81,0h-20.4a2.73,2.73,0,0,1,0-5.46h20.4a2.73,2.73,0,1,1,0,5.46Zm-40.8,0h-20.4a2.73,2.73,0,1,1,0-5.46h20.4a2.73,2.73,0,0,1,0,5.46Zm-40.81,0h-20.4a2.73,2.73,0,1,1,0-5.46h20.4a2.73,2.73,0,1,1,0,5.46Zm-40.8,0h-20.4a2.73,2.73,0,1,1,0-5.46h20.4a2.73,2.73,0,0,1,0,5.46Zm-40.8,0H555.26a2.73,2.73,0,0,1,0-5.46h20.41a2.73,2.73,0,1,1,0,5.46Zm-40.81,0h-20.4a2.73,2.73,0,1,1,0-5.46h20.4a2.73,2.73,0,1,1,0,5.46Zm-40.8,0h-3.33a26.81,26.81,0,0,1-17.48-6.4,2.73,2.73,0,0,1,3.56-4.15,21.34,21.34,0,0,0,13.92,5.09h3.33a2.73,2.73,0,0,1,0,5.46Zm753.83-4.83a2.74,2.74,0,0,1-1.65-4.92,19.25,19.25,0,0,0,7.84-15.36,2.73,2.73,0,0,1,2.73-2.73h0a2.74,2.74,0,0,1,2.73,2.74,24.65,24.65,0,0,1-10,19.71A2.68,2.68,0,0,1,1247.89,780.92Zm-780.65-19a2.74,2.74,0,0,1-2.73-2.74v-20.4a2.73,2.73,0,0,1,5.46,0v20.4A2.74,2.74,0,0,1,467.24,761.93Zm789.57-19a2.73,2.73,0,0,1-2.73-2.73v-20.4a2.73,2.73,0,0,1,5.46,0v20.4A2.73,2.73,0,0,1,1256.81,743ZM467.24,721.12a2.73,2.73,0,0,1-2.73-2.73V698a2.73,2.73,0,0,1,5.46,0v20.4A2.73,2.73,0,0,1,467.24,721.12Zm789.57-19a2.73,2.73,0,0,1-2.73-2.73V679a2.73,2.73,0,0,1,5.46,0v20.41A2.73,2.73,0,0,1,1256.81,702.17ZM467.24,680.32a2.74,2.74,0,0,1-2.73-2.74v-20.4a2.73,2.73,0,0,1,5.46,0v20.4A2.74,2.74,0,0,1,467.24,680.32Zm789.57-19a2.73,2.73,0,0,1-2.73-2.73v-20.4a2.73,2.73,0,0,1,5.46,0v20.4A2.73,2.73,0,0,1,1256.81,661.36ZM467.24,639.51a2.73,2.73,0,0,1-2.73-2.73v-20.4a2.73,2.73,0,1,1,5.46,0v20.4A2.73,2.73,0,0,1,467.24,639.51Zm789.57-19a2.73,2.73,0,0,1-2.73-2.73V597.42a2.73,2.73,0,0,1,5.46,0v20.41A2.73,2.73,0,0,1,1256.81,620.56ZM467.24,598.71a2.74,2.74,0,0,1-2.73-2.74v-20.4a2.73,2.73,0,1,1,5.46,0V596A2.74,2.74,0,0,1,467.24,598.71Zm789.57-19a2.73,2.73,0,0,1-2.73-2.73v-20.4a2.73,2.73,0,1,1,5.46,0V577A2.73,2.73,0,0,1,1256.81,579.75ZM467.24,557.9a2.73,2.73,0,0,1-2.73-2.73v-20.4a2.73,2.73,0,1,1,5.46,0v20.4A2.73,2.73,0,0,1,467.24,557.9ZM1256.81,539a2.74,2.74,0,0,1-2.73-2.74v-20.4a2.73,2.73,0,0,1,5.46,0v20.4A2.74,2.74,0,0,1,1256.81,539ZM467.24,517.1a2.74,2.74,0,0,1-2.73-2.74V494a2.73,2.73,0,0,1,5.46,0v20.4A2.74,2.74,0,0,1,467.24,517.1Zm789.57-19a2.73,2.73,0,0,1-2.73-2.73V475a2.73,2.73,0,0,1,5.46,0v20.4A2.73,2.73,0,0,1,1256.81,498.14ZM467.24,476.29a2.73,2.73,0,0,1-2.73-2.73v-20.4a2.73,2.73,0,1,1,5.46,0v20.4A2.73,2.73,0,0,1,467.24,476.29Zm789.57-19a2.73,2.73,0,0,1-2.73-2.73V434.2a2.73,2.73,0,0,1,5.46,0v20.41A2.73,2.73,0,0,1,1256.81,457.34ZM467.24,435.49a2.73,2.73,0,0,1-2.73-2.73V412.35a2.73,2.73,0,0,1,5.46,0v20.41A2.73,2.73,0,0,1,467.24,435.49Zm789.57-19a2.73,2.73,0,0,1-2.73-2.73V393.4a2.73,2.73,0,1,1,5.46,0v20.4A2.73,2.73,0,0,1,1256.81,416.53ZM467.24,394.68a2.73,2.73,0,0,1-2.73-2.73v-20.4a2.77,2.77,0,0,1,2.73-2.78,2.68,2.68,0,0,1,2.73,2.68V392A2.73,2.73,0,0,1,467.24,394.68Zm789.57-18.95a2.73,2.73,0,0,1-2.73-2.73v-1.45a19.29,19.29,0,0,0-6.81-14.58,2.73,2.73,0,0,1,3.57-4.14,24.76,24.76,0,0,1,8.7,18.72V373A2.73,2.73,0,0,1,1256.81,375.73ZM476.2,356.66a2.73,2.73,0,0,1-1.65-4.91,26.65,26.65,0,0,1,16.18-5.36h4.82a2.74,2.74,0,1,1,0,5.47h-4.82a21.28,21.28,0,0,0-12.89,4.25A2.72,2.72,0,0,1,476.2,356.66Zm753.84-4.8h-20.4a2.74,2.74,0,0,1,0-5.47H1230a2.74,2.74,0,0,1,0,5.47Zm-40.8,0h-20.41a2.74,2.74,0,0,1,0-5.47h20.41a2.74,2.74,0,0,1,0,5.47Zm-40.81,0H1128a2.74,2.74,0,0,1,0-5.47h20.4a2.74,2.74,0,1,1,0,5.47Zm-40.8,0h-20.41a2.74,2.74,0,0,1,0-5.47h20.41a2.74,2.74,0,0,1,0,5.47Zm-40.81,0h-20.4a2.74,2.74,0,0,1,0-5.47h20.4a2.74,2.74,0,1,1,0,5.47Zm-40.8,0h-20.4a2.74,2.74,0,1,1,0-5.47H1026a2.74,2.74,0,0,1,0,5.47Zm-40.81,0h-20.4a2.74,2.74,0,0,1,0-5.47h20.4a2.74,2.74,0,0,1,0,5.47Zm-40.8,0H924a2.74,2.74,0,1,1,0-5.47h20.4a2.74,2.74,0,0,1,0,5.47Zm-40.81,0H883.2a2.74,2.74,0,0,1,0-5.47h20.4a2.74,2.74,0,0,1,0,5.47Zm-40.8,0H842.4a2.74,2.74,0,1,1,0-5.47h20.4a2.74,2.74,0,0,1,0,5.47Zm-40.81,0h-20.4a2.74,2.74,0,0,1,0-5.47H822a2.74,2.74,0,1,1,0,5.47Zm-40.8,0H760.78a2.74,2.74,0,0,1,0-5.47h20.41a2.74,2.74,0,0,1,0,5.47Zm-40.81,0H720a2.74,2.74,0,0,1,0-5.47h20.4a2.74,2.74,0,1,1,0,5.47Zm-40.8,0h-20.4a2.74,2.74,0,1,1,0-5.47h20.4a2.74,2.74,0,0,1,0,5.47Zm-40.81,0h-20.4a2.74,2.74,0,0,1,0-5.47h20.4a2.74,2.74,0,1,1,0,5.47Zm-40.8,0h-20.4a2.74,2.74,0,1,1,0-5.47H618a2.74,2.74,0,0,1,0,5.47Zm-40.81,0h-20.4a2.74,2.74,0,0,1,0-5.47h20.4a2.74,2.74,0,1,1,0,5.47Zm-40.8,0H516a2.74,2.74,0,1,1,0-5.47h20.4a2.74,2.74,0,0,1,0,5.47Z"/><path class="cls-2" d="M1285.23,719.57H559.86a27.65,27.65,0,0,1-27.66-27.65V280.35a27.65,27.65,0,0,1,27.66-27.65h725.37a27.65,27.65,0,0,1,27.65,27.65V691.92A27.65,27.65,0,0,1,1285.23,719.57Z"/><rect class="cls-4" x="532.2" y="340.87" width="780.68" height="80.56"/><path class="cls-5" d="M711,630H596.24A13.2,13.2,0,0,0,583,643.21h0a13.2,13.2,0,0,0,13.21,13.21H711a13.2,13.2,0,0,0,13.21-13.21h0A13.2,13.2,0,0,0,711,630Z"/><path class="cls-5" d="M887.54,630H772.76a13.21,13.21,0,0,0-13.22,13.21h0a13.21,13.21,0,0,0,13.22,13.21H887.54a13.2,13.2,0,0,0,13.21-13.21h0A13.2,13.2,0,0,0,887.54,630Z"/><path class="cls-5" d="M1064.06,630H949.27a13.21,13.21,0,0,0-13.21,13.21h0a13.21,13.21,0,0,0,13.21,13.21h114.79a13.21,13.21,0,0,0,13.21-13.21h0A13.21,13.21,0,0,0,1064.06,630Z"/><path class="cls-5" d="M1240.57,630H1125.79a13.2,13.2,0,0,0-13.21,13.21h0a13.2,13.2,0,0,0,13.21,13.21h114.78a13.2,13.2,0,0,0,13.21-13.21h0A13.2,13.2,0,0,0,1240.57,630Z"/><path class="cls-5" d="M591,276.39h0A14.58,14.58,0,0,0,576.37,291v5.13A14.58,14.58,0,0,0,591,310.68h0a14.59,14.59,0,0,0,14.58-14.59V291A14.58,14.58,0,0,0,591,276.39Z"/><path class="cls-5" d="M622.36,293.53h0a17.15,17.15,0,0,0,17.15,17.15h60.75a17.15,17.15,0,0,0,17.15-17.15h0a17.15,17.15,0,0,0-17.15-17.14H639.51A17.15,17.15,0,0,0,622.36,293.53Z"/><rect class="cls-6" x="591.62" y="464.77" width="124.02" height="113.2" rx="15.98"/></g><g id="Gear"><path class="cls-7" d="M2139.18,624.49A272.36,272.36,0,0,0,2144.61,517l11.06-1.66,21.83-3.26.28-.06a305,305,0,0,0-39.92-111.85l-28.76,17.13a272.54,272.54,0,0,0-72.21-79.74l20-27a303.59,303.59,0,0,0-107.33-51l-8.25,32.57a271.93,271.93,0,0,0-107.45-5.44l-5-33.16A306.89,306.89,0,0,0,1717,293.56l17.13,28.75a272.67,272.67,0,0,0-79.74,72.21l-27-20a303.75,303.75,0,0,0-51,107.33l32.57,8.26a271.87,271.87,0,0,0-5.44,107.44l-23.47,3.51-9.57,1.51-.12,0a306.94,306.94,0,0,0,39.91,111.85l28.76-17.13a273.2,273.2,0,0,0,72.33,79.77l-20,27A303.13,303.13,0,0,0,1798.67,855l8.26-32.57a272.54,272.54,0,0,0,107.57,5.47l3.83,25.78,1.15,7.38a306.49,306.49,0,0,0,111.73-39.95l-17.13-28.76A275.33,275.33,0,0,0,2094,720l27,20a305.19,305.19,0,0,0,50.8-107.24Zm-301.56,76.78a148.44,148.44,0,1,1,180.31-107.5A148.42,148.42,0,0,1,1837.62,701.27Z"/><path class="cls-7" d="M2267.13,922.24a143.53,143.53,0,0,0-43.3-36.51l2.83-5.16,5.58-10.19.07-.14a160.73,160.73,0,0,0-59.6-18.91l-2,17.51a143.59,143.59,0,0,0-56.43,4.86l-4.94-17a160,160,0,0,0-55.56,28.75l11,13.84a143,143,0,0,0-36.51,43.3l-15.49-8.48a161.58,161.58,0,0,0-18.91,59.6l17.51,2a143.58,143.58,0,0,0,4.86,56.43l-17,4.94a159.84,159.84,0,0,0,28.75,55.56l13.83-11a143.22,143.22,0,0,0,43.31,36.52l-6,10.95-2.42,4.49-.05,0a161.52,161.52,0,0,0,59.6,18.91l2-17.51a143.83,143.83,0,0,0,56.48-4.9l4.95,17a159.52,159.52,0,0,0,55.51-28.71l-11-13.83a143.68,143.68,0,0,0,36.57-43.35l12,6.61,3.46,1.87a161.43,161.43,0,0,0,18.86-59.56l-17.51-2a145.08,145.08,0,0,0-4.85-56.53l17-4.94A160.85,160.85,0,0,0,2281,911.22Zm-63.9,150.86a78.15,78.15,0,1,1,12.39-109.82A78.14,78.14,0,0,1,2203.23,1073.1Z"/><path class="cls-8" d="M1018.77,1728.43a165.52,165.52,0,0,0-50-42.13l3.26-6,6.45-11.76.07-.16a185.28,185.28,0,0,0-68.78-21.82l-2.28,20.21a165.66,165.66,0,0,0-65.12,5.61l-5.71-19.57A184.43,184.43,0,0,0,772.58,1686l12.72,16a165.3,165.3,0,0,0-42.14,50l-17.88-9.78A186.55,186.55,0,0,0,703.46,1811l20.21,2.28a165.64,165.64,0,0,0,5.61,65.12l-19.57,5.71a184.6,184.6,0,0,0,33.17,64.11l16-12.72a165.16,165.16,0,0,0,50,42.14l-6.93,12.64-2.79,5.19-.06,0a186.61,186.61,0,0,0,68.78,21.82l2.29-20.21a165.93,165.93,0,0,0,65.17-5.66L941,2011a184,184,0,0,0,64-33.12l-12.71-16a165.51,165.51,0,0,0,42.19-50l13.88,7.63,4,2.15a186.21,186.21,0,0,0,21.76-68.73l-20.21-2.29a167.17,167.17,0,0,0-5.6-65.22l19.58-5.71a185.64,185.64,0,0,0-33.19-64ZM945,1902.52a90.18,90.18,0,1,1,14.3-126.74A90.16,90.16,0,0,1,945,1902.52Z"/></g></g><g id="phone"><g id="phone-2" data-name="phone"><path class="cls-9" d="M1872.85,554.43c-15.82-93.74-160.18-136.06-157.35-74.88l-661.77,3.87c-45.83.27-83,41.51-83,92.15L969.32,2316c0,52.47,37.77,95.36,84.48,95.76l675.56,5.8c4.19,8.8,12,16.82,24.4,23.51,77.48,1.65,114.64-36.61,128.21-79.87a104.19,104.19,0,0,0,6.72-38C1886,2300.59,1877.75,576.41,1872.85,554.43Z"/><path class="cls-10" d="M1746.54,2441.35l-775.44-5c-48.39-.31-87.53-44.37-87.44-98.35l2.91-1789.88c.09-52.06,38.61-94.35,86.06-94.5L1733,451.15c47.82-.16,86.94,42.07,87.34,94.36l13.78,1798.16C1834.55,2397.91,1795.32,2441.67,1746.54,2441.35Z"/><path d="M1757.25,2428.33a69.52,69.52,0,0,1-9.8.61l-775.2-5.86c-41.58-.31-75.57-38.94-75.5-86.06L899.43,549.1c.07-45.44,33.52-82.53,74.3-82.71l760.33-3.31c1.19,0,2.39,0,3.57.08,19.13.89,37,9.6,50.38,24.52,13.66,15.24,21.26,35.45,21.42,56.92l13.6,1800C1823.35,2387.25,1795.17,2423.25,1757.25,2428.33Z"/><polygon class="cls-4" points="1782.77 553.65 1795.84 2347.37 922.54 2342.14 924.77 553.65 1782.77 553.65"/></g><g id="login"><path class="cls-6" d="M1478.93,1456.25H1245.14a36.08,36.08,0,0,1-36-36h0a36.08,36.08,0,0,1,36-36h233.79a36.08,36.08,0,0,1,36,36h0A36.08,36.08,0,0,1,1478.93,1456.25Z"/><rect class="cls-10" x="1016.31" y="1117.31" width="676.44" height="71.93" rx="25.24"/><path class="cls-10" d="M1656.78,1305.08H1052.27a36.06,36.06,0,0,1-36-36h0a36.07,36.07,0,0,1,36-36h604.51a36.08,36.08,0,0,1,36,36h0A36.07,36.07,0,0,1,1656.78,1305.08Z"/><path class="cls-11" d="M1165.15,1272.3a12.66,12.66,0,1,1-12.66-12.66A12.66,12.66,0,0,1,1165.15,1272.3Z"/><circle class="cls-11" cx="1195.9" cy="1272.3" r="12.66" transform="translate(-297.34 2177.39) rotate(-77.99)"/><circle class="cls-11" cx="1239.32" cy="1272.3" r="12.66" transform="translate(-536.67 1248.98) rotate(-45)"/><circle class="cls-11" cx="1282.73" cy="1272.3" r="12.66" transform="translate(-523.95 1279.68) rotate(-45)"/><circle class="cls-11" cx="1326.15" cy="1272.3" r="12.66" transform="translate(-385.94 604.34) rotate(-22.5)"/><circle class="cls-11" cx="1369.56" cy="1272.3" r="12.66" transform="translate(-183.37 2312.91) rotate(-76.72)"/><circle class="cls-11" cx="1412.98" cy="1272.3" r="12.66" transform="translate(-485.8 1371.77) rotate(-45)"/><circle class="cls-11" cx="1456.39" cy="1272.3" r="12.66" transform="translate(-473.09 1402.47) rotate(-45)"/><circle class="cls-11" cx="1499.81" cy="1272.3" r="12.66" transform="translate(-372.72 670.8) rotate(-22.5)"/><circle class="cls-10" cx="1354.73" cy="877.7" r="138.96" transform="translate(-223.84 1215.01) rotate(-45)"/><path class="cls-4" d="M1354.93,872.11a43.9,43.9,0,0,0,34.09-16.7,42.77,42.77,0,0,0,9.4-27.13c0-24-19.49-43.84-43.49-43.84a43.87,43.87,0,0,0-43.83,43.84,42.71,42.71,0,0,0,9.39,27.13A44,44,0,0,0,1354.93,872.11Z"/><path class="cls-4" d="M1432,950.22c0,27.66-154.47,27.66-154.47,0l0-32.24c6.1-44.06,141.87-45.92,154.45,0Z"/><path class="cls-12" d="M1082.25,1262.49v-1.93a14.15,14.15,0,0,0-28.3,0v1.93h-2.15V1288c0,4.41,32.69,4.41,32.69,0v-25.5Zm-23.25-1.93c0-4.9,3-9.34,9.1-9.34s9.21,4.16,9.21,9.34v1.93H1059Zm11.51,14.77v7.37a2.35,2.35,0,0,1-2.46,2.27,2.18,2.18,0,0,1-2.26-2.27v-7.37a4.28,4.28,0,0,1-2.27-3.78,4.54,4.54,0,0,1,9.07,0A4.55,4.55,0,0,1,1070.51,1275.33Z"/><path class="cls-12" d="M1068.14,1150.67a9.26,9.26,0,0,0,7.19-3.53,9,9,0,0,0,2-5.72,9.21,9.21,0,1,0-18.42,0,9,9,0,0,0,2,5.72A9.3,9.3,0,0,0,1068.14,1150.67Z"/><path class="cls-12" d="M1084.39,1167.15c0,5.84-32.76,5.84-32.76,0l.17-6.8c1.29-9.3,29.94-9.69,32.6,0Z"/><path class="cls-11" d="M1279.88,1163.83H1147.41a10.59,10.59,0,0,1-10.56-10.55h0a10.59,10.59,0,0,1,10.56-10.56h132.47a10.59,10.59,0,0,1,10.56,10.56h0A10.59,10.59,0,0,1,1279.88,1163.83Z"/><path class="cls-11" d="M1454.6,1163.83H1322.13a10.59,10.59,0,0,1-10.56-10.55h0a10.59,10.59,0,0,1,10.56-10.56H1454.6a10.59,10.59,0,0,1,10.56,10.56h0A10.59,10.59,0,0,1,1454.6,1163.83Z"/></g><g id="key"><path class="cls-10" d="M1176.37,1827.31v262.06c0,29.12,356.32,29.12,356.32,0V1827.31Z"/><circle class="cls-4" cx="1354.53" cy="1926.29" r="43.99" transform="translate(-831.44 2802.01) rotate(-76.72)"/><path class="cls-4" d="M1336.5,1939.85h36.06a0,0,0,0,1,0,0v106.27a12.65,12.65,0,0,1-12.65,12.65h-10.76a12.65,12.65,0,0,1-12.65-12.65V1939.85a0,0,0,0,1,0,0Z"/><path class="cls-10" d="M1501.46,1808.64H1465.4V1791a110.87,110.87,0,1,0-221.74,0v17.64H1207.6V1791c0-81,65.91-146.94,146.93-146.94S1501.46,1710,1501.46,1791Z"/></g></g><g id="shield"><path class="cls-13" d="M1652.5,1511.29h0c0-1.39,0-2,0-2.15C1652.51,1509.4,1652.5,1511.29,1652.5,1511.29Z"/><path class="cls-13" d="M1652.5,1511.29h0c0-1.39,0-2,0-2.15C1652.51,1509.4,1652.5,1511.29,1652.5,1511.29Z"/><path class="cls-13" d="M2482.37,1515s0-1.89,0-2.15c0,.14,0,.76,0,2.15Z"/><path class="cls-13" d="M2482.37,1515s0-1.89,0-2.15c0,.14,0,.76,0,2.15Z"/><path class="cls-10" d="M2069,1316.28c-91.86,98.4-238.45,179-395.31,213.41,0,10.47-.3,68.51-1.5,336-1.59,356.87,338,531.26,390.77,558,51.09-23.52,395-197.64,396.61-554.51,1.19-267.53,1.45-325.57,1.5-336C2304.49,1497.45,2160,1415.5,2069,1316.28Z"/><path class="cls-2" d="M2068.14,1355c-94.7,86.88-225.9,155.16-370.16,192.37l-1.43,318.32c-.65,145.64,57.21,277.4,172,391.63,75.41,75.06,154.7,121.6,194.93,142.54,1.73-.88,3.63-1.87,5.5-2.85V1355.73Z"/><path class="cls-1" d="M2069,1355.73V2397c41.84-21.76,117.88-66.75,190.7-137.94,115.79-113.2,174.83-244.43,175.48-390.08l1.42-318.32C2293.05,1512.26,2162.82,1443.09,2069,1355.73Z"/><path class="cls-4" d="M2358,1674.78c-109.83,16.93-259.39,117.11-353.74,237.56-13.24-56.79-72.65-108.64-103.73-120L1806.38,1887c58.8,26.5,123.06,101.58,131.58,178.44L2032,2080c39.67-78.35,142.1-265.75,345.89-366.52C2374,1698.18,2359.61,1677,2358,1674.78Z"/></g><g id="lady"><path class="cls-14" d="M574.42,1089.43,557.86,1156l-3,12.38c-3.35,15.72-107.23,9-99.87-9.37l6.19-13.55,31.95-70.09Z"/><path class="cls-14" d="M635.16,990.67c1.06,72.19-32.46,130.89-84.9,130.64s-103.17-44.75-105-131.56c-1.17-55.3,43-100,95.44-99.7S634.35,935.36,635.16,990.67Z"/><path class="cls-15" d="M542.27,870.2s104.49,5.16,113.18,84.3c11.6,69.45-40.51,18.39-61.78,65-24.37,53.39.46,92.47,32.14,103.08-28.16,39.31-189.16,37.9-230.6-31.08C366.83,1005,407,875,542.27,870.2Z"/><path class="cls-14" d="M615.54,1016.65a19.47,19.47,0,1,1-21-17.83A19.47,19.47,0,0,1,615.54,1016.65Z"/><path class="cls-6" d="M599.53,2359.68c4.9-5.19,28-5.27,30.11,2.4s-2,13.15,7.79,25.32c-5.61,1.62-25.51,1.77-31.6,0S594.63,2364.87,599.53,2359.68Z"/><path class="cls-15" d="M550.89,2372.77H607.2c5.26-238.25,4.25-497.62,2.36-693-.68-70-2.61-105.34-15.3-147.33-25.62-84.81-146.1-58.7-154.65,18.17-3.56,42.65-6.17,125.87,72.68,408.63C478.15,2083.79,537.72,2233.06,550.89,2372.77Z"/><path class="cls-6" d="M649.19,2389.53c-8.29-.44-27.66-8.43-31.31-13.94-5.38,6-16.59,7.68-30.12,5.66-16-2.38-18.08-9.81-29.54-8.82-4.83,13.44-16.6,43.59-5.25,50.58H671.35C681.92,2413.36,681.64,2392.76,649.19,2389.53Z"/><path class="cls-6" d="M312.87,2365.71c4.12-4.36,23.54-4.43,25.31,2s-1.65,11.05,6.55,21.27c-4.72,1.36-21.45,1.49-26.56,0S308.76,2370.07,312.87,2365.71Z"/><path class="cls-15" d="M498.43,1561.61c-11.51-87.84-167.78-78.81-178.17-2.12-3.75,41.27-15.21,103.39,14.15,409.93-62,117-44.44,284.84-63,408.4-2,18.8,51.21,23.32,55.35,6.56,56.76-229.24,136.06-486.44,165.54-677.16C503.05,1638.08,504.13,1605.12,498.43,1561.61Z"/><path class="cls-6" d="M354.78,2385.9c-8.3-.44-20.52-11.23-24.18-16.75-5.38,6-15.65,14.12-29.18,12.1-16-2.38-18.08-9.81-29.55-8.82-4.83,13.44-16.6,43.59-5.24,50.58H381.78C392.35,2413.36,387.23,2389.13,354.78,2385.9Z"/><path class="cls-14" d="M762,1096.68l-29.15,6.46c.66,15.34-1.18,39.83,0,66.88l49-6.46C774.38,1136.33,767.18,1112.46,762,1096.68Z"/><path class="cls-4" d="M732.82,1170c-1.09,53.59-2.52,76.55-3,97.67l-145.44-93.28c-44.31-13.45-96,74.27-40,113.85,0,0,193.69,109.36,237.26,77.86,23.57-17,17.45-139.29.12-202.56Z"/><path class="cls-14" d="M775.14,1068.17c-13.47-15.79-43-10.29-45.28-9.86L732.7,1102c.67,21.57,27.42,22.3,38.31,3.71C771,1105.7,786.8,1083.72,775.14,1068.17Z"/><path class="cls-14" d="M744.17,1062.44c-9.81-47.58-19.72-41.21-19.72-41.21s1.59,16.82,6,46.49C733.79,1084.52,745.39,1074.39,744.17,1062.44Z"/><path class="cls-4" d="M618.79,1299.77c9.87-48.06,15.17-95.52-34.37-125.36-29.37-17.69-123.77-30.32-167.91-15.72-44.48,19.88-34.87,106.58-43.2,243.49-30.65,68.32-44,90.76-53.05,157.31,0,0,16.4,50.14,131.92,50.21,52.46,0,129.72-4.63,164.86-31.39-3.5-45.38-22.48-89.1-30.39-153.35C586.65,1425,618.07,1305.28,618.79,1299.77Z"/><path class="cls-4" d="M397.88,1175.21c-54.22,41.39-107.11,106.49-132.1,141s-89.73,173.5-89.73,173.5l41.2,30.38,111.44-151.85,136.15-111.68C512.09,1208.39,450.69,1134.89,397.88,1175.21Z"/><path class="cls-14" d="M158.79,1525l26.7-55.18c6.29,16.6,36.86,31.73,45.64,31.42,0,0-28.72,41.32-35.74,48.34S159.37,1544.71,158.79,1525Z"/><path class="cls-14" d="M197.05,1533.51c-.11.41,0,1-.1,1.38-1.34,20.07-16.77,29.58-20.95,31.83a2.34,2.34,0,0,1-1.07.42c14.51-2.9,18.86,16.55,11.48,21-21.37,14.46-51.82-5.43-54.39-17.49-2.62-12.25,21.72-52.77,21.72-52.77C166.15,1507.89,197.93,1509.45,197.05,1533.51Z"/><path class="cls-16" d="M197,1534.89c-.85,22.69-21.31,32-21.68,32.11-12-.34-16.23-1.06-27.65-1,7.46-3.63,22.74-13.3,16.82-32.08C176.15,1524.93,193.75,1532.76,197,1534.89Z"/><path class="cls-14" d="M197.26,1532.3c3.15,18.74,1.82,45.43-2.64,57.18,0,0-11.48.6-10.41-21.09.28-5.64-.53-17.91-6.11-22-17.2-11.36-20-21.78-13.66-30.33C172.85,1504.67,196.6,1516.24,197.26,1532.3Z"/><path class="cls-14" d="M144.05,1583.5c9.33,6.47,34,19,37.91,15.91s-15.84-24.1-28.59-26.89S139.27,1580.19,144.05,1583.5Z"/></g></svg>