<svg width="973" height="220" viewBox="0 0 973 220" fill="none" xmlns="http://www.w3.org/2000/svg">
<path d="M98 62.0195L74.41 91.5595L66.08 101.97L61.19 108.09L60.83 108.55C58.7868 111.036 56.2174 113.037 53.307 114.41C50.3967 115.783 47.218 116.494 44 116.49H0L23.63 86.9495L32 76.5396L36.88 70.4495L37.27 69.9495C39.3025 67.4772 41.8561 65.4845 44.7482 64.1136C47.6403 62.7428 50.7995 62.0277 54 62.0195H98Z" fill="#98DF13"/>
<path d="M186.86 42.2401H79.44C73.9414 42.2371 68.662 40.0837 64.73 36.2401L28.46 6.31793e-05H135.87C138.643 -0.00673953 141.391 0.535874 143.953 1.59659C146.516 2.65731 148.843 4.21511 150.8 6.18006L186.86 42.2401Z" fill="#98DF13"/>
<path d="M239.66 42.2402L203.91 86.9302L203.62 87.2802C201.656 89.7082 199.176 91.6686 196.36 93.0195C193.544 94.3703 190.463 95.0776 187.34 95.0902H144.62L167.52 66.4502L175.6 56.3602L186.86 42.2903L239.66 42.2402Z" fill="#98DF13"/>
<path d="M194 170.89C194.005 173.913 193.356 176.901 192.1 179.65L191.43 180.99L176.33 211.2L157.68 185.56L154.22 180.8L91.8201 95.0898H144.62L189.85 158.42L190.25 158.97C192.677 162.472 193.985 166.629 194 170.89Z" fill="#98DF13"/>
<path d="M257.587 155.62V42.1656H304.453C312.947 42.1656 320.278 43.6982 326.446 46.7636C332.651 49.792 337.433 54.1499 340.794 59.8374C344.155 65.488 345.835 72.1911 345.835 79.9468C345.835 87.8133 344.118 94.498 340.683 100.001C337.249 105.467 332.374 109.64 326.058 112.521C319.743 115.364 312.264 116.786 303.622 116.786H273.984V95.1812H298.526C302.662 95.1812 306.115 94.6457 308.885 93.5747C311.692 92.4667 313.815 90.8048 315.256 88.5889C316.696 86.336 317.416 83.4553 317.416 79.9468C317.416 76.4383 316.696 73.5391 315.256 71.2494C313.815 68.9227 311.692 67.1869 308.885 66.042C306.078 64.8602 302.625 64.2693 298.526 64.2693H285.009V155.62H257.587ZM321.46 103.768L349.713 155.62H319.798L292.099 103.768H321.46ZM360.876 155.62V42.1656H439.984V64.4355H388.298V87.7025H435.94V110.028H388.298V133.35H439.984V155.62H360.876ZM457.157 42.1656H491.116L519.923 112.41H521.252L550.059 42.1656H584.018V155.62H557.316V85.9298H556.374L529.119 154.9H512.056L484.8 85.542H483.859V155.62H457.157V42.1656ZM628.544 42.1656V155.62H601.122V42.1656H628.544ZM642.047 64.4355V42.1656H737.94V64.4355H703.538V155.62H676.504V64.4355H642.047ZM745.682 42.1656H776.317L800.304 89.6414H801.301L825.289 42.1656H855.924L814.431 117.728V155.62H787.175V117.728L745.682 42.1656ZM963.977 42.1656V155.62H940.71L895.561 90.14H894.841V155.62H867.419V42.1656H891.018L935.669 107.535H936.61V42.1656H963.977Z" fill="#171717"/>
<path d="M837 176.62L194 219.79L209.48 186.01C210.765 183.339 212.741 181.061 215.202 179.41C217.663 177.759 220.521 176.796 223.48 176.62H837Z" fill="#171717"/>
</svg>
