<svg width="973" height="220" viewBox="0 0 973 220" fill="none" xmlns="http://www.w3.org/2000/svg">
<path d="M98 62.0195L74.41 91.5595L66.08 101.97L61.19 108.09L60.83 108.55C58.7868 111.036 56.2174 113.037 53.307 114.41C50.3967 115.783 47.218 116.494 44 116.49H0L23.63 86.9495L32 76.5396L36.88 70.4495L37.27 69.9495C39.3025 67.4772 41.8561 65.4845 44.7482 64.1136C47.6403 62.7428 50.7995 62.0277 54 62.0195H98Z" fill="#66E8FA"/>
<path d="M186.86 42.2401H79.44C73.9414 42.2371 68.662 40.0837 64.73 36.2401L28.46 6.31793e-05H135.87C138.643 -0.00673953 141.391 0.535874 143.953 1.59659C146.516 2.65731 148.843 4.21511 150.8 6.18006L186.86 42.2401Z" fill="#66E8FA"/>
<path d="M239.66 42.2402L203.91 86.9302L203.62 87.2802C201.656 89.7082 199.176 91.6686 196.36 93.0195C193.544 94.3703 190.463 95.0776 187.34 95.0902H144.62L167.52 66.4502L175.6 56.3602L186.86 42.2903L239.66 42.2402Z" fill="#66E8FA"/>
<path d="M194 170.89C194.005 173.913 193.356 176.901 192.1 179.65L191.43 180.99L176.33 211.2L157.68 185.56L154.22 180.8L91.8201 95.0898H144.62L189.85 158.42L190.25 158.97C192.677 162.472 193.985 166.629 194 170.89Z" fill="#66E8FA"/>
<path d="M285.094 63.793L281.742 94.2617H293.473C298.957 94.2617 303.223 93.043 306.117 90.4531C308.859 87.8633 310.535 83.9023 311.145 78.5703C311.754 74 310.688 70.4961 308.25 67.7539C305.812 65.1641 302.156 63.793 297.281 63.793H285.094ZM306.117 152L286.922 114.523H279.457L275.039 152.152H250.359L262.852 43.8359H300.176C308.098 43.8359 315.105 45.207 320.895 48.2539C326.684 51.1484 330.949 55.2617 333.539 60.4414C336.129 65.6211 337.195 71.7148 336.434 78.418C335.52 86.3398 332.93 93.043 328.816 98.375C324.551 103.707 319.371 107.668 312.973 110.41L335.52 152H306.117ZM375.891 132.195H418.395L416.262 152H348.926L361.266 43.6836H427.992L425.707 63.4883H383.812L380.918 88.0156H418.242L416.109 107.668H378.785L375.891 132.195ZM433.781 152L455.414 43.8359H482.684L493.043 83.1406C494.262 87.1016 495.176 91.0625 496.09 94.8711C497.004 98.5273 497.766 101.727 498.223 104.164C498.832 106.602 499.289 108.734 499.594 110.562C499.746 112.391 500.051 113.762 500.203 114.676L500.508 115.895C502.945 108.734 507.82 97.7656 515.285 82.9883L535.09 43.6836H562.359L560.988 152H536.309L537.07 110.105C537.223 104.316 537.375 98.832 537.68 93.5C537.984 88.3203 538.289 84.5117 538.441 82.0742L538.746 78.418C534.938 86.4922 529.91 97.0039 523.512 110.105L503.555 150.934H488.777L478.418 110.105C476.742 103.555 475.371 97.6133 474.152 92.2812C473.086 87.1016 472.324 83.4453 472.02 81.3125L471.715 78.418C470.953 84.5117 469.277 95.1758 466.535 110.105L458.461 152H433.781ZM581.098 152L593.438 43.6836H618.117L605.777 152H581.098ZM712.723 43.6836L710.438 63.6406H684.082L674.027 152H649.195L659.25 63.6406H632.742L635.027 43.6836H712.723ZM818.602 43.6836L773.355 112.086L768.938 152H744.105L748.523 112.238L719.426 43.6836H748.523L753.246 59.375C755.684 67.6016 757.816 74.457 759.34 80.2461C761.016 86.0352 761.93 89.8438 762.387 91.5195L762.996 94.1094C764.52 89.2344 770.613 77.6562 781.125 59.375L789.961 43.6836H818.602ZM818.754 152L831.094 43.8359H858.211L878.168 88.7773C881.062 95.0234 883.348 100.965 885.48 106.449C887.461 111.934 888.68 115.742 889.289 118.027L890.051 121.531C889.898 113.609 890.508 102.793 892.184 88.7773L897.363 43.8359H922.043L909.703 152.152H882.586L861.715 107.211C858.973 101.422 856.688 95.6328 854.707 90.1484C852.727 84.5117 851.355 80.3984 850.746 77.6562L849.832 73.6953C850.441 83.293 849.984 94.4141 848.461 107.059L843.434 152H818.754Z" fill="#171717"/>
<path d="M837 176.62L194 219.79L209.48 186.01C210.765 183.339 212.741 181.061 215.202 179.41C217.663 177.759 220.521 176.796 223.48 176.62H837Z" fill="#171717"/>
</svg>
