<svg width="25" height="30" viewBox="0 0 25 30" fill="none" xmlns="http://www.w3.org/2000/svg">
<path d="M20.9849 13.0603C20.4992 14.0317 20.1349 15.1245 20.1349 16.2173C20.1349 17.5529 20.4992 18.7671 21.2277 19.7385C21.9563 20.7099 22.9276 21.5598 24.0204 22.0455C23.5347 23.5026 22.8062 24.9596 21.9563 26.1738C20.7421 27.8737 19.5278 29.6951 17.5851 29.6951C15.6424 29.8165 15.0353 28.6023 12.8497 28.6023C10.6641 28.6023 9.93556 29.6951 8.11424 29.8165C6.30915 29.9368 4.86186 27.9104 3.65417 26.2194L3.62165 26.1738C1.19322 22.5312 -0.749516 16.0959 1.80033 11.6033C2.40744 10.5105 3.25739 9.66055 4.35018 8.93202C5.32155 8.32491 6.53576 7.96065 7.74997 7.96065C9.57129 7.83923 11.2712 9.17486 12.4854 9.17486C13.5782 9.17486 15.7638 7.59638 17.9494 7.83923C19.0422 7.96065 20.0135 8.20349 20.9849 8.68918C21.9563 9.17486 22.6848 9.90339 23.2919 10.7533C22.3205 11.239 21.4706 12.089 20.9849 13.0603Z" fill="white"/>
<path d="M18.0708 0.918213C18.1922 2.61811 17.7065 4.19659 16.6137 5.53222C16.0066 6.13933 15.3995 6.74643 14.671 7.1107C13.821 7.47496 13.0925 7.59638 12.2426 7.59638C12.2426 6.74643 12.364 5.89649 12.6068 5.16796C12.8497 4.43943 13.3354 3.7109 13.821 3.1038C14.9138 1.88958 16.3709 1.03963 18.0708 0.918213Z" fill="white"/>
</svg>
