<svg xmlns="http://www.w3.org/2000/svg" width="24" height="25" viewBox="0 0 24 25" fill="none">
    <path
        d="M12 15.4651L9 12.4651M12 15.4651C13.3968 14.9338 14.7369 14.2638 16 13.4651M12 15.4651V20.4651C12 20.4651 15.03 19.9151 16 18.4651C17.08 16.8451 16 13.4651 16 13.4651M9 12.4651C9.53214 11.0845 10.2022 9.76116 11 8.51509C12.1652 6.65208 13.7876 5.11814 15.713 4.05918C17.6384 3.00023 19.8027 2.45146 22 2.46509C22 5.18509 21.22 9.96509 16 13.4651M9 12.4651H4C4 12.4651 4.55 9.43509 6 8.46509C7.62 7.38509 11 8.46509 11 8.46509M4.5 16.9651C3 18.2251 2.5 21.9651 2.5 21.9651C2.5 21.9651 6.24 21.4651 7.5 19.9651C8.21 19.1251 8.2 17.8351 7.41 17.0551C7.02131 16.6841 6.50929 16.4697 5.97223 16.4531C5.43516 16.4365 4.91088 16.6188 4.5 16.9651Z"
        stroke="#182230" stroke-width="2" stroke-linecap="round" stroke-linejoin="round" />
</svg>