<svg width="22" height="25" viewBox="0 0 22 25" fill="none" xmlns="http://www.w3.org/2000/svg">
<path d="M10.159 11.8116L0.107422 22.4217C0.386633 23.5385 1.50348 24.4692 2.71339 24.4692C3.17874 24.4692 3.6441 24.3761 4.10945 24.0969L15.371 17.582L10.159 11.8116Z" fill="#E84336"/>
<path d="M20.2117 10.0431L15.372 7.25104L9.88086 12.0907L15.372 17.5818L20.2117 14.7897C21.0493 14.3244 21.6077 13.3937 21.6077 12.3699C21.7008 11.3461 21.0493 10.5085 20.2117 10.0431Z" fill="#FBBC08"/>
<path d="M0.108695 2.31787C0.015625 2.50401 0.015625 2.69015 0.015625 2.96936V21.7696C0.015625 22.0488 0.015625 22.2349 0.108695 22.4211L10.4395 12.0903L0.108695 2.31787Z" fill="#517BBD"/>
<path d="M10.159 12.3697L15.371 7.15771L4.10945 0.642789C3.73717 0.456648 3.27181 0.270508 2.71339 0.270508C1.50348 0.270508 0.386633 1.10814 0.107422 2.31806L10.159 12.3697Z" fill="#31A853"/>
</svg>
