<svg xmlns="http://www.w3.org/2000/svg" width="32" height="32" viewBox="0 0 32 32" fill="none">
  <path
    d="M8.6665 17.3337L9.71245 19.4255C10.0664 20.1335 10.2434 20.4875 10.4799 20.7943C10.6897 21.0664 10.9337 21.3105 11.2059 21.5203C11.5127 21.7567 11.8666 21.9337 12.5746 22.2877L14.6665 23.3337L12.5746 24.3796C11.8666 24.7336 11.5127 24.9106 11.2059 25.147C10.9337 25.3568 10.6897 25.6009 10.4799 25.8731C10.2434 26.1798 10.0664 26.5338 9.71245 27.2418L8.6665 29.3337L7.62056 27.2418C7.26657 26.5338 7.08958 26.1798 6.85313 25.8731C6.64331 25.6009 6.39929 25.3568 6.1271 25.147C5.82035 24.9106 5.46636 24.7336 4.75839 24.3796L2.6665 23.3337L4.75839 22.2877C5.46636 21.9337 5.82035 21.7567 6.1271 21.5203C6.39929 21.3105 6.64331 21.0664 6.85313 20.7943C7.08958 20.4875 7.26657 20.1335 7.62056 19.4255L8.6665 17.3337Z"
    stroke="#344054" stroke-width="2.23256" stroke-linecap="round" stroke-linejoin="round" />
  <path
    d="M19.9998 2.66699L21.5713 6.75288C21.9473 7.73052 22.1354 8.21934 22.4277 8.63051C22.6868 8.99493 23.0052 9.31332 23.3696 9.57244C23.7808 9.86481 24.2696 10.0528 25.2473 10.4288L29.3332 12.0003L25.2473 13.5718C24.2696 13.9478 23.7808 14.1358 23.3696 14.4282C23.0052 14.6873 22.6868 15.0057 22.4277 15.3701C22.1354 15.7813 21.9473 16.2701 21.5713 17.2478L19.9998 21.3337L18.4283 17.2478C18.0523 16.2701 17.8643 15.7813 17.572 15.3701C17.3128 15.0057 16.9944 14.6873 16.63 14.4282C16.2189 14.1358 15.73 13.9478 14.7524 13.5718L10.6665 12.0003L14.7524 10.4288C15.73 10.0528 16.2189 9.86481 16.63 9.57244C16.9944 9.31332 17.3128 8.99493 17.572 8.63051C17.8643 8.21934 18.0523 7.73052 18.4283 6.75288L19.9998 2.66699Z"
    stroke="#344054" stroke-width="2.23256" stroke-linecap="round" stroke-linejoin="round" />
</svg>