<svg xmlns="http://www.w3.org/2000/svg" width="24" height="25" viewBox="0 0 24 25" fill="none">
    <path
        d="M9 12.4648L11 14.4648L15.5 9.96484M17.9012 5.46335C18.1071 5.96138 18.5024 6.35724 19.0001 6.56392L20.7452 7.28682C21.2433 7.49313 21.639 7.88884 21.8453 8.3869C22.0516 8.88497 22.0516 9.44459 21.8453 9.94265L21.1229 11.6866C20.9165 12.1849 20.9162 12.7451 21.1236 13.2432L21.8447 14.9866C21.9469 15.2333 21.9996 15.4977 21.9996 15.7648C21.9997 16.0318 21.9471 16.2963 21.8449 16.543C21.7427 16.7897 21.5929 17.0139 21.4041 17.2027C21.2152 17.3915 20.991 17.5412 20.7443 17.6433L19.0004 18.3657C18.5023 18.5716 18.1065 18.9669 17.8998 19.4646L17.1769 21.2099C16.9706 21.7079 16.575 22.1036 16.0769 22.3099C15.5789 22.5163 15.0193 22.5163 14.5212 22.3099L12.7773 21.5876C12.2792 21.3818 11.7198 21.3822 11.2221 21.5887L9.47689 22.3106C8.97912 22.5164 8.42001 22.5163 7.92237 22.3101C7.42473 22.104 7.02925 21.7087 6.82281 21.2112L6.09972 19.4654C5.8938 18.9674 5.49854 18.5715 5.00085 18.3649L3.25566 17.642C2.75783 17.4357 2.36226 17.0403 2.15588 16.5425C1.94951 16.0447 1.94923 15.4854 2.1551 14.9874L2.87746 13.2434C3.08325 12.7453 3.08283 12.1859 2.8763 11.6881L2.15497 9.94163C2.0527 9.69494 2.00004 9.43052 2 9.16348C1.99996 8.89643 2.05253 8.63199 2.15472 8.38528C2.25691 8.13856 2.40671 7.9144 2.59557 7.7256C2.78442 7.5368 3.00862 7.38706 3.25537 7.28495L4.9993 6.56256C5.49687 6.35681 5.89248 5.96204 6.0993 5.4649L6.82218 3.71965C7.02848 3.22159 7.42418 2.82588 7.92222 2.61957C8.42027 2.41327 8.97987 2.41327 9.47792 2.61957L11.2218 3.34196C11.7199 3.54776 12.2793 3.54734 12.7771 3.34079L14.523 2.62069C15.021 2.4145 15.5804 2.41455 16.0784 2.62081C16.5763 2.82707 16.972 3.22267 17.1783 3.72061L17.9014 5.46637L17.9012 5.46335Z"
        stroke="#182230" stroke-width="2" stroke-linecap="round" stroke-linejoin="round" />
</svg>